<svg
  id="18d8a7b5-4dcb-44ae-ab64-747cf91e7f4e"
  data-name="db2854a9-97d9-4ad8-b054-e4a6488724e6"
  xmlns="http://www.w3.org/2000/svg"
  xmlns:xlink="http://www.w3.org/1999/xlink"
  viewBox="0 0 1120.9 750.8"
>
  <defs>
    <linearGradient
      id="12973c37-2682-437b-a7ae-6c71aa224b4a"
      x1="519.66"
      y1="309.07"
      x2="519.66"
      y2="639.59"
      gradientTransform="matrix(1, 0, 0, -1, 0, 736)"
      gradientUnits="userSpaceOnUse"
    >
      <stop offset="0" stop-color="#f92aff" />
      <stop offset="0.09" stop-color="#ee31ff" />
      <stop offset="0.24" stop-color="#d243ff" />
      <stop offset="0.44" stop-color="#a461ff" />
      <stop offset="0.67" stop-color="#648bff" />
      <stop offset="0.94" stop-color="#13c0ff" />
      <stop offset="1" stop-color="#0cf" />
    </linearGradient>
    <linearGradient
      id="25151fbe-4aa0-49ea-b566-e0835cb7a6c7"
      x1="400.3"
      y1="362.76"
      x2="400.3"
      y2="539.28"
      xlink:href="#12973c37-2682-437b-a7ae-6c71aa224b4a"
    />
    <linearGradient
      id="e4bd02fc-5572-447f-9901-ca5330ec353a"
      x1="484.44"
      y1="74.75"
      x2="484.44"
      y2="417.21"
      xlink:href="#12973c37-2682-437b-a7ae-6c71aa224b4a"
    />
    <linearGradient
      id="26f53fd5-22eb-4226-96e1-89c8ea8959d3"
      x1="317.89"
      y1="255.57"
      x2="369.3"
      y2="255.57"
      gradientTransform="translate(0 -16)"
      xlink:href="#12973c37-2682-437b-a7ae-6c71aa224b4a"
    />
    <linearGradient
      id="a31cb3ce-2f98-420c-b283-f0431618b739"
      x1="564.76"
      y1="244.54"
      x2="469.25"
      y2="413.42"
      gradientTransform="translate(0 -30.47)"
      gradientUnits="userSpaceOnUse"
    >
      <stop offset="0" stop-color="#0cf" />
      <stop offset="0.26" stop-color="#1ba8f6" />
      <stop offset="0.58" stop-color="#3783ed" />
      <stop offset="0.84" stop-color="#486ce7" />
      <stop offset="1" stop-color="#4e64e5" />
    </linearGradient>
    <linearGradient
      id="f5c0f4d6-fbc0-4e38-a716-840cd3eb51fc"
      x1="500.5"
      y1="187.69"
      x2="319.34"
      y2="388.2"
      gradientTransform="translate(0 -30.47)"
      gradientUnits="userSpaceOnUse"
    >
      <stop offset="0" stop-color="#0cf" />
      <stop offset="0.59" stop-color="#308bef" />
      <stop offset="1" stop-color="#4e64e5" />
    </linearGradient>
    <linearGradient
      id="717a9b28-6551-47be-bbdf-dcf550677076"
      x1="615.24"
      y1="401.97"
      x2="383.06"
      y2="647.99"
      gradientTransform="translate(0 -30.47)"
      gradientUnits="userSpaceOnUse"
    >
      <stop offset="0" stop-color="#18acf6" />
      <stop offset="0.13" stop-color="#3783ec" />
      <stop offset="0.26" stop-color="#4d65e5" />
      <stop offset="0.36" stop-color="#5a53e1" />
      <stop offset="0.44" stop-color="#5f4ddf" />
      <stop offset="0.45" stop-color="#614ade" />
      <stop offset="0.54" stop-color="#7036d9" />
      <stop offset="0.65" stop-color="#7b28d6" />
      <stop offset="0.78" stop-color="#8120d4" />
      <stop offset="1" stop-color="#831dd3" />
    </linearGradient>
  </defs>
  <path
    d="M631,197.86c-5.4,9.4-10.3,17.9-15.3,26.5l-16.8,29.1q-42.45,73.5-85,147c-4.5,7.8-9.1,15.5-13.5,23.4-1.3,2.4-2.3,2.6-4.6,1.2a62.44,62.44,0,0,0-34.3-8.8c-17.8.6-35.7,0-53.4,0-1.1-1.3,0-2.1.5-2.8q33.15-57.3,66.2-114.6,45.45-78.75,90.9-157.4a6.24,6.24,0,0,0,0-6.7,25.6,25.6,0,0,1,9-33.2,25.11,25.11,0,0,1,33.3,5.1,24.28,24.28,0,0,1,3.9,26.7,23.61,23.61,0,0,1-21.7,15.2,7.08,7.08,0,0,0-6.7,4.3c-7.7,13.8-15.6,27.4-23.6,41-1.8,3.2-1.3,3.8,2.2,3.8h63.2Zm-32.8-74.5a9.75,9.75,0,1,0-19.5-.3,9.9,9.9,0,0,0,9.6,10.1h.2a9.57,9.57,0,0,0,9.6-9.5c.12-.2.12-.2.12-.3Z"
    style="
      stroke-miterlimit: 10;
      stroke-width: 2px;
      stroke: url(#12973c37-2682-437b-a7ae-6c71aa224b4a);
    "
  />
  <path
    d="M450.12,197.86h54.8c3.6,0,3.8.8,2.1,3.8-14,23.9-28.3,47.8-41.4,71.8-4,7.3-8.3,9.2-16.2,9.1-26.2-.5-52.3,0-78.5-.3a5.39,5.39,0,0,0-5.6,3.2q-12,21.6-24.6,42.8a5.74,5.74,0,0,0,0,6.4,24.44,24.44,0,0,1-2.2,26.9,23.54,23.54,0,0,1-25.7,9.9,24.44,24.44,0,0,1-19.6-19.1,25.48,25.48,0,0,1,18.9-30.6,27.24,27.24,0,0,1,5-.7,5.39,5.39,0,0,0,5.4-3.2q33.45-58.2,67-116.4a6.44,6.44,0,0,1,6.6-3.7C414.12,198.06,432.12,197.86,450.12,197.86Zm-131.8,158.4a9.6,9.6,0,0,0,9.6-9.6h0a9.44,9.44,0,0,0-9.07-9.8h-.93a9.57,9.57,0,0,0-9.6,9.5v.4a9.52,9.52,0,0,0,9.64,9.4h0A.37.37,0,0,0,318.32,356.26Z"
    style="
      stroke-miterlimit: 10;
      stroke-width: 2px;
      stroke: url(#25151fbe-4aa0-49ea-b566-e0835cb7a6c7);
    "
  />
  <path
    d="M673.72,336.26a26,26,0,0,0-33.6-14.7c-.2.1-.4.1-.5.2a25.5,25.5,0,0,0-13.5,33.4,11.94,11.94,0,0,0,.8,1.6,6.05,6.05,0,0,1-.2,6.7c-8.8,15.2-17.5,30.3-26.3,45.5-.6,1-.7,2.5-2.4,2.9l-2.6-4.1a163.32,163.32,0,0,0-35-39.6c-1.8-1.4-2.8-2.1-4.2.5-13.2,23-26.4,46.1-39.7,69-.7,1.2-1.1,2.1,0,3.4a82.59,82.59,0,0,1,21.6,53.6c-.3,3.8-.4,7.6-.8,11.3-4.1,39.6-42,72.3-81.7,71-37.1-1.3-68-24.6-77.3-61.6-.5-2.2-1.3-3.2-3.7-3.2h-78.1c-2.9,0-3.2,1-3,3.6a164.18,164.18,0,0,0,182.6,143.3c.5-.1,1.1-.1,1.6-.2A164.35,164.35,0,0,0,615,540.26a157.05,157.05,0,0,0,2.7-77.6c-11.8,20.7-23,40.3-34.1,59.9-.9.4-.9,1.9-2.2,1.9H558.1l8.2-14.8c.8-1.2,1.7-2.4,2.4-3.6q38.25-65.85,76-131.6a6.44,6.44,0,0,1,6.1-3.8,25.47,25.47,0,0,0,24.6-26.3A31.57,31.57,0,0,0,673.72,336.26Zm-23.9,18.9a9.53,9.53,0,0,1-9.8-9.23v-.87a9.94,9.94,0,0,1,9.6-9.6,9.82,9.82,0,0,1,9.4,10.2A10,10,0,0,1,649.82,355.16Z"
    style="
      stroke-miterlimit: 10;
      stroke-width: 2px;
      stroke: url(#e4bd02fc-5572-447f-9901-ca5330ec353a);
    "
  />
  <path
    d="M367.62,198.26c-16.1,27.9-32,55.3-47.8,82.8-1.4-.5-.8-1.5-.8-2.3v-76.7c0-3.2.6-4.3,4-4.2,13.6.2,27.2,0,40.7,0C364.72,197.86,365.82,198.16,367.62,198.26Z"
    style="
      stroke-miterlimit: 10;
      stroke-width: 2px;
      stroke: url(#26f53fd5-22eb-4226-96e1-89c8ea8959d3);
    "
  />
  <path
    d="M570.46,144.1c-30.25,52.15-61,105.45-90.68,157-11,19.09-22.25,38.5-33.13,57.27-9.88,17-20.06,34.6-30.08,52l9.5.1c5.83.07,11.86.14,17.77.14,6.6,0,12.37-.09,17.64-.28h1.85A69.64,69.64,0,0,1,497,418.91c3.23-6.05,6.75-12.06,10.17-17.88.78-1.32,1.55-2.64,2.31-3.94l79.65-137.65,5.37-9.28,16.86-28.91c3.35-6,6.84-12,10.5-18.25H562c-1.77,0-5.92,0-7.91-3.52s.07-7,1-8.52c7.79-13.39,15.84-27.23,23.44-40.83a12.87,12.87,0,0,1,11.4-7,18.88,18.88,0,0,0,16.68-11.81l.06-.15.07-.15a18.84,18.84,0,0,0-2.9-20.75l-.11-.12-.11-.13a19.32,19.32,0,0,0-15.09-7.13,19.84,19.84,0,0,0-10.81,3.2h0a19.78,19.78,0,0,0-7.08,25.77A11.74,11.74,0,0,1,570.46,144.1Zm18.59-36.29a15.19,15.19,0,0,1,15,15.31v.14h0a15.18,15.18,0,0,1-15,15.17h-.64a15.66,15.66,0,0,1-14.69-15.62A15.19,15.19,0,0,1,589.05,107.81Z"
    style="fill: url(#a31cb3ce-2f98-420c-b283-f0431618b739)"
  />
  <path
    d="M314,365.54h.33a19,19,0,0,0,4.74.61,17.63,17.63,0,0,0,15.07-8.09l.16-.25.18-.23A18.64,18.64,0,0,0,336.3,337a11.3,11.3,0,0,1,0-12c9.06-15.3,17-29.11,24.28-42.19a11,11,0,0,1,9.92-6.23,6.7,6.7,0,0,1,1,.05c5.29.07,10.88.09,17.57.09h31.78c11.63,0,20.58.09,29,.3,6.31,0,8.46-1.22,11.4-6.41,10.77-19.93,22.54-39.9,33.93-59.21q2.49-4.2,5-8.4H450.53c-6,0-12.16,0-18.08.07s-12,.07-18,.07c-6.76,0-12.71,0-18.17-.14h-.66a1.33,1.33,0,0,0-1.08.84l-.07.15-.08.14C372.13,242.6,349.52,282,327.65,320a10.64,10.64,0,0,1-9.6,6.2,6.7,6.7,0,0,1-1-.05,22.43,22.43,0,0,0-3.65.51,20,20,0,0,0-15,24v0h0A19.41,19.41,0,0,0,314,365.54Zm-11-19.46a14.84,14.84,0,0,1,14.68-15h1.59c8.49.5,14.77,7.27,14.38,15.46a14.85,14.85,0,0,1-14.86,14.84H318a15,15,0,0,1-15-15Z"
    style="fill: url(#f5c0f4d6-fbc0-4e38-a716-840cd3eb51fc)"
  />
  <path
    d="M650,325a20,20,0,0,0-6.81,1.17l-.06.06-1,.42a19.61,19.61,0,0,0-10.72,25.58h0l.18.42v.09a8.25,8.25,0,0,1,.87,2,11.27,11.27,0,0,1-1,11.61c-4.4,7.53-8.78,15.1-13,22.43s-8.76,15.1-13.22,22.74h0a.87.87,0,0,1-.07.17,7.79,7.79,0,0,1-5.78,5.25l-3.73.75-2-3.24-2.52-4.09a160.48,160.48,0,0,0-31.45-36.12c-12.87,22.56-25.45,44.36-37.43,64.88A88.73,88.73,0,0,1,544,494.44v.62c-.1,1.2-.17,2.4-.24,3.67a75,75,0,0,1-.74,8.06c-4.41,41.05-43.3,75.69-85,75.69H455.6c-40.18-1.37-72.36-26.67-82.27-64.56h-73.9a158.67,158.67,0,0,0,157,136.88,160.47,160.47,0,0,0,19.23-1.15H476l.32-.16.92-.11a158.25,158.25,0,0,0,132.68-114.7v-.06a151.46,151.46,0,0,0,5-60.11q-2.19,3.87-4.37,7.69c-7.63,13.42-14.83,26.09-22.16,38.85l-1,1.8-.61.2a6.56,6.56,0,0,1-5.32,2.64h-32.6l4.6-8.13,8.28-14.63.18-.31.21-.28q.63-.88,1.17-1.83c.25-.41.5-.84.78-1.27,25-43,50.81-87.53,75.89-131a12.33,12.33,0,0,1,10.84-6.77,19.41,19.41,0,0,0,13.83-6.21A19.75,19.75,0,0,0,670,344.77V344a13.29,13.29,0,0,0-1-6.13A20.34,20.34,0,0,0,650,325Zm14.92,20.32v.17a15.32,15.32,0,0,1-14.34,14.64h-.34a15.33,15.33,0,0,1-15.32-14.33v-1.64a15.69,15.69,0,0,1,14.66-14.64h.66a15.64,15.64,0,0,1,14.69,15.62Z"
    style="fill: url(#717a9b28-6551-47be-bbdf-dcf550677076)"
  />
  <path
    d="M355.82,204.1l-7.45.06c-4.06,0-8.26.07-12.41.07s-7.83,0-11.26-.11v58.69c9.53-18.11,19.14-36.17,29.17-55.05Z"
    style="fill: #318bee"
  />
  <text
    transform="translate(134 417)"
    style="
      font-size: 36px;
      fill: #910acf;
      font-family: Arial-BoldMT, Arial;
      font-weight: 700;
    "
  >
    SOLUTIONS
  </text>
  <text
    transform="translate(689.97 328)"
    style="
      font-size: 36px;
      fill: #910acf;
      font-family: Arial-BoldMT, Arial;
      font-weight: 700;
    "
  >
    PERFORMANCES
  </text>
  <text
    transform="translate(633.41 105)"
    style="
      font-size: 36px;
      fill: #910acf;
      font-family: Arial-BoldMT, Arial;
      font-weight: 700;
    "
  >
    APPROACH
  </text>
</svg>
