<svg
        id="2b74b0eb-4781-41b1-87a4-067fad29334e"
        data-name="Layer 1"
        xmlns="http://www.w3.org/2000/svg"
        xmlns:xlink="http://www.w3.org/1999/xlink"
        viewBox="0 0 1366 768"
      >
        <defs>
          <clipPath id="6eb3580b-1e08-4198-a531-e077f9cfa630">
            <rect
              x="665.18"
              y="126.66"
              width="630.13"
              height="629.42"
              style="fill: none"
            />
          </clipPath>
          <clipPath id="4e93b3c7-efbe-479d-a4a7-7e16ed92c096">
            <path
              d="M944.9,162l-4.61.12-4.62.13c-1.53.06-3.07,0-4.6.2l-9.2.72-2.3.18-1.15.09-1.15.15-4.58.59c-3,.41-6.1.74-9.14,1.22L894.47,167c-1.51.29-3,.51-4.53.86l-4.5,1.05c-3,.71-6,1.36-9,2.13l-8.87,2.54c-1.47.44-3,.81-4.42,1.31l-4.37,1.49-4.36,1.49-2.19.74c-.73.24-1.45.5-2.16.8l-8.58,3.4c-2.88,1.08-5.66,2.4-8.46,3.67l-4.2,1.91c-1.39.64-2.81,1.24-4.16,2l-8.2,4.22-2,1.07c-.68.35-1.33.76-2,1.14l-4,2.33a280.63,280.63,0,0,0-58.1,45l-6.31,6.7c-1,1.12-2.12,2.22-3.14,3.36l-3,3.5c-2,2.34-4,4.63-5.94,7L726.36,272c-1.92,2.39-3.62,4.95-5.37,7.46l-2.63,3.77c-.87,1.26-1.76,2.51-2.55,3.82l-4.88,7.79-1.21,1.94-1.13,2-2.25,4a273.11,273.11,0,0,0-27,68c-.72,3-1.3,6-2,8.94l-1,4.47c-.32,1.49-.51,3-.78,4.51l-1.47,9c-.14.75-.22,1.5-.3,2.26l-.26,2.27-.51,4.54-.5,4.54-.13,1.14-.07,1.14-.14,2.28L671.7,425c-.12,1.52-.09,3-.12,4.56l-.05,4.56,0,4.56c0,.76,0,1.52,0,2.28l.08,2.28a271.6,271.6,0,0,0,11.55,71.64A268.89,268.89,0,0,0,696,548.71a271.8,271.8,0,0,0,17.35,31.65l.67-.4A269.6,269.6,0,0,1,675.7,443.18l0-2.24c0-.75,0-1.5,0-2.25l.12-4.48.12-4.49c0-1.5,0-3,.19-4.49l.68-9L677,414l.09-1.12.14-1.12.57-4.45.57-4.45.29-2.23c.09-.74.18-1.49.33-2.22l1.58-8.84c.28-1.47.49-3,.83-4.41l1-4.38c.69-2.91,1.31-5.84,2.06-8.74a270.83,270.83,0,0,1,27.22-66.24A270.15,270.15,0,0,1,812.14,205.55a270.42,270.42,0,0,1,66.24-27.1c2.9-.74,5.83-1.36,8.74-2l4.37-1c1.46-.34,2.94-.55,4.41-.83l8.84-1.57c3-.46,5.93-.77,8.89-1.17l4.45-.56,1.12-.14,1.12-.08,2.23-.17,9-.67c1.49-.15,3-.13,4.48-.18l4.49-.11,4.48-.12c.75,0,1.5-.05,2.24,0l2.25,0a269.82,269.82,0,0,1,70.85,10.05,265.07,265.07,0,0,1,33.82,11.93l8.18,3.69,2,.92,2,1,4,2,4,2c.66.35,1.34.66,2,1l1.94,1.11,7.79,4.47a271.49,271.49,0,0,1,120.45,311,269.74,269.74,0,0,1-29.57,65.27l.66.42a263.39,263.39,0,0,0,31.46-64.92,272.23,272.23,0,0,0,13-71.4,298.08,298.08,0,0,0-.78-36.47l-1-9.08-.52-4.54-.74-4.52-1.48-9-1.93-8.94-1-4.48-1.18-4.42c-.8-2.95-1.58-5.91-2.41-8.85l-2.84-8.71c-.48-1.45-.93-2.91-1.44-4.35l-1.64-4.28c-1.1-2.85-2.15-5.73-3.3-8.56l-3.69-8.4-.93-2.1c-.3-.7-.61-1.41-1-2.08l-2.05-4.11-2-4.11c-.7-1.36-1.33-2.76-2.1-4.08-3-5.32-5.89-10.74-9.25-15.87l-2.44-3.89-1.22-1.95c-.42-.64-.87-1.26-1.3-1.89l-5.25-7.55c-.44-.62-.87-1.26-1.32-1.88l-1.4-1.82L1165,268.9c-1.89-2.41-3.71-4.88-5.75-7.17l-6-7-.75-.87-.78-.84-1.58-1.67L1147,248l-3.16-3.35c-1-1.12-2.19-2.15-3.28-3.22l-6.63-6.4L1127,229c-1.15-1-2.3-2-3.47-3l-3.6-2.87c-2.41-1.9-4.78-3.84-7.23-5.71l-7.47-5.38-1.87-1.35-.93-.67-1-.63-3.86-2.51-3.87-2.52c-1.29-.83-2.56-1.7-3.9-2.44-5.32-3.08-10.56-6.31-16.09-9l-4.1-2.11-2.05-1.06-2.1-.95-8.4-3.82a273.75,273.75,0,0,0-34.74-12.36A277.33,277.33,0,0,0,949.51,162L947.2,162h-.33c-.66,0-1.31,0-2,.05"
              style="fill: none"
            />
          </clipPath>
          <linearGradient
            id="40e77b1a-235c-4e6f-8af2-ae24872d0ce9"
            x1="-275.88"
            y1="925"
            x2="-275.17"
            y2="925"
            gradientTransform="matrix(774.46, 0, 0, -774.46, 214330.74, 716741.86)"
            gradientUnits="userSpaceOnUse"
          >
            <stop offset="0" stop-color="#1b28ff" />
            <stop offset="1" stop-color="#a6057e" />
          </linearGradient>
          <clipPath id="c1151620-2189-411d-a652-c994533adb7d">
            <rect
              x="662.34"
              y="120.97"
              width="588.88"
              height="465.84"
              style="fill: none"
            />
          </clipPath>
          <clipPath id="22647b93-fcb5-40a3-b7d5-05efe8733964">
            <rect
              x="742.76"
              y="373.87"
              width="163.58"
              height="104.55"
              style="fill: none"
            />
          </clipPath>
          <clipPath id="a4a332d0-4d60-48f2-9f9e-fa9c6b90f5c3">
            <rect
              x="742.76"
              y="373.87"
              width="163.58"
              height="104.55"
              style="fill: none"
            />
          </clipPath>
          <clipPath id="aee83b32-8d98-477c-893d-0c016c0fc7ef">
            <rect
              x="908.47"
              y="223.81"
              width="88.9"
              height="169.27"
              style="fill: none"
            />
          </clipPath>
          <clipPath id="dec3b10e-95da-4585-b0f7-401a1d75f83e">
            <rect
              x="908.47"
              y="223.81"
              width="88.9"
              height="169.27"
              style="fill: none"
            />
          </clipPath>
          <clipPath id="91c4f381-29d6-4856-86b8-bc6a8dab0637">
            <rect
              x="818.15"
              y="466.33"
              width="138.69"
              height="177.8"
              style="fill: none"
            />
          </clipPath>
          <clipPath id="73a5d7cd-341d-40a0-9180-7589e561e5e8">
            <rect
              x="818.15"
              y="466.33"
              width="138.69"
              height="177.8"
              style="fill: none"
            />
          </clipPath>
        </defs>
        <g style="opacity: 0.199996992945671">
          <g style="clip-path: url(#6eb3580b-1e08-4198-a531-e077f9cfa630)">
            <g style="clip-path: url(#6eb3580b-1e08-4198-a531-e077f9cfa630)">
              <image
                width="886"
                height="885"
                transform="translate(665.18 126.66) scale(0.71)"
                xlink:href="portfolio-allocation1.png"
              />
            </g>
          </g>
        </g>
        <g style="clip-path: url(#4e93b3c7-efbe-479d-a4a7-7e16ed92c096)">
          <rect
            x="671.45"
            y="161.94"
            width="551.15"
            height="422.87"
            style="fill: url(#40e77b1a-235c-4e6f-8af2-ae24872d0ce9)"
          />
        </g>
        <g style="clip-path: url(#c1151620-2189-411d-a652-c994533adb7d)">
          <image
            width="828"
            height="655"
            transform="translate(662.34 120.97) scale(0.71)"
            xlink:href="portfolio-allocation2.png"
          />
        </g>
        <path
          d="M1095.05,367l-97.21,28.84a69.64,69.64,0,0,0-43.24-30.17l-.86-.19-1.39-.28a69.63,69.63,0,0,0-65.91,113.64L833.77,534.4c-.4-.36-.8-.74-1.19-1.11A160.21,160.21,0,1,1,1095.05,367"
          style="fill: #4255ff"
        />
        <g style="opacity: 0.5">
          <g style="clip-path: url(#22647b93-fcb5-40a3-b7d5-05efe8733964)">
            <g style="clip-path: url(#a4a332d0-4d60-48f2-9f9e-fa9c6b90f5c3)">
              <image
                width="230"
                height="147"
                transform="translate(742.76 373.87) scale(0.71 0.71)"
                xlink:href="portfolio-allocation3.png"
              />
            </g>
          </g>
        </g>
        <g style="opacity: 0.5">
          <g style="clip-path: url(#aee83b32-8d98-477c-893d-0c016c0fc7ef)">
            <g style="clip-path: url(#dec3b10e-95da-4585-b0f7-401a1d75f83e)">
              <image
                width="125"
                height="238"
                transform="translate(908.47 223.81) scale(0.71)"
                xlink:href="portfolio-allocation4.png"
              />
            </g>
          </g>
        </g>
        <path
          d="M1005.36,629.37c-57.17,19.56-98.48-5.67-147.78-32.24a207.52,207.52,0,0,1-98.17-115.88c-11.58-33.85-13.94-62.93-8.41-95.91l118.86,39.78a68.47,68.47,0,1,0,132.88-14.94c-.23-.67-.48-1.33-.72-2l132.27-45.25c.24.66.47,1.33.7,2,37.23,108.82-20.81,227.21-129.63,264.43"
          style="fill: #4255ff"
        />
        <g style="opacity: 0.5">
          <g style="clip-path: url(#91c4f381-29d6-4856-86b8-bc6a8dab0637)">
            <g style="clip-path: url(#73a5d7cd-341d-40a0-9180-7589e561e5e8)">
              <image
                width="195"
                height="250"
                transform="translate(818.15 466.33) scale(0.71)"
                xlink:href="portfolio-allocation5.png"
              />
            </g>
          </g>
        </g>
        <path
          d="M1146.19,432.17c0,115-93.23,208.24-208.24,208.24a207.18,207.18,0,0,1-98.86-24.92l70-121.22A68.47,68.47,0,1,0,938,363.71c-.71,0-1.42,0-2.12,0V223.94H938c115,0,208.24,93.23,208.24,208.24"
          style="fill: #4255ff"
        />
        <polyline
          points="639.25 0.24 639.98 126.04 460.43 126.04 366.96 219.51 225.99 219.51 225.99 317.02 319.77 408.51 319.77 768"
          style="
            fill: none;
            stroke: #0695c9;
            stroke-miterlimit: 10;
            stroke-width: 3px;
          "
        />
        <polyline
          points="1025.05 308.44 1057.06 273.17 1176.9 273.17"
          style="
            fill: none;
            stroke: #eff0f0;
            stroke-miterlimit: 10;
            stroke-width: 2px;
          "
        />
        <circle cx="1024.94" cy="308.44" r="4.62" style="fill: #eee" />
        <circle
          cx="1024.94"
          cy="308.44"
          r="5.99"
          style="fill: none; stroke: #eee; stroke-miterlimit: 10"
        />
        <polyline
          points="859.58 314.84 827.57 279.57 707.74 279.57"
          style="
            fill: none;
            stroke: #eff0f0;
            stroke-miterlimit: 10;
            stroke-width: 2px;
          "
        />
        <circle cx="859.7" cy="314.84" r="4.62" style="fill: #eee" />
        <circle
          cx="859.7"
          cy="314.84"
          r="5.99"
          style="fill: none; stroke: #eee; stroke-miterlimit: 10"
        />
        <polyline
          points="815.48 500.64 783.48 535.91 697.78 535.91"
          style="
            fill: none;
            stroke: #eff0f0;
            stroke-miterlimit: 10;
            stroke-width: 2px;
          "
        />
        <circle cx="815.6" cy="500.64" r="4.62" style="fill: #eee" />
        <circle
          cx="815.6"
          cy="500.64"
          r="5.99"
          style="fill: none; stroke: #eee; stroke-miterlimit: 10"
        />
        <text
          transform="translate(654.39 222.53)"
          style="font-size: 48px; fill: #fff; font-family: ArialMT, Arial"
        >
          20%
        </text>
        <text
          transform="translate(659.54 254.89)"
          style="font-size: 18px; fill: #fff; font-family: ArialMT, Arial"
        >
          LENDING
        </text>
        <text
          transform="translate(1198.19 284.94)"
          style="font-size: 48px; fill: #fff; font-family: ArialMT, Arial"
        >
          65%
        </text>
        <text
          transform="translate(1195.05 316.35)"
          style="font-size: 18px; fill: #fff; font-family: ArialMT, Arial"
        >
          YIELD FARMING
        </text>
        <text
          transform="translate(590.38 549.32)"
          style="font-size: 48px; fill: #fff; font-family: ArialMT, Arial"
        >
          15%
        </text>
        <text
          transform="translate(591.27 579.31)"
          style="font-size: 18px; fill: #fff; font-family: ArialMT, Arial"
        >
          SEEDFUNDING
        </text>
        <text
          transform="translate(292.99 293.16)"
          style="
            font-size: 36px;
            fill: #fff;
            font-family: Arial-BoldMT, Arial;
            font-weight: 700;
          "
        >
          <tspan x="0">PORTFOLIO</tspan>
          <tspan x="0" dy="40px">ALLOCATION</tspan>
        </text>
      </svg>