<svg
        id="d2bc031f-1026-4185-bc7a-ba2c732eec68"
        data-name="Layer 1"
        xmlns="http://www.w3.org/2000/svg"
        viewBox="0 0 1366 768"
      >        
        <polygon
          points="698.93 659.89 962.88 202.71 434.97 202.71 698.93 659.89"
          style="
            fill: none;
            stroke: #2bd4f6;
            stroke-miterlimit: 10;
            stroke-width: 16px;
          "
        />
        <polygon
          points="698.93 659.15 965.02 202.87 432.83 202.87 698.93 659.15"
          style="
            fill: none;
            stroke: #f9f9f9;
            stroke-miterlimit: 10;
            stroke-width: 9px;
          "
        />
        <polygon
          points="697.59 544.4 865.98 252.74 529.2 252.74 697.59 544.4"
          style="
            fill: none;
            stroke: #bb1cff;
            stroke-miterlimit: 10;
            stroke-width: 11px;
          "
        />
        <polygon
          points="697.59 543.63 865.13 252.56 530.05 252.56 697.59 543.63"
          style="
            fill: none;
            stroke: #f9f9f9;
            stroke-miterlimit: 10;
            stroke-width: 5px;
          "
        />
        <polyline
          points="296.81 434.36 296.81 394.44 335.71 394.44"
          style="fill: none; stroke: #064764; stroke-miterlimit: 10"
        />
        <line
          x1="346.77"
          y1="390.53"
          x2="338.05"
          y2="399.24"
          style="
            fill: none;
            stroke: #064764;
            stroke-miterlimit: 10;
            stroke-width: 2px;
          "
        />
        <line
          x1="342.41"
          y1="390.53"
          x2="337.77"
          y2="395.17"
          style="
            fill: none;
            stroke: #064764;
            stroke-miterlimit: 10;
            stroke-width: 2px;
          "
        />
        <line
          x1="346.41"
          y1="394.53"
          x2="341.77"
          y2="399.17"
          style="
            fill: none;
            stroke: #064764;
            stroke-miterlimit: 10;
            stroke-width: 2px;
          "
        />
        <line
          x1="339.38"
          y1="390.53"
          x2="337.41"
          y2="392.49"
          style="
            fill: none;
            stroke: #064764;
            stroke-miterlimit: 10;
            stroke-width: 2px;
          "
        />
        <line
          x1="346.38"
          y1="397.53"
          x2="344.41"
          y2="399.49"
          style="
            fill: none;
            stroke: #064764;
            stroke-miterlimit: 10;
            stroke-width: 2px;
          "
        />
        <line
          x1="1051.24"
          y1="439.36"
          x2="1051.24"
          y2="399.44"
          style="fill: none; stroke: #064764; stroke-miterlimit: 10"
        />
        <line
          x1="1055.92"
          y1="389.44"
          x2="1047.2"
          y2="398.16"
          style="
            fill: none;
            stroke: #064764;
            stroke-miterlimit: 10;
            stroke-width: 2px;
          "
        />
        <line
          x1="1051.56"
          y1="389.44"
          x2="1046.92"
          y2="394.08"
          style="
            fill: none;
            stroke: #064764;
            stroke-miterlimit: 10;
            stroke-width: 2px;
          "
        />
        <line
          x1="1055.56"
          y1="393.44"
          x2="1050.92"
          y2="398.08"
          style="
            fill: none;
            stroke: #064764;
            stroke-miterlimit: 10;
            stroke-width: 2px;
          "
        />
        <line
          x1="1048.53"
          y1="389.44"
          x2="1046.56"
          y2="391.41"
          style="
            fill: none;
            stroke: #064764;
            stroke-miterlimit: 10;
            stroke-width: 2px;
          "
        />
        <line
          x1="1055.53"
          y1="396.44"
          x2="1053.56"
          y2="398.41"
          style="
            fill: none;
            stroke: #064764;
            stroke-miterlimit: 10;
            stroke-width: 2px;
          "
        />
        <g style="opacity: 0.3000029921531677">
          <polygon
            points="398.5 616.38 180.6 616.38 167.6 602.74 167.6 464.04 180.6 450.02 398.5 450.02 411.5 465.56 411.5 602.74 398.5 616.38"
            style="fill: #064764"
          />
        </g>
        <polyline
          points="215.46 437.52 167.6 437.52 154.07 450.02 154.07 616.38 168.04 630.34 414.03 630.34"
          style="fill: none; stroke: #064764; stroke-miterlimit: 10"
        />
        <polyline
          points="366.28 443.58 414.03 443.58 418.2 448.13 418.2 460.25"
          style="fill: none; stroke: #064764; stroke-miterlimit: 10"
        />
        <polyline
          points="371.21 437.52 418.2 437.52 432.83 451.92 432.83 467.07"
          style="fill: none; stroke: #064764; stroke-miterlimit: 10"
        />
        <polygon
          points="430.41 611.38 426.94 616.38 426.94 451.92 430.41 456.92 430.41 611.38"
          style="fill: #062130"
        />
        <polyline
          points="294.79 624.84 406.96 624.84 420.6 613.22 420.6 542.99 426.66 537.94 426.66 616.38 418.2 624.84"
          style="fill: none; stroke: #064764; stroke-miterlimit: 10"
        />
        <polyline
          points="432.83 533.2 432.83 616.38 418.2 630.34"
          style="fill: none; stroke: #064764; stroke-miterlimit: 10"
        />
        <line
          x1="294.79"
          y1="441.94"
          x2="280.14"
          y2="457.09"
          style="fill: none; stroke: #064764; stroke-miterlimit: 10"
        />
        <line
          x1="301.79"
          y1="441.94"
          x2="287.14"
          y2="457.09"
          style="fill: none; stroke: #064764; stroke-miterlimit: 10"
        />
        <line
          x1="308.79"
          y1="441.94"
          x2="294.14"
          y2="457.09"
          style="fill: none; stroke: #064764; stroke-miterlimit: 10"
        />
        <text
          transform="translate(185 500)"
          style="font-size: 18px; fill: #fff; font-family: ArialMT, Arial"
        >
          <tspan x="0">WE MANAGE RISKS FOR</tspan>
          <tspan x="0" dy="20px">CLIENTS WITH OUR</tspan>
          <tspan x="0" dy="20px">SECURITY PROTOCOLS</tspan>
          <tspan x="0" dy="20px">AND OUR IN-HOUSE</tspan>
          <tspan x="0" dy="20px">AUDITING TEAM</tspan>
          <tspan x="0" dy="20px"></tspan>
          <tspan x="0" dy="20px"></tspan>
        </text>
        <g style="opacity: 0.3000029921531677">
          <polygon
            points="1152.59 630.38 934.69 630.38 921.69 616.74 921.69 478.04 934.69 464.02 1152.59 464.02 1165.59 479.56 1165.59 616.74 1152.59 630.38"
            style="fill: #064764"
          />
        </g>
        <polyline
          points="969.55 451.52 921.69 451.52 908.16 464.02 908.16 630.38 922.13 644.34 1168.12 644.34"
          style="fill: none; stroke: #064764; stroke-miterlimit: 10"
        />
        <polyline
          points="1120.38 457.58 1168.12 457.58 1172.29 462.13 1172.29 474.25"
          style="fill: none; stroke: #064764; stroke-miterlimit: 10"
        />
        <polyline
          points="1125.3 451.52 1172.29 451.52 1186.92 465.92 1186.92 481.07"
          style="fill: none; stroke: #064764; stroke-miterlimit: 10"
        />
        <polygon
          points="1184.5 625.38 1181.03 630.38 1181.03 465.92 1184.5 470.92 1184.5 625.38"
          style="fill: #062130"
        />
        <polyline
          points="1048.88 638.84 1161.05 638.84 1174.69 627.22 1174.69 556.99 1180.76 551.94 1180.76 630.38 1172.29 638.84"
          style="fill: none; stroke: #064764; stroke-miterlimit: 10"
        />
        <polyline
          points="1186.92 547.2 1186.92 630.38 1172.29 644.34"
          style="fill: none; stroke: #064764; stroke-miterlimit: 10"
        />
        <line
          x1="1048.88"
          y1="455.94"
          x2="1034.23"
          y2="471.09"
          style="fill: none; stroke: #064764; stroke-miterlimit: 10"
        />
        <line
          x1="1055.88"
          y1="455.94"
          x2="1041.23"
          y2="471.09"
          style="fill: none; stroke: #064764; stroke-miterlimit: 10"
        />
        <line
          x1="1062.88"
          y1="455.94"
          x2="1048.23"
          y2="471.09"
          style="fill: none; stroke: #064764; stroke-miterlimit: 10"
        />
        <text
          transform="translate(945 505)"
          style="font-size: 18px; fill: #fff; font-family: ArialMT, Arial"
        >
          <tspan x="0">WE ARE ABLE</tspan>
          <tspan x="0" dy="20px">EFFICIENTLY DEPLOY</tspan>
          <tspan x="0" dy="20px">CAPITAL TO MAXIMISE</tspan>
          <tspan x="0" dy="20px">TO RETURNS IN A</tspan>
          <tspan x="0" dy="20px">SCALABLE COST-</tspan>
          <tspan x="0" dy="20px">EFFICIENT MANNER</tspan>
        </text>
        <g style="opacity: 0.3000029921531677">
          <polygon
            points="1228.06 287.1 1010.16 287.1 997.16 273.45 997.16 134.76 1010.16 120.74 1228.06 120.74 1241.06 136.28 1241.06 273.45 1228.06 287.1"
            style="fill: #064764"
          />
        </g>
        <polyline
          points="1045.03 108.23 997.16 108.23 983.64 120.74 983.64 287.1 997.6 301.06 1243.6 301.06"
          style="fill: none; stroke: #064764; stroke-miterlimit: 10"
        />
        <polyline
          points="1195.85 114.3 1243.6 114.3 1247.77 118.84 1247.77 130.97"
          style="fill: none; stroke: #064764; stroke-miterlimit: 10"
        />
        <polyline
          points="1200.78 108.23 1247.76 108.23 1262.4 122.63 1262.4 137.79"
          style="fill: none; stroke: #064764; stroke-miterlimit: 10"
        />
        <polygon
          points="1259.97 282.1 1256.5 287.1 1256.5 122.63 1259.97 127.63 1259.97 282.1"
          style="fill: #062130"
        />
        <polyline
          points="1124.35 295.56 1236.52 295.56 1250.16 283.94 1250.16 213.71 1256.23 208.66 1256.23 287.1 1247.76 295.56"
          style="fill: none; stroke: #064764; stroke-miterlimit: 10"
        />
        <polyline
          points="1262.4 203.92 1262.4 287.1 1247.76 301.06"
          style="fill: none; stroke: #064764; stroke-miterlimit: 10"
        />
        <line
          x1="1124.35"
          y1="112.65"
          x2="1109.7"
          y2="127.81"
          style="fill: none; stroke: #064764; stroke-miterlimit: 10"
        />
        <line
          x1="1131.35"
          y1="112.65"
          x2="1116.7"
          y2="127.81"
          style="fill: none; stroke: #064764; stroke-miterlimit: 10"
        />
        <line
          x1="1138.35"
          y1="112.65"
          x2="1123.7"
          y2="127.81"
          style="fill: none; stroke: #064764; stroke-miterlimit: 10"
        />
        <text
          transform="translate(1020 170)"
          style="
            font-size: 18px;
            fill: #fff;
            font-family: ArialMT, Arial
          "
        >
          <tspan X="0">WE OFFER CLIENTS A</tspan>
          <tspan x="0" dy="20px">SIMPLE AND SMOOTH</tspan>
          <tspan x="0" dy="20px">TRANSITION TO</tspan>
          <tspan x="0" dy="20px">PARTICIPATE IN</tspan>
          <tspan x="0" dy="20px">THE DEFI SPACE</tspan>
          <tspan x="0" dy="20px"></tspan>
        </text>
        <text
          transform="translate(356.79 403.23)"
          style="
            isolation: isolate;
            font-size: 22px;
            fill: #fff;
            font-family: Arial-BoldMT, Arial;
            font-weight: 700;
            letter-spacing: 5px;
          "
        >
          SECURE
        </text>
        <text
          transform="translate(637.19 159.9)"
          style="
            isolation: isolate;
            font-size: 22px;
            fill: #fff;
            font-family: Arial-BoldMT, Arial;
            font-weight: 700;
            letter-spacing: 5px;
          "
        >
          SEAMLESS
        </text>
        <text
          transform="translate(903.62 402.33)"
          style="
            isolation: isolate;
            font-size: 22px;
            fill: #fff;
            font-family: Arial-BoldMT, Arial;
            font-weight: 700;
            letter-spacing: 5px;
          "
        >
          SCALABLE
        </text>
        <text
          transform="matrix(1, 0.01, -0.01, 1, 580, 300)"
          style="
            font-size: 36px;
            fill: #fff;
            font-family: Arial-BoldMT, Arial;
            letter-spacing: 5px;
          "
        >
          APPROACH
        </text>
        <line
          x1="724.5"
          y1="122.44"
          x2="983"
          y2="122.44"
          style="fill: none; stroke: #064764; stroke-miterlimit: 10"
        />
        <line
          x1="722.77"
          y1="118.53"
          x2="714.05"
          y2="127.24"
          style="
            fill: none;
            stroke: #064764;
            stroke-miterlimit: 10;
            stroke-width: 2px;
          "
        />
        <line
          x1="718.41"
          y1="118.53"
          x2="713.77"
          y2="123.17"
          style="
            fill: none;
            stroke: #064764;
            stroke-miterlimit: 10;
            stroke-width: 2px;
          "
        />
        <line
          x1="722.41"
          y1="122.53"
          x2="717.77"
          y2="127.17"
          style="
            fill: none;
            stroke: #064764;
            stroke-miterlimit: 10;
            stroke-width: 2px;
          "
        />
        <line
          x1="715.38"
          y1="118.53"
          x2="713.41"
          y2="120.49"
          style="
            fill: none;
            stroke: #064764;
            stroke-miterlimit: 10;
            stroke-width: 2px;
          "
        />
        <line
          x1="722.38"
          y1="125.53"
          x2="720.41"
          y2="127.49"
          style="
            fill: none;
            stroke: #064764;
            stroke-miterlimit: 10;
            stroke-width: 2px;
          "
        />
      </svg>