<svg
  id="46c7bf4b-8799-4f2f-9bcc-f610f54e904a"
  data-name="Layer 1"
  xmlns="http://www.w3.org/2000/svg"
  viewBox="0 0 1366 768"
>
  <polyline
    points="240.16 218.43 612.19 218.43 702.45 128.17 881.49 128.17 881.49 0"
    style="
      fill: none;
      stroke: #0695c9;
      stroke-miterlimit: 10;
      stroke-width: 3px;
    "
  />
  <line
    x1="683"
    y1="768"
    x2="683"
    y2="717.13"
    style="
      fill: none;
      stroke: #0695c9;
      stroke-miterlimit: 10;
      stroke-width: 3px;
    "
  />
  <text
    transform="translate(250 200) rotate(0.31)"
    style="
      font-size: 36px;
            fill: #fff;
            font-family: Arial-BoldMT, Arial;
            font-weight: 700;
    "
  >
    CONTACT US
  </text>  
  <text
    transform="translate(1010 302.9)"
    style="font-size: 18px; fill: #fff; font-family: ArialMT, Arial;"
  >
    COINBASE
  </text>
  <text
    transform="translate(1123.01 441.86) scale(1.22 1)"
    style="
      font-size: 14.92771053314209px;
      fill: #fff;
      font-family: ArialNarrow, Arial;
    "
  >
    BITFINEX
  </text>
  <text
    transform="translate(1037.71 589.37)"
    style="
      font-size: 19.192771911621094px;
      fill: #fff;
      font-family: Arial-BoldItalicMT, Arial;
      font-weight: 700;
      font-style: italic;
    "
  >
    bitpay
  </text>
  <text
    transform="translate(980.13 224)"
    style="font-size: 14px; fill: #fff; font-family: ArialMT, Arial; letter-spacing: 5px;"
  >
    OUR PARTNERS
  </text>
  <text
    transform="translate(235 300)"
    style="font-size: 10px; fill: #fff; font-family: ArialMT, Arial; letter-spacing: 5px;"
  >
    YOUR NAME
  </text>
  <text
    transform="translate(235 375)"
    style="font-size: 10px; fill: #fff; font-family: ArialMT, Arial; letter-spacing: 5px;"
  >
    YOUR EMAIL
  </text>
  <text
    transform="translate(235 450)"
    style="font-size: 10px; fill: #fff; font-family: ArialMT, Arial; letter-spacing: 5px;"
  >
    YOUR MESSAGE
  </text>
  <text
  transform="translate(360 553)"
    style="font-size: 14px; fill: #fff; font-family: ArialMT, Arial; letter-spacing: 5px;"
  >
    SEND MESSAGE
  </text>  
  <path
    d="M990.08,358.55H983a2.14,2.14,0,0,1-2.14-2.13v-6.94a2.14,2.14,0,0,1,2.14-2.13h7.1a2.14,2.14,0,0,1,2.14,2.13v6.94a2.14,2.14,0,0,1-2.14,2.13"
    style="fill: #fff"
  />
  <path
    d="M1004.3,358.55h-7.11a2.14,2.14,0,0,1-2.13-2.13v-6.94a2.14,2.14,0,0,1,2.13-2.13h7.11a2.14,2.14,0,0,1,2.13,2.13v6.94a2.14,2.14,0,0,1-2.13,2.13"
    style="fill: #fff"
  />
  <path
    d="M990.08,371.35H983a2.14,2.14,0,0,1-2.14-2.13v-6.94a2.14,2.14,0,0,1,2.14-2.14h7.1a2.14,2.14,0,0,1,2.14,2.14v6.94a2.14,2.14,0,0,1-2.14,2.13"
    style="fill: #fff"
  />
  <path
    d="M1004.3,371.35h-7.11a2.14,2.14,0,0,1-2.13-2.13v-6.94a2.14,2.14,0,0,1,2.13-2.14h7.11a2.14,2.14,0,0,1,2.13,2.14v6.94a2.14,2.14,0,0,1-2.13,2.13"
    style="fill: #fff"
  />
  <text
    transform="translate(983.71 355.54)"
    style="
      font-size: 7.819277286529541px;
      fill: #0a0c18;
      font-family: Arial-BoldMT, Arial;
      font-weight: 700;
    "
  >
    B
  </text>
  <text
    transform="translate(983.71 368.34)"
    style="
      font-size: 7.819277286529541px;
      fill: #0a0c18;
      font-family: Arial-BoldMT, Arial;
      font-weight: 700;
    "
  >
    C
  </text>
  <text
    transform="translate(998.63 368.34)"
    style="
      font-size: 7.819277286529541px;
      fill: #0a0c18;
      font-family: Arial-BoldMT, Arial;
      font-weight: 700;
    "
  >
    2
  </text>
  <text
    transform="translate(998.63 355.54)"
    style="
      font-size: 7.819277286529541px;
      fill: #0a0c18;
      font-family: Arial-BoldMT, Arial;
      font-weight: 700;
    "
  >
    2
  </text>
  <path
    d="M1120.57,355.19a12.74,12.74,0,0,1-6.87,11.42.81.81,0,0,1-.93,0,12.48,12.48,0,0,1-6.14-7.18,13.12,13.12,0,0,1-.51-6.25.35.35,0,0,1,.3-.35c.18,0,.28.09.36.25l2.7,5.32a.29.29,0,0,0,.3.2h7.13a.33.33,0,0,0,.23-.16q1.27-2.64,2.54-5.31c.08-.17.18-.32.39-.29s.27.18.29.38q.09,1,.21,2m-7.32,10.6,3.46-6.53h-6.79l3.33,6.53m-.82-.19q-2.88-5.64-5.75-11.3a12.18,12.18,0,0,0,1.06,6.19,11.22,11.22,0,0,0,4.69,5.11m1.68,0a11.65,11.65,0,0,0,4.47-4.76,12.25,12.25,0,0,0,1.22-6.52c-1.71,3.89-3.75,7.56-5.69,11.28"
    style="fill: #fff"
  />
  <path
    d="M1147.52,359.54l1.81,2.17a1,1,0,0,1-1.12-.29c-.48-.58-1-1.16-1.45-1.73a.38.38,0,0,0-.24-.14c-.78,0-1.55,0-2.35,0v2.2h-.66v-5.92h4.78a1,1,0,0,1,1.11,1.1v1.59a1,1,0,0,1-1,1h-.84m-1.08-.67h1.88c.3,0,.41-.11.41-.41v-1.56c0-.29-.11-.4-.39-.4h-3.78c-.3,0-.39.1-.39.42,0,.5,0,1,0,1.51,0,.35.09.44.44.44h1.83"
    style="fill: #fff"
  />
  <polygon
    points="1134.3 355.81 1139.65 355.81 1139.65 356.46 1134.96 356.46 1134.96 358.43 1138.73 358.43 1138.73 359.12 1134.96 359.12 1134.96 361.08 1139.65 361.08 1139.65 361.74 1134.3 361.74 1134.3 355.81"
    style="fill: #fff"
  />
  <path
    d="M1130.45,361.09v.67h-4.76a1,1,0,0,1-1.13-1.14v-3.73a1,1,0,0,1,1.08-1.09h4.8v.66h-4.7c-.43,0-.51.09-.51.52v3.61c0,.39.09.49.49.49h4.73Z"
    style="fill: #fff"
  />
  <path
    d="M1172.81,361.76c-.29,0-.52,0-.75,0a.41.41,0,0,1-.24-.15c-.65-.77-1.29-1.55-1.94-2.31a.54.54,0,0,0-.33-.16h-1.7v2.61h-.66v-5.92h.64v2.61a6.89,6.89,0,0,1,1,0,1.4,1.4,0,0,0,1.5-.7c.42-.6.94-1.14,1.4-1.71a.49.49,0,0,1,.49-.23,5.18,5.18,0,0,0,.56,0l-2.46,3,2.47,3"
    style="fill: #fff"
  />
  <polygon
    points="1155.57 356.47 1152.95 356.47 1152.95 355.82 1158.82 355.82 1158.82 356.47 1156.23 356.47 1156.23 361.74 1155.57 361.74 1155.57 356.47"
    style="fill: #fff"
  />
  <path
    d="M1113.24,351.41l-.22.06-4.33,1.34-.12,0c-.23.07-.4,0-.45-.18s0-.36.27-.43l3.3-1c.44-.13.88-.28,1.32-.4a.9.9,0,0,1,.46,0l4.64,1.42c.3.09.43.25.36.45s-.24.27-.54.17l-4.45-1.37-.24-.07"
    style="fill: #fff"
  />
  <rect x="1162.44" y="355.81" width="0.63" height="5.92" style="fill: #fff" />
  <path
    d="M1193.39,432.84a9.19,9.19,0,0,1,1.66-2.13,14.78,14.78,0,0,1,2-1.63,14.11,14.11,0,0,1,2.26-1.24,9.23,9.23,0,0,1,2.6-.73,9.5,9.5,0,0,1-1.67,2.14,15.49,15.49,0,0,1-2,1.62,14.11,14.11,0,0,1-2.26,1.24,9.25,9.25,0,0,1-2.59.73"
    style="fill: #fff"
  />
  <path
    d="M919,431.19c0-1.09,0-2.18,0-3.27,0-.54-.18-.7-.68-.69-.87,0-1.73,0-2.6,0-.42,0-.58-.16-.57-.6,0-.94,0-1.88,0-2.82,0-.49.19-.63.62-.62.87,0,1.73,0,2.6,0,.49,0,.64-.18.63-.67,0-.89,0-1.79,0-2.69,0-.48.17-.64.61-.63.89,0,1.77,0,2.66,0,.42,0,.59.13.58.58,0,.92,0,1.84,0,2.76,0,.45.12.66.59.64.89,0,1.77,0,2.66,0,.47,0,.6-.18.59-.64,0-.9,0-1.8,0-2.69,0-.45.11-.67.58-.66.91,0,1.81,0,2.72,0,.39,0,.55.13.54.56,0,.91,0,1.83,0,2.75,0,.49.12.67.62.68a7.42,7.42,0,0,1,6.36,3.44,7.77,7.77,0,0,1,.71,7.73,7.36,7.36,0,0,1-6.23,4.69c-1.45.16-1.45.13-1.45,1.66,0,.62,0,1.24,0,1.86,0,.38-.12.55-.5.54h-2.84c-.37,0-.5-.17-.5-.54,0-.94,0-1.88,0-2.82,0-.48-.16-.64-.61-.62-.9,0-1.81,0-2.72,0-.37,0-.51.14-.5.53,0,1,0,1.92,0,2.88,0,.4-.11.58-.52.57-.93,0-1.86,0-2.78,0-.41,0-.54-.17-.54-.57,0-.94,0-1.88,0-2.82,0-.45-.15-.6-.57-.59-.91,0-1.82,0-2.72,0-.4,0-.55-.15-.55-.57,0-1,0-2,0-2.94,0-.39.14-.54.51-.53.9,0,1.81,0,2.71,0,.46,0,.66-.16.61-.63,0,0,0,0,0-.07Zm8.49-3.94h-4.07c-.41,0-.6.1-.6.57,0,2.26,0,4.53,0,6.79,0,.38.12.54.5.54l8.21,0a3.15,3.15,0,0,0,2-.79,4,4,0,0,0,1.26-4.43,3.76,3.76,0,0,0-3.58-2.64c-1.24,0-2.47,0-3.71,0"
    style="fill: #e6f2f2"
  />
  <path
    d="M943.28,430.79c0-2,0-4,0-6,0-.48.14-.61.6-.59,1.59.07,3.18-.1,4.76.1a5.07,5.07,0,0,1,4.48,4.79,13.28,13.28,0,0,1-.24,4.57,5,5,0,0,1-4.33,3.51c-1.61.08-3.22,0-4.83.07-.47,0-.43-.24-.43-.55v-5.95m2.59-.08v2.9c0,1.77,0,1.77,1.8,1.65a2.73,2.73,0,0,0,2.76-2.37,11.73,11.73,0,0,0,0-4.3,2.74,2.74,0,0,0-2.81-2.31c-.41,0-.81,0-1.21,0s-.54.09-.53.52c0,1.31,0,2.61,0,3.92"
    style="fill: #e6f2f2"
  />
  <path
    d="M978.32,436.24c-.35,1-.35,1-1.56,1-.91,0-.91,0-.91-.93,0-4.12,0-8.25,0-12.37,0-.52.12-.73.66-.67s1.45-.2,1.82.12.11,1.19.12,1.82c0,1,0,2,0,3,0,0,0,.08.08.16a3.25,3.25,0,0,1,1.83-1,3.29,3.29,0,0,1,3.68,2.27,8.15,8.15,0,0,1,.2,5.05,3.38,3.38,0,0,1-5.92,1.44m.11-3.75v1.41a1.32,1.32,0,0,0,1.14,1.49,1.59,1.59,0,0,0,2-.75,5.73,5.73,0,0,0-.12-4.45,1.55,1.55,0,0,0-1.93-.65,1.36,1.36,0,0,0-1.09,1.47c0,.49,0,1,0,1.48"
    style="fill: #e6f2f2"
  />
  <path
    d="M960.2,433.22c-.78,0-1.57,0-2.35,0-.42,0-.49.15-.43.52a2.08,2.08,0,0,0,2,1.73,4.34,4.34,0,0,0,2.26-.51c.34-.18.51-.19.69.23.55,1.31.58,1.38-.77,1.84-1.92.67-3.82.78-5.49-.69a4.57,4.57,0,0,1-1.47-3.5c0-2,.38-3.74,2.18-4.85a4,4,0,0,1,6.21,3.32c0,.61.27,1.38-.07,1.77s-1.13.1-1.72.14c-.36,0-.72,0-1.08,0m-1.26-1.71h1.21c.21,0,.37,0,.4-.3a1.53,1.53,0,0,0-1.79-1.73c-.79.13-1.06.74-1.27,1.4-.14.43-.11.69.45.64a8.34,8.34,0,0,1,1,0"
    style="fill: #e6f2f2"
  />
  <path
    d="M991.46,432.26c0-.77,0-1.53,0-2.3,0-.42-.13-.59-.53-.52-.68.11-.94-.12-.88-.85.07-.93,0-.95,1-1,.34,0,.47-.1.46-.46s0-.94,0-1.42.06-.54.47-.52a15.69,15.69,0,0,0,1.68,0c.41,0,.5.16.48.52s0,.9,0,1.35.11.54.52.53c1.11,0,1.08,0,1.11,1.15,0,.52-.12.7-.65.68-1,0-1,0-1,1,0,1.29,0,2.57,0,3.85,0,.9.27,1.15,1.14,1.08.36,0,.42.11.45.39l0,.27c.14,1.33.14,1.33-1.19,1.43a2.5,2.5,0,0,1-3-2.51c-.07-.89,0-1.8,0-2.7Z"
    style="fill: #e6f2f2"
  />
  <path
    d="M967.19,428.91a2.35,2.35,0,0,1,2.26-1.47c.41,0,.56.19.46.59a.3.3,0,0,0,0,.13,5.19,5.19,0,0,1-.22,1.46c-.26.54-.88.11-1.33.25-.8.24-1.12.57-1.12,1.43,0,1.78,0,3.56,0,5.34,0,.48-.08.7-.61.65a13.36,13.36,0,0,0-1.55,0c-.34,0-.46-.1-.46-.46q0-4.4,0-8.79c0-.31.1-.46.42-.43s.49,0,.74,0c1.21,0,1.21,0,1.42,1.29"
    style="fill: #e6f2f2"
  />
  <path
    d="M973.71,432.45c0,1.4,0,2.79,0,4.19,0,.55-.18.69-.68.65a10.44,10.44,0,0,0-1.48,0c-.35,0-.45-.12-.45-.46,0-2.93,0-5.85,0-8.78,0-.37.14-.45.47-.44.54,0,1.07,0,1.61,0s.53.11.52.52c0,1.44,0,2.88,0,4.32"
    style="fill: #e6f2f2"
  />
  <path
    d="M988.86,432.43c0,1.44,0,2.88,0,4.32,0,.41-.1.57-.52.54-.66-.06-1.52.27-1.94-.12s-.14-1.28-.14-1.94c0-2.34,0-4.68,0-7,0-.47.12-.64.6-.6.64.05,1.48-.2,1.88.12s.11,1.22.13,1.86c0,1,0,1.9,0,2.84"
    style="fill: #e6f2f2"
  />
  <path
    d="M987.61,423.32c1.26,0,1.22,0,1.27,1.25,0,.58-.12.84-.73.74a3.11,3.11,0,0,0-.53,0c-1.42,0-1.61-.24-1.36-1.7,0-.23.14-.29.35-.29h1"
    style="fill: #e6f2f2"
  />
  <path
    d="M972.41,425.3c-1.28,0-1.25,0-1.29-1.3,0-.57.15-.78.7-.69.18,0,.36,0,.54,0,.43,0,1.09-.22,1.26.11a4,4,0,0,1,.09,1.59c0,.26-.16.28-.36.28h-.94"
    style="fill: #e6f2f2"
  />
  <path
    d="M949,515.23c.1,0,.12.07.16.11.93.93,1.86,1.87,2.78,2.81.13.14.21.17.37,0,.92-.95,1.86-1.88,2.79-2.83.12-.12.18-.09.28,0l1.52,1.53c.13.13.13.2,0,.35q-2.31,2.29-4.59,4.64c-.13.13-.2.11-.32,0q-2.31-2.34-4.64-4.66c-.09-.09-.13-.15,0-.25l1.62-1.63.08-.06"
    style="fill: #fff"
  />
  <path
    d="M952.15,509.55c-.11,0-.14.08-.19.13l-2.73,2.76c-.13.13-.23.2-.4,0-.47-.5-1-1-1.45-1.47-.15-.14-.14-.21,0-.36,1.28-1.28,2.55-2.57,3.83-3.86l.78-.8c.1-.11.18-.1.28,0q2.31,2.36,4.63,4.69c.14.13.12.2,0,.32l-1.46,1.47c-.16.17-.26.14-.43,0-.9-.94-1.83-1.87-2.76-2.8,0,0-.08-.05-.11-.07"
    style="fill: #fff"
  />
  <path
    d="M952.1,512.13a.41.41,0,0,1,.19.12c.5.51,1,1,1.52,1.53.13.12.13.18,0,.29-.51.5-1,1-1.5,1.51-.15.16-.25.15-.4,0-.47-.49-.95-1-1.43-1.45-.09-.09-.23-.18-.07-.33l1.55-1.54a.68.68,0,0,1,.12-.12"
    style="fill: #fff"
  />
  <path
    d="M947.72,513.92l-.12.14c-.49.49-1,1-1.46,1.47-.14.14-.24.15-.39,0-.47-.49-1-1-1.45-1.46-.13-.13-.13-.19,0-.32.49-.46,1-1,1.44-1.44.14-.14.22-.19.38,0,.47.49,1,1,1.43,1.45l.16.17"
    style="fill: #fff"
  />
  <path
    d="M960.09,513.93l-.11.13c-.48.49-1,1-1.45,1.47-.14.14-.24.15-.39,0-.48-.49-1-1-1.45-1.46-.12-.12-.12-.19,0-.3.49-.48,1-1,1.45-1.46.13-.13.22-.16.37,0l1.52,1.53s.07,0,.06.11"
    style="fill: #fff"
  />
  <path
    d="M964.29,514.35c0-1.15,0-2.31,0-3.46,0-.42.14-.55.54-.55,1.27,0,2.53,0,3.8.05a2.16,2.16,0,0,1,2,1.31,1.83,1.83,0,0,1-.5,2.24c-.34.31,0,.43.17.57a2,2,0,0,1,.81,2.56,2.21,2.21,0,0,1-2,1.36,40.34,40.34,0,0,1-4.4.08c-.39,0-.43-.26-.43-.57v-3.59m3.26,2.51h1c.52,0,.94-.2,1-.8s-.47-.83-1-.88c-.68,0-1.37,0-2.06,0a.36.36,0,0,0-.39.34c-.2,1.15.07,1.47,1.23,1.44a1.22,1.22,0,0,0,.27-.06m-.18-4.92c-1.43,0-1.43,0-1.28,1.34a.13.13,0,0,1,0,.06c-.06.22.1.28.25.28a7.21,7.21,0,0,0,2.17-.12.68.68,0,0,0,.5-.77.74.74,0,0,0-.67-.74c-.32,0-.64,0-1-.05"
    style="fill: #fff"
  />
  <path
    d="M983.58,515.16c0-1.48,0-2.83,0-4.17,0-.45,0-.68.62-.64,1.18.09,1.18,0,1.18,1.22,0,2,0,4,0,6,0,.3.2.78-.2.85s-1.13.3-1.56-.24c-.65-.82-1.29-1.65-1.93-2.47l-1.38-1.84c-.08-.12-.12-.3-.32-.23s-.12.25-.12.39c0,1.28,0,2.56,0,3.84,0,.48-.13.63-.62.62-1.4,0-1.21.1-1.21-1.2,0-2.09,0-4.18,0-6.27,0-.53.11-.68.7-.72a1.79,1.79,0,0,1,1.73.9c.86,1.19,1.76,2.35,2.64,3.52a4.45,4.45,0,0,0,.49.41"
    style="fill: #fff"
  />
  <path
    d="M999.9,513.68c-.19.13-.14.33-.14.51,0,1.2,0,2.4,0,3.59,0,.56-.17.76-.74.74-1.34,0-1.12.13-1.12-1.13,0-2.16,0-4.32,0-6.48,0-.44.14-.49.56-.59,1.28-.28,1.64.72,2.19,1.42.79,1,1.52,2,2.27,3,.11.14.23.37.43.31s0-.3,0-.46c0-1.3,0-2.6,0-3.9,0-.17,0-.32.22-.33.46,0,.92,0,1.38,0,.25,0,.23.2.23.37,0,2.44,0,4.87,0,7.31,0,.33-.13.43-.45.46a1.65,1.65,0,0,1-1.69-.73c-.94-1.34-2-2.62-3-3.93a.34.34,0,0,0-.25-.18"
    style="fill: #fff"
  />
  <path
    d="M1017.23,514.39c0-1.2,0-2.4,0-3.6,0-.29,0-.46.4-.45,1.73,0,3.45,0,5.18,0,.56,0,.64.24.62.67,0,.1-.06.22,0,.31.13.59-.17.68-.67.66-1,0-2.07,0-3.11,0-.47,0-.72.11-.63.6s-.32,1.07.59,1,1.89,0,2.84,0c.37,0,.46.11.46.42v.06c.06,1.12.06,1.13-1.06,1.12-.74,0-1.47,0-2.2,0-.46,0-.65.12-.65.62,0,1.06,0,1.07,1,1.07s1.9,0,2.84,0c.47,0,.66.12.65.61,0,1,0,1-1.06,1-1.55,0-3.1,0-4.66,0-.43,0-.56-.13-.55-.54,0-1.2,0-2.4,0-3.59"
    style="fill: #fff"
  />
  <path
    d="M991.56,516.71a1.61,1.61,0,0,0-2.25,1.44c-.09.46-.47.36-.78.36-1.42,0-1.34.22-.75-1.15.93-2.16,1.9-4.31,2.77-6.5.3-.75.83-.49,1.32-.55a.77.77,0,0,1,.91.57c.93,2.28,1.92,4.54,2.9,6.8.34.79.34.78-.49.85s-1.33-.14-1.48-1-.61-.94-1.31-.84a5.89,5.89,0,0,1-.84,0m0-1.6a3.23,3.23,0,0,1,.44,0c.52.07.67-.11.46-.6s-.41-1-.61-1.47c0-.11,0-.27-.19-.28s-.21.14-.26.25c-.23.47-.44,1-.66,1.44s-.17.66.44.66h.38"
    style="fill: #fff"
  />
  <path
    d="M1007.53,514.38a4.16,4.16,0,0,1,4.69-4.15,4.41,4.41,0,0,1,2.44.89c.28.22.42.44.07.72s-.43.77-.83.84-.64-.37-1-.53a2.37,2.37,0,0,0-2.54.21,2.56,2.56,0,0,0-.83,2.84,2.23,2.23,0,0,0,1.67,1.7,2.43,2.43,0,0,0,2.24-.5c.38-.33.59-.32.93.05.82.89.84.88-.2,1.52a4.29,4.29,0,0,1-4.52.15,3.93,3.93,0,0,1-2.13-3.74"
    style="fill: #fff"
  />
  <path
    d="M975.34,514.48c0,1.2,0,2.39,0,3.59,0,.36-.1.44-.42.44-1.74,0-1.41.14-1.42-1.3,0-2.06,0-4.12,0-6.19,0-.51.1-.71.67-.68,1.17.07,1.18,0,1.18,1.2v2.94Z"
    style="fill: #fff"
  />
  <line
    x1="232.33"
    y1="350"
    x2="661.67"
    y2="350"
    style="
      fill: none;
      stroke: #0695c9;
      stroke-miterlimit: 10;
      stroke-width: 3px;
    "
  />
  <line
    x1="232.33"
    y1="425"
    x2="661.67"
    y2="425"
    style="
      fill: none;
      stroke: #0695c9;
      stroke-miterlimit: 10;
      stroke-width: 3px;
    "
  />
  <line
    x1="232.33"
    y1="500"
    x2="661.67"
    y2="500"
    style="
      fill: none;
      stroke: #0695c9;
      stroke-miterlimit: 10;
      stroke-width: 3px;
    "
  />  
  <rect
    x="233.5"
    y="525"
    width="426.5"
    height="46"
    style="
      fill: none;
      stroke: #0695c9;
      stroke-miterlimit: 10;
      stroke-width: 3px;
    "
  />
  <ellipse
    cx="1058.68"
    cy="433.2"
    rx="175.93"
    ry="177.25"
    style="
      fill: none;
      stroke: #0695c9;
      stroke-miterlimit: 10;
      stroke-width: 3px;
    "
  />
    </svg>