<svg
  id="13806ea0-5bb1-4bdb-a667-121b1aad9bf4"
  data-name="Layer 1"
  xmlns="http://www.w3.org/2000/svg"
  viewBox="0 0 1920 1080"
>
  <title>contact-us</title>
  <text
    transform="translate(1431 425.71)"
    style="
      font-size: 30.453800201416016px;
      fill: #fff;
      font-family: MyriadPro-Regular, Myriad Pro;
    "
  >
    <tspan style="letter-spacing: -0.005002454504607817em">c</tspan>
    <tspan x="13.49" y="0">oinbase</tspan>
  </text>
  <text
    transform="translate(1579 621.19) scale(1.22 1)"
    style="font-size: 21px; fill: #fff; font-family: ArialNarrow, Arial"
  >
    BITFINEX
  </text>
  <text
    transform="translate(1459 828.71)"
    style="
      font-size: 27px;
      fill: #fff;
      font-family: Arial-BoldItalicMT, Arial;
      font-weight: 700;
      font-style: italic;
    "
  >
    bitpay
  </text>
  <text
    transform="translate(1378 314.71)"
    style="
      font-size: 19px;
      fill: #fff;
      font-family: ArialRoundedMTBold, Arial Rounded MT Bold;
    "
  >
    <tspan style="letter-spacing: 0.4800061677631579em">OU</tspan>
    <tspan x="47.72" y="0" style="letter-spacing: 0.4790296052631579em">
      R
    </tspan>
    <tspan x="84.34" y="0" style="letter-spacing: 0.3920127467105263em">
      P
    </tspan>
    <tspan x="104.46" y="0" style="letter-spacing: 0.4790296052631579em">
      A
    </tspan>
    <tspan x="127.23" y="0" style="letter-spacing: 0.4299444901315789em">
      R
    </tspan>
    <tspan x="149.06" y="0" style="letter-spacing: 0.4790296052631579em">
      T
    </tspan>
    <tspan x="170.04" y="0" style="letter-spacing: 0.4800061677631579em">
      NE
    </tspan>
    <tspan x="215.39" y="0" style="letter-spacing: 0.4789782072368421em">
      R
    </tspan>
    <tspan x="238.15" y="0">S</tspan>
  </text>
  <text
    transform="translate(326.42 288.84)"
    style="
      font-size: 50px;
      fill: #fff;
      font-family: ArialRoundedMTBold, Arial Rounded MT Bold;
    "
  >
    CON
    <tspan x="114.6" y="0" style="letter-spacing: -0.062001953125em">T</tspan>
    <tspan x="142.75" y="0" style="letter-spacing: -0.023994140625em">A</tspan>
    <tspan x="177.51" y="0">CT US</tspan>
  </text>
  <path
    d="M1392,504h-10a3,3,0,0,1-3-3v-9.76a3,3,0,0,1,3-3h10a3,3,0,0,1,3,3V501a3,3,0,0,1-3,3"
    style="fill: #fff"
  />
  <path
    d="M1412,504h-10a3,3,0,0,1-3-3v-9.76a3,3,0,0,1,3-3h10a3,3,0,0,1,3,3V501a3,3,0,0,1-3,3"
    style="fill: #fff"
  />
  <path
    d="M1392,522h-10a3,3,0,0,1-3-3v-9.76a3,3,0,0,1,3-3h10a3,3,0,0,1,3,3V519a3,3,0,0,1-3,3"
    style="fill: #fff"
  />
  <path
    d="M1412,522h-10a3,3,0,0,1-3-3v-9.76a3,3,0,0,1,3-3h10a3,3,0,0,1,3,3V519a3,3,0,0,1-3,3"
    style="fill: #fff"
  />
  <text
    transform="translate(1383.03 499.77)"
    style="
      font-size: 11px;
      fill: #0a0c18;
      font-family: Arial-BoldMT, Arial;
      font-weight: 700;
    "
  >
    B
  </text>
  <text
    transform="translate(1383.03 517.76)"
    style="
      font-size: 11px;
      fill: #0a0c18;
      font-family: Arial-BoldMT, Arial;
      font-weight: 700;
    "
  >
    C
  </text>
  <text
    transform="translate(1404.03 517.76)"
    style="
      font-size: 11px;
      fill: #0a0c18;
      font-family: Arial-BoldMT, Arial;
      font-weight: 700;
    "
  >
    2
  </text>
  <text
    transform="translate(1404.03 499.77)"
    style="
      font-size: 11px;
      fill: #0a0c18;
      font-family: Arial-BoldMT, Arial;
      font-weight: 700;
    "
  >
    2
  </text>
  <circle
    cx="1488.5"
    cy="612.5"
    r="247.5"
    style="
      fill: none;
      stroke: #0695c9;
      stroke-miterlimit: 10;
      stroke-width: 3px;
    "
  />
  <path
    d="M1575.56,503.58a18.26,18.26,0,0,1-4,11.41,18.83,18.83,0,0,1-5.62,4.53,1.18,1.18,0,0,1-1.31,0,17.44,17.44,0,0,1-8.63-10,18.18,18.18,0,0,1-.73-8.72c0-.26.16-.46.43-.49s.4.13.51.35l3.79,7.43a.42.42,0,0,0,.43.27h10a.44.44,0,0,0,.33-.22q1.8-3.71,3.57-7.42c.12-.24.25-.44.55-.4s.38.25.41.53c.08.93.19,1.85.29,2.77m-10.3,14.8,4.88-9.12h-9.55l4.67,9.12m-1.15-.26L1556,502.33a17,17,0,0,0,1.49,8.64,15.86,15.86,0,0,0,6.6,7.15m2.36,0a16.27,16.27,0,0,0,6.3-6.65,17,17,0,0,0,1.71-9.11c-2.41,5.44-5.28,10.56-8,15.76"
    style="fill: #fff"
  />
  <path
    d="M1613.47,509.65l2.55,3a1.34,1.34,0,0,1-1.57-.39l-2-2.43a.54.54,0,0,0-.33-.19c-1.09,0-2.18,0-3.31,0v3.07h-.93v-8.26l.39,0h6.34a1.39,1.39,0,0,1,1.56,1.54c0,.74,0,1.48,0,2.22a1.36,1.36,0,0,1-1.46,1.45h-1.19m-1.51-.94h2.64c.43,0,.58-.15.58-.57V506c0-.41-.15-.56-.55-.56h-5.32c-.42,0-.55.14-.55.58,0,.71,0,1.41,0,2.11,0,.49.13.62.63.62H1612"
    style="fill: #fff"
  />
  <polygon
    points="1594.88 504.44 1602.4 504.44 1602.4 505.35 1595.81 505.35 1595.81 508.09 1601.11 508.09 1601.11 509.06 1595.81 509.06 1595.81 511.79 1602.4 511.79 1602.4 512.72 1594.88 512.72 1594.88 504.44"
    style="fill: #fff"
  />
  <path
    d="M1589.46,511.81v.93h-6.7a1.41,1.41,0,0,1-1.58-1.58v-5.22a1.38,1.38,0,0,1,1.51-1.51h6.76v.92h-6.61c-.6,0-.72.13-.72.72q0,2.52,0,5c0,.55.13.69.69.69h6.65Z"
    style="fill: #fff"
  />
  <path
    d="M1649.06,512.74c-.41,0-.74,0-1.07,0a.6.6,0,0,1-.33-.21c-.91-1.07-1.81-2.16-2.73-3.22a.69.69,0,0,0-.47-.22c-.78,0-1.57,0-2.38,0v3.64h-.93v-8.26h.9v3.65a9.63,9.63,0,0,1,1.43,0,2,2,0,0,0,2.11-1c.6-.84,1.33-1.59,2-2.39a.72.72,0,0,1,.68-.32,6.77,6.77,0,0,0,.8,0l-3.48,4.16,3.49,4.15"
    style="fill: #fff"
  />
  <polygon
    points="1624.8 505.37 1621.12 505.37 1621.12 504.45 1629.37 504.45 1629.37 505.36 1625.73 505.36 1625.73 512.72 1624.8 512.72 1624.8 505.37"
    style="fill: #fff"
  />
  <path
    d="M1565.25,498.3l-.31.09-6.09,1.86-.17.05c-.32.08-.56,0-.64-.26s0-.5.39-.61l4.64-1.41c.62-.19,1.23-.39,1.86-.56a1.26,1.26,0,0,1,.64,0l6.54,2c.42.13.59.35.5.63s-.33.37-.76.24l-6.26-1.91-.34-.1"
    style="fill: #fff"
  />
  <rect x="1634.46" y="504.44" width="0.89" height="8.27" style="fill: #fff" />
  <path
    d="M1678,612a13,13,0,0,1,2.35-3,20.31,20.31,0,0,1,2.82-2.27,19.12,19.12,0,0,1,3.18-1.73,13,13,0,0,1,3.65-1,12.79,12.79,0,0,1-2.35,3,19.74,19.74,0,0,1-2.82,2.27,21.17,21.17,0,0,1-3.18,1.73,13.19,13.19,0,0,1-3.65,1"
    style="fill: #fff"
  />
  <path
    d="M1292,609.69c0-1.52,0-3,0-4.56,0-.76-.26-1-1-1-1.21.05-2.43,0-3.65,0-.6,0-.81-.23-.8-.84,0-1.31,0-2.63,0-3.94,0-.68.26-.87.87-.86,1.22,0,2.44,0,3.65,0,.7,0,.91-.25.89-.94,0-1.25,0-2.5,0-3.75,0-.68.24-.89.87-.88,1.24,0,2.49,0,3.73,0,.59,0,.83.19.81.82,0,1.29,0,2.57,0,3.85,0,.64.16.93.83.9,1.24,0,2.49,0,3.73,0,.66,0,.85-.26.84-.9,0-1.25,0-2.5,0-3.75,0-.63.15-.94.82-.92,1.27,0,2.55,0,3.82,0,.55,0,.78.2.77.78,0,1.29,0,2.57,0,3.85,0,.68.17.94.87,1a10.47,10.47,0,0,1,9,4.8,10.78,10.78,0,0,1,1,10.79,10.33,10.33,0,0,1-8.77,6.55c-2,.23-2,.19-2,2.33,0,.87,0,1.73,0,2.6,0,.52-.17.76-.7.75q-2,0-4,0c-.53,0-.71-.24-.71-.76,0-1.31,0-2.63,0-3.94,0-.67-.23-.88-.86-.87-1.28,0-2.55,0-3.82,0-.53,0-.73.2-.72.73,0,1.35,0,2.69,0,4,0,.56-.17.81-.74.8-1.3,0-2.61,0-3.91,0-.57,0-.76-.24-.75-.8,0-1.31,0-2.63,0-3.94,0-.63-.22-.84-.81-.83-1.27,0-2.55,0-3.82,0-.56,0-.78-.21-.77-.79,0-1.37,0-2.74,0-4.11,0-.55.21-.75.73-.74,1.27,0,2.54,0,3.82,0,.63,0,.92-.21.84-.88v-4.65Zm12-5.5h0c-1.91,0-3.82,0-5.73,0-.58,0-.85.15-.84.8,0,3.16,0,6.32,0,9.48,0,.52.17.76.7.75,3.85,0,7.71,0,11.56,0a4.35,4.35,0,0,0,2.78-1.11,5.57,5.57,0,0,0,1.77-6.18,5.26,5.26,0,0,0-5-3.68c-1.74,0-3.48,0-5.21,0"
    style="fill: #e6f2f2"
  />
  <path
    d="M1326.16,609.13c0-2.76,0-5.54,0-8.3,0-.68.19-.85.85-.83,2.23.1,4.47-.13,6.7.15a7.12,7.12,0,0,1,6.3,6.69,18.47,18.47,0,0,1-.34,6.37,7.07,7.07,0,0,1-6.1,4.9c-2.26.12-4.53,0-6.8.1-.64,0-.6-.34-.6-.77q0-4.16,0-8.31m3.64-.11v4.06c0,2.47,0,2.47,2.54,2.3a3.82,3.82,0,0,0,3.87-3.31,16.14,16.14,0,0,0,0-6,3.86,3.86,0,0,0-4-3.23c-.57,0-1.14,0-1.7,0s-.75.12-.74.72c0,1.82,0,3.65,0,5.47"
    style="fill: #e6f2f2"
  />
  <path
    d="M1375.45,616.74c-.49,1.46-.49,1.46-2.19,1.46-1.29,0-1.29,0-1.29-1.29,0-5.76,0-11.52,0-17.28,0-.73.17-1,.93-.94s2-.27,2.56.17.15,1.66.16,2.54c0,1.41,0,2.83,0,4.25,0,.05,0,.1.11.23a4.62,4.62,0,0,1,7.76,1.81,11.26,11.26,0,0,1,.27,7,4.76,4.76,0,0,1-8.32,2m.16-5.23v2a1.82,1.82,0,0,0,1.59,2.07c1.29.31,2.46,0,2.83-1a7.84,7.84,0,0,0-.17-6.21,2.17,2.17,0,0,0-2.71-.91,1.92,1.92,0,0,0-1.54,2.05v2.07"
    style="fill: #e6f2f2"
  />
  <path
    d="M1350,612.54c-1.1,0-2.2,0-3.3,0-.59,0-.7.22-.61.74a2.91,2.91,0,0,0,2.86,2.41,6.19,6.19,0,0,0,3.19-.7c.47-.27.71-.28,1,.31.78,1.83.82,1.93-1.07,2.58-2.71.92-5.38,1.07-7.73-1a6.31,6.31,0,0,1-2.06-4.88c-.06-2.74.53-5.22,3.06-6.77a5.68,5.68,0,0,1,8.74,4.64c0,.84.37,1.92-.1,2.47s-1.59.14-2.43.19c-.5,0-1,0-1.51,0m-1.77-2.4h1.7c.29,0,.52,0,.56-.42a2.14,2.14,0,0,0-2.51-2.41c-1.12.18-1.49,1-1.8,2-.2.6-.14,1,.64.89.46,0,.94,0,1.41,0"
    style="fill: #e6f2f2"
  />
  <path
    d="M1393.94,611.19c0-1.07,0-2.14,0-3.21,0-.58-.18-.83-.75-.73-1,.15-1.32-.16-1.24-1.19.1-1.29,0-1.32,1.34-1.34.48,0,.67-.15.64-.65,0-.66,0-1.32,0-2,0-.5.09-.76.67-.73a23.22,23.22,0,0,0,2.36,0c.57,0,.7.22.67.72s0,1.26,0,1.89.16.75.75.75c1.55,0,1.51,0,1.56,1.6,0,.73-.17,1-.93.94-1.37,0-1.37,0-1.37,1.4,0,1.8,0,3.59,0,5.38,0,1.25.39,1.61,1.6,1.5.51,0,.6.16.64.55,0,.12,0,.25.05.37.19,1.86.19,1.86-1.68,2-2.46.2-4-1.05-4.2-3.51-.1-1.25,0-2.51,0-3.77Z"
    style="fill: #e6f2f2"
  />
  <path
    d="M1359.8,606.52c.77-1.33,1.67-2.17,3.17-2.06.57,0,.79.26.64.82a1.23,1.23,0,0,0,0,.19,6.71,6.71,0,0,1-.31,2c-.37.74-1.24.15-1.87.34-1.13.34-1.58.8-1.58,2,0,2.48,0,5,0,7.45,0,.68-.12,1-.86.92a15.72,15.72,0,0,0-2.17,0c-.49,0-.66-.14-.66-.64q0-6.14,0-12.27c0-.44.14-.64.6-.6s.69,0,1,0c1.7,0,1.7,0,2,1.82"
    style="fill: #e6f2f2"
  />
  <path
    d="M1369,611.46c0,1.95,0,3.9,0,5.84,0,.78-.25,1-1,.91a17.87,17.87,0,0,0-2.07,0c-.5,0-.64-.16-.63-.64,0-4.09,0-8.17,0-12.26,0-.52.19-.63.66-.61a21.29,21.29,0,0,0,2.26,0c.59,0,.75.16.74.74,0,2,0,4,0,6"
    style="fill: #e6f2f2"
  />
  <path
    d="M1390.28,611.43c0,2,0,4,0,6,0,.57-.14.8-.73.75-.93-.08-2.14.38-2.74-.17s-.18-1.78-.19-2.71c0-3.26,0-6.53,0-9.8,0-.66.17-.89.83-.84.91.07,2.09-.28,2.65.17s.16,1.71.18,2.61c0,1.32,0,2.64,0,4"
    style="fill: #e6f2f2"
  />
  <path
    d="M1388.51,598.7c1.78,0,1.73,0,1.79,1.75,0,.82-.17,1.18-1,1a4.68,4.68,0,0,0-.75,0c-2,0-2.26-.34-1.91-2.37.05-.33.19-.41.49-.4h1.4"
    style="fill: #e6f2f2"
  />
  <path
    d="M1367.14,601.47c-1.81,0-1.77,0-1.82-1.82,0-.79.21-1.08,1-.95.24,0,.5,0,.75,0,.62.06,1.54-.3,1.78.17a5.34,5.34,0,0,1,.12,2.21c0,.36-.22.4-.5.39h-1.32"
    style="fill: #e6f2f2"
  />
  <path
    d="M1334.22,727.05c.14,0,.17.09.22.15q2,1.95,3.91,3.93c.19.19.3.23.52,0,1.3-1.33,2.62-2.64,3.93-4,.16-.16.25-.13.39,0l2.15,2.15c.17.17.17.27,0,.47-2.16,2.15-4.31,4.32-6.45,6.48-.19.2-.29.16-.46,0q-3.26-3.25-6.52-6.5c-.13-.13-.19-.21,0-.36l2.27-2.27.12-.08"
    style="fill: #fff"
  />
  <path
    d="M1338.64,719.11c-.16,0-.2.11-.27.18-1.29,1.29-2.57,2.57-3.84,3.86-.18.18-.32.28-.56,0-.67-.7-1.36-1.38-2-2-.21-.2-.2-.29,0-.51,1.81-1.78,3.59-3.59,5.38-5.39.37-.37.74-.74,1.1-1.12.15-.15.25-.14.4,0,2.17,2.18,4.33,4.37,6.51,6.54.19.19.17.28,0,.45l-2,2c-.23.23-.37.21-.6,0-1.28-1.33-2.59-2.62-3.89-3.92,0-.05-.12-.07-.15-.1"
    style="fill: #fff"
  />
  <path
    d="M1338.57,722.71a.83.83,0,0,1,.27.17c.7.72,1.4,1.44,2.13,2.14.18.17.18.25,0,.41-.7.69-1.41,1.39-2.1,2.1-.22.23-.35.21-.56,0-.66-.68-1.34-1.35-2-2-.12-.12-.32-.24-.1-.46l2.18-2.15.18-.17"
    style="fill: #fff"
  />
  <path
    d="M1332.4,725.21c-.06.07-.11.14-.17.2-.68.68-1.37,1.36-2,2.05-.19.2-.34.22-.54,0-.68-.69-1.36-1.38-2.05-2.05-.18-.17-.18-.25,0-.44.69-.65,1.36-1.33,2-2,.2-.2.31-.26.54,0,.66.69,1.34,1.35,2,2l.22.24"
    style="fill: #fff"
  />
  <path
    d="M1349.81,725.23l-.16.18c-.68.68-1.37,1.36-2,2.05-.2.2-.34.22-.54,0-.68-.69-1.36-1.37-2-2.05-.17-.16-.17-.25,0-.41.69-.68,1.37-1.36,2-2,.17-.18.31-.22.51,0,.7.72,1.42,1.42,2.14,2.13,0,0,.1.07.09.16"
    style="fill: #fff"
  />
  <path
    d="M1355.71,725.82c0-1.62,0-3.23,0-4.84,0-.59.19-.77.76-.76,1.78,0,3.56,0,5.34.07a3,3,0,0,1,2.87,1.82,2.54,2.54,0,0,1-.7,3.13c-.48.44,0,.61.24.81a2.78,2.78,0,0,1,1.15,3.57,3.14,3.14,0,0,1-2.86,1.89,53,53,0,0,1-6.18.11c-.55,0-.61-.36-.61-.79,0-1.67,0-3.34,0-5m4.58,3.51c.38,0,.88,0,1.37,0,.74,0,1.33-.28,1.35-1.11s-.65-1.17-1.38-1.23c-1-.08-1.93,0-2.89-.06a.5.5,0,0,0-.55.47c-.28,1.61.1,2.05,1.72,2a2.9,2.9,0,0,0,.38-.08m-.25-6.88c-2,0-2,0-1.8,1.87a.14.14,0,0,1,0,.09c-.09.3.14.38.35.38a10.09,10.09,0,0,0,3.05-.16,1,1,0,0,0,.71-1.08,1,1,0,0,0-.94-1c-.45-.06-.9-.06-1.36-.08"
    style="fill: #fff"
  />
  <path
    d="M1382.85,726.94c0-2.06,0-3.94,0-5.82,0-.63.05-1,.88-.88,1.66.12,1.66,0,1.66,1.7,0,2.81,0,5.61,0,8.42,0,.41.27,1.08-.29,1.18s-1.58.42-2.19-.34c-.92-1.14-1.81-2.29-2.71-3.45-.66-.85-1.3-1.7-1.94-2.56-.12-.17-.18-.42-.46-.33s-.16.36-.16.54c0,1.79,0,3.58,0,5.37,0,.67-.19.88-.87.87-2,0-1.7.14-1.71-1.68,0-2.91,0-5.83,0-8.75,0-.74.15-1,1-1a2.52,2.52,0,0,1,2.43,1.26c1.21,1.66,2.47,3.29,3.72,4.92a4.35,4.35,0,0,0,.68.56"
    style="fill: #fff"
  />
  <path
    d="M1405.81,724.87c-.27.19-.19.47-.19.73,0,1.67,0,3.34,0,5,0,.78-.23,1.06-1,1-1.88-.07-1.56.19-1.57-1.58,0-3,0-6,0-9,0-.61.2-.68.8-.81,1.8-.4,2.3,1,3.08,2,1.11,1.37,2.13,2.8,3.2,4.2.15.2.31.53.6.43s.06-.41.06-.63c0-1.81,0-3.63,0-5.45,0-.24.06-.45.31-.45.64,0,1.29,0,1.94,0,.35,0,.32.28.32.53q0,5.1,0,10.19c0,.47-.18.61-.63.65a2.34,2.34,0,0,1-2.38-1c-1.32-1.88-2.77-3.67-4.16-5.49-.09-.12-.17-.25-.35-.27"
    style="fill: #fff"
  />
  <path
    d="M1430.18,725.87c0-1.68,0-3.35,0-5,0-.41,0-.65.56-.64,2.43,0,4.85.07,7.28,0,.79,0,.9.34.88.93,0,.15-.09.3-.06.44.19.82-.24.94-.95.92-1.45,0-2.91,0-4.36,0-.67,0-1,.16-.9.84s-.44,1.49.83,1.45,2.67,0,4,0c.52,0,.65.15.64.58a.28.28,0,0,0,0,.09c.08,1.56.08,1.56-1.5,1.56-1,0-2.06,0-3.09,0-.65,0-.92.17-.91.86,0,1.49,0,1.49,1.47,1.49s2.67,0,4,0c.65,0,.91.17.91.86,0,1.47,0,1.47-1.49,1.47-2.19,0-4.37,0-6.56,0-.6,0-.79-.18-.78-.76,0-1.67,0-3.34,0-5"
    style="fill: #fff"
  />
  <path
    d="M1394.08,729.12c-1.8-.47-2.82.25-3.17,2-.13.65-.67.51-1.09.5-2,0-1.89.31-1.06-1.6,1.31-3,2.67-6,3.89-9.08.42-1.05,1.17-.69,1.86-.76a1.08,1.08,0,0,1,1.28.79c1.31,3.19,2.7,6.35,4.08,9.5.48,1.1.47,1.08-.68,1.18s-1.87-.19-2.09-1.36-.85-1.32-1.84-1.18a9.26,9.26,0,0,1-1.18,0m0-2.25a4.26,4.26,0,0,1,.62,0c.73.1,1-.16.65-.84s-.59-1.36-.86-2c-.07-.16,0-.38-.28-.4s-.29.2-.36.35c-.32.67-.61,1.35-.92,2s-.24.92.62.91h.53"
    style="fill: #fff"
  />
  <path
    d="M1416.54,725.86a5.84,5.84,0,0,1,6.6-5.8,6.26,6.26,0,0,1,3.43,1.24c.39.31.59.62.11,1s-.61,1.07-1.18,1.18-.89-.52-1.39-.75a3.35,3.35,0,0,0-3.57.3,3.57,3.57,0,0,0-1.18,4,3.11,3.11,0,0,0,2.35,2.37,3.43,3.43,0,0,0,3.16-.69c.54-.47.83-.44,1.3.06,1.16,1.24,1.19,1.24-.27,2.13a6.11,6.11,0,0,1-6.37.21,5.49,5.49,0,0,1-3-5.22"
    style="fill: #fff"
  />
  <path
    d="M1371.26,726c0,1.67,0,3.34,0,5,0,.5-.15.62-.6.62-2.45,0-2,.19-2-1.82,0-2.88,0-5.76,0-8.64,0-.71.14-1,.94-.95,1.65.1,1.65.06,1.65,1.67V726Z"
    style="fill: #fff"
  />
  <polyline
    points="1234 0 1234 181 987 181 854 314 337 314"
    style="
      fill: none;
      stroke: #0695c9;
      stroke-miterlimit: 10;
      stroke-width: 3px;
    "
  />
</svg>
