<svg
        id="e92100d8-9617-4749-88de-4c4514270e8a"
        data-name="7f72bab8-0b0a-45e1-ad41-8c9d0d9602ec"
        xmlns="http://www.w3.org/2000/svg"
        xmlns:xlink="http://www.w3.org/1999/xlink"
        viewBox="0 0 1366 768"
      >
        <defs>
          <linearGradient
            id="cfbc5c30-45dc-4c9d-ad5e-2ef3d388556b"
            x1="342.15"
            y1="668.26"
            x2="342.15"
            y2="346.42"
            gradientUnits="userSpaceOnUse"
          >
            <stop offset="0" stop-color="#59095e" />
            <stop offset="1" stop-color="#55b2ff" />
          </linearGradient>
          <linearGradient
            id="9616badb-bee6-48d8-9f3e-2adb5534526d"
            x1="680.75"
            y1="650"
            x2="680.75"
            y2="368.3"
            xlink:href="#cfbc5c30-45dc-4c9d-ad5e-2ef3d388556b"
          />
          <linearGradient
            id="9c6b1be5-e915-476e-a284-c5d9e015a716"
            x1="1050.45"
            y1="668.26"
            x2="1050.45"
            y2="346.04"
            xlink:href="#cfbc5c30-45dc-4c9d-ad5e-2ef3d388556b"
          />
        </defs>        
        <g style="opacity: 0.11999999731779099">
          <path
            d="M80.4,202s600,37.5,1201.6,0"
            style="
              fill: none;
              stroke: #d32ed8;
              stroke-miterlimit: 10;
              stroke-width: 2px;
              opacity: 0.8600000143051147;
              isolation: isolate;
            "
          />
          <path
            d="M80.4,230.8s600,37.5,1201.6,0"
            style="
              fill: none;
              stroke: #d32ed8;
              stroke-miterlimit: 10;
              stroke-width: 2px;
              opacity: 0.8600000143051147;
              isolation: isolate;
            "
          />
          <path
            d="M80.4,262.3s600,37.5,1201.6,0"
            style="
              fill: none;
              stroke: #d32ed8;
              stroke-miterlimit: 10;
              stroke-width: 2px;
              opacity: 0.8600000143051147;
              isolation: isolate;
            "
          />
          <path
            d="M80.4,293.8s600,37.5,1201.6,0"
            style="
              fill: none;
              stroke: #d32ed8;
              stroke-miterlimit: 10;
              stroke-width: 2px;
              opacity: 0.8600000143051147;
              isolation: isolate;
            "
          />
          <path
            d="M80.4,325.3s600,37.5,1201.6,0"
            style="
              fill: none;
              stroke: #d32ed8;
              stroke-miterlimit: 10;
              stroke-width: 2px;
              opacity: 0.8600000143051147;
              isolation: isolate;
            "
          />
          <path
            d="M80.4,356.8s600,37.5,1201.6,0"
            style="
              fill: none;
              stroke: #d32ed8;
              stroke-miterlimit: 10;
              stroke-width: 2px;
              opacity: 0.8600000143051147;
              isolation: isolate;
            "
          />
          <path
            d="M80.4,388.3s600,37.5,1201.6,0"
            style="
              fill: none;
              stroke: #d32ed8;
              stroke-miterlimit: 10;
              stroke-width: 2px;
              opacity: 0.8600000143051147;
              isolation: isolate;
            "
          />
          <path
            d="M80.4,419.7s600,37.5,1201.6,0"
            style="
              fill: none;
              stroke: #d32ed8;
              stroke-miterlimit: 10;
              stroke-width: 2px;
              opacity: 0.8600000143051147;
              isolation: isolate;
            "
          />
          <path
            d="M1281.9,684.8s-600-37.5-1201.6,0"
            style="
              fill: none;
              stroke: #d32ed8;
              stroke-miterlimit: 10;
              stroke-width: 2px;
              opacity: 0.8600000143051147;
              isolation: isolate;
            "
          />
          <path
            d="M1281.9,655.9s-600-37.5-1201.6,0"
            style="
              fill: none;
              stroke: #d32ed8;
              stroke-miterlimit: 10;
              stroke-width: 2px;
              opacity: 0.8600000143051147;
              isolation: isolate;
            "
          />
          <path
            d="M1281.9,624.5s-600-37.5-1201.6,0"
            style="
              fill: none;
              stroke: #d32ed8;
              stroke-miterlimit: 10;
              stroke-width: 2px;
              opacity: 0.8600000143051147;
              isolation: isolate;
            "
          />
          <path
            d="M1281.9,593s-600-37.5-1201.6,0"
            style="
              fill: none;
              stroke: #d32ed8;
              stroke-miterlimit: 10;
              stroke-width: 2px;
              opacity: 0.8600000143051147;
              isolation: isolate;
            "
          />
          <path
            d="M1281.9,561.5s-600-37.5-1201.6,0"
            style="
              fill: none;
              stroke: #d32ed8;
              stroke-miterlimit: 10;
              stroke-width: 2px;
              opacity: 0.8600000143051147;
              isolation: isolate;
            "
          />
          <path
            d="M1281.9,530s-600-37.5-1201.6,0"
            style="
              fill: none;
              stroke: #d32ed8;
              stroke-miterlimit: 10;
              stroke-width: 2px;
              opacity: 0.8600000143051147;
              isolation: isolate;
            "
          />
          <path
            d="M1281.9,498.5s-600-37.5-1201.6,0"
            style="
              fill: none;
              stroke: #d32ed8;
              stroke-miterlimit: 10;
              stroke-width: 2px;
              opacity: 0.8600000143051147;
              isolation: isolate;
            "
          />
          <path
            d="M1281.9,467s-600-37.5-1201.6,0"
            style="
              fill: none;
              stroke: #d32ed8;
              stroke-miterlimit: 10;
              stroke-width: 2px;
              opacity: 0.8600000143051147;
              isolation: isolate;
            "
          />
        </g>
        <path
          d="M80.4,156.6s759.2,58,1201.6,0V719.3s-789.1-70.8-1201.6,0Z"
          style="
            fill: none;
            stroke: #0695c9;
            stroke-miterlimit: 10;
            stroke-width: 3px;
          "
        />
        <polyline
          points="439.3 380.5 224.8 347 224.8 667.7 459.5 640.2 459.5 408.3"
          style="
            fill: none;
            stroke-miterlimit: 10;
            stroke: url(#cfbc5c30-45dc-4c9d-ad5e-2ef3d388556b);
          "
        />
        <polyline
          points="802.8 401.4 802.8 649.5 558.7 649.5 558.7 368.8 788.2 368.8"
          style="
            fill: none;
            stroke-miterlimit: 10;
            stroke: url(#9616badb-bee6-48d8-9f3e-2adb5534526d);
          "
        />
        <polyline
          points="956 372 1165.4 346.6 1165.4 667.7 935.5 641.4 935.5 400.2"
          style="
            fill: none;
            stroke-miterlimit: 10;
            stroke: url(#9c6b1be5-e915-476e-a284-c5d9e015a716);
          "
        />
        <polygon
          points="249.3 167.2 249.3 200.8 523.2 210.5 523.2 254 508.7 271.6 278.2 260.7 266.1 270.1 238.9 269.1 226.2 257.6 226.2 167.2 249.3 167.2"
          style="fill: #0695c9"
        />
        <image
          width="404"
          height="353"
          transform="translate(538.34 380.39) scale(0.7)"
          xlink:href="solutions1.png"
          style="isolation: isolate"
        />
        <image
          width="407"
          height="355"
          transform="translate(891.19 394.39) scale(0.75)"
          xlink:href="solutions2.png"
          style="isolation: isolate"
        />
        <g style="opacity: 0.75">
          <image
            width="290"
            height="290"
            transform="translate(191 378)"
            xlink:href="solutions3.png"
            style="isolation: isolate"
          />
        </g>
        <image
          width="406"
          height="354"
          transform="translate(166.09 372.71) scale(0.78)"
          xlink:href="solutions4.png"
          style="isolation: isolate"
        />
        <circle
          cx="328.1"
          cy="141.4"
          r="14"
          style="
            fill: none;
            stroke: #0695c9;
            stroke-miterlimit: 10;
            stroke-width: 3px;
          "
        />
        <circle
          cx="328.1"
          cy="141.4"
          r="7.6"
          style="
            fill: none;
            stroke: #0695c9;
            stroke-miterlimit: 10;
            stroke-width: 3px;
          "
        />
        <line
          x1="328.1"
          y1="0.1"
          x2="328.1"
          y2="127.3"
          style="
            fill: none;
            stroke: #0695c9;
            stroke-miterlimit: 10;
            stroke-width: 3px;
          "
        />
        <path d="M322.6,611.3h1.5v10.2h5.5v1.3h-7Z" style="fill: #fff" />
        <path
          d="M336.1,622.7v-4.9l-4-6.6h1.8l1.8,3.3a17.09,17.09,0,0,1,1.2,2.3h0c.3-.7.8-1.4,1.3-2.3l1.9-3.3h1.8l-4.2,6.6v4.9Z"
          style="fill: #fff"
        />
        <path
          d="M346.5,611.4a16.55,16.55,0,0,1,3.2-.3,5.23,5.23,0,0,1,3.6,1,2.5,2.5,0,0,1,.9,2.2,2.9,2.9,0,0,1-2.3,2.9h0a2.92,2.92,0,0,1,1.7,2.2,17,17,0,0,0,1,3.2H353a13.82,13.82,0,0,1-.8-2.7c-.4-1.6-1-2.2-2.5-2.2H348v5h-1.5Zm1.6,5.2h1.8c1.7,0,2.8-.8,2.8-2.1,0-1.5-1.3-2.1-2.9-2.1a4.68,4.68,0,0,0-1.7.2v4Z"
          style="fill: #fff"
        />
        <path
          d="M361.9,619.1l-1.3,3.7H359l4.3-11.5h1.9l4.4,11.5h-1.7l-1.4-3.7Zm4.2-1.2-1.3-3.4a8.24,8.24,0,0,1-.6-1.9h0c-.2.6-.4,1.2-.6,1.9l-1.3,3.5Z"
          style="fill: #fff"
        />
        <path
          d="M1022.6,619.3h1.5v5.5h.1a10.59,10.59,0,0,1,1-1.2l4-4.4h2l-4.6,4.9,5,6.6h-1.9l-4.2-5.7-1.3,1.3v4.3h-1.5Z"
          style="fill: #fff"
        />
        <path
          d="M1042.5,625.4h-5v4.1h5.5v1.3h-7.1V619.3h6.8v1.3h-5.3v3.6h5Z"
          style="fill: #fff"
        />
        <path
          d="M1051.4,630.7v-4.9l-4-6.6h1.8l1.8,3.3a17.09,17.09,0,0,1,1.2,2.3h0c.3-.7.8-1.4,1.3-2.3l1.9-3.3h1.8l-4.2,6.6v4.9Z"
          style="fill: #fff"
        />
        <text
          transform="translate(559 215)"
          style="
            isolation: isolate;
            font-size: 18px;
            fill: #fff;
            font-family: ArialMT, Arial;
          "
        >
          <tspan x="0">
            ESTABLISHED IN 2020, 3KEY TECHNOLOGIES IS A DECENTRALIZED
          </tspan>
          <tspan x="0" dy="20px">
            FINANCE ( DEFI ) FOCUSED DIGITAL ASSET COMPANY THAT COMBINES
          </tspan>
          <tspan x="0" dy="20px">
            FUNDAMENTAl RESEARCH WITH AN ACTIVE INVESTMENT APPROACH.
          </tspan>
          <tspan x="0" dy="40px">
            AT 3KEY TECHNOLOGIES, OUR MISSION IS TO GIVE INSTITUTIONAL
          </tspan>
          <tspan x="0" dy="20px">
            AND RETAIL INVESTORS EASY ACCESS TO PREVIOUSLY UNSEEN
          </tspan>
          <tspan x="0" dy="20px">RETURNS THORUGH ( DEFI )</tspan>
        </text>
        <text
          transform="translate(258 247)"
          style="
            isolation: isolate;
            font-size: 36px;
            fill: #fff;
            font-family: Arial-BoldMT, Arial;
            font-weight: 700;
          "
        >
          SOLUTIONS
        </text>
      </svg>