<svg id="_3Key" data-name="3Key" xmlns="http://www.w3.org/2000/svg" xmlns:xlink="http://www.w3.org/1999/xlink" viewBox="0 0 1366 768"><defs><clipPath id="clip-path"><path d="M469.46,301.65h3a11,11,0,0,1,5.16.88,6.1,6.1,0,0,1,2.39,2.6,8.72,8.72,0,0,1,.86,3.94,9.65,9.65,0,0,1-.89,4.21,5.45,5.45,0,0,1-2.41,2.68,9.76,9.76,0,0,1-4.4.8h-3.68Zm-4.92-2.88v21h9.75A13.48,13.48,0,0,0,481,318.3a9.49,9.49,0,0,0,3.75-3.89,11.92,11.92,0,0,0,1.29-5.6,10.48,10.48,0,0,0-1.35-5.46,8.91,8.91,0,0,0-3.63-3.42,14.32,14.32,0,0,0-6.37-1.16Z" style="fill:none"/></clipPath><linearGradient id="linear-gradient" x1="0.94" y1="771.05" x2="1.94" y2="771.05" gradientTransform="matrix(0, -20.96, -20.96, 0, 16634.17, 339.38)" gradientUnits="userSpaceOnUse"><stop offset="0" stop-color="#3962b1"/><stop offset="0.48" stop-color="#3274bf"/><stop offset="0.99" stop-color="#2a8cd2"/><stop offset="1" stop-color="#2a8cd2"/></linearGradient><clipPath id="clip-path-2"><polygon points="490.5 298.77 490.5 319.73 506.4 319.73 506.4 316.76 495.42 316.76 495.42 310.38 503.88 310.38 503.88 307.5 495.42 307.5 495.42 301.66 505.65 301.66 505.65 298.77 490.5 298.77" style="fill:none"/></clipPath><linearGradient id="linear-gradient-2" x1="0.94" y1="771.05" x2="1.94" y2="771.05" gradientTransform="matrix(0, -20.96, -20.96, 0, 16657.32, 339.38)" xlink:href="#linear-gradient"/><clipPath id="clip-path-3"><polygon points="510.16 298.77 510.16 319.73 515.09 319.73 515.09 310.91 523.13 310.91 523.13 308.02 515.09 308.02 515.09 301.66 524.9 301.66 524.9 298.77 510.16 298.77" style="fill:none"/></clipPath><linearGradient id="linear-gradient-3" x1="0.94" y1="771.05" x2="1.94" y2="771.05" gradientTransform="matrix(0, -20.96, -20.96, 0, 16676.4, 339.38)" xlink:href="#linear-gradient"/><clipPath id="clip-path-4"><rect x="528.96" y="298.77" width="4.92" height="20.96" style="fill:none"/></clipPath><linearGradient id="linear-gradient-4" x1="0.94" y1="771.05" x2="1.94" y2="771.05" gradientTransform="matrix(0, -20.96, -20.96, 0, 16690.3, 339.38)" xlink:href="#linear-gradient"/><clipPath id="clip-path-5"><path d="M558.63,303l3.67,8.36H555Zm-1.73-4.22-9.22,21h3.59l2.46-5.59h9.79l2.46,5.59H571l-9.21-21Z" style="fill:none"/></clipPath><linearGradient id="linear-gradient-5" x1="0.94" y1="771.05" x2="1.94" y2="771.05" gradientTransform="matrix(0, -20.96, -20.96, 0, 16718.23, 339.38)" xlink:href="#linear-gradient"/><clipPath id="clip-path-6"><polygon points="589.66 298.77 589.66 313.09 578.72 298.77 574.38 298.77 574.38 319.73 578.33 319.73 578.33 305.41 589.2 319.73 593.61 319.73 593.61 298.77 589.66 298.77" style="fill:none"/></clipPath><linearGradient id="linear-gradient-6" x1="0.94" y1="771.05" x2="1.94" y2="771.05" gradientTransform="matrix(0, -20.96, -20.96, 0, 16742.87, 339.38)" xlink:href="#linear-gradient"/><clipPath id="clip-path-7"><path d="M604.47,301.65h3a11,11,0,0,1,5.16.88,6.16,6.16,0,0,1,2.39,2.6,8.72,8.72,0,0,1,.86,3.94,9.8,9.8,0,0,1-.89,4.21,5.45,5.45,0,0,1-2.41,2.68,9.78,9.78,0,0,1-4.41.8h-3.67Zm-4.93-2.88v21h9.75A13.49,13.49,0,0,0,616,318.3a9.55,9.55,0,0,0,3.75-3.89,11.92,11.92,0,0,0,1.29-5.6,10.48,10.48,0,0,0-1.35-5.46,8.91,8.91,0,0,0-3.63-3.42,14.35,14.35,0,0,0-6.37-1.16Z" style="fill:none"/></clipPath><linearGradient id="linear-gradient-7" x1="0.94" y1="771.05" x2="1.94" y2="771.05" gradientTransform="matrix(0, -20.96, -20.96, 0, 16769.18, 339.38)" xlink:href="#linear-gradient"/><clipPath id="clip-path-8"><polygon points="650.88 298.77 644.86 307.62 639.09 298.77 633.64 298.77 641.59 310.95 641.59 319.73 646.51 319.73 646.51 310.92 654.78 298.77 650.88 298.77" style="fill:none"/></clipPath><linearGradient id="linear-gradient-8" x1="0.94" y1="771.05" x2="1.94" y2="771.05" gradientTransform="matrix(0, -20.96, -20.96, 0, 16803.08, 339.38)" xlink:href="#linear-gradient"/><clipPath id="clip-path-9"><rect x="658.44" y="298.77" width="4.92" height="20.96" style="fill:none"/></clipPath><linearGradient id="linear-gradient-9" x1="0.94" y1="771.05" x2="1.94" y2="771.05" gradientTransform="matrix(0, -20.96, -20.96, 0, 16819.77, 339.38)" xlink:href="#linear-gradient"/><clipPath id="clip-path-10"><polygon points="669.29 298.77 669.29 319.73 685.2 319.73 685.2 316.76 674.22 316.76 674.22 310.38 682.67 310.38 682.67 307.5 674.22 307.5 674.22 301.66 684.45 301.66 684.45 298.77 669.29 298.77" style="fill:none"/></clipPath><linearGradient id="linear-gradient-10" x1="0.94" y1="771.05" x2="1.94" y2="771.05" gradientTransform="matrix(0, -20.96, -20.96, 0, 16836.12, 339.38)" xlink:href="#linear-gradient"/><clipPath id="clip-path-11"><polygon points="688.96 298.77 688.96 319.73 704.42 319.73 704.42 316.76 693.88 316.76 693.88 298.77 688.96 298.77" style="fill:none"/></clipPath><linearGradient id="linear-gradient-11" x1="0.94" y1="771.05" x2="1.94" y2="771.05" gradientTransform="matrix(0, -20.96, -20.96, 0, 16855.56, 339.38)" xlink:href="#linear-gradient"/><clipPath id="clip-path-12"><path d="M712.92,301.65h3a11,11,0,0,1,5.16.88,6.1,6.1,0,0,1,2.39,2.6,8.59,8.59,0,0,1,.86,3.94,9.65,9.65,0,0,1-.89,4.21A5.45,5.45,0,0,1,721,316a9.73,9.73,0,0,1-4.4.8h-3.68ZM708,298.77v21h9.75a13.48,13.48,0,0,0,6.74-1.43,9.42,9.42,0,0,0,3.75-3.89,11.92,11.92,0,0,0,1.29-5.6,10.48,10.48,0,0,0-1.35-5.46,8.91,8.91,0,0,0-3.63-3.42,14.32,14.32,0,0,0-6.37-1.16Z" style="fill:none"/></clipPath><linearGradient id="linear-gradient-12" x1="0.94" y1="771.05" x2="1.94" y2="771.05" gradientTransform="matrix(0, -20.96, -20.96, 0, 16877.64, 339.38)" xlink:href="#linear-gradient"/><clipPath id="clip-path-13"><polygon points="744.41 298.77 744.41 319.73 749.34 319.73 749.34 310.91 757.38 310.91 757.38 308.02 749.34 308.02 749.34 301.66 759.15 301.66 759.15 298.77 744.41 298.77" style="fill:none"/></clipPath><linearGradient id="linear-gradient-13" x1="0.94" y1="771.05" x2="1.94" y2="771.05" gradientTransform="matrix(0, -20.96, -20.96, 0, 16910.66, 339.38)" xlink:href="#linear-gradient"/><clipPath id="clip-path-14"><path d="M771.57,303l3.67,8.36h-7.35Zm-1.73-4.22-9.21,21h3.58l2.46-5.59h9.79l2.46,5.59H784l-9.21-21Z" style="fill:none"/></clipPath><linearGradient id="linear-gradient-14" x1="0.94" y1="771.05" x2="1.94" y2="771.05" gradientTransform="matrix(0, -20.96, -20.96, 0, 16931.17, 339.38)" xlink:href="#linear-gradient"/><clipPath id="clip-path-15"><path d="M792,301.65h1.71c1.94,0,3.22.25,3.85.75a2.5,2.5,0,0,1,1,2.05,3.67,3.67,0,0,1-1.17,2.66c-.77.79-2.18,1.18-4.21,1.18H792Zm-4.64-2.88v21H792v-8.57h2.71l5.88,8.57h6L798.8,310a7.51,7.51,0,0,0,3.39-2.5,5.78,5.78,0,0,0,1.2-3.48,4.93,4.93,0,0,0-.82-2.77,5.09,5.09,0,0,0-2.25-1.83,11.11,11.11,0,0,0-4.14-.6Z" style="fill:none"/></clipPath><linearGradient id="linear-gradient-15" x1="0.94" y1="771.05" x2="1.94" y2="771.05" gradientTransform="matrix(0, -20.96, -20.96, 0, 16955.81, 339.38)" xlink:href="#linear-gradient"/><clipPath id="clip-path-16"><polygon points="828.01 298.77 822.13 313.51 816.42 298.77 809.91 298.77 809.91 319.73 813.78 319.73 813.78 303.7 819.45 318.33 823.41 318.33 829.19 303.91 829.19 319.73 833.73 319.73 833.73 298.77 828.01 298.77" style="fill:none"/></clipPath><linearGradient id="linear-gradient-16" x1="0.94" y1="771.05" x2="1.94" y2="771.05" gradientTransform="matrix(0, -20.96, -20.96, 0, 16980.69, 339.38)" xlink:href="#linear-gradient"/><clipPath id="clip-path-17"><rect x="839.63" y="298.77" width="4.92" height="20.96" style="fill:none"/></clipPath><linearGradient id="linear-gradient-17" x1="0.94" y1="771.05" x2="1.94" y2="771.05" gradientTransform="matrix(0, -20.96, -20.96, 0, 17000.96, 339.38)" xlink:href="#linear-gradient"/><clipPath id="clip-path-18"><polygon points="865.77 298.77 865.77 313.09 854.83 298.77 850.49 298.77 850.49 319.73 854.43 319.73 854.43 305.41 865.3 319.73 869.72 319.73 869.72 298.77 865.77 298.77" style="fill:none"/></clipPath><linearGradient id="linear-gradient-18" x1="0.94" y1="771.05" x2="1.94" y2="771.05" gradientTransform="matrix(0, -20.96, -20.96, 0, 17018.97, 339.38)" xlink:href="#linear-gradient"/><clipPath id="clip-path-19"><path d="M879.53,299.67a9.34,9.34,0,0,0-4,3.92,11.79,11.79,0,0,0-1.33,5.63,10.89,10.89,0,0,0,3,7.91q3,3.12,9.67,3.12c1.08,0,2.1-.05,3.06-.14a41.82,41.82,0,0,0,4.61-.88v-9h-4.92v6.89a11.14,11.14,0,0,1-2,.21,8.16,8.16,0,0,1-6.08-2.18,8,8,0,0,1-2.15-5.87,9.19,9.19,0,0,1,1.83-5.77c1.22-1.58,3.21-2.38,6-2.38a21.26,21.26,0,0,1,2.69.19,32.73,32.73,0,0,1,4.62,1.16v-3.41a37.12,37.12,0,0,0-7.71-.81,15.66,15.66,0,0,0-7.29,1.42" style="fill:none"/></clipPath><linearGradient id="linear-gradient-19" x1="0.94" y1="771.05" x2="1.94" y2="771.05" gradientTransform="matrix(0, -22, -22, 0, 17851.13, 340.95)" xlink:href="#linear-gradient"/><clipPath id="clip-path-20"><path d="M440.89,343.41l3.67,8.35h-7.34Zm-1.73-4.22L430,360.14h3.58l2.46-5.59h9.8l2.45,5.59h5.06l-9.2-20.95Z" style="fill:none"/></clipPath><linearGradient id="linear-gradient-20" x1="0.94" y1="771.05" x2="1.94" y2="771.05" gradientTransform="matrix(0, -20.96, -20.96, 0, 16600.5, 379.79)" gradientUnits="userSpaceOnUse"><stop offset="0" stop-color="#571e85"/><stop offset="0.69" stop-color="#4c308b"/><stop offset="0.99" stop-color="#463a8f"/><stop offset="1" stop-color="#463a8f"/></linearGradient><clipPath id="clip-path-21"><path d="M461.28,342.06H463c1.94,0,3.22.25,3.85.76a2.48,2.48,0,0,1,1,2,3.69,3.69,0,0,1-1.17,2.67c-.77.78-2.17,1.17-4.21,1.17h-1.13Zm-4.64-2.87v20.95h4.64v-8.56H464l5.88,8.56h6l-7.75-9.78a7.51,7.51,0,0,0,3.39-2.5,5.78,5.78,0,0,0,1.2-3.48,4.79,4.79,0,0,0-.82-2.76,5,5,0,0,0-2.25-1.83,11.11,11.11,0,0,0-4.14-.6Z" style="fill:none"/></clipPath><linearGradient id="linear-gradient-21" x1="0.94" y1="771.05" x2="1.94" y2="771.05" gradientTransform="matrix(0, -20.96, -20.96, 0, 16625.13, 379.79)" xlink:href="#linear-gradient-20"/><clipPath id="clip-path-22"><polygon points="479.23 339.19 479.23 360.14 495.14 360.14 495.14 357.17 484.16 357.17 484.16 350.8 492.61 350.8 492.61 347.91 484.16 347.91 484.16 342.07 494.39 342.07 494.39 339.19 479.23 339.19" style="fill:none"/></clipPath><linearGradient id="linear-gradient-22" x1="0.94" y1="771.05" x2="1.94" y2="771.05" gradientTransform="matrix(0, -20.96, -20.96, 0, 16646.06, 379.79)" xlink:href="#linear-gradient-20"/><clipPath id="clip-path-23"><polygon points="506.76 339.19 506.76 342.07 515.24 342.07 515.24 360.14 520.16 360.14 520.16 342.07 528.63 342.07 528.63 339.19 506.76 339.19" style="fill:none"/></clipPath><linearGradient id="linear-gradient-23" x1="0.94" y1="771.05" x2="1.94" y2="771.05" gradientTransform="matrix(0, -20.96, -20.96, 0, 16676.57, 379.79)" xlink:href="#linear-gradient-20"/><clipPath id="clip-path-24"><polygon points="546.65 339.19 546.65 347.7 536.87 347.7 536.87 339.19 531.94 339.19 531.94 360.14 536.87 360.14 536.87 350.58 546.65 350.58 546.65 360.14 551.57 360.14 551.57 339.19 546.65 339.19" style="fill:none"/></clipPath><linearGradient id="linear-gradient-24" x1="0.94" y1="771.05" x2="1.94" y2="771.05" gradientTransform="matrix(0, -20.96, -20.96, 0, 16700.63, 379.79)" xlink:href="#linear-gradient-20"/><clipPath id="clip-path-25"><polygon points="557.49 339.19 557.49 360.14 573.39 360.14 573.39 357.17 562.41 357.17 562.41 350.8 570.87 350.8 570.87 347.91 562.41 347.91 562.41 342.07 572.64 342.07 572.64 339.19 557.49 339.19" style="fill:none"/></clipPath><linearGradient id="linear-gradient-25" x1="0.94" y1="771.05" x2="1.94" y2="771.05" gradientTransform="matrix(0, -20.96, -20.96, 0, 16724.31, 379.79)" xlink:href="#linear-gradient-20"/><clipPath id="clip-path-26"><polygon points="587.61 339.19 587.61 360.14 592.53 360.14 592.53 351.32 600.57 351.32 600.57 348.43 592.53 348.43 592.53 342.07 602.35 342.07 602.35 339.19 587.61 339.19" style="fill:none"/></clipPath><linearGradient id="linear-gradient-26" x1="0.94" y1="771.05" x2="1.94" y2="771.05" gradientTransform="matrix(0, -20.96, -20.96, 0, 16753.85, 379.79)" xlink:href="#linear-gradient-20"/><clipPath id="clip-path-27"><path d="M620.51,339.19v13.16c0,2.14-.42,3.58-1.24,4.32a4.79,4.79,0,0,1-3.34,1.12,5.2,5.2,0,0,1-3.46-1.13c-.89-.76-1.33-2.3-1.33-4.62V339.19h-4.92V352q0,3.63,1.23,5.3a7.45,7.45,0,0,0,3.34,2.5,13.41,13.41,0,0,0,5.05.85,11.81,11.81,0,0,0,4.94-.91,6.94,6.94,0,0,0,3-2.48q1-1.59,1-5.22V339.19Z" style="fill:none"/></clipPath><linearGradient id="linear-gradient-27" x1="0.94" y1="771.05" x2="1.94" y2="771.05" gradientTransform="matrix(0, -21.48, -21.48, 0, 17178.32, 380.84)" xlink:href="#linear-gradient-20"/><clipPath id="clip-path-28"><polygon points="627.92 339.19 627.92 342.07 636.4 342.07 636.4 360.14 641.32 360.14 641.32 342.07 649.79 342.07 649.79 339.19 627.92 339.19" style="fill:none"/></clipPath><linearGradient id="linear-gradient-28" x1="0.94" y1="771.05" x2="1.94" y2="771.05" gradientTransform="matrix(0, -20.96, -20.96, 0, 16797.73, 379.79)" xlink:href="#linear-gradient-20"/><clipPath id="clip-path-29"><path d="M667.2,339.19v13.16q0,3.21-1.23,4.32a4.79,4.79,0,0,1-3.34,1.12,5.18,5.18,0,0,1-3.46-1.13c-.89-.76-1.33-2.3-1.33-4.62V339.19h-4.93V352q0,3.63,1.23,5.3a7.51,7.51,0,0,0,3.34,2.5,13.5,13.5,0,0,0,5.06.85,11.84,11.84,0,0,0,4.94-.91,6.94,6.94,0,0,0,3-2.48q1-1.59,1-5.22V339.19Z" style="fill:none"/></clipPath><linearGradient id="linear-gradient-29" x1="0.94" y1="771.05" x2="1.94" y2="771.05" gradientTransform="matrix(0, -21.48, -21.48, 0, 17225.02, 380.84)" xlink:href="#linear-gradient-20"/><clipPath id="clip-path-30"><path d="M681.85,342.06h1.71c1.94,0,3.22.25,3.85.76a2.47,2.47,0,0,1,.94,2,3.68,3.68,0,0,1-1.16,2.67c-.77.78-2.18,1.17-4.21,1.17h-1.13Zm-4.64-2.87v20.95h4.64v-8.56h2.7l5.89,8.56h6l-7.74-9.78a7.51,7.51,0,0,0,3.39-2.5,5.78,5.78,0,0,0,1.2-3.48,4.87,4.87,0,0,0-.82-2.76,5,5,0,0,0-2.25-1.83,11.11,11.11,0,0,0-4.14-.6Z" style="fill:none"/></clipPath><linearGradient id="linear-gradient-30" x1="0.94" y1="771.05" x2="1.94" y2="771.05" gradientTransform="matrix(0, -20.96, -20.96, 0, 16845.69, 379.79)" xlink:href="#linear-gradient-20"/><clipPath id="clip-path-31"><polygon points="699.8 339.19 699.8 360.14 715.71 360.14 715.71 357.17 704.72 357.17 704.72 350.8 713.18 350.8 713.18 347.91 704.72 347.91 704.72 342.07 714.96 342.07 714.96 339.19 699.8 339.19" style="fill:none"/></clipPath><linearGradient id="linear-gradient-31" x1="0.94" y1="771.05" x2="1.94" y2="771.05" gradientTransform="matrix(0, -20.96, -20.96, 0, 16866.63, 379.79)" xlink:href="#linear-gradient-20"/><clipPath id="clip-path-32"><path d="M735.35,355.32a10.43,10.43,0,0,1,0-11.32,6.51,6.51,0,0,1,10.19,0,9.78,9.78,0,0,1,1.68,5.66,9.91,9.91,0,0,1-1.67,5.66,6.5,6.5,0,0,1-10.2,0M734,340a9.46,9.46,0,0,0-4.17,3.91,12.35,12.35,0,0,0,0,11.5,9.47,9.47,0,0,0,4.16,3.9,15.94,15.94,0,0,0,12.84,0,9.45,9.45,0,0,0,4.15-3.9,12.28,12.28,0,0,0,0-11.5,9.46,9.46,0,0,0-4.17-3.91A15.87,15.87,0,0,0,734,340" style="fill:none"/></clipPath><linearGradient id="linear-gradient-32" x1="0.94" y1="771.05" x2="1.94" y2="771.05" gradientTransform="matrix(0, -22, -22, 0, 17707.21, 381.37)" xlink:href="#linear-gradient-20"/><clipPath id="clip-path-33"><polygon points="756.87 339.19 756.87 360.14 761.8 360.14 761.8 351.32 769.84 351.32 769.84 348.43 761.8 348.43 761.8 342.07 771.61 342.07 771.61 339.19 756.87 339.19" style="fill:none"/></clipPath><linearGradient id="linear-gradient-33" x1="0.94" y1="771.05" x2="1.94" y2="771.05" gradientTransform="matrix(0, -20.96, -20.96, 0, 16923.11, 379.79)" xlink:href="#linear-gradient-20"/><clipPath id="clip-path-34"><polygon points="786.13 339.19 786.13 360.14 791.05 360.14 791.05 351.32 799.1 351.32 799.1 348.43 791.05 348.43 791.05 342.07 800.87 342.07 800.87 339.19 786.13 339.19" style="fill:none"/></clipPath><linearGradient id="linear-gradient-34" x1="0.94" y1="771.05" x2="1.94" y2="771.05" gradientTransform="matrix(0, -20.96, -20.96, 0, 16952.37, 379.79)" xlink:href="#linear-gradient-20"/><clipPath id="clip-path-35"><rect x="804.93" y="339.19" width="4.92" height="20.96" style="fill:none"/></clipPath><linearGradient id="linear-gradient-35" x1="0.94" y1="771.05" x2="1.94" y2="771.05" gradientTransform="matrix(0, -20.96, -20.96, 0, 16966.26, 379.79)" xlink:href="#linear-gradient-20"/><clipPath id="clip-path-36"><polygon points="831.07 339.19 831.07 353.5 820.13 339.19 815.78 339.19 815.78 360.14 819.73 360.14 819.73 345.83 830.6 360.14 835.02 360.14 835.02 339.19 831.07 339.19" style="fill:none"/></clipPath><linearGradient id="linear-gradient-36" x1="0.94" y1="771.05" x2="1.94" y2="771.05" gradientTransform="matrix(0, -20.96, -20.96, 0, 16984.27, 379.79)" xlink:href="#linear-gradient-20"/><clipPath id="clip-path-37"><path d="M849.3,343.41l3.67,8.35h-7.34Zm-1.73-4.22-9.21,20.95h3.58l2.46-5.59h9.8l2.45,5.59h5.07l-9.21-20.95Z" style="fill:none"/></clipPath><linearGradient id="linear-gradient-37" x1="0.94" y1="771.05" x2="1.94" y2="771.05" gradientTransform="matrix(0, -20.96, -20.96, 0, 17008.91, 379.79)" xlink:href="#linear-gradient-20"/><clipPath id="clip-path-38"><polygon points="880.34 339.19 880.34 353.5 869.4 339.19 865.06 339.19 865.06 360.14 869 360.14 869 345.83 879.87 360.14 884.29 360.14 884.29 339.19 880.34 339.19" style="fill:none"/></clipPath><linearGradient id="linear-gradient-38" x1="0.94" y1="771.05" x2="1.94" y2="771.05" gradientTransform="matrix(0, -20.96, -20.96, 0, 17033.54, 379.79)" xlink:href="#linear-gradient-20"/><clipPath id="clip-path-39"><path d="M891.79,341.75a11.8,11.8,0,0,0,0,15.82q3.06,3.09,9.26,3.1a28.07,28.07,0,0,0,2.88-.15c1-.1,1.85-.22,2.62-.37a16.86,16.86,0,0,0,2.7-.83v-3.21a17.44,17.44,0,0,1-7,1.54q-4.12,0-6.21-2.22a8.16,8.16,0,0,1-2.09-5.82,9,9,0,0,1,1.84-5.75q1.85-2.33,5.92-2.32a18.44,18.44,0,0,1,2.09.12c.69.09,1.43.22,2.21.39s1.78.45,3,.83v-3.41a36.81,36.81,0,0,0-7.67-.81q-6.52,0-9.57,3.09" style="fill:none"/></clipPath><linearGradient id="linear-gradient-39" x1="0.94" y1="771.05" x2="1.94" y2="771.05" gradientTransform="matrix(0, -22, -22, 0, 17865.77, 381.37)" xlink:href="#linear-gradient-20"/><clipPath id="clip-path-40"><polygon points="913.54 339.19 913.54 360.14 929.45 360.14 929.45 357.17 918.47 357.17 918.47 350.8 926.92 350.8 926.92 347.91 918.47 347.91 918.47 342.07 928.7 342.07 928.7 339.19 913.54 339.19" style="fill:none"/></clipPath><linearGradient id="linear-gradient-40" x1="0.94" y1="771.05" x2="1.94" y2="771.05" gradientTransform="matrix(0, -20.96, -20.96, 0, 17080.37, 379.79)" xlink:href="#linear-gradient-20"/></defs><title>DeFi</title><path d="M330.48,0V169.37l906.67-.39V637.37H140.72v-21l-.24-358.6V209.46c190,0,190,0,190,0l855.81-.15s0,30,0,30V589.55s0,0,0,0l-985,.74S201,324.16,201,324.15V250.78h0l910.41-.72a0,0,0,0,1,0,0V530l0,0-855.49,1.08-1.28-241.34,244.15-.31" style="fill:none;stroke:#0695c9;stroke-miterlimit:10;stroke-width:3px"/><g style="clip-path:url(#clip-path)"><rect x="464.54" y="298.77" width="21.53" height="20.96" style="fill:url(#linear-gradient)"/></g><g style="clip-path:url(#clip-path-2)"><rect x="490.5" y="298.77" width="15.91" height="20.96" style="fill:url(#linear-gradient-2)"/></g><g style="clip-path:url(#clip-path-3)"><rect x="510.16" y="298.77" width="14.74" height="20.96" style="fill:url(#linear-gradient-3)"/></g><g style="clip-path:url(#clip-path-4)"><rect x="528.96" y="298.77" width="4.92" height="20.96" style="fill:url(#linear-gradient-4)"/></g><g style="clip-path:url(#clip-path-5)"><rect x="547.68" y="298.77" width="23.36" height="20.96" style="fill:url(#linear-gradient-5)"/></g><g style="clip-path:url(#clip-path-6)"><rect x="574.38" y="298.77" width="19.23" height="20.96" style="fill:url(#linear-gradient-6)"/></g><g style="clip-path:url(#clip-path-7)"><rect x="599.54" y="298.77" width="21.53" height="20.96" style="fill:url(#linear-gradient-7)"/></g><g style="clip-path:url(#clip-path-8)"><rect x="633.64" y="298.77" width="21.14" height="20.96" style="fill:url(#linear-gradient-8)"/></g><g style="clip-path:url(#clip-path-9)"><rect x="658.44" y="298.77" width="4.92" height="20.96" style="fill:url(#linear-gradient-9)"/></g><g style="clip-path:url(#clip-path-10)"><rect x="669.29" y="298.77" width="15.91" height="20.96" style="fill:url(#linear-gradient-10)"/></g><g style="clip-path:url(#clip-path-11)"><rect x="688.96" y="298.77" width="15.46" height="20.96" style="fill:url(#linear-gradient-11)"/></g><g style="clip-path:url(#clip-path-12)"><rect x="708" y="298.77" width="21.53" height="20.96" style="fill:url(#linear-gradient-12)"/></g><g style="clip-path:url(#clip-path-13)"><rect x="744.41" y="298.77" width="14.74" height="20.96" style="fill:url(#linear-gradient-13)"/></g><g style="clip-path:url(#clip-path-14)"><rect x="760.62" y="298.77" width="23.36" height="20.96" style="fill:url(#linear-gradient-14)"/></g><g style="clip-path:url(#clip-path-15)"><rect x="787.32" y="298.77" width="19.23" height="20.96" style="fill:url(#linear-gradient-15)"/></g><g style="clip-path:url(#clip-path-16)"><rect x="809.91" y="298.77" width="23.82" height="20.96" style="fill:url(#linear-gradient-16)"/></g><g style="clip-path:url(#clip-path-17)"><rect x="839.63" y="298.77" width="4.92" height="20.96" style="fill:url(#linear-gradient-17)"/></g><g style="clip-path:url(#clip-path-18)"><rect x="850.49" y="298.77" width="19.23" height="20.96" style="fill:url(#linear-gradient-18)"/></g><g style="clip-path:url(#clip-path-19)"><rect x="874.18" y="298.25" width="20.37" height="22.01" style="fill:url(#linear-gradient-19)"/></g><g style="clip-path:url(#clip-path-20)"><rect x="429.95" y="339.19" width="23.36" height="20.96" style="fill:url(#linear-gradient-20)"/></g><g style="clip-path:url(#clip-path-21)"><rect x="456.64" y="339.19" width="19.22" height="20.96" style="fill:url(#linear-gradient-21)"/></g><g style="clip-path:url(#clip-path-22)"><rect x="479.23" y="339.19" width="15.91" height="20.96" style="fill:url(#linear-gradient-22)"/></g><g style="clip-path:url(#clip-path-23)"><rect x="506.76" y="339.19" width="21.87" height="20.96" style="fill:url(#linear-gradient-23)"/></g><g style="clip-path:url(#clip-path-24)"><rect x="531.94" y="339.19" width="19.63" height="20.96" style="fill:url(#linear-gradient-24)"/></g><g style="clip-path:url(#clip-path-25)"><rect x="557.49" y="339.19" width="15.91" height="20.96" style="fill:url(#linear-gradient-25)"/></g><g style="clip-path:url(#clip-path-26)"><rect x="587.61" y="339.19" width="14.74" height="20.96" style="fill:url(#linear-gradient-26)"/></g><g style="clip-path:url(#clip-path-27)"><rect x="606.21" y="339.19" width="18.58" height="21.48" style="fill:url(#linear-gradient-27)"/></g><g style="clip-path:url(#clip-path-28)"><rect x="627.92" y="339.19" width="21.87" height="20.96" style="fill:url(#linear-gradient-28)"/></g><g style="clip-path:url(#clip-path-29)"><rect x="652.91" y="339.19" width="18.58" height="21.48" style="fill:url(#linear-gradient-29)"/></g><g style="clip-path:url(#clip-path-30)"><rect x="677.21" y="339.19" width="19.22" height="20.96" style="fill:url(#linear-gradient-30)"/></g><g style="clip-path:url(#clip-path-31)"><rect x="699.8" y="339.19" width="15.91" height="20.96" style="fill:url(#linear-gradient-31)"/></g><g style="clip-path:url(#clip-path-32)"><rect x="728.45" y="338.66" width="24" height="22.01" style="fill:url(#linear-gradient-32)"/></g><g style="clip-path:url(#clip-path-33)"><rect x="756.87" y="339.19" width="14.74" height="20.96" style="fill:url(#linear-gradient-33)"/></g><g style="clip-path:url(#clip-path-34)"><rect x="786.13" y="339.19" width="14.74" height="20.96" style="fill:url(#linear-gradient-34)"/></g><g style="clip-path:url(#clip-path-35)"><rect x="804.93" y="339.19" width="4.92" height="20.96" style="fill:url(#linear-gradient-35)"/></g><g style="clip-path:url(#clip-path-36)"><rect x="815.78" y="339.19" width="19.23" height="20.96" style="fill:url(#linear-gradient-36)"/></g><g style="clip-path:url(#clip-path-37)"><rect x="838.36" y="339.19" width="23.36" height="20.96" style="fill:url(#linear-gradient-37)"/></g><g style="clip-path:url(#clip-path-38)"><rect x="865.06" y="339.19" width="19.23" height="20.96" style="fill:url(#linear-gradient-38)"/></g><g style="clip-path:url(#clip-path-39)"><rect x="888.75" y="338.66" width="20.51" height="22.01" style="fill:url(#linear-gradient-39)"/></g><g style="clip-path:url(#clip-path-40)"><rect x="913.54" y="339.19" width="15.91" height="20.96" style="fill:url(#linear-gradient-40)"/></g><text transform="translate(397.42 398.02)" style="font-size:16.940170288085938px;fill:#fff;font-family:MyriadPro-Regular, Myriad Pro"><tspan style="letter-spacing:-0.009973058689901107em">A</tspan><tspan x="10.2" y="0">t 3 K</tspan><tspan x="40.86" y="0" style="letter-spacing:0.0029976823807795236em">E</tspan><tspan x="49.24" y="0" style="letter-spacing:-0.000028823869045956954em">Y </tspan><tspan x="62" y="0" style="letter-spacing:-0.005995364761559047em">t</tspan><tspan x="67.5" y="0">echnolo</tspan><tspan x="124.98" y="0" style="letter-spacing:-0.005995364761559047em">g</tspan><tspan x="134.35" y="0">ie</tspan><tspan x="146.8" y="0" style="letter-spacing:-0.0109818941065096em">s</tspan><tspan x="153.32" y="0">, </tspan><tspan x="160.42" y="0" style="letter-spacing:-0.010001882558947064em">w</tspan><tspan x="172.72" y="0" style="letter-spacing:0.000028823869045956954em">e p</tspan><tspan x="194.44" y="0" style="letter-spacing:-0.010001882558947064em">r</tspan><tspan x="199.81" y="0" style="letter-spacing:-0.007004200178167541em">o</tspan><tspan x="208.99" y="0">vide a 1</tspan><tspan x="263.18" y="0" style="letter-spacing:0.01798609428467714em">-</tspan><tspan x="268.68" y="0">click method </tspan><tspan x="363.43" y="0" style="letter-spacing:-0.01297074107068063em">f</tspan><tspan x="368.15" y="0">or clie</tspan><tspan x="410.62" y="0" style="letter-spacing:-0.00397769392834206em">n</tspan><tspan x="419.96" y="0" style="letter-spacing:-0.00005764773809191391em">ts </tspan><tspan x="435.86" y="0" style="letter-spacing:-0.006053012499650961em">t</tspan><tspan x="441.37" y="0" style="letter-spacing:0.00005764773809191391em">o pa</tspan><tspan x="472.06" y="0" style="letter-spacing:0.02398145904623619em">r</tspan><tspan x="478.01" y="0">ticip</tspan><tspan x="508.77" y="0" style="letter-spacing:-0.0040353416664339736em">a</tspan><tspan x="516.87" y="0" style="letter-spacing:-0.005995364761559047em">t</tspan><tspan x="522.38" y="0" style="letter-spacing:-0.00005764773809191391em">e in a</tspan><tspan x="135.62" y="20.33">b</tspan><tspan x="145.26" y="20.33" style="letter-spacing:-0.010001882558947064em">r</tspan><tspan x="150.63" y="20.33" style="letter-spacing:-0.000028823869045956954em">oad base of </tspan><tspan x="235.67" y="20.33" style="letter-spacing:-0.005995364761559047em">c</tspan><tspan x="243.15" y="20.33" style="letter-spacing:-0.000028823869045956954em">ompl</tspan><tspan x="280.22" y="20.33" style="letter-spacing:-0.0029976823807795236em">e</tspan><tspan x="288.66" y="20.33" style="letter-spacing:0.00005764773809191391em">x </tspan><tspan x="300.09" y="20.33" style="letter-spacing:0.00397769392834206em">D</tspan><tspan x="311.44" y="20.33" style="letter-spacing:-0.00005764773809191391em">eFI instrume</tspan><tspan x="398.99" y="20.33" style="letter-spacing:-0.00397769392834206em">n</tspan><tspan x="408.32" y="20.33" style="letter-spacing:-0.00005764773809191391em">t</tspan><tspan x="413.93" y="20.33" style="letter-spacing:-0.010953070237463643em">s</tspan><tspan x="420.45" y="20.33" style="letter-spacing:-0.00005764773809191391em">.</tspan><tspan x="34.77" y="60.98" style="letter-spacing:0.0029688585117335665em">O</tspan><tspan x="46.49" y="60.98">ur </tspan><tspan x="64.96" y="60.98" style="letter-spacing:-0.01599724732050611em">P</tspan><tspan x="73.7" y="60.98" style="letter-spacing:-0.010030706427993022em">r</tspan><tspan x="79.07" y="60.98">op</tspan><tspan x="98" y="60.98" style="letter-spacing:0.00397769392834206em">r</tspan><tspan x="103.61" y="60.98">ieta</tspan><tspan x="129.83" y="60.98" style="letter-spacing:0.024990294462844682em">r</tspan><tspan x="135.8" y="60.98">y Key </tspan><tspan x="176.61" y="60.98" style="letter-spacing:-0.007984211725730076em">S</tspan><tspan x="184.82" y="60.98" style="letter-spacing:-0.005995364761559047em">y</tspan><tspan x="192.7" y="60.98" style="letter-spacing:0.000028823869045956954em">s</tspan><tspan x="199.41" y="60.98" style="letter-spacing:-0.005995364761559047em">t</tspan><tspan x="204.91" y="60.98">em is an a</tspan><tspan x="274.7" y="60.98" style="letter-spacing:0.01297074107068063em">c</tspan><tspan x="282.51" y="60.98">ti</tspan><tspan x="292.08" y="60.98" style="letter-spacing:-0.010030706427993022em">v</tspan><tspan x="300.06" y="60.98">ely managed s</tspan><tspan x="401.79" y="60.98" style="letter-spacing:-0.005995364761559047em">y</tspan><tspan x="409.67" y="60.98">s</tspan><tspan x="416.37" y="60.98" style="letter-spacing:-0.005995364761559047em">t</tspan><tspan x="421.88" y="60.98" style="letter-spacing:-0.00005764773809191391em">em th</tspan><tspan x="463.09" y="60.98" style="letter-spacing:-0.0040353416664339736em">a</tspan><tspan x="471.19" y="60.98">t all</tspan><tspan x="496.55" y="60.98" style="letter-spacing:-0.0069753763091215835em">o</tspan><tspan x="505.73" y="60.98" style="letter-spacing:-0.005995364761559047em">w</tspan><tspan x="518.1" y="60.98">s</tspan><tspan x="26.65" y="81.31">sha</tspan><tspan x="50.92" y="81.31" style="letter-spacing:-0.010001882558947064em">r</tspan><tspan x="56.29" y="81.31">eholders </tspan><tspan x="121.36" y="81.31" style="letter-spacing:-0.00596654089251309em">t</tspan><tspan x="126.86" y="81.31" style="letter-spacing:-0.000028823869045956954em">o pa</tspan><tspan x="157.56" y="81.31" style="letter-spacing:0.02398145904623619em">r</tspan><tspan x="163.5" y="81.31">ticip</tspan><tspan x="194.27" y="81.31" style="letter-spacing:-0.004006517797388017em">a</tspan><tspan x="202.36" y="81.31" style="letter-spacing:-0.00596654089251309em">t</tspan><tspan x="207.87" y="81.31">e in </tspan><tspan x="236.9" y="81.31" style="letter-spacing:-0.006024188630605004em">c</tspan><tspan x="244.39" y="81.31">ompl</tspan><tspan x="281.46" y="81.31" style="letter-spacing:-0.0029976823807795236em">e</tspan><tspan x="289.89" y="81.31" style="letter-spacing:0.00005764773809191391em">x </tspan><tspan x="301.33" y="81.31" style="letter-spacing:0.00397769392834206em">D</tspan><tspan x="312.68" y="81.31">eFI instrume</tspan><tspan x="400.22" y="81.31" style="letter-spacing:-0.00397769392834206em">n</tspan><tspan x="409.56" y="81.31">ts with a click of a</tspan><tspan x="253.64" y="101.64">but</tspan><tspan x="278.22" y="101.64" style="letter-spacing:-0.00596654089251309em">t</tspan><tspan x="283.73" y="101.64" style="letter-spacing:0.000028823869045956954em">on.</tspan></text></svg>