<svg id="_3Key" data-name="3Key" xmlns="http://www.w3.org/2000/svg" xmlns:xlink="http://www.w3.org/1999/xlink" viewBox="0 0 1366 768"><defs><clipPath id="clip-path"><polygon points="335.24 396.66 335.24 349.43 371.33 349.43 371.33 355.94 346.97 355.94 346.97 369.09 367.11 369.09 367.11 375.6 346.97 375.6 346.97 389.96 373.13 389.96 373.13 396.66 335.24 396.66" style="fill:none"/></clipPath><linearGradient id="linear-gradient" x1="1.02" y1="769.02" x2="2.02" y2="769.02" gradientTransform="matrix(0, -47.23, -47.23, 0, 36677.67, 444.89)" gradientUnits="userSpaceOnUse"><stop offset="0" stop-color="#5345a0"/><stop offset="0.28" stop-color="#5146a3"/><stop offset="0.47" stop-color="#4b4bac"/><stop offset="0.64" stop-color="#4153bb"/><stop offset="0.79" stop-color="#335ed1"/><stop offset="0.92" stop-color="#216ced"/><stop offset="1" stop-color="#1576ff"/></linearGradient><clipPath id="clip-path-2"><rect width="1366" height="768" style="fill:none"/></clipPath><linearGradient id="linear-gradient-2" x1="1.01" y1="769.01" x2="2.01" y2="769.01" gradientTransform="matrix(0, -117, -117, 0, 90941.5, 433.5)" gradientUnits="userSpaceOnUse"><stop offset="0" stop-color="#9200e9"/><stop offset="1" stop-color="#0fb2ee"/></linearGradient><clipPath id="clip-path-3"><rect x="770" y="199.58" width="395" height="114.84" style="fill:none"/></clipPath><clipPath id="clip-path-4"><rect x="770.5" y="329.08" width="395" height="114.84" style="fill:none"/></clipPath><clipPath id="clip-path-5"><rect x="770.5" y="459.08" width="395" height="114.84" style="fill:none"/></clipPath><linearGradient id="linear-gradient-3" x1="1.01" y1="769.01" x2="2.01" y2="769.01" gradientTransform="matrix(0, -117, -117, 0, 90942, 563)" xlink:href="#linear-gradient-2"/><linearGradient id="linear-gradient-4" x1="1.01" y1="769.01" x2="2.01" y2="769.01" gradientTransform="matrix(0, -117, -117, 0, 90942, 693)" xlink:href="#linear-gradient-2"/></defs><title>Key</title><polyline points="334 3 334 165 367 165" style="fill:none;stroke:#0fb2ee;stroke-miterlimit:10"/><text transform="translate(329.2 314.66) scale(1.19 1)" style="font-size:65.36080169677734px;fill:#2f7fc9;font-family:LucidaSans-Demi, Lucida Sans;font-weight:700">K</text><text transform="translate(332.2 204.31) scale(1.13 1)" style="font-size:31.70210075378418px;fill:#fff;font-family:LucidaSans-Demi, Lucida Sans;font-weight:700">K</text><text transform="translate(397.19 204.31) scale(1.13 1)" style="font-size:31.70210075378418px;fill:#fff;font-family:LucidaSans-Demi, Lucida Sans;font-weight:700">E</text><text transform="translate(459.18 204.31) scale(1.13 1)" style="font-size:31.70210075378418px;fill:#fff;font-family:LucidaSans-Demi, Lucida Sans;font-weight:700">Y</text><g style="clip-path:url(#clip-path)"><rect x="335.24" y="349.43" width="37.88" height="47.23" style="fill:url(#linear-gradient)"/></g><text transform="translate(328.2 475.66) scale(1.19 1)" style="font-size:65.36080169677734px;fill:#53298e;font-family:LucidaSans-Demi, Lucida Sans;font-weight:700">Y</text><polyline points="643 308 682 308 686 296 765 296" style="fill:none;stroke:#0fb2ee;stroke-miterlimit:10"/><line x1="680" y1="389.5" x2="765" y2="389.5" style="fill:none;stroke:#0fb2ee;stroke-miterlimit:10"/><polyline points="663.5 471.5 695.98 471.5 700.04 483.5 765 483.5" style="fill:none;stroke:#0fb2ee;stroke-miterlimit:10"/><g style="clip-path:url(#clip-path-2)"><path d="M1164.79,315H770.21a2.21,2.21,0,0,1-2.21-2.21V201.21a2.21,2.21,0,0,1,2.21-2.21h394.58a2.21,2.21,0,0,1,2.21,2.21V312.79a2.21,2.21,0,0,1-2.21,2.21h0a2.21,2.21,0,0,0,2.21-2.21V201.21a2.21,2.21,0,0,0-2.21-2.21H770.21a2.21,2.21,0,0,0-2.21,2.21V312.79a2.21,2.21,0,0,0,2.21,2.21Z" style="fill:url(#linear-gradient-2)"/><g style="opacity:0.3000029921531677"><g style="clip-path:url(#clip-path-3)"><path d="M1162.81,314.42H772.19a2.19,2.19,0,0,1-2.19-2.19V201.77a2.19,2.19,0,0,1,2.19-2.19h390.62a2.19,2.19,0,0,1,2.19,2.19V312.23a2.19,2.19,0,0,1-2.19,2.19" style="fill:#3a3e49"/></g></g><g style="opacity:0.3000029921531677"><g style="clip-path:url(#clip-path-4)"><path d="M1163.31,443.92H772.69a2.19,2.19,0,0,1-2.19-2.19V331.27a2.19,2.19,0,0,1,2.19-2.19h390.62a2.19,2.19,0,0,1,2.19,2.19V441.73a2.19,2.19,0,0,1-2.19,2.19" style="fill:#3a3e49"/></g></g><g style="opacity:0.3000029921531677"><g style="clip-path:url(#clip-path-5)"><path d="M1163.31,573.92H772.69a2.19,2.19,0,0,1-2.19-2.19V461.27a2.19,2.19,0,0,1,2.19-2.19h390.62a2.19,2.19,0,0,1,2.19,2.19V571.73a2.19,2.19,0,0,1-2.19,2.19" style="fill:#3a3e49"/></g></g><path d="M1165.29,444.5H770.71a2.21,2.21,0,0,1-2.21-2.21V330.71a2.21,2.21,0,0,1,2.21-2.21h394.58a2.21,2.21,0,0,1,2.21,2.21V442.29a2.21,2.21,0,0,1-2.21,2.21h0a2.21,2.21,0,0,0,2.21-2.21V330.71a2.21,2.21,0,0,0-2.21-2.21H770.71a2.21,2.21,0,0,0-2.21,2.21V442.29a2.21,2.21,0,0,0,2.21,2.21Z" style="fill:url(#linear-gradient-3)"/><path d="M1165.29,574.5H770.71a2.21,2.21,0,0,1-2.21-2.21V460.71a2.21,2.21,0,0,1,2.21-2.21h394.58a2.21,2.21,0,0,1,2.21,2.21V572.29a2.21,2.21,0,0,1-2.21,2.21h0a2.21,2.21,0,0,0,2.21-2.21V460.71a2.21,2.21,0,0,0-2.21-2.21H770.71a2.21,2.21,0,0,0-2.21,2.21V572.29a2.21,2.21,0,0,0,2.21,2.21Z" style="fill:url(#linear-gradient-4)"/></g><text transform="translate(396.38 315.44)" style="font-size:18px;fill:#fff;font-family:MyriadPro-Regular, Myriad Pro;letter-spacing:0.4000108506944444em">N<tspan x="19.04" y="0" style="letter-spacing:0.3990071614583333em">O</tspan><tspan x="38.63" y="0" style="letter-spacing:0.3999837239583333em">WLEDGE BA</tspan><tspan x="193.07" y="0" style="letter-spacing:0.3989800347222222em">S</tspan><tspan x="209.12" y="0">E</tspan><tspan x="225.18" y="0" style="letter-spacing:-0.00002712673611111111em">D</tspan></text><text transform="translate(396.38 396.44)" style="font-size:18px;fill:#fff;font-family:MyriadPro-Regular, Myriad Pro"><tspan style="letter-spacing:0.3789876302083333em">C</tspan><tspan x="17.26" y="0" style="letter-spacing:0.4000108506944444em">ONOMIES O</tspan><tspan x="171.43" y="0" style="letter-spacing:0.3989800347222222em">F</tspan><tspan x="187.38" y="0" style="letter-spacing:0.4000108506944444em"> </tspan><tspan x="198.39" y="0" style="letter-spacing:0.3989800347222222em">S</tspan><tspan x="214.45" y="0" style="letter-spacing:0.4039984809027778em">C</tspan><tspan x="232.16" y="0" style="letter-spacing:0.3999837239583333em">AL</tspan><tspan x="266.07" y="0">E</tspan></text><text transform="translate(396.38 478.45)" style="font-size:18px;fill:#fff;font-family:MyriadPro-Regular, Myriad Pro;letter-spacing:0.4000108506944444em">IELD <tspan x="73.46" y="0" style="letter-spacing:0.3849826388888889em">A</tspan><tspan x="91.4" y="0" style="letter-spacing:0.3990071614583333em">GG</tspan><tspan x="129.02" y="0" style="letter-spacing:0.3999837239583333em">RE</tspan><tspan x="161.96" y="0" style="letter-spacing:0.3990071614583333em">G</tspan><tspan x="180.77" y="0" style="letter-spacing:0.322998046875em">A</tspan><tspan x="197.6" y="0" style="letter-spacing:0.3729926215277778em">T</tspan><tspan x="213.26" y="0" style="letter-spacing:0.3990071614583333em">O</tspan><tspan x="232.85" y="0">R</tspan><tspan x="249.73" y="0" style="letter-spacing:-0.00002712673611111111em">S</tspan></text><text transform="translate(794.37 239.4)" style="font-size:16px;fill:#fff;font-family:MyriadPro-Regular, Myriad Pro"><tspan style="letter-spacing:0.01800537109375em">A</tspan><tspan x="10.08" y="0" style="letter-spacing:0.0269775390625em">t</tspan><tspan x="15.81" y="0" xml:space="preserve" style="letter-spacing:0.02801513671875em"> 3Ke</tspan><tspan x="45.89" y="0" style="letter-spacing:-0.01104736328125em">y</tspan><tspan x="53.25" y="0" style="letter-spacing:0.02801513671875em">, </tspan><tspan x="60.85" y="0" style="letter-spacing:0.0169677734375em">w</tspan><tspan x="72.89" y="0" style="letter-spacing:0.02801513671875em">e </tspan><tspan x="85.2" y="0" style="letter-spacing:0.0269775390625em">aim</tspan><tspan x="111.29" y="0" style="letter-spacing:0.02801513671875em"> </tspan><tspan x="115.13" y="0" style="letter-spacing:0.02099609375em">t</tspan><tspan x="120.77" y="0" style="letter-spacing:0.0269775390625em">o</tspan><tspan x="129.98" y="0" style="letter-spacing:0.02801513671875em"> </tspan><tspan x="133.82" y="0" style="letter-spacing:0.02703857421875em">ca</tspan><tspan x="149.57" y="0" style="letter-spacing:0.02801513671875em">p</tspan><tspan x="159.12" y="0" style="letter-spacing:0.02703857421875em">tu</tspan><tspan x="174.09" y="0" style="letter-spacing:0.0169677734375em">r</tspan><tspan x="179.6" y="0" style="letter-spacing:0.02801513671875em">e </tspan><tspan x="191.9" y="0" style="letter-spacing:0.02703857421875em">th</tspan><tspan x="206.94" y="0" style="letter-spacing:0.02801513671875em">e </tspan><tspan x="219.24" y="0" style="letter-spacing:0.04498291015625em">k</tspan><tspan x="227.47" y="0" style="letter-spacing:0.02703857421875em">n</tspan><tspan x="236.78" y="0" style="letter-spacing:0.01995849609375em">o</tspan><tspan x="245.88" y="0" style="letter-spacing:0.02801513671875em">w</tspan><tspan x="258.11" y="0" style="letter-spacing:0.02703857421875em">l</tspan><tspan x="262.32" y="0" style="letter-spacing:0.02801513671875em">e</tspan><tspan x="270.78" y="0" style="letter-spacing:0.02703857421875em">d</tspan><tspan x="280.24" y="0" style="letter-spacing:0.02801513671875em">ge </tspan><tspan x="301.93" y="0" style="letter-spacing:0.02703857421875em">o</tspan><tspan x="311.15" y="0">f</tspan></text><text transform="translate(794.37 261.4)" style="font-size:16px;fill:#fff;font-family:MyriadPro-Regular, Myriad Pro"><tspan style="letter-spacing:0.0269775390625em">human</tspan><tspan x="49.79" y="0" style="letter-spacing:0.02801513671875em"> </tspan><tspan x="53.63" y="0" style="letter-spacing:0.02496337890625em">e</tspan><tspan x="62.05" y="0" style="letter-spacing:0.02703857421875em">x</tspan><tspan x="69.89" y="0" style="letter-spacing:0.02801513671875em">pe</tspan><tspan x="87.9" y="0" style="letter-spacing:0.051025390625em">r</tspan><tspan x="93.95" y="0" style="letter-spacing:0.0269775390625em">ts</tspan><tspan x="106.45" y="0" style="letter-spacing:0.02801513671875em"> </tspan><tspan x="110.29" y="0" style="letter-spacing:0.02703857421875em">and</tspan><tspan x="137.2" y="0" style="letter-spacing:0.02801513671875em"> </tspan><tspan x="141.04" y="0" style="letter-spacing:0.0269775390625em">d</tspan><tspan x="150.49" y="0" style="letter-spacing:0.02398681640625em">a</tspan><tspan x="158.59" y="0" style="letter-spacing:0.0269775390625em">ta</tspan><tspan x="172.46" y="0" style="letter-spacing:0.02801513671875em"> </tspan><tspan x="176.3" y="0" style="letter-spacing:0.0269775390625em">analytics</tspan><tspan x="238.35" y="0" style="letter-spacing:0.02801513671875em"> </tspan><tspan x="242.19" y="0" style="letter-spacing:0.02203369140625em">t</tspan><tspan x="247.84" y="0" style="letter-spacing:0.0269775390625em">o</tspan><tspan x="257.05" y="0" style="letter-spacing:0.02801513671875em"> </tspan><tspan x="260.89" y="0" style="letter-spacing:0.0269775390625em">su</tspan><tspan x="276.91" y="0" style="letter-spacing:0.02801513671875em">pp</tspan><tspan x="296.01" y="0" style="letter-spacing:0.0269775390625em">o</tspan><tspan x="305.23" y="0" style="letter-spacing:0.05206298828125em">r</tspan><tspan x="311.29" y="0">t</tspan></text><text transform="translate(794.37 283.4)" style="font-size:16px;fill:#fff;font-family:MyriadPro-Regular, Myriad Pro;letter-spacing:0.02703857421875em">d<tspan x="9.46" y="0" style="letter-spacing:0.02801513671875em">e</tspan><tspan x="17.92" y="0" style="letter-spacing:0.0269775390625em">cision</tspan><tspan x="59.17" y="0" style="letter-spacing:0.02801513671875em"> </tspan><tspan x="63.01" y="0">ma</tspan><tspan x="84.93" y="0" style="letter-spacing:0.04400634765625em">k</tspan><tspan x="93.13" y="0" style="letter-spacing:0.0269775390625em">in</tspan><tspan x="106.62" y="0" style="letter-spacing:-0.00006103515625em">g</tspan></text><text transform="translate(882.37 165.4)" style="font-size:14px;fill:#fff;font-family:MyriadPro-Regular, Myriad Pro"><tspan style="letter-spacing:0.19998604910714285em">3</tspan><tspan x="9.98" y="0" style="letter-spacing:0.25404575892857145em">K</tspan><tspan x="21.13" y="0" style="letter-spacing:0.25697544642857145em">E</tspan><tspan x="31.61" y="0" xml:space="preserve" style="letter-spacing:0.2539760044642857em">Y  </tspan><tspan x="55.79" y="0" style="letter-spacing:0.2529994419642857em">A</tspan><tspan x="67.9" y="0" style="letter-spacing:0.2539760044642857em">D</tspan><tspan x="80.78" y="0" style="letter-spacing:0.19698660714285715em">V</tspan><tspan x="91.35" y="0" style="letter-spacing:0.2539760044642857em">AN</tspan><tspan x="116.24" y="0" style="letter-spacing:0.17898995535714285em">T</tspan><tspan x="125.7" y="0" style="letter-spacing:0.23897879464285715em">A</tspan><tspan x="137.62" y="0" style="letter-spacing:0.25404575892857145em">GE</tspan><tspan x="160.66" y="0">S</tspan></text><g style="clip-path:url(#clip-path-2)"><path d="M883,164.94a4.66,4.66,0,0,0,2.37.62c2.18,0,3.31-1.28,3.31-2.73a2.36,2.36,0,0,0-2-2.34v0a2.26,2.26,0,0,0,1.68-2.14c0-1.11-.81-2.17-2.6-2.17a4.34,4.34,0,0,0-2.38.7l.32.89a3.33,3.33,0,0,1,1.82-.6c1.14,0,1.6.65,1.6,1.37,0,1.08-1.14,1.54-2,1.54h-.69V161H885c1.19,0,2.34.54,2.35,1.82,0,.75-.48,1.76-2.06,1.76a4.15,4.15,0,0,1-2-.57Z" style="fill:none;stroke:#fff;stroke-miterlimit:10;stroke-width:0.5px"/><path d="M893.42,165.4h1.22v-3.6l.89-1,3.11,4.63h1.44L896.4,160l3.41-4H898.3l-2.88,3.54c-.24.31-.49.64-.74,1h0V156h-1.22Z" style="fill:none;stroke:#fff;stroke-miterlimit:10;stroke-width:0.5px"/><polygon points="909.45 159.97 905.78 159.97 905.78 156.99 909.66 156.99 909.66 155.97 904.56 155.97 904.56 165.4 909.87 165.4 909.87 164.38 905.78 164.38 905.78 160.98 909.45 160.98 909.45 159.97" style="fill:none;stroke:#fff;stroke-miterlimit:10;stroke-width:0.5px"/><path d="M918.38,165.4v-4l3.16-5.41h-1.38l-1.36,2.6c-.36.71-.69,1.33-.95,2h0c-.29-.66-.58-1.24-.94-2l-1.33-2.6h-1.39l3,5.43v4Z" style="fill:none;stroke:#fff;stroke-miterlimit:10;stroke-width:0.5px"/><path d="M941,161.48l.93-2.73c.18-.57.33-1.15.47-1.71h0c.14.55.28,1.11.49,1.73l.92,2.71Zm3.1,1,1,3h1.3L943.19,156h-1.47l-3.21,9.43h1.26l1-3Z" style="fill:none;stroke:#fff;stroke-miterlimit:10;stroke-width:0.5px"/><path d="M952.57,157a6.87,6.87,0,0,1,1.43-.13c2.57,0,3.83,1.42,3.82,3.64,0,2.55-1.42,4-4,4a8.33,8.33,0,0,1-1.23-.07Zm-1.22,8.38a19.31,19.31,0,0,0,2.21.12,5.8,5.8,0,0,0,4.17-1.36,5,5,0,0,0,1.36-3.67,4.34,4.34,0,0,0-1.33-3.39,5.39,5.39,0,0,0-3.82-1.17,17.72,17.72,0,0,0-2.59.19Z" style="fill:none;stroke:#fff;stroke-miterlimit:10;stroke-width:0.5px"/><path d="M967.65,165.4,971,156h-1.3l-1.6,4.66c-.42,1.23-.81,2.42-1.08,3.51h0c-.25-1.1-.6-2.25-1-3.53L964.54,156h-1.32l3.08,9.43Z" style="fill:none;stroke:#fff;stroke-miterlimit:10;stroke-width:0.5px"/><path d="M976.58,161.48l.92-2.73c.18-.57.34-1.15.48-1.71h0c.15.55.28,1.11.49,1.73l.93,2.71Zm3.09,1,1,3H982L978.76,156h-1.47l-3.21,9.43h1.27l1-3Z" style="fill:none;stroke:#fff;stroke-miterlimit:10;stroke-width:0.5px"/><path d="M988.07,165.4v-4c0-1.57,0-2.7-.1-3.89l0,0a29.59,29.59,0,0,0,1.77,3.15l3,4.79H994V156h-1.15v3.94c0,1.47,0,2.62.14,3.88l0,0a27,27,0,0,0-1.69-3.07l-3-4.77h-1.33v9.43Z" style="fill:none;stroke:#fff;stroke-miterlimit:10;stroke-width:0.5px"/><polygon points="1001.48 165.4 1002.71 165.4 1002.71 157 1005.6 157 1005.6 155.97 998.61 155.97 998.61 157 1001.48 157 1001.48 165.4" style="fill:none;stroke:#fff;stroke-miterlimit:10;stroke-width:0.5px"/><path d="M1010.93,161.48l.93-2.73c.18-.57.33-1.15.47-1.71h0c.14.55.28,1.11.49,1.73l.92,2.71Zm3.1,1,1,3h1.31l-3.22-9.43h-1.47l-3.21,9.43h1.26l1-3Z" style="fill:none;stroke:#fff;stroke-miterlimit:10;stroke-width:0.5px"/><path d="M1028.25,160.45h-3.11v1h1.92v2.81a4,4,0,0,1-1.62.25,3.46,3.46,0,0,1-3.64-3.81,3.52,3.52,0,0,1,3.79-3.79,4.84,4.84,0,0,1,2.09.41l.29-1a6,6,0,0,0-2.35-.43,4.73,4.73,0,0,0-5.11,4.87,4.43,4.43,0,0,0,4.84,4.76,8.68,8.68,0,0,0,2.9-.52Z" style="fill:none;stroke:#fff;stroke-miterlimit:10;stroke-width:0.5px"/><polygon points="1038.55 159.97 1034.89 159.97 1034.89 156.99 1038.76 156.99 1038.76 155.97 1033.67 155.97 1033.67 165.4 1038.97 165.4 1038.97 164.38 1034.89 164.38 1034.89 160.98 1038.55 160.98 1038.55 159.97" style="fill:none;stroke:#fff;stroke-miterlimit:10;stroke-width:0.5px"/><path d="M1043.64,164.94a4.79,4.79,0,0,0,2.4.6c2.23,0,3.31-1.26,3.31-2.71s-.81-2.16-2.41-2.78c-1.3-.5-1.88-.93-1.88-1.82,0-.64.49-1.41,1.78-1.41a3.67,3.67,0,0,1,1.79.45l.34-1a4.39,4.39,0,0,0-2.09-.46c-1.83,0-3.05,1.09-3.05,2.56s1,2.13,2.49,2.68c1.28.49,1.78,1,1.78,1.87s-.73,1.61-2,1.61a4.34,4.34,0,0,1-2.18-.61Z" style="fill:none;stroke:#fff;stroke-miterlimit:10;stroke-width:0.5px"/></g><text transform="translate(794.37 369.4)" style="font-size:16px;fill:#fff;font-family:MyriadPro-Regular, Myriad Pro"><tspan style="letter-spacing:-0.0050048828125em">W</tspan><tspan x="13.46" y="0" style="letter-spacing:0.02801513671875em">e </tspan><tspan x="25.76" y="0" style="letter-spacing:0.0269775390625em">h</tspan><tspan x="35.07" y="0" style="letter-spacing:0.02001953125em">a</tspan><tspan x="43.1" y="0" style="letter-spacing:0.01800537109375em">v</tspan><tspan x="51.09" y="0" style="letter-spacing:0.02801513671875em">e </tspan><tspan x="63.39" y="0" style="letter-spacing:0.02703857421875em">a</tspan><tspan x="71.54" y="0" style="letter-spacing:0.02801513671875em"> </tspan><tspan x="75.38" y="0" style="letter-spacing:0.0269775390625em">si</tspan><tspan x="86.32" y="0" style="letter-spacing:0.02197265625em">g</tspan><tspan x="95.61" y="0" style="letter-spacing:0.0269775390625em">nifica</tspan><tspan x="133.65" y="0" style="letter-spacing:0.0240478515625em">n</tspan><tspan x="142.91" y="0" style="letter-spacing:0.0269775390625em">t</tspan><tspan x="148.64" y="0" xml:space="preserve" style="letter-spacing:0.02801513671875em"> e</tspan><tspan x="160.94" y="0" style="letter-spacing:0.02703857421875em">d</tspan><tspan x="170.4" y="0" style="letter-spacing:0.02801513671875em">ge </tspan><tspan x="192.09" y="0" style="letter-spacing:0.0269775390625em">in</tspan><tspan x="205.58" y="0" style="letter-spacing:0.02801513671875em"> </tspan><tspan x="209.42" y="0" style="letter-spacing:0.01702880859375em">r</tspan><tspan x="214.92" y="0" style="letter-spacing:0.02801513671875em">e</tspan><tspan x="223.39" y="0" style="letter-spacing:0.02703857421875em">ducin</tspan><tspan x="263.18" y="0" style="letter-spacing:0.02801513671875em">g </tspan><tspan x="276.41" y="0" style="letter-spacing:0.02197265625em">c</tspan><tspan x="283.93" y="0" style="letter-spacing:0.0269775390625em">os</tspan><tspan x="299.92" y="0">t</tspan></text><text transform="translate(794.37 391.4)" style="font-size:16px;fill:#fff;font-family:MyriadPro-Regular, Myriad Pro;letter-spacing:0.02801513671875em">pe<tspan x="18.02" y="0" style="letter-spacing:0.0269775390625em">r</tspan><tspan x="23.68" y="0"> </tspan><tspan x="27.52" y="0" style="letter-spacing:0.02703857421875em">unit</tspan><tspan x="55.98" y="0"> </tspan><tspan x="59.82" y="0" style="letter-spacing:0.0269775390625em">o</tspan><tspan x="69.04" y="0" style="letter-spacing:0.0279541015625em">f p</tspan><tspan x="87.55" y="0" style="letter-spacing:0.01806640625em">r</tspan><tspan x="93.07" y="0" style="letter-spacing:0.0269775390625em">odu</tspan><tspan x="120.99" y="0" style="letter-spacing:0.04095458984375em">c</tspan><tspan x="128.81" y="0" style="letter-spacing:0.02703857421875em">tion</tspan><tspan x="157.25" y="0"> </tspan><tspan x="161.08" y="0" style="letter-spacing:0.02105712890625em">b</tspan><tspan x="170.53" y="0" style="letter-spacing:0.0269775390625em">y</tspan><tspan x="178.49" y="0"> </tspan><tspan x="182.33" y="0" style="letter-spacing:0.0269775390625em">achi</tspan><tspan x="211.56" y="0">ev</tspan><tspan x="228.17" y="0" style="letter-spacing:0.0269775390625em">in</tspan><tspan x="241.66" y="0" style="letter-spacing:-0.00006103515625em">g</tspan></text><text transform="translate(794.37 413.4)" style="font-size:16px;fill:#fff;font-family:MyriadPro-Regular, Myriad Pro"><tspan style="letter-spacing:0.02801513671875em">e</tspan><tspan x="8.46" y="0" style="letter-spacing:0.02099609375em">c</tspan><tspan x="15.97" y="0" style="letter-spacing:0.0269775390625em">onomi</tspan><tspan x="61.66" y="0" style="letter-spacing:0.02801513671875em">e</tspan><tspan x="70.13" y="0" style="letter-spacing:0.02703857421875em">s</tspan><tspan x="76.9" y="0" style="letter-spacing:0.02801513671875em"> </tspan><tspan x="80.74" y="0" style="letter-spacing:0.0269775390625em">o</tspan><tspan x="89.95" y="0" style="letter-spacing:0.02801513671875em">f </tspan><tspan x="98.91" y="0" style="letter-spacing:0.0269775390625em">scal</tspan><tspan x="125.63" y="0" style="letter-spacing:0.0159912109375em">e</tspan><tspan x="133.9" y="0">.</tspan></text><text transform="translate(794.37 488.39)" style="font-size:16px;fill:#fff;font-family:MyriadPro-Regular, Myriad Pro"><tspan style="letter-spacing:0.01202392578125em">P</tspan><tspan x="8.7" y="0" style="letter-spacing:0.0169677734375em">r</tspan><tspan x="14.21" y="0" style="letter-spacing:0.0269775390625em">ofit</tspan><tspan x="37.95" y="0" style="letter-spacing:0.02801513671875em"> </tspan><tspan x="41.79" y="0" style="letter-spacing:0.01800537109375em">r</tspan><tspan x="47.31" y="0" style="letter-spacing:0.02801513671875em">e</tspan><tspan x="55.78" y="0" style="letter-spacing:0.0269775390625em">tu</tspan><tspan x="70.75" y="0" style="letter-spacing:0.031005859375em">r</tspan><tspan x="76.48" y="0" style="letter-spacing:0.0269775390625em">n</tspan><tspan x="85.79" y="0" style="letter-spacing:0.02801513671875em"> </tspan><tspan x="89.63" y="0" style="letter-spacing:0.0240478515625em">v</tspan><tspan x="97.71" y="0" style="letter-spacing:0.0269775390625em">a</tspan><tspan x="105.85" y="0" style="letter-spacing:0.05303955078125em">r</tspan><tspan x="111.93" y="0" style="letter-spacing:0.0269775390625em">y</tspan><tspan x="119.9" y="0" style="letter-spacing:0.02801513671875em"> </tspan><tspan x="123.74" y="0" style="letter-spacing:0.02203369140625em">g</tspan><tspan x="133.04" y="0" style="letter-spacing:0.0169677734375em">r</tspan><tspan x="138.54" y="0" style="letter-spacing:0.02801513671875em">e</tspan><tspan x="147.01" y="0" style="letter-spacing:0.02398681640625em">a</tspan><tspan x="155.1" y="0" style="letter-spacing:0.02703857421875em">tly</tspan><tspan x="173.01" y="0" style="letter-spacing:0.02801513671875em"> </tspan><tspan x="176.85" y="0" style="letter-spacing:0.0269775390625em">ac</tspan><tspan x="192.59" y="0" style="letter-spacing:0.01702880859375em">r</tspan><tspan x="198.09" y="0" style="letter-spacing:0.0269775390625em">oss</tspan><tspan x="220.84" y="0" style="letter-spacing:0.02801513671875em"> </tspan><tspan x="224.68" y="0" style="letter-spacing:0.02703857421875em">dif</tspan><tspan x="238.32" y="0" style="letter-spacing:0.0150146484375em">f</tspan><tspan x="247.88" y="0" style="letter-spacing:0.02801513671875em">e</tspan><tspan x="256.35" y="0" style="letter-spacing:0.0179443359375em">r</tspan><tspan x="261.87" y="0" style="letter-spacing:0.02801513671875em">e</tspan><tspan x="270.33" y="0" style="letter-spacing:0.02301025390625em">n</tspan><tspan x="279.58" y="0">t</tspan></text><text transform="translate(794.37 510.39)" style="font-size:16px;fill:#fff;font-family:MyriadPro-Regular, Myriad Pro"><tspan style="letter-spacing:0.02703857421875em">l</tspan><tspan x="4.21" y="0" style="letter-spacing:0.02801513671875em">e</tspan><tspan x="12.67" y="0" style="letter-spacing:0.0269775390625em">adin</tspan><tspan x="43.76" y="0" style="letter-spacing:0.0279541015625em">g p</tspan><tspan x="66.54" y="0" style="letter-spacing:0.0269775390625em">l</tspan><tspan x="70.75" y="0" style="letter-spacing:0.02398681640625em">a</tspan><tspan x="78.85" y="0" style="letter-spacing:0.0269775390625em">t</tspan><tspan x="84.57" y="0" style="letter-spacing:0.0150146484375em">f</tspan><tspan x="89.49" y="0" style="letter-spacing:0.0269775390625em">o</tspan><tspan x="98.7" y="0" style="letter-spacing:0.03106689453125em">r</tspan><tspan x="104.43" y="0" style="letter-spacing:0.0269775390625em">m</tspan><tspan x="118.21" y="0" style="letter-spacing:0.01702880859375em">s</tspan><tspan x="124.81" y="0" style="letter-spacing:0.02801513671875em">. 3Ke</tspan><tspan x="158.65" y="0" style="letter-spacing:0.02197265625em">y</tspan><tspan x="166.54" y="0" style="letter-spacing:0.02703857421875em">s</tspan><tspan x="173.31" y="0" style="letter-spacing:0.02801513671875em"> </tspan><tspan x="177.15" y="0" style="letter-spacing:0.0269775390625em">us</tspan><tspan x="193.17" y="0" style="letter-spacing:0.02801513671875em">e</tspan><tspan x="201.63" y="0" style="letter-spacing:0.0269775390625em">s</tspan><tspan x="208.4" y="0" style="letter-spacing:0.02801513671875em"> </tspan><tspan x="212.24" y="0" style="letter-spacing:0.0269775390625em">yi</tspan><tspan x="224.38" y="0" style="letter-spacing:0.02801513671875em">e</tspan><tspan x="232.84" y="0" style="letter-spacing:0.02703857421875em">ld</tspan><tspan x="246.51" y="0" style="letter-spacing:0.02801513671875em"> </tspan><tspan x="250.35" y="0" style="letter-spacing:0.02703857421875em">a</tspan><tspan x="258.49" y="0" style="letter-spacing:0.02801513671875em">g</tspan><tspan x="267.88" y="0" style="letter-spacing:0.02203369140625em">g</tspan><tspan x="277.18" y="0" style="letter-spacing:0.0169677734375em">r</tspan><tspan x="282.68" y="0" style="letter-spacing:0.02801513671875em">eg</tspan><tspan x="300.54" y="0" style="letter-spacing:0.02398681640625em">a</tspan><tspan x="308.63" y="0" style="letter-spacing:0.02703857421875em">tio</tspan><tspan x="327.75" y="0">n</tspan></text><text transform="translate(794.37 532.39)" style="font-size:16px;fill:#fff;font-family:MyriadPro-Regular, Myriad Pro"><tspan style="letter-spacing:0.02099609375em">t</tspan><tspan x="5.63" y="0" style="letter-spacing:0.0269775390625em">o</tspan><tspan x="14.85" y="0" style="letter-spacing:0.02801513671875em"> </tspan><tspan x="18.69" y="0" style="letter-spacing:0.02703857421875em">h</tspan><tspan x="28" y="0" style="letter-spacing:0.02801513671875em">e</tspan><tspan x="36.46" y="0" style="letter-spacing:0.0269775390625em">l</tspan><tspan x="40.67" y="0" style="letter-spacing:0.02801513671875em">p </tspan><tspan x="54.06" y="0" style="letter-spacing:0.02703857421875em">cli</tspan><tspan x="70.05" y="0" style="letter-spacing:0.02801513671875em">e</tspan><tspan x="78.51" y="0" style="letter-spacing:0.02398681640625em">n</tspan><tspan x="87.77" y="0" style="letter-spacing:0.0269775390625em">ts</tspan><tspan x="100.27" y="0" style="letter-spacing:0.02801513671875em"> </tspan><tspan x="104.11" y="0" style="letter-spacing:0.0269775390625em">achi</tspan><tspan x="133.34" y="0" style="letter-spacing:0.02801513671875em">e</tspan><tspan x="141.81" y="0" style="letter-spacing:0.0179443359375em">v</tspan><tspan x="149.79" y="0" style="letter-spacing:0.02801513671875em">e </tspan><tspan x="162.09" y="0" style="letter-spacing:0.02703857421875em">th</tspan><tspan x="177.13" y="0" style="letter-spacing:0.02801513671875em">e </tspan><tspan x="189.44" y="0" style="letter-spacing:0.0269775390625em">hi</tspan><tspan x="202.92" y="0" style="letter-spacing:0.0279541015625em">g</tspan><tspan x="212.32" y="0" style="letter-spacing:0.0269775390625em">h</tspan><tspan x="221.63" y="0" style="letter-spacing:0.02801513671875em">e</tspan><tspan x="230.09" y="0" style="letter-spacing:0.02703857421875em">st</tspan><tspan x="242.59" y="0" style="letter-spacing:0.02801513671875em"> </tspan><tspan x="246.43" y="0" style="letter-spacing:0.0269775390625em">yi</tspan><tspan x="258.57" y="0" style="letter-spacing:0.02801513671875em">e</tspan><tspan x="267.04" y="0" style="letter-spacing:0.02703857421875em">ld</tspan><tspan x="280.7" y="0" style="letter-spacing:0.0159912109375em">s</tspan><tspan x="287.29" y="0">,</tspan></text><text transform="translate(794.37 554.39)" style="font-size:16px;fill:#fff;font-family:MyriadPro-Regular, Myriad Pro"><tspan style="letter-spacing:0.02703857421875em">maximizin</tspan><tspan x="72.66" y="0" style="letter-spacing:0.02801513671875em">g </tspan><tspan x="85.89" y="0" style="letter-spacing:0.02703857421875em">th</tspan><tspan x="100.93" y="0" style="letter-spacing:0.02801513671875em">e</tspan><tspan x="109.39" y="0" style="letter-spacing:0.0269775390625em">ir</tspan><tspan x="119.23" y="0" style="letter-spacing:0.02801513671875em"> </tspan><tspan x="123.07" y="0" style="letter-spacing:0.01800537109375em">r</tspan><tspan x="128.59" y="0" style="letter-spacing:0.02801513671875em">e</tspan><tspan x="137.05" y="0" style="letter-spacing:0.02703857421875em">tu</tspan><tspan x="152.03" y="0" style="letter-spacing:0.03094482421875em">r</tspan><tspan x="157.76" y="0" style="letter-spacing:0.0269775390625em">n</tspan><tspan x="167.07" y="0">s</tspan></text></svg>