<svg id="_3Key" data-name="3Key" xmlns="http://www.w3.org/2000/svg" xmlns:xlink="http://www.w3.org/1999/xlink" viewBox="0 0 1366 768"><defs><style>.cls-1,.cls-6,.cls-7,.cls-8{fill:none;stroke-miterlimit:10;}.cls-1{stroke:#0fb2ee;}.cls-2,.cls-5{font-size:65.36px;}.cls-2{fill:#2f7fc9;}.cls-2,.cls-3,.cls-5{font-family:LucidaSans-Demi, Lucida Sans;font-weight:700;}.cls-3{font-size:31.7px;fill:#fff;}.cls-4{fill:url(#linear-gradient);}.cls-5{fill:#53298e;}.cls-6{stroke:url(#linear-gradient-2);}.cls-7{stroke:url(#linear-gradient-3);}.cls-8{stroke:url(#linear-gradient-4);}</style><linearGradient id="linear-gradient" x1="354.18" y1="396.66" x2="354.18" y2="349.43" gradientUnits="userSpaceOnUse"><stop offset="0" stop-color="#5345a0"/><stop offset="0.28" stop-color="#5146a3"/><stop offset="0.47" stop-color="#4b4bac"/><stop offset="0.64" stop-color="#4153bb"/><stop offset="0.79" stop-color="#335ed1"/><stop offset="0.92" stop-color="#216cec"/><stop offset="1" stop-color="#1576ff"/></linearGradient><linearGradient id="linear-gradient-2" x1="967.5" y1="315.5" x2="967.5" y2="198.5" gradientUnits="userSpaceOnUse"><stop offset="0" stop-color="#9200e9"/><stop offset="1" stop-color="#0fb2ee"/></linearGradient><linearGradient id="linear-gradient-3" x1="968" y1="445" x2="968" y2="328" xlink:href="#linear-gradient-2"/><linearGradient id="linear-gradient-4" x1="968" y1="575" x2="968" y2="458" xlink:href="#linear-gradient-2"/></defs><title>Key</title><polyline class="cls-1" points="334 3 334 165 367 165"/><text class="cls-2" transform="translate(329.2 314.66) scale(1.19 1)">K</text><text class="cls-3" transform="translate(332.2 204.31) scale(1.13 1)">K</text><text class="cls-3" transform="translate(397.2 204.31) scale(1.13 1)">E</text><text class="cls-3" transform="translate(459.2 204.31) scale(1.13 1)">Y</text><path class="cls-4" d="M335.24,396.66V349.43h36.1v6.51H347v13.15h20.14v6.51H347V390h26.16v6.7Z"/><text class="cls-5" transform="translate(328.2 475.66) scale(1.19 1)">Y</text><polyline class="cls-1" points="643 308 682 308 686 296 765 296"/><line class="cls-1" x1="680" y1="389.5" x2="765" y2="389.5"/><polyline class="cls-1" points="663.5 471.5 695.98 471.5 700.04 483.5 765 483.5"/><rect class="cls-6" x="768" y="199" width="399" height="116" rx="2.21" ry="2.21"/><rect class="cls-7" x="768.5" y="328.5" width="399" height="116" rx="2.21" ry="2.21"/><rect class="cls-8" x="768.5" y="458.5" width="399" height="116" rx="2.21" ry="2.21"/></svg>