<svg id="_3Key" data-name="3Key" xmlns="http://www.w3.org/2000/svg" xmlns:xlink="http://www.w3.org/1999/xlink" viewBox="0 0 1366 768"><defs><linearGradient id="linear-gradient" x1="624" y1="375.99" x2="1278" y2="375.99" gradientUnits="userSpaceOnUse"><stop offset="0" stop-color="#4747a2"/><stop offset="1" stop-color="#472ea2"/></linearGradient><linearGradient id="linear-gradient-2" x1="986.5" y1="156.75" x2="1259" y2="156.75" xlink:href="#linear-gradient"/><linearGradient id="linear-gradient-3" x1="1265" y1="167.5" x2="1266" y2="167.5" xlink:href="#linear-gradient"/><linearGradient id="linear-gradient-4" x1="1258.5" y1="138.5" x2="1277.5" y2="138.5" xlink:href="#linear-gradient"/><linearGradient id="linear-gradient-5" x1="1276" y1="138.5" x2="1279.5" y2="138.5" xlink:href="#linear-gradient"/><linearGradient id="linear-gradient-6" x1="1249.5" y1="213.5" x2="1266.5" y2="213.5" xlink:href="#linear-gradient"/><linearGradient id="linear-gradient-7" x1="1262" y1="228" x2="1269" y2="228" xlink:href="#linear-gradient"/><linearGradient id="linear-gradient-8" x1="1265" y1="260.5" x2="1266" y2="260.5" xlink:href="#linear-gradient"/><linearGradient id="linear-gradient-9" x1="1244" y1="368.25" x2="1259" y2="368.25" xlink:href="#linear-gradient"/><linearGradient id="linear-gradient-10" x1="1258" y1="461.5" x2="1259" y2="461.5" xlink:href="#linear-gradient"/><linearGradient id="linear-gradient-11" x1="1246" y1="463" x2="1266" y2="463" xlink:href="#linear-gradient"/><linearGradient id="linear-gradient-12" x1="1258" y1="566" x2="1259" y2="566" xlink:href="#linear-gradient"/><linearGradient id="linear-gradient-13" x1="1265" y1="562.75" x2="1266" y2="562.75" xlink:href="#linear-gradient"/><linearGradient id="linear-gradient-14" x1="1243.29" y1="627.5" x2="1264.71" y2="627.5" xlink:href="#linear-gradient"/><linearGradient id="linear-gradient-15" x1="1221.31" y1="620.71" x2="1246.67" y2="620.71" xlink:href="#linear-gradient"/><linearGradient id="linear-gradient-16" x1="1212.31" y1="620.78" x2="1237.67" y2="620.78" xlink:href="#linear-gradient"/><linearGradient id="linear-gradient-17" x1="1203.31" y1="620.86" x2="1228.67" y2="620.86" xlink:href="#linear-gradient"/><linearGradient id="linear-gradient-18" x1="1194.31" y1="620.93" x2="1219.67" y2="620.93" xlink:href="#linear-gradient"/><linearGradient id="linear-gradient-19" x1="1185.31" y1="621" x2="1210.67" y2="621" xlink:href="#linear-gradient"/><linearGradient id="linear-gradient-20" x1="1176.31" y1="621.08" x2="1201.67" y2="621.08" xlink:href="#linear-gradient"/><linearGradient id="linear-gradient-21" x1="1167.31" y1="621.15" x2="1192.67" y2="621.15" xlink:href="#linear-gradient"/><linearGradient id="linear-gradient-22" x1="1158.31" y1="621.23" x2="1183.67" y2="621.23" xlink:href="#linear-gradient"/><linearGradient id="linear-gradient-23" x1="1149.31" y1="621.3" x2="1174.67" y2="621.3" xlink:href="#linear-gradient"/><linearGradient id="linear-gradient-24" x1="1140.31" y1="621.37" x2="1165.67" y2="621.37" xlink:href="#linear-gradient"/><linearGradient id="linear-gradient-25" x1="1131.31" y1="621.45" x2="1156.67" y2="621.45" xlink:href="#linear-gradient"/><linearGradient id="linear-gradient-26" x1="1122.31" y1="621.52" x2="1147.67" y2="621.52" xlink:href="#linear-gradient"/><linearGradient id="linear-gradient-27" x1="1113.31" y1="621.6" x2="1138.67" y2="621.6" xlink:href="#linear-gradient"/><linearGradient id="linear-gradient-28" x1="1104.31" y1="621.67" x2="1129.68" y2="621.67" xlink:href="#linear-gradient"/><linearGradient id="linear-gradient-29" x1="1095.31" y1="621.74" x2="1120.68" y2="621.74" xlink:href="#linear-gradient"/><linearGradient id="linear-gradient-30" x1="1086.31" y1="621.82" x2="1111.68" y2="621.82" xlink:href="#linear-gradient"/><linearGradient id="linear-gradient-31" x1="1077.31" y1="621.89" x2="1102.68" y2="621.89" xlink:href="#linear-gradient"/><linearGradient id="linear-gradient-32" x1="1068.32" y1="621.97" x2="1093.68" y2="621.97" xlink:href="#linear-gradient"/><linearGradient id="linear-gradient-33" x1="1059.32" y1="622.04" x2="1084.68" y2="622.04" xlink:href="#linear-gradient"/><linearGradient id="linear-gradient-34" x1="1050.32" y1="622.11" x2="1075.68" y2="622.11" xlink:href="#linear-gradient"/><linearGradient id="linear-gradient-35" x1="1041.32" y1="622.19" x2="1066.68" y2="622.19" xlink:href="#linear-gradient"/><linearGradient id="linear-gradient-36" x1="1032.32" y1="622.26" x2="1057.68" y2="622.26" xlink:href="#linear-gradient"/><linearGradient id="linear-gradient-37" x1="1023.32" y1="622.33" x2="1048.68" y2="622.33" xlink:href="#linear-gradient"/><linearGradient id="linear-gradient-38" x1="1014.32" y1="622.41" x2="1039.68" y2="622.41" xlink:href="#linear-gradient"/><linearGradient id="linear-gradient-39" x1="1005.32" y1="622.48" x2="1030.68" y2="622.48" xlink:href="#linear-gradient"/><linearGradient id="linear-gradient-40" x1="996.32" y1="622.56" x2="1021.68" y2="622.56" xlink:href="#linear-gradient"/><linearGradient id="linear-gradient-41" x1="987.32" y1="622.63" x2="1012.68" y2="622.63" xlink:href="#linear-gradient"/><linearGradient id="linear-gradient-42" x1="978.32" y1="622.7" x2="1003.68" y2="622.7" xlink:href="#linear-gradient"/><linearGradient id="linear-gradient-43" x1="969.32" y1="622.78" x2="994.68" y2="622.78" xlink:href="#linear-gradient"/><linearGradient id="linear-gradient-44" x1="960.32" y1="622.85" x2="985.68" y2="622.85" xlink:href="#linear-gradient"/><linearGradient id="linear-gradient-45" x1="951.32" y1="622.93" x2="976.68" y2="622.93" xlink:href="#linear-gradient"/><linearGradient id="linear-gradient-46" x1="942.32" y1="623" x2="967.68" y2="623" xlink:href="#linear-gradient"/><linearGradient id="linear-gradient-47" x1="933.32" y1="623.07" x2="958.68" y2="623.07" xlink:href="#linear-gradient"/><linearGradient id="linear-gradient-48" x1="924.32" y1="623.15" x2="949.68" y2="623.15" xlink:href="#linear-gradient"/><linearGradient id="linear-gradient-49" x1="915.32" y1="623.22" x2="940.68" y2="623.22" xlink:href="#linear-gradient"/><linearGradient id="linear-gradient-50" x1="906.32" y1="623.3" x2="931.68" y2="623.3" xlink:href="#linear-gradient"/><linearGradient id="linear-gradient-51" x1="897.32" y1="623.37" x2="922.68" y2="623.37" xlink:href="#linear-gradient"/><linearGradient id="linear-gradient-52" x1="888.32" y1="623.44" x2="913.68" y2="623.44" xlink:href="#linear-gradient"/><linearGradient id="linear-gradient-53" x1="879.32" y1="623.52" x2="904.68" y2="623.52" xlink:href="#linear-gradient"/><linearGradient id="linear-gradient-54" x1="870.32" y1="623.59" x2="895.68" y2="623.59" xlink:href="#linear-gradient"/><linearGradient id="linear-gradient-55" x1="861.32" y1="623.67" x2="886.68" y2="623.67" xlink:href="#linear-gradient"/><linearGradient id="linear-gradient-56" x1="852.32" y1="623.74" x2="877.68" y2="623.74" xlink:href="#linear-gradient"/><linearGradient id="linear-gradient-57" x1="843.32" y1="623.81" x2="868.68" y2="623.81" xlink:href="#linear-gradient"/><linearGradient id="linear-gradient-58" x1="834.32" y1="623.89" x2="859.68" y2="623.89" xlink:href="#linear-gradient"/><linearGradient id="linear-gradient-59" x1="825.32" y1="623.96" x2="850.68" y2="623.96" xlink:href="#linear-gradient"/><linearGradient id="linear-gradient-60" x1="816.32" y1="624.03" x2="841.68" y2="624.03" xlink:href="#linear-gradient"/><linearGradient id="linear-gradient-61" x1="807.32" y1="624.11" x2="832.69" y2="624.11" xlink:href="#linear-gradient"/><linearGradient id="linear-gradient-62" x1="798.32" y1="624.18" x2="823.69" y2="624.18" xlink:href="#linear-gradient"/><linearGradient id="linear-gradient-63" x1="789.32" y1="624.26" x2="814.69" y2="624.26" xlink:href="#linear-gradient"/><linearGradient id="linear-gradient-64" x1="780.32" y1="624.33" x2="805.69" y2="624.33" xlink:href="#linear-gradient"/><linearGradient id="linear-gradient-65" x1="771.33" y1="624.4" x2="796.69" y2="624.4" xlink:href="#linear-gradient"/><linearGradient id="linear-gradient-66" x1="762.33" y1="624.48" x2="787.69" y2="624.48" xlink:href="#linear-gradient"/><linearGradient id="linear-gradient-67" x1="753.33" y1="624.55" x2="778.69" y2="624.55" xlink:href="#linear-gradient"/><linearGradient id="linear-gradient-68" x1="744.33" y1="624.63" x2="769.69" y2="624.63" xlink:href="#linear-gradient"/><linearGradient id="linear-gradient-69" x1="735.33" y1="624.7" x2="760.69" y2="624.7" xlink:href="#linear-gradient"/><linearGradient id="linear-gradient-70" x1="726.33" y1="624.77" x2="751.69" y2="624.77" xlink:href="#linear-gradient"/><linearGradient id="linear-gradient-71" x1="717.33" y1="624.85" x2="742.69" y2="624.85" xlink:href="#linear-gradient"/><linearGradient id="linear-gradient-72" x1="708.33" y1="624.92" x2="733.69" y2="624.92" xlink:href="#linear-gradient"/><linearGradient id="linear-gradient-73" x1="699.33" y1="625" x2="724.69" y2="625" xlink:href="#linear-gradient"/><linearGradient id="linear-gradient-74" x1="690.33" y1="625.07" x2="715.69" y2="625.07" xlink:href="#linear-gradient"/><linearGradient id="linear-gradient-75" x1="681.33" y1="625.14" x2="706.69" y2="625.14" xlink:href="#linear-gradient"/><linearGradient id="linear-gradient-76" x1="672.33" y1="625.22" x2="697.69" y2="625.22" xlink:href="#linear-gradient"/><linearGradient id="linear-gradient-77" x1="663.33" y1="625.29" x2="688.69" y2="625.29" xlink:href="#linear-gradient"/><linearGradient id="linear-gradient-78" x1="635.27" y1="124" x2="656.73" y2="124" xlink:href="#linear-gradient"/></defs><title>Lyra</title><polyline points="665.5 116.5 652.5 114.5 624.5 129.5 624.5 622.5 651.5 637.5 1249.5 637.5 1277.5 623.5 1277.5 129.5 1250.5 115.5 985.5 115.5" style="fill:none;stroke-miterlimit:10;stroke:url(#linear-gradient)"/><polyline points="986.5 121.5 1249.5 121.5 1258.5 126.5 1258.5 192.5" style="fill:none;stroke-miterlimit:10;stroke:url(#linear-gradient-2)"/><line x1="1265.5" y1="142.5" x2="1265.5" y2="192.5" style="fill:none;stroke-miterlimit:10;stroke:url(#linear-gradient-3)"/><line x1="1258.5" y1="138.5" x2="1277.5" y2="138.5" style="fill:none;stroke-miterlimit:10;stroke:url(#linear-gradient-4)"/><line x1="1276" y1="138.5" x2="1279.5" y2="138.5" style="fill:none;stroke-miterlimit:10;stroke:url(#linear-gradient-5)"/><rect x="1250" y="196" width="16" height="35" style="fill:none;stroke-miterlimit:10;stroke:url(#linear-gradient-6)"/><rect x="1262.5" y="226.5" width="6" height="3" style="fill:none;stroke-miterlimit:10;stroke:url(#linear-gradient-7)"/><line x1="1265.5" y1="234" x2="1265.5" y2="287" style="fill:none;stroke-miterlimit:10;stroke:url(#linear-gradient-8)"/><polyline points="1258.5 234 1258.5 409 1244.5 416.5 1244.5 502.5" style="fill:none;stroke-miterlimit:10;stroke:url(#linear-gradient-9)"/><line x1="1258.5" y1="422.5" x2="1258.5" y2="500.5" style="fill:none;stroke-miterlimit:10;stroke:url(#linear-gradient-10)"/><polyline points="1265.5 318.5 1265.5 499.5 1246.5 509.5 1246.5 607.5" style="fill:none;stroke-miterlimit:10;stroke:url(#linear-gradient-11)"/><line x1="1258.5" y1="510.5" x2="1258.5" y2="621.5" style="fill:none;stroke-miterlimit:10;stroke:url(#linear-gradient-12)"/><line x1="1265.5" y1="506.5" x2="1265.5" y2="619" style="fill:none;stroke-miterlimit:10;stroke:url(#linear-gradient-13)"/><line x1="1264.5" y1="622.5" x2="1243.5" y2="632.5" style="fill:none;stroke-miterlimit:10;stroke:url(#linear-gradient-14)"/><line x1="1246.44" y1="614.11" x2="1221.54" y2="627.31" style="fill:none;stroke-miterlimit:10;stroke:url(#linear-gradient-15)"/><line x1="1237.44" y1="614.18" x2="1212.54" y2="627.39" style="fill:none;stroke-miterlimit:10;stroke:url(#linear-gradient-16)"/><line x1="1228.44" y1="614.25" x2="1203.54" y2="627.46" style="fill:none;stroke-miterlimit:10;stroke:url(#linear-gradient-17)"/><line x1="1219.44" y1="614.33" x2="1194.55" y2="627.53" style="fill:none;stroke-miterlimit:10;stroke:url(#linear-gradient-18)"/><line x1="1210.44" y1="614.4" x2="1185.55" y2="627.61" style="fill:none;stroke-miterlimit:10;stroke:url(#linear-gradient-19)"/><line x1="1201.44" y1="614.48" x2="1176.55" y2="627.68" style="fill:none;stroke-miterlimit:10;stroke:url(#linear-gradient-20)"/><line x1="1192.44" y1="614.55" x2="1167.55" y2="627.75" style="fill:none;stroke-miterlimit:10;stroke:url(#linear-gradient-21)"/><line x1="1183.44" y1="614.62" x2="1158.55" y2="627.83" style="fill:none;stroke-miterlimit:10;stroke:url(#linear-gradient-22)"/><line x1="1174.44" y1="614.7" x2="1149.55" y2="627.9" style="fill:none;stroke-miterlimit:10;stroke:url(#linear-gradient-23)"/><line x1="1165.44" y1="614.77" x2="1140.55" y2="627.98" style="fill:none;stroke-miterlimit:10;stroke:url(#linear-gradient-24)"/><line x1="1156.44" y1="614.85" x2="1131.55" y2="628.05" style="fill:none;stroke-miterlimit:10;stroke:url(#linear-gradient-25)"/><line x1="1147.44" y1="614.92" x2="1122.55" y2="628.12" style="fill:none;stroke-miterlimit:10;stroke:url(#linear-gradient-26)"/><line x1="1138.44" y1="614.99" x2="1113.55" y2="628.2" style="fill:none;stroke-miterlimit:10;stroke:url(#linear-gradient-27)"/><line x1="1129.44" y1="615.07" x2="1104.55" y2="628.27" style="fill:none;stroke-miterlimit:10;stroke:url(#linear-gradient-28)"/><line x1="1120.44" y1="615.14" x2="1095.55" y2="628.35" style="fill:none;stroke-miterlimit:10;stroke:url(#linear-gradient-29)"/><line x1="1111.44" y1="615.22" x2="1086.55" y2="628.42" style="fill:none;stroke-miterlimit:10;stroke:url(#linear-gradient-30)"/><line x1="1102.44" y1="615.29" x2="1077.55" y2="628.49" style="fill:none;stroke-miterlimit:10;stroke:url(#linear-gradient-31)"/><line x1="1093.44" y1="615.36" x2="1068.55" y2="628.57" style="fill:none;stroke-miterlimit:10;stroke:url(#linear-gradient-32)"/><line x1="1084.44" y1="615.44" x2="1059.55" y2="628.64" style="fill:none;stroke-miterlimit:10;stroke:url(#linear-gradient-33)"/><line x1="1075.44" y1="615.51" x2="1050.55" y2="628.72" style="fill:none;stroke-miterlimit:10;stroke:url(#linear-gradient-34)"/><line x1="1066.44" y1="615.58" x2="1041.55" y2="628.79" style="fill:none;stroke-miterlimit:10;stroke:url(#linear-gradient-35)"/><line x1="1057.44" y1="615.66" x2="1032.55" y2="628.86" style="fill:none;stroke-miterlimit:10;stroke:url(#linear-gradient-36)"/><line x1="1048.44" y1="615.73" x2="1023.55" y2="628.94" style="fill:none;stroke-miterlimit:10;stroke:url(#linear-gradient-37)"/><line x1="1039.44" y1="615.81" x2="1014.55" y2="629.01" style="fill:none;stroke-miterlimit:10;stroke:url(#linear-gradient-38)"/><line x1="1030.44" y1="615.88" x2="1005.55" y2="629.09" style="fill:none;stroke-miterlimit:10;stroke:url(#linear-gradient-39)"/><line x1="1021.44" y1="615.95" x2="996.55" y2="629.16" style="fill:none;stroke-miterlimit:10;stroke:url(#linear-gradient-40)"/><line x1="1012.44" y1="616.03" x2="987.55" y2="629.23" style="fill:none;stroke-miterlimit:10;stroke:url(#linear-gradient-41)"/><line x1="1003.44" y1="616.1" x2="978.55" y2="629.31" style="fill:none;stroke-miterlimit:10;stroke:url(#linear-gradient-42)"/><line x1="994.45" y1="616.18" x2="969.55" y2="629.38" style="fill:none;stroke-miterlimit:10;stroke:url(#linear-gradient-43)"/><line x1="985.45" y1="616.25" x2="960.55" y2="629.45" style="fill:none;stroke-miterlimit:10;stroke:url(#linear-gradient-44)"/><line x1="976.45" y1="616.32" x2="951.55" y2="629.53" style="fill:none;stroke-miterlimit:10;stroke:url(#linear-gradient-45)"/><line x1="967.45" y1="616.4" x2="942.55" y2="629.6" style="fill:none;stroke-miterlimit:10;stroke:url(#linear-gradient-46)"/><line x1="958.45" y1="616.47" x2="933.55" y2="629.68" style="fill:none;stroke-miterlimit:10;stroke:url(#linear-gradient-47)"/><line x1="949.45" y1="616.55" x2="924.55" y2="629.75" style="fill:none;stroke-miterlimit:10;stroke:url(#linear-gradient-48)"/><line x1="940.45" y1="616.62" x2="915.55" y2="629.82" style="fill:none;stroke-miterlimit:10;stroke:url(#linear-gradient-49)"/><line x1="931.45" y1="616.69" x2="906.56" y2="629.9" style="fill:none;stroke-miterlimit:10;stroke:url(#linear-gradient-50)"/><line x1="922.45" y1="616.77" x2="897.56" y2="629.97" style="fill:none;stroke-miterlimit:10;stroke:url(#linear-gradient-51)"/><line x1="913.45" y1="616.84" x2="888.56" y2="630.05" style="fill:none;stroke-miterlimit:10;stroke:url(#linear-gradient-52)"/><line x1="904.45" y1="616.91" x2="879.56" y2="630.12" style="fill:none;stroke-miterlimit:10;stroke:url(#linear-gradient-53)"/><line x1="895.45" y1="616.99" x2="870.56" y2="630.19" style="fill:none;stroke-miterlimit:10;stroke:url(#linear-gradient-54)"/><line x1="886.45" y1="617.06" x2="861.56" y2="630.27" style="fill:none;stroke-miterlimit:10;stroke:url(#linear-gradient-55)"/><line x1="877.45" y1="617.14" x2="852.56" y2="630.34" style="fill:none;stroke-miterlimit:10;stroke:url(#linear-gradient-56)"/><line x1="868.45" y1="617.21" x2="843.56" y2="630.42" style="fill:none;stroke-miterlimit:10;stroke:url(#linear-gradient-57)"/><line x1="859.45" y1="617.28" x2="834.56" y2="630.49" style="fill:none;stroke-miterlimit:10;stroke:url(#linear-gradient-58)"/><line x1="850.45" y1="617.36" x2="825.56" y2="630.56" style="fill:none;stroke-miterlimit:10;stroke:url(#linear-gradient-59)"/><line x1="841.45" y1="617.43" x2="816.56" y2="630.64" style="fill:none;stroke-miterlimit:10;stroke:url(#linear-gradient-60)"/><line x1="832.45" y1="617.51" x2="807.56" y2="630.71" style="fill:none;stroke-miterlimit:10;stroke:url(#linear-gradient-61)"/><line x1="823.45" y1="617.58" x2="798.56" y2="630.78" style="fill:none;stroke-miterlimit:10;stroke:url(#linear-gradient-62)"/><line x1="814.45" y1="617.65" x2="789.56" y2="630.86" style="fill:none;stroke-miterlimit:10;stroke:url(#linear-gradient-63)"/><line x1="805.45" y1="617.73" x2="780.56" y2="630.93" style="fill:none;stroke-miterlimit:10;stroke:url(#linear-gradient-64)"/><line x1="796.45" y1="617.8" x2="771.56" y2="631.01" style="fill:none;stroke-miterlimit:10;stroke:url(#linear-gradient-65)"/><line x1="787.45" y1="617.88" x2="762.56" y2="631.08" style="fill:none;stroke-miterlimit:10;stroke:url(#linear-gradient-66)"/><line x1="778.45" y1="617.95" x2="753.56" y2="631.15" style="fill:none;stroke-miterlimit:10;stroke:url(#linear-gradient-67)"/><line x1="769.45" y1="618.02" x2="744.56" y2="631.23" style="fill:none;stroke-miterlimit:10;stroke:url(#linear-gradient-68)"/><line x1="760.45" y1="618.1" x2="735.56" y2="631.3" style="fill:none;stroke-miterlimit:10;stroke:url(#linear-gradient-69)"/><line x1="751.45" y1="618.17" x2="726.56" y2="631.38" style="fill:none;stroke-miterlimit:10;stroke:url(#linear-gradient-70)"/><line x1="742.45" y1="618.25" x2="717.56" y2="631.45" style="fill:none;stroke-miterlimit:10;stroke:url(#linear-gradient-71)"/><line x1="733.45" y1="618.32" x2="708.56" y2="631.52" style="fill:none;stroke-miterlimit:10;stroke:url(#linear-gradient-72)"/><line x1="724.45" y1="618.39" x2="699.56" y2="631.6" style="fill:none;stroke-miterlimit:10;stroke:url(#linear-gradient-73)"/><line x1="715.45" y1="618.47" x2="690.56" y2="631.67" style="fill:none;stroke-miterlimit:10;stroke:url(#linear-gradient-74)"/><line x1="706.46" y1="618.54" x2="681.56" y2="631.75" style="fill:none;stroke-miterlimit:10;stroke:url(#linear-gradient-75)"/><line x1="697.46" y1="618.61" x2="672.56" y2="631.82" style="fill:none;stroke-miterlimit:10;stroke:url(#linear-gradient-76)"/><line x1="688.46" y1="618.69" x2="663.56" y2="631.89" style="fill:none;stroke-miterlimit:10;stroke:url(#linear-gradient-77)"/><line x1="656.5" y1="118.5" x2="635.5" y2="129.5" style="fill:none;stroke-miterlimit:10;stroke:url(#linear-gradient-78)"/><polyline points="365.5 161.5 330.5 161.5 330.5 -0.33" style="fill:none;stroke:#0fb2ee;stroke-miterlimit:10"/><text transform="translate(333.2 392.66) scale(1.19 1)" style="font-size:65.36084747314453px;fill:#3a67b8;font-family:ArialNarrow, Arial;letter-spacing:-0.014157751346897986em">Y</text><text transform="translate(337.2 310.66) scale(1.19 1)" style="font-size:65.36084747314453px;fill:#2f7fc9;font-family:ArialNarrow, Arial;letter-spacing:-0.029787007146038796em">L</text><path d="M334.61,475q1.15-9.51,1.72-21.86t.58-21.7q4.56.06,7.65.06,3.31,0,6.49-.09t6.72-.1a69.08,69.08,0,0,1,7.9.41,16.72,16.72,0,0,1,6.18,1.92,10.62,10.62,0,0,1,4,3.64,9.34,9.34,0,0,1,1.31,5,11.44,11.44,0,0,1-.49,3.39,11.09,11.09,0,0,1-1.47,3,11.82,11.82,0,0,1-2.3,2.49,13.79,13.79,0,0,1-2.65,1.69,18.23,18.23,0,0,1-3,1.07c-1.12.29-2.61.66-4.49,1.08l2.59,4.21c.84,1.34,2.42,3.75,4.76,7.22L374,472.1c.21.29.81,1.26,1.83,2.9l-6.15-.06q-1.83,0-6.45.06L359,466.51q-1.1-2-2.66-4.59l-4.6-7.76c-.46-.72-1.09-1.81-1.9-3.26a31,31,0,0,0,4.65.39,18.86,18.86,0,0,0,6-.9,8.36,8.36,0,0,0,4.16-2.76,6.51,6.51,0,0,0,1.44-4.07,5.15,5.15,0,0,0-.62-2.48,5,5,0,0,0-2.12-1.95,9.68,9.68,0,0,0-3.54-1,37.74,37.74,0,0,0-4.11-.23c-.76,0-1.8,0-3.12,0s-2.95,0-4.88,0L347,451.06,346.27,475l-5.9-.06Z" style="fill:#4747a2"/><polyline points="374 558 354 517 334 558" style="fill:none;stroke:#55258b;stroke-miterlimit:10;stroke-width:8px"/><g style="opacity:0.2"><image width="654" height="538" transform="translate(620 106)" xlink:href="Lyra1.png"/></g><text transform="translate(682.93 213.08)" style="font-size:16px;fill:#fff;font-family:MyriadPro-Regular, Myriad Pro">LYRA (Leverage Yield Risk Analytics) is our proprietary AI system developed by<tspan x="0" y="22">our research team to access public data to help manage risks involved in</tspan><tspan x="0" y="44">leverage farming.</tspan></text><text transform="translate(680.93 323.08)" style="font-size:16px;fill:#fff;font-family:MyriadPro-Regular, Myriad Pro">The 3 Key indicators we work on before deploying any funds into any Defi<tspan x="0" y="22">Protocols are Smart Contract Integrity, On Chain Data and Social Sentiments.</tspan></text><text transform="translate(682.93 411.08)" style="font-size:16px;fill:#fff;font-family:MyriadPro-Regular, Myriad Pro">Smart Contract Integrity - By incorporating smart contract audits, we can<tspan x="0" y="22">prevent “rug pull’s” and exploits</tspan></text><text transform="translate(681.93 476.08)" style="font-size:16px;fill:#fff;font-family:MyriadPro-Regular, Myriad Pro">On Chain Data - to ensure that protocol funds fairly distributed and there is<tspan x="0" y="22">no potential pump and dump activities by whales or protocol owners.</tspan></text><text transform="translate(680.93 543.08)" style="font-size:16px;fill:#fff;font-family:MyriadPro-Regular, Myriad Pro">Social Sentiments - helps keep track on the pulse of the markets. Our AI<tspan x="0" y="22">sentiment and machine learning technology, we can cleverly detect change in</tspan><tspan x="0" y="44">market sentiments</tspan></text><text transform="translate(395.93 313.08)" style="font-size:18px;fill:#fff;font-family:MyriadPro-Regular, Myriad Pro">EVERAGE</text><text transform="translate(333.04 203.68)" style="font-size:39px;fill:#fff;font-family:MyriadPro-Regular, Myriad Pro">LYRA</text><text transform="translate(394.93 395.08)" style="font-size:18px;fill:#fff;font-family:MyriadPro-Regular, Myriad Pro">IELD</text><text transform="translate(394.93 477.08)" style="font-size:18px;fill:#fff;font-family:MyriadPro-Regular, Myriad Pro">ISK</text><text transform="translate(394.93 559.08)" style="font-size:18px;fill:#fff;font-family:MyriadPro-Regular, Myriad Pro">NALYTICS</text></svg>