<svg id="_3Key" data-name="3Key" xmlns="http://www.w3.org/2000/svg" viewBox="0 0 1366 768"><defs><style>.cls-1,.cls-2,.cls-7{fill:none;stroke-miterlimit:10;}.cls-1,.cls-2{stroke:#0fb2ee;}.cls-2{stroke-width:2px;}.cls-3{fill:#0fb2ee;}.cls-4,.cls-5{font-size:65.36px;font-family:ArialNarrow, Arial;}.cls-4{fill:#3a67b8;letter-spacing:-0.01em;}.cls-5{fill:#2f7fc9;letter-spacing:-0.03em;}.cls-6{fill:#4747a2;}.cls-7{stroke:#55258b;stroke-width:8px;}</style></defs><title>Lyra</title><polyline class="cls-1" points="665.5 116.5 652.5 114.5 624.5 129.5 624.5 622.5 651.5 637.5 1249.5 637.5 1277.5 623.5 1277.5 129.5 1250.5 115.5 985.5 115.5"/><polyline class="cls-1" points="986.5 121.5 1249.5 121.5 1258.5 126.5 1258.5 192.5"/><line class="cls-1" x1="1265.5" y1="142.5" x2="1265.5" y2="192.5"/><line class="cls-1" x1="1258.5" y1="138.5" x2="1277.5" y2="138.5"/><line class="cls-2" x1="1276" y1="138.5" x2="1279.5" y2="138.5"/><rect class="cls-1" x="1250" y="196" width="16" height="35"/><rect class="cls-3" x="1262.5" y="226.5" width="6" height="3"/><line class="cls-1" x1="1265.5" y1="234" x2="1265.5" y2="287"/><polyline class="cls-1" points="1258.5 234 1258.5 409 1244.5 416.5 1244.5 502.5"/><line class="cls-1" x1="1258.5" y1="422.5" x2="1258.5" y2="500.5"/><polyline class="cls-1" points="1265.5 318.5 1265.5 499.5 1246.5 509.5 1246.5 607.5"/><line class="cls-1" x1="1258.5" y1="510.5" x2="1258.5" y2="621.5"/><line class="cls-1" x1="1265.5" y1="506.5" x2="1265.5" y2="619"/><line class="cls-1" x1="1264.5" y1="622.5" x2="1243.5" y2="632.5"/><line class="cls-1" x1="1246.44" y1="614.11" x2="1221.54" y2="627.31"/><line class="cls-1" x1="1237.44" y1="614.18" x2="1212.54" y2="627.39"/><line class="cls-1" x1="1228.44" y1="614.25" x2="1203.54" y2="627.46"/><line class="cls-1" x1="1219.44" y1="614.33" x2="1194.55" y2="627.53"/><line class="cls-1" x1="1210.44" y1="614.4" x2="1185.55" y2="627.61"/><line class="cls-1" x1="1201.44" y1="614.48" x2="1176.55" y2="627.68"/><line class="cls-1" x1="1192.44" y1="614.55" x2="1167.55" y2="627.75"/><line class="cls-1" x1="1183.44" y1="614.62" x2="1158.55" y2="627.83"/><line class="cls-1" x1="1174.44" y1="614.7" x2="1149.55" y2="627.9"/><line class="cls-1" x1="1165.44" y1="614.77" x2="1140.55" y2="627.98"/><line class="cls-1" x1="1156.44" y1="614.85" x2="1131.55" y2="628.05"/><line class="cls-1" x1="1147.44" y1="614.92" x2="1122.55" y2="628.12"/><line class="cls-1" x1="1138.44" y1="614.99" x2="1113.55" y2="628.2"/><line class="cls-1" x1="1129.44" y1="615.07" x2="1104.55" y2="628.27"/><line class="cls-1" x1="1120.44" y1="615.14" x2="1095.55" y2="628.35"/><line class="cls-1" x1="1111.44" y1="615.22" x2="1086.55" y2="628.42"/><line class="cls-1" x1="1102.44" y1="615.29" x2="1077.55" y2="628.49"/><line class="cls-1" x1="1093.44" y1="615.36" x2="1068.55" y2="628.57"/><line class="cls-1" x1="1084.44" y1="615.44" x2="1059.55" y2="628.64"/><line class="cls-1" x1="1075.44" y1="615.51" x2="1050.55" y2="628.72"/><line class="cls-1" x1="1066.44" y1="615.58" x2="1041.55" y2="628.79"/><line class="cls-1" x1="1057.44" y1="615.66" x2="1032.55" y2="628.86"/><line class="cls-1" x1="1048.44" y1="615.73" x2="1023.55" y2="628.94"/><line class="cls-1" x1="1039.44" y1="615.81" x2="1014.55" y2="629.01"/><line class="cls-1" x1="1030.44" y1="615.88" x2="1005.55" y2="629.09"/><line class="cls-1" x1="1021.44" y1="615.95" x2="996.55" y2="629.16"/><line class="cls-1" x1="1012.44" y1="616.03" x2="987.55" y2="629.23"/><line class="cls-1" x1="1003.44" y1="616.1" x2="978.55" y2="629.31"/><line class="cls-1" x1="994.45" y1="616.18" x2="969.55" y2="629.38"/><line class="cls-1" x1="985.45" y1="616.25" x2="960.55" y2="629.45"/><line class="cls-1" x1="976.45" y1="616.32" x2="951.55" y2="629.53"/><line class="cls-1" x1="967.45" y1="616.4" x2="942.55" y2="629.6"/><line class="cls-1" x1="958.45" y1="616.47" x2="933.55" y2="629.68"/><line class="cls-1" x1="949.45" y1="616.55" x2="924.55" y2="629.75"/><line class="cls-1" x1="940.45" y1="616.62" x2="915.55" y2="629.82"/><line class="cls-1" x1="931.45" y1="616.69" x2="906.56" y2="629.9"/><line class="cls-1" x1="922.45" y1="616.77" x2="897.56" y2="629.97"/><line class="cls-1" x1="913.45" y1="616.84" x2="888.56" y2="630.05"/><line class="cls-1" x1="904.45" y1="616.91" x2="879.56" y2="630.12"/><line class="cls-1" x1="895.45" y1="616.99" x2="870.56" y2="630.19"/><line class="cls-1" x1="886.45" y1="617.06" x2="861.56" y2="630.27"/><line class="cls-1" x1="877.45" y1="617.14" x2="852.56" y2="630.34"/><line class="cls-1" x1="868.45" y1="617.21" x2="843.56" y2="630.42"/><line class="cls-1" x1="859.45" y1="617.28" x2="834.56" y2="630.49"/><line class="cls-1" x1="850.45" y1="617.36" x2="825.56" y2="630.56"/><line class="cls-1" x1="841.45" y1="617.43" x2="816.56" y2="630.64"/><line class="cls-1" x1="832.45" y1="617.51" x2="807.56" y2="630.71"/><line class="cls-1" x1="823.45" y1="617.58" x2="798.56" y2="630.78"/><line class="cls-1" x1="814.45" y1="617.65" x2="789.56" y2="630.86"/><line class="cls-1" x1="805.45" y1="617.73" x2="780.56" y2="630.93"/><line class="cls-1" x1="796.45" y1="617.8" x2="771.56" y2="631.01"/><line class="cls-1" x1="787.45" y1="617.88" x2="762.56" y2="631.08"/><line class="cls-1" x1="778.45" y1="617.95" x2="753.56" y2="631.15"/><line class="cls-1" x1="769.45" y1="618.02" x2="744.56" y2="631.23"/><line class="cls-1" x1="760.45" y1="618.1" x2="735.56" y2="631.3"/><line class="cls-1" x1="751.45" y1="618.17" x2="726.56" y2="631.38"/><line class="cls-1" x1="742.45" y1="618.25" x2="717.56" y2="631.45"/><line class="cls-1" x1="733.45" y1="618.32" x2="708.56" y2="631.52"/><line class="cls-1" x1="724.45" y1="618.39" x2="699.56" y2="631.6"/><line class="cls-1" x1="715.45" y1="618.47" x2="690.56" y2="631.67"/><line class="cls-1" x1="706.46" y1="618.54" x2="681.56" y2="631.75"/><line class="cls-1" x1="697.46" y1="618.61" x2="672.56" y2="631.82"/><line class="cls-1" x1="688.46" y1="618.69" x2="663.56" y2="631.89"/><line class="cls-1" x1="656.5" y1="118.5" x2="635.5" y2="129.5"/><polyline class="cls-1" points="365.5 161.5 330.5 161.5 330.5 -0.33"/><text class="cls-4" transform="translate(333.2 392.66) scale(1.19 1)">Y</text><text class="cls-5" transform="translate(337.2 310.66) scale(1.19 1)">L</text><path class="cls-6" d="M334.61,475q1.15-9.51,1.72-21.86t.58-21.7q4.56.06,7.65.06,3.31,0,6.49-.09t6.72-.1a69.08,69.08,0,0,1,7.9.41,16.72,16.72,0,0,1,6.18,1.92,10.62,10.62,0,0,1,4,3.64,9.34,9.34,0,0,1,1.31,5,11.44,11.44,0,0,1-.49,3.39,11.09,11.09,0,0,1-1.47,3,11.82,11.82,0,0,1-2.3,2.49,13.79,13.79,0,0,1-2.65,1.69,18.23,18.23,0,0,1-3,1.07c-1.12.29-2.61.66-4.49,1.08l2.59,4.21c.84,1.34,2.42,3.75,4.76,7.22L374,472.1c.21.29.81,1.26,1.83,2.9l-6.15-.06q-1.83,0-6.45.06L359,466.51q-1.1-2-2.66-4.59l-4.6-7.76c-.46-.72-1.09-1.81-1.9-3.26a31,31,0,0,0,4.65.39,18.86,18.86,0,0,0,6-.9,8.36,8.36,0,0,0,4.16-2.76,6.51,6.51,0,0,0,1.44-4.07,5.15,5.15,0,0,0-.62-2.48,5,5,0,0,0-2.12-1.95,9.68,9.68,0,0,0-3.54-1,37.74,37.74,0,0,0-4.11-.23c-.76,0-1.8,0-3.12,0s-2.95,0-4.88,0L347,451.06,346.27,475l-5.9-.06Z"/><polyline class="cls-7" points="374 558 354 517 334 558"/></svg>