<svg id="Layer_1" data-name="Layer 1" xmlns="http://www.w3.org/2000/svg" xmlns:xlink="http://www.w3.org/1999/xlink" viewBox="0 0 1366 768"><defs><style>.cls-1{fill:none;stroke:#0fb2ee;stroke-miterlimit:10;}.cls-2{font-size:38.72px;font-family:ArialNarrow, Arial;letter-spacing:0.07em;}.cls-12,.cls-13,.cls-19,.cls-2,.cls-20,.cls-3,.cls-37,.cls-38,.cls-4{fill:#fff;}.cls-3{font-size:73.57px;letter-spacing:0.07em;}.cls-12,.cls-13,.cls-19,.cls-20,.cls-3,.cls-37,.cls-38,.cls-4{font-family:MyriadPro-Regular, Myriad Pro;}.cls-13,.cls-20,.cls-38,.cls-4{font-size:14px;}.cls-4{letter-spacing:0.47em;}.cls-5{letter-spacing:0.56em;}.cls-6{letter-spacing:0.54em;}.cls-7{letter-spacing:0.48em;}.cls-8{letter-spacing:0.54em;}.cls-9{letter-spacing:0.55em;}.cls-10{letter-spacing:0.48em;}.cls-11{letter-spacing:0.56em;}.cls-12{font-size:54.87px;}.cls-13{letter-spacing:0.42em;}.cls-14{letter-spacing:0.47em;}.cls-15{letter-spacing:0.47em;}.cls-16{letter-spacing:0.45em;}.cls-17{letter-spacing:0.43em;}.cls-18{letter-spacing:0.47em;}.cls-19{font-size:52.13px;}.cls-20{letter-spacing:0.44em;}.cls-21{letter-spacing:0.44em;}.cls-22{letter-spacing:0.44em;}.cls-23{letter-spacing:0.47em;}.cls-24{letter-spacing:0.43em;}.cls-25{letter-spacing:0.44em;}.cls-26{letter-spacing:0.34em;}.cls-27{letter-spacing:0.42em;}.cls-28{letter-spacing:0.43em;}.cls-29{letter-spacing:0.42em;}.cls-30{letter-spacing:0.34em;}.cls-31{letter-spacing:0.34em;}.cls-32{letter-spacing:0.41em;}.cls-33{letter-spacing:0.34em;}.cls-34{letter-spacing:0.34em;}.cls-35{letter-spacing:0.4em;}.cls-36{letter-spacing:0.45em;}.cls-37{font-size:80.9px;letter-spacing:0.07em;}.cls-38{letter-spacing:0.47em;}.cls-39{letter-spacing:0.55em;}.cls-40{letter-spacing:0.54em;}.cls-41{letter-spacing:0.47em;}.cls-42{letter-spacing:0.54em;}.cls-43{letter-spacing:0.55em;}.cls-44{letter-spacing:0.48em;}.cls-45{letter-spacing:0.54em;}.cls-46{letter-spacing:0.55em;}</style></defs><title>Performances</title><rect class="cls-1" x="131" y="295.5" width="543.5" height="160.5" rx="6.79" ry="6.79"/><rect class="cls-1" x="247" y="490.5" width="276.5" height="145.5" rx="6.79" ry="6.79"/><rect class="cls-1" x="545" y="490.5" width="276.5" height="145.5" rx="6.79" ry="6.79"/><rect class="cls-1" x="844" y="490.5" width="276.5" height="145.5" rx="6.79" ry="6.79"/><rect class="cls-1" x="694" y="295.5" width="543.5" height="160.5" rx="6.79" ry="6.79"/><text class="cls-2" transform="translate(248.61 200.04) rotate(0.31)">PERFORMANCES</text><text class="cls-3" transform="translate(305.76 416.55) rotate(0.31)">169%</text><image width="717" height="293" transform="translate(203 -38)" xlink:href="Performances1.png"/><text class="cls-4" transform="translate(224.5 340.5)">P<tspan class="cls-5" x="14.07" y="0">AST 7 </tspan><tspan class="cls-6" x="96.4" y="0">D</tspan><tspan class="cls-7" x="113.33" y="0">A</tspan><tspan class="cls-8" x="128.59" y="0">Y</tspan><tspan class="cls-5" x="143.78" y="0">S ESTI</tspan><tspan class="cls-9" x="224.53" y="0">M</tspan><tspan class="cls-10" x="243.44" y="0">A</tspan><tspan class="cls-11" x="258.73" y="0">TED APR</tspan></text><text class="cls-12" transform="translate(327.24 564.19) rotate(0.31)">600%</text><text class="cls-13" transform="translate(267.5 597.5)">A<tspan class="cls-14" x="14.38" y="0">VE</tspan><tspan class="cls-15" x="42.18" y="0">R</tspan><tspan class="cls-16" x="56.34" y="0">A</tspan><tspan class="cls-14" x="71.25" y="0">GEANN</tspan><tspan class="cls-17" x="146.93" y="0">U</tspan><tspan class="cls-14" x="162.06" y="0">AL </tspan><tspan class="cls-18" x="199.86" y="0">R</tspan><tspan class="cls-14" x="213.99" y="0">OI</tspan></text><text class="cls-19" transform="translate(639.24 562.88) rotate(0.31)">15+</text><text class="cls-20" transform="translate(633.48 597.5)">P<tspan class="cls-21" x="13.59" y="0">R</tspan><tspan class="cls-22" x="27.31" y="0">OJE</tspan><tspan class="cls-23" x="67.47" y="0">C</tspan><tspan class="cls-24" x="82.12" y="0">T</tspan><tspan class="cls-25" x="95.14" y="0">S</tspan><tspan class="cls-26"><tspan x="-21.92" y="16.8">P</tspan><tspan class="cls-27" x="-9.77" y="16.8">A</tspan><tspan class="cls-28" x="4.68" y="16.8">R</tspan><tspan class="cls-29" x="18.22" y="16.8">TICI</tspan><tspan class="cls-30" x="63.51" y="16.8">P</tspan><tspan class="cls-31" x="75.66" y="16.8">A</tspan><tspan class="cls-29" x="89.03" y="16.8">TED</tspan></tspan></text><text class="cls-19" transform="translate(920.24 562.88) rotate(0.31)">100%</text><text class="cls-20" transform="translate(928 597.5)">CUS<tspan class="cls-32" x="42.52" y="0">T</tspan><tspan x="55.24" y="0">OMER</tspan><tspan class="cls-29"><tspan x="-19.52" y="16.8">S</tspan><tspan class="cls-33" x="-6.73" y="16.8">A</tspan><tspan x="6.64" y="16.8">TIS</tspan><tspan class="cls-34" x="41.48" y="16.8">F</tspan><tspan class="cls-35" x="53.09" y="16.8">A</tspan><tspan class="cls-36" x="67.33" y="16.8">C</tspan><tspan x="81.72" y="16.8">TION</tspan></tspan></text><text class="cls-37" transform="translate(863.17 418.65) rotate(0.31)">230%</text><text class="cls-38" transform="translate(786.5 340.5)">P<tspan class="cls-39" x="14.01" y="0">AST 7 </tspan><tspan class="cls-40" x="96.01" y="0">D</tspan><tspan class="cls-41" x="112.88" y="0">A</tspan><tspan class="cls-42" x="128.09" y="0">Y</tspan><tspan class="cls-43" x="143.22" y="0">S ESTI</tspan><tspan class="cls-6" x="223.63" y="0">M</tspan><tspan class="cls-44" x="242.49" y="0">A</tspan><tspan class="cls-43" x="257.72" y="0">TED A</tspan><tspan class="cls-45" x="331.14" y="0">P</tspan><tspan class="cls-46" x="346.2" y="0">Y</tspan></text></svg>