<svg id="_3Key" data-name="3Key" xmlns="http://www.w3.org/2000/svg" xmlns:xlink="http://www.w3.org/1999/xlink" viewBox="0 0 1099.67 629.68"><defs><clipPath id="clip-path" transform="translate(-138.98 -9.19)"><path d="M469.46,301.65h3a11,11,0,0,1,5.16.88,6.1,6.1,0,0,1,2.39,2.6,8.72,8.72,0,0,1,.86,3.94,9.65,9.65,0,0,1-.89,4.21,5.45,5.45,0,0,1-2.41,2.68,9.76,9.76,0,0,1-4.4.8h-3.68Zm-4.92-2.88v21h9.75A13.48,13.48,0,0,0,481,318.3a9.49,9.49,0,0,0,3.75-3.89,11.92,11.92,0,0,0,1.29-5.6,10.48,10.48,0,0,0-1.35-5.46,8.91,8.91,0,0,0-3.63-3.42,14.32,14.32,0,0,0-6.37-1.16Z" style="fill:none"/></clipPath><linearGradient id="linear-gradient" x1="0.94" y1="771.05" x2="1.94" y2="771.05" gradientTransform="matrix(0, -20.96, -20.96, 0, 16495.19, 330.19)" gradientUnits="userSpaceOnUse"><stop offset="0" stop-color="#3962b1"/><stop offset="0.48" stop-color="#3274bf"/><stop offset="0.99" stop-color="#2a8cd2"/><stop offset="1" stop-color="#2a8cd2"/></linearGradient><clipPath id="clip-path-2" transform="translate(-138.98 -9.19)"><polygon points="490.5 298.77 490.5 319.73 506.4 319.73 506.4 316.76 495.42 316.76 495.42 310.38 503.88 310.38 503.88 307.5 495.42 307.5 495.42 301.66 505.65 301.66 505.65 298.77 490.5 298.77" style="fill:none"/></clipPath><linearGradient id="linear-gradient-2" x1="0.94" y1="771.05" x2="1.94" y2="771.05" gradientTransform="matrix(0, -20.96, -20.96, 0, 16518.34, 330.19)" xlink:href="#linear-gradient"/><clipPath id="clip-path-3" transform="translate(-138.98 -9.19)"><polygon points="510.16 298.77 510.16 319.73 515.09 319.73 515.09 310.91 523.13 310.91 523.13 308.02 515.09 308.02 515.09 301.66 524.9 301.66 524.9 298.77 510.16 298.77" style="fill:none"/></clipPath><linearGradient id="linear-gradient-3" x1="0.94" y1="771.05" x2="1.94" y2="771.05" gradientTransform="matrix(0, -20.96, -20.96, 0, 16537.42, 330.19)" xlink:href="#linear-gradient"/><clipPath id="clip-path-4" transform="translate(-138.98 -9.19)"><rect x="528.96" y="298.77" width="4.92" height="20.96" style="fill:none"/></clipPath><linearGradient id="linear-gradient-4" x1="0.94" y1="771.05" x2="1.94" y2="771.05" gradientTransform="matrix(0, -20.96, -20.96, 0, 16551.31, 330.19)" xlink:href="#linear-gradient"/><clipPath id="clip-path-5" transform="translate(-138.98 -9.19)"><path d="M558.63,303l3.67,8.36H555Zm-1.73-4.22-9.22,21h3.59l2.46-5.59h9.79l2.46,5.59H571l-9.21-21Z" style="fill:none"/></clipPath><linearGradient id="linear-gradient-5" x1="0.94" y1="771.05" x2="1.94" y2="771.05" gradientTransform="matrix(0, -20.96, -20.96, 0, 16579.25, 330.19)" xlink:href="#linear-gradient"/><clipPath id="clip-path-6" transform="translate(-138.98 -9.19)"><polygon points="589.66 298.77 589.66 313.09 578.72 298.77 574.38 298.77 574.38 319.73 578.33 319.73 578.33 305.41 589.2 319.73 593.61 319.73 593.61 298.77 589.66 298.77" style="fill:none"/></clipPath><linearGradient id="linear-gradient-6" x1="0.94" y1="771.05" x2="1.94" y2="771.05" gradientTransform="matrix(0, -20.96, -20.96, 0, 16603.88, 330.19)" xlink:href="#linear-gradient"/><clipPath id="clip-path-7" transform="translate(-138.98 -9.19)"><path d="M604.47,301.65h3a11,11,0,0,1,5.16.88,6.16,6.16,0,0,1,2.39,2.6,8.72,8.72,0,0,1,.86,3.94,9.8,9.8,0,0,1-.89,4.21,5.45,5.45,0,0,1-2.41,2.68,9.78,9.78,0,0,1-4.41.8h-3.67Zm-4.93-2.88v21h9.75A13.49,13.49,0,0,0,616,318.3a9.55,9.55,0,0,0,3.75-3.89,11.92,11.92,0,0,0,1.29-5.6,10.48,10.48,0,0,0-1.35-5.46,8.91,8.91,0,0,0-3.63-3.42,14.35,14.35,0,0,0-6.37-1.16Z" style="fill:none"/></clipPath><linearGradient id="linear-gradient-7" x1="0.94" y1="771.05" x2="1.94" y2="771.05" gradientTransform="matrix(0, -20.96, -20.96, 0, 16630.2, 330.19)" xlink:href="#linear-gradient"/><clipPath id="clip-path-8" transform="translate(-138.98 -9.19)"><polygon points="650.88 298.77 644.86 307.62 639.09 298.77 633.64 298.77 641.59 310.95 641.59 319.73 646.51 319.73 646.51 310.92 654.78 298.77 650.88 298.77" style="fill:none"/></clipPath><linearGradient id="linear-gradient-8" x1="0.94" y1="771.05" x2="1.94" y2="771.05" gradientTransform="matrix(0, -20.96, -20.96, 0, 16664.1, 330.19)" xlink:href="#linear-gradient"/><clipPath id="clip-path-9" transform="translate(-138.98 -9.19)"><rect x="658.44" y="298.77" width="4.92" height="20.96" style="fill:none"/></clipPath><linearGradient id="linear-gradient-9" x1="0.94" y1="771.05" x2="1.94" y2="771.05" gradientTransform="matrix(0, -20.96, -20.96, 0, 16680.79, 330.19)" xlink:href="#linear-gradient"/><clipPath id="clip-path-10" transform="translate(-138.98 -9.19)"><polygon points="669.29 298.77 669.29 319.73 685.2 319.73 685.2 316.76 674.22 316.76 674.22 310.38 682.67 310.38 682.67 307.5 674.22 307.5 674.22 301.66 684.45 301.66 684.45 298.77 669.29 298.77" style="fill:none"/></clipPath><linearGradient id="linear-gradient-10" x1="0.94" y1="771.05" x2="1.94" y2="771.05" gradientTransform="matrix(0, -20.96, -20.96, 0, 16697.13, 330.19)" xlink:href="#linear-gradient"/><clipPath id="clip-path-11" transform="translate(-138.98 -9.19)"><polygon points="688.96 298.77 688.96 319.73 704.42 319.73 704.42 316.76 693.88 316.76 693.88 298.77 688.96 298.77" style="fill:none"/></clipPath><linearGradient id="linear-gradient-11" x1="0.94" y1="771.05" x2="1.94" y2="771.05" gradientTransform="matrix(0, -20.96, -20.96, 0, 16716.57, 330.19)" xlink:href="#linear-gradient"/><clipPath id="clip-path-12" transform="translate(-138.98 -9.19)"><path d="M712.92,301.65h3a11,11,0,0,1,5.16.88,6.1,6.1,0,0,1,2.39,2.6,8.59,8.59,0,0,1,.86,3.94,9.65,9.65,0,0,1-.89,4.21A5.45,5.45,0,0,1,721,316a9.73,9.73,0,0,1-4.4.8h-3.68ZM708,298.77v21h9.75a13.48,13.48,0,0,0,6.74-1.43,9.42,9.42,0,0,0,3.75-3.89,11.92,11.92,0,0,0,1.29-5.6,10.48,10.48,0,0,0-1.35-5.46,8.91,8.91,0,0,0-3.63-3.42,14.32,14.32,0,0,0-6.37-1.16Z" style="fill:none"/></clipPath><linearGradient id="linear-gradient-12" x1="0.94" y1="771.05" x2="1.94" y2="771.05" gradientTransform="matrix(0, -20.96, -20.96, 0, 16738.65, 330.19)" xlink:href="#linear-gradient"/><clipPath id="clip-path-13" transform="translate(-138.98 -9.19)"><polygon points="744.41 298.77 744.41 319.73 749.34 319.73 749.34 310.91 757.38 310.91 757.38 308.02 749.34 308.02 749.34 301.66 759.15 301.66 759.15 298.77 744.41 298.77" style="fill:none"/></clipPath><linearGradient id="linear-gradient-13" x1="0.94" y1="771.05" x2="1.94" y2="771.05" gradientTransform="matrix(0, -20.96, -20.96, 0, 16771.67, 330.19)" xlink:href="#linear-gradient"/><clipPath id="clip-path-14" transform="translate(-138.98 -9.19)"><path d="M771.57,303l3.67,8.36h-7.35Zm-1.73-4.22-9.21,21h3.58l2.46-5.59h9.79l2.46,5.59H784l-9.21-21Z" style="fill:none"/></clipPath><linearGradient id="linear-gradient-14" x1="0.94" y1="771.05" x2="1.94" y2="771.05" gradientTransform="matrix(0, -20.96, -20.96, 0, 16792.19, 330.19)" xlink:href="#linear-gradient"/><clipPath id="clip-path-15" transform="translate(-138.98 -9.19)"><path d="M792,301.65h1.71c1.94,0,3.22.25,3.85.75a2.5,2.5,0,0,1,1,2.05,3.67,3.67,0,0,1-1.17,2.66c-.77.79-2.18,1.18-4.21,1.18H792Zm-4.64-2.88v21H792v-8.57h2.71l5.88,8.57h6L798.8,310a7.51,7.51,0,0,0,3.39-2.5,5.78,5.78,0,0,0,1.2-3.48,4.93,4.93,0,0,0-.82-2.77,5.09,5.09,0,0,0-2.25-1.83,11.11,11.11,0,0,0-4.14-.6Z" style="fill:none"/></clipPath><linearGradient id="linear-gradient-15" x1="0.94" y1="771.05" x2="1.94" y2="771.05" gradientTransform="matrix(0, -20.96, -20.96, 0, 16816.82, 330.19)" xlink:href="#linear-gradient"/><clipPath id="clip-path-16" transform="translate(-138.98 -9.19)"><polygon points="828.01 298.77 822.13 313.51 816.42 298.77 809.91 298.77 809.91 319.73 813.78 319.73 813.78 303.7 819.45 318.33 823.41 318.33 829.19 303.91 829.19 319.73 833.73 319.73 833.73 298.77 828.01 298.77" style="fill:none"/></clipPath><linearGradient id="linear-gradient-16" x1="0.94" y1="771.05" x2="1.94" y2="771.05" gradientTransform="matrix(0, -20.96, -20.96, 0, 16841.71, 330.19)" xlink:href="#linear-gradient"/><clipPath id="clip-path-17" transform="translate(-138.98 -9.19)"><rect x="839.63" y="298.77" width="4.92" height="20.96" style="fill:none"/></clipPath><linearGradient id="linear-gradient-17" x1="0.94" y1="771.05" x2="1.94" y2="771.05" gradientTransform="matrix(0, -20.96, -20.96, 0, 16861.98, 330.19)" xlink:href="#linear-gradient"/><clipPath id="clip-path-18" transform="translate(-138.98 -9.19)"><polygon points="865.77 298.77 865.77 313.09 854.83 298.77 850.49 298.77 850.49 319.73 854.43 319.73 854.43 305.41 865.3 319.73 869.72 319.73 869.72 298.77 865.77 298.77" style="fill:none"/></clipPath><linearGradient id="linear-gradient-18" x1="0.94" y1="771.05" x2="1.94" y2="771.05" gradientTransform="matrix(0, -20.96, -20.96, 0, 16879.99, 330.19)" xlink:href="#linear-gradient"/><clipPath id="clip-path-19" transform="translate(-138.98 -9.19)"><path d="M879.53,299.67a9.34,9.34,0,0,0-4,3.92,11.79,11.79,0,0,0-1.33,5.63,10.89,10.89,0,0,0,3,7.91q3,3.12,9.67,3.12c1.08,0,2.1-.05,3.06-.14a41.82,41.82,0,0,0,4.61-.88v-9h-4.92v6.89a11.14,11.14,0,0,1-2,.21,8.16,8.16,0,0,1-6.08-2.18,8,8,0,0,1-2.15-5.87,9.19,9.19,0,0,1,1.83-5.77c1.22-1.58,3.21-2.38,6-2.38a21.26,21.26,0,0,1,2.69.19,32.73,32.73,0,0,1,4.62,1.16v-3.41a37.12,37.12,0,0,0-7.71-.81,15.66,15.66,0,0,0-7.29,1.42" style="fill:none"/></clipPath><linearGradient id="linear-gradient-19" x1="0.94" y1="771.05" x2="1.94" y2="771.05" gradientTransform="matrix(0, -22, -22, 0, 17712.14, 331.77)" xlink:href="#linear-gradient"/><clipPath id="clip-path-20" transform="translate(-138.98 -9.19)"><path d="M440.89,343.41l3.67,8.35h-7.34Zm-1.73-4.22L430,360.14h3.58l2.46-5.59h9.8l2.45,5.59h5.06l-9.2-20.95Z" style="fill:none"/></clipPath><linearGradient id="linear-gradient-20" x1="0.94" y1="771.05" x2="1.94" y2="771.05" gradientTransform="matrix(0, -20.96, -20.96, 0, 16461.51, 370.61)" gradientUnits="userSpaceOnUse"><stop offset="0" stop-color="#571e85"/><stop offset="0.69" stop-color="#4c308b"/><stop offset="0.99" stop-color="#463a8f"/><stop offset="1" stop-color="#463a8f"/></linearGradient><clipPath id="clip-path-21" transform="translate(-138.98 -9.19)"><path d="M461.28,342.06H463c1.94,0,3.22.25,3.85.76a2.48,2.48,0,0,1,1,2,3.69,3.69,0,0,1-1.17,2.67c-.77.78-2.17,1.17-4.21,1.17h-1.13Zm-4.64-2.87v20.95h4.64v-8.56H464l5.88,8.56h6l-7.75-9.78a7.51,7.51,0,0,0,3.39-2.5,5.78,5.78,0,0,0,1.2-3.48,4.79,4.79,0,0,0-.82-2.76,5,5,0,0,0-2.25-1.83,11.11,11.11,0,0,0-4.14-.6Z" style="fill:none"/></clipPath><linearGradient id="linear-gradient-21" x1="0.94" y1="771.05" x2="1.94" y2="771.05" gradientTransform="matrix(0, -20.96, -20.96, 0, 16486.14, 370.61)" xlink:href="#linear-gradient-20"/><clipPath id="clip-path-22" transform="translate(-138.98 -9.19)"><polygon points="479.23 339.19 479.23 360.14 495.14 360.14 495.14 357.17 484.16 357.17 484.16 350.8 492.61 350.8 492.61 347.91 484.16 347.91 484.16 342.07 494.39 342.07 494.39 339.19 479.23 339.19" style="fill:none"/></clipPath><linearGradient id="linear-gradient-22" x1="0.94" y1="771.05" x2="1.94" y2="771.05" gradientTransform="matrix(0, -20.96, -20.96, 0, 16507.07, 370.61)" xlink:href="#linear-gradient-20"/><clipPath id="clip-path-23" transform="translate(-138.98 -9.19)"><polygon points="506.76 339.19 506.76 342.07 515.24 342.07 515.24 360.14 520.16 360.14 520.16 342.07 528.63 342.07 528.63 339.19 506.76 339.19" style="fill:none"/></clipPath><linearGradient id="linear-gradient-23" x1="0.94" y1="771.05" x2="1.94" y2="771.05" gradientTransform="matrix(0, -20.96, -20.96, 0, 16537.58, 370.61)" xlink:href="#linear-gradient-20"/><clipPath id="clip-path-24" transform="translate(-138.98 -9.19)"><polygon points="546.65 339.19 546.65 347.7 536.87 347.7 536.87 339.19 531.94 339.19 531.94 360.14 536.87 360.14 536.87 350.58 546.65 350.58 546.65 360.14 551.57 360.14 551.57 339.19 546.65 339.19" style="fill:none"/></clipPath><linearGradient id="linear-gradient-24" x1="0.94" y1="771.05" x2="1.94" y2="771.05" gradientTransform="matrix(0, -20.96, -20.96, 0, 16561.64, 370.61)" xlink:href="#linear-gradient-20"/><clipPath id="clip-path-25" transform="translate(-138.98 -9.19)"><polygon points="557.49 339.19 557.49 360.14 573.39 360.14 573.39 357.17 562.41 357.17 562.41 350.8 570.87 350.8 570.87 347.91 562.41 347.91 562.41 342.07 572.64 342.07 572.64 339.19 557.49 339.19" style="fill:none"/></clipPath><linearGradient id="linear-gradient-25" x1="0.94" y1="771.05" x2="1.94" y2="771.05" gradientTransform="matrix(0, -20.96, -20.96, 0, 16585.33, 370.61)" xlink:href="#linear-gradient-20"/><clipPath id="clip-path-26" transform="translate(-138.98 -9.19)"><polygon points="587.61 339.19 587.61 360.14 592.53 360.14 592.53 351.32 600.57 351.32 600.57 348.43 592.53 348.43 592.53 342.07 602.35 342.07 602.35 339.19 587.61 339.19" style="fill:none"/></clipPath><linearGradient id="linear-gradient-26" x1="0.94" y1="771.05" x2="1.94" y2="771.05" gradientTransform="matrix(0, -20.96, -20.96, 0, 16614.86, 370.61)" xlink:href="#linear-gradient-20"/><clipPath id="clip-path-27" transform="translate(-138.98 -9.19)"><path d="M620.51,339.19v13.16c0,2.14-.42,3.58-1.24,4.32a4.79,4.79,0,0,1-3.34,1.12,5.2,5.2,0,0,1-3.46-1.13c-.89-.76-1.33-2.3-1.33-4.62V339.19h-4.92V352q0,3.63,1.23,5.3a7.45,7.45,0,0,0,3.34,2.5,13.41,13.41,0,0,0,5.05.85,11.81,11.81,0,0,0,4.94-.91,6.94,6.94,0,0,0,3-2.48q1-1.59,1-5.22V339.19Z" style="fill:none"/></clipPath><linearGradient id="linear-gradient-27" x1="0.94" y1="771.05" x2="1.94" y2="771.05" gradientTransform="matrix(0, -21.48, -21.48, 0, 17039.34, 371.65)" xlink:href="#linear-gradient-20"/><clipPath id="clip-path-28" transform="translate(-138.98 -9.19)"><polygon points="627.92 339.19 627.92 342.07 636.4 342.07 636.4 360.14 641.32 360.14 641.32 342.07 649.79 342.07 649.79 339.19 627.92 339.19" style="fill:none"/></clipPath><linearGradient id="linear-gradient-28" x1="0.94" y1="771.05" x2="1.94" y2="771.05" gradientTransform="matrix(0, -20.96, -20.96, 0, 16658.75, 370.61)" xlink:href="#linear-gradient-20"/><clipPath id="clip-path-29" transform="translate(-138.98 -9.19)"><path d="M667.2,339.19v13.16q0,3.21-1.23,4.32a4.79,4.79,0,0,1-3.34,1.12,5.18,5.18,0,0,1-3.46-1.13c-.89-.76-1.33-2.3-1.33-4.62V339.19h-4.93V352q0,3.63,1.23,5.3a7.51,7.51,0,0,0,3.34,2.5,13.5,13.5,0,0,0,5.06.85,11.84,11.84,0,0,0,4.94-.91,6.94,6.94,0,0,0,3-2.48q1-1.59,1-5.22V339.19Z" style="fill:none"/></clipPath><linearGradient id="linear-gradient-29" x1="0.94" y1="771.05" x2="1.94" y2="771.05" gradientTransform="matrix(0, -21.48, -21.48, 0, 17086.03, 371.65)" xlink:href="#linear-gradient-20"/><clipPath id="clip-path-30" transform="translate(-138.98 -9.19)"><path d="M681.85,342.06h1.71c1.94,0,3.22.25,3.85.76a2.47,2.47,0,0,1,.94,2,3.68,3.68,0,0,1-1.16,2.67c-.77.78-2.18,1.17-4.21,1.17h-1.13Zm-4.64-2.87v20.95h4.64v-8.56h2.7l5.89,8.56h6l-7.74-9.78a7.51,7.51,0,0,0,3.39-2.5,5.78,5.78,0,0,0,1.2-3.48,4.87,4.87,0,0,0-.82-2.76,5,5,0,0,0-2.25-1.83,11.11,11.11,0,0,0-4.14-.6Z" style="fill:none"/></clipPath><linearGradient id="linear-gradient-30" x1="0.94" y1="771.05" x2="1.94" y2="771.05" gradientTransform="matrix(0, -20.96, -20.96, 0, 16706.71, 370.61)" xlink:href="#linear-gradient-20"/><clipPath id="clip-path-31" transform="translate(-138.98 -9.19)"><polygon points="699.8 339.19 699.8 360.14 715.71 360.14 715.71 357.17 704.72 357.17 704.72 350.8 713.18 350.8 713.18 347.91 704.72 347.91 704.72 342.07 714.96 342.07 714.96 339.19 699.8 339.19" style="fill:none"/></clipPath><linearGradient id="linear-gradient-31" x1="0.94" y1="771.05" x2="1.94" y2="771.05" gradientTransform="matrix(0, -20.96, -20.96, 0, 16727.64, 370.61)" xlink:href="#linear-gradient-20"/><clipPath id="clip-path-32" transform="translate(-138.98 -9.19)"><path d="M735.35,355.32a10.43,10.43,0,0,1,0-11.32,6.51,6.51,0,0,1,10.19,0,9.78,9.78,0,0,1,1.68,5.66,9.91,9.91,0,0,1-1.67,5.66,6.5,6.5,0,0,1-10.2,0M734,340a9.46,9.46,0,0,0-4.17,3.91,12.35,12.35,0,0,0,0,11.5,9.47,9.47,0,0,0,4.16,3.9,15.94,15.94,0,0,0,12.84,0,9.45,9.45,0,0,0,4.15-3.9,12.28,12.28,0,0,0,0-11.5,9.46,9.46,0,0,0-4.17-3.91A15.87,15.87,0,0,0,734,340" style="fill:none"/></clipPath><linearGradient id="linear-gradient-32" x1="0.94" y1="771.05" x2="1.94" y2="771.05" gradientTransform="matrix(0, -22, -22, 0, 17568.23, 372.18)" xlink:href="#linear-gradient-20"/><clipPath id="clip-path-33" transform="translate(-138.98 -9.19)"><polygon points="756.87 339.19 756.87 360.14 761.8 360.14 761.8 351.32 769.84 351.32 769.84 348.43 761.8 348.43 761.8 342.07 771.61 342.07 771.61 339.19 756.87 339.19" style="fill:none"/></clipPath><linearGradient id="linear-gradient-33" x1="0.94" y1="771.05" x2="1.94" y2="771.05" gradientTransform="matrix(0, -20.96, -20.96, 0, 16784.13, 370.61)" xlink:href="#linear-gradient-20"/><clipPath id="clip-path-34" transform="translate(-138.98 -9.19)"><polygon points="786.13 339.19 786.13 360.14 791.05 360.14 791.05 351.32 799.1 351.32 799.1 348.43 791.05 348.43 791.05 342.07 800.87 342.07 800.87 339.19 786.13 339.19" style="fill:none"/></clipPath><linearGradient id="linear-gradient-34" x1="0.94" y1="771.05" x2="1.94" y2="771.05" gradientTransform="matrix(0, -20.96, -20.96, 0, 16813.39, 370.61)" xlink:href="#linear-gradient-20"/><clipPath id="clip-path-35" transform="translate(-138.98 -9.19)"><rect x="804.93" y="339.19" width="4.92" height="20.96" style="fill:none"/></clipPath><linearGradient id="linear-gradient-35" x1="0.94" y1="771.05" x2="1.94" y2="771.05" gradientTransform="matrix(0, -20.96, -20.96, 0, 16827.28, 370.61)" xlink:href="#linear-gradient-20"/><clipPath id="clip-path-36" transform="translate(-138.98 -9.19)"><polygon points="831.07 339.19 831.07 353.5 820.13 339.19 815.78 339.19 815.78 360.14 819.73 360.14 819.73 345.83 830.6 360.14 835.02 360.14 835.02 339.19 831.07 339.19" style="fill:none"/></clipPath><linearGradient id="linear-gradient-36" x1="0.94" y1="771.05" x2="1.94" y2="771.05" gradientTransform="matrix(0, -20.96, -20.96, 0, 16845.29, 370.61)" xlink:href="#linear-gradient-20"/><clipPath id="clip-path-37" transform="translate(-138.98 -9.19)"><path d="M849.3,343.41l3.67,8.35h-7.34Zm-1.73-4.22-9.21,20.95h3.58l2.46-5.59h9.8l2.45,5.59h5.07l-9.21-20.95Z" style="fill:none"/></clipPath><linearGradient id="linear-gradient-37" x1="0.94" y1="771.05" x2="1.94" y2="771.05" gradientTransform="matrix(0, -20.96, -20.96, 0, 16869.92, 370.61)" xlink:href="#linear-gradient-20"/><clipPath id="clip-path-38" transform="translate(-138.98 -9.19)"><polygon points="880.34 339.19 880.34 353.5 869.4 339.19 865.06 339.19 865.06 360.14 869 360.14 869 345.83 879.87 360.14 884.29 360.14 884.29 339.19 880.34 339.19" style="fill:none"/></clipPath><linearGradient id="linear-gradient-38" x1="0.94" y1="771.05" x2="1.94" y2="771.05" gradientTransform="matrix(0, -20.96, -20.96, 0, 16894.56, 370.61)" xlink:href="#linear-gradient-20"/><clipPath id="clip-path-39" transform="translate(-138.98 -9.19)"><path d="M891.79,341.75a11.8,11.8,0,0,0,0,15.82q3.06,3.09,9.26,3.1a28.07,28.07,0,0,0,2.88-.15c1-.1,1.85-.22,2.62-.37a16.86,16.86,0,0,0,2.7-.83v-3.21a17.44,17.44,0,0,1-7,1.54q-4.12,0-6.21-2.22a8.16,8.16,0,0,1-2.09-5.82,9,9,0,0,1,1.84-5.75q1.85-2.33,5.92-2.32a18.44,18.44,0,0,1,2.09.12c.69.09,1.43.22,2.21.39s1.78.45,3,.83v-3.41a36.81,36.81,0,0,0-7.67-.81q-6.52,0-9.57,3.09" style="fill:none"/></clipPath><linearGradient id="linear-gradient-39" x1="0.94" y1="771.05" x2="1.94" y2="771.05" gradientTransform="matrix(0, -22, -22, 0, 17726.78, 372.18)" xlink:href="#linear-gradient-20"/><clipPath id="clip-path-40" transform="translate(-138.98 -9.19)"><polygon points="913.54 339.19 913.54 360.14 929.45 360.14 929.45 357.17 918.47 357.17 918.47 350.8 926.92 350.8 926.92 347.91 918.47 347.91 918.47 342.07 928.7 342.07 928.7 339.19 913.54 339.19" style="fill:none"/></clipPath><linearGradient id="linear-gradient-40" x1="0.94" y1="771.05" x2="1.94" y2="771.05" gradientTransform="matrix(0, -20.96, -20.96, 0, 16941.38, 370.61)" xlink:href="#linear-gradient-20"/></defs><title>Solutions-01</title><path d="M330.48,9.19V169.37l906.67-.39V637.37H140.72v-21l-.24-358.6V209.46c190,0,190,0,190,0l855.81-.15s0,30,0,30V589.55s0,0,0,0l-985,.74S201,324.16,201,324.15V250.78h0l910.41-.72a0,0,0,0,1,0,0V530l0,0-855.49,1.08-1.28-241.34,244.15-.31" transform="translate(-138.98 -9.19)" style="fill:none;stroke:#0695c9;stroke-miterlimit:10;stroke-width:3px"/><g style="clip-path:url(#clip-path)"><rect x="325.55" y="289.59" width="21.53" height="20.96" style="fill:url(#linear-gradient)"/></g><g style="clip-path:url(#clip-path-2)"><rect x="351.51" y="289.59" width="15.91" height="20.96" style="fill:url(#linear-gradient-2)"/></g><g style="clip-path:url(#clip-path-3)"><rect x="371.18" y="289.59" width="14.74" height="20.96" style="fill:url(#linear-gradient-3)"/></g><g style="clip-path:url(#clip-path-4)"><rect x="389.98" y="289.59" width="4.92" height="20.96" style="fill:url(#linear-gradient-4)"/></g><g style="clip-path:url(#clip-path-5)"><rect x="408.7" y="289.59" width="23.36" height="20.96" style="fill:url(#linear-gradient-5)"/></g><g style="clip-path:url(#clip-path-6)"><rect x="435.4" y="289.59" width="19.23" height="20.96" style="fill:url(#linear-gradient-6)"/></g><g style="clip-path:url(#clip-path-7)"><rect x="460.56" y="289.59" width="21.53" height="20.96" style="fill:url(#linear-gradient-7)"/></g><g style="clip-path:url(#clip-path-8)"><rect x="494.66" y="289.59" width="21.14" height="20.96" style="fill:url(#linear-gradient-8)"/></g><g style="clip-path:url(#clip-path-9)"><rect x="519.45" y="289.59" width="4.92" height="20.96" style="fill:url(#linear-gradient-9)"/></g><g style="clip-path:url(#clip-path-10)"><rect x="530.31" y="289.59" width="15.91" height="20.96" style="fill:url(#linear-gradient-10)"/></g><g style="clip-path:url(#clip-path-11)"><rect x="549.97" y="289.59" width="15.46" height="20.96" style="fill:url(#linear-gradient-11)"/></g><g style="clip-path:url(#clip-path-12)"><rect x="569.01" y="289.59" width="21.53" height="20.96" style="fill:url(#linear-gradient-12)"/></g><g style="clip-path:url(#clip-path-13)"><rect x="605.43" y="289.59" width="14.74" height="20.96" style="fill:url(#linear-gradient-13)"/></g><g style="clip-path:url(#clip-path-14)"><rect x="621.64" y="289.59" width="23.36" height="20.96" style="fill:url(#linear-gradient-14)"/></g><g style="clip-path:url(#clip-path-15)"><rect x="648.34" y="289.59" width="19.23" height="20.96" style="fill:url(#linear-gradient-15)"/></g><g style="clip-path:url(#clip-path-16)"><rect x="670.93" y="289.59" width="23.82" height="20.96" style="fill:url(#linear-gradient-16)"/></g><g style="clip-path:url(#clip-path-17)"><rect x="700.65" y="289.59" width="4.92" height="20.96" style="fill:url(#linear-gradient-17)"/></g><g style="clip-path:url(#clip-path-18)"><rect x="711.5" y="289.59" width="19.23" height="20.96" style="fill:url(#linear-gradient-18)"/></g><g style="clip-path:url(#clip-path-19)"><rect x="735.19" y="289.06" width="20.37" height="22.01" style="fill:url(#linear-gradient-19)"/></g><g style="clip-path:url(#clip-path-20)"><rect x="290.96" y="330" width="23.36" height="20.96" style="fill:url(#linear-gradient-20)"/></g><g style="clip-path:url(#clip-path-21)"><rect x="317.66" y="330" width="19.22" height="20.96" style="fill:url(#linear-gradient-21)"/></g><g style="clip-path:url(#clip-path-22)"><rect x="340.25" y="330" width="15.91" height="20.96" style="fill:url(#linear-gradient-22)"/></g><g style="clip-path:url(#clip-path-23)"><rect x="367.78" y="330" width="21.87" height="20.96" style="fill:url(#linear-gradient-23)"/></g><g style="clip-path:url(#clip-path-24)"><rect x="392.96" y="330" width="19.63" height="20.96" style="fill:url(#linear-gradient-24)"/></g><g style="clip-path:url(#clip-path-25)"><rect x="418.5" y="330" width="15.91" height="20.96" style="fill:url(#linear-gradient-25)"/></g><g style="clip-path:url(#clip-path-26)"><rect x="448.62" y="330" width="14.74" height="20.96" style="fill:url(#linear-gradient-26)"/></g><g style="clip-path:url(#clip-path-27)"><rect x="467.23" y="330" width="18.58" height="21.48" style="fill:url(#linear-gradient-27)"/></g><g style="clip-path:url(#clip-path-28)"><rect x="488.94" y="330" width="21.87" height="20.96" style="fill:url(#linear-gradient-28)"/></g><g style="clip-path:url(#clip-path-29)"><rect x="513.93" y="330" width="18.58" height="21.48" style="fill:url(#linear-gradient-29)"/></g><g style="clip-path:url(#clip-path-30)"><rect x="538.23" y="330" width="19.22" height="20.96" style="fill:url(#linear-gradient-30)"/></g><g style="clip-path:url(#clip-path-31)"><rect x="560.82" y="330" width="15.91" height="20.96" style="fill:url(#linear-gradient-31)"/></g><g style="clip-path:url(#clip-path-32)"><rect x="589.46" y="329.48" width="24" height="22.01" style="fill:url(#linear-gradient-32)"/></g><g style="clip-path:url(#clip-path-33)"><rect x="617.89" y="330" width="14.74" height="20.96" style="fill:url(#linear-gradient-33)"/></g><g style="clip-path:url(#clip-path-34)"><rect x="647.14" y="330" width="14.74" height="20.96" style="fill:url(#linear-gradient-34)"/></g><g style="clip-path:url(#clip-path-35)"><rect x="665.94" y="330" width="4.92" height="20.96" style="fill:url(#linear-gradient-35)"/></g><g style="clip-path:url(#clip-path-36)"><rect x="676.8" y="330" width="19.23" height="20.96" style="fill:url(#linear-gradient-36)"/></g><g style="clip-path:url(#clip-path-37)"><rect x="699.37" y="330" width="23.36" height="20.96" style="fill:url(#linear-gradient-37)"/></g><g style="clip-path:url(#clip-path-38)"><rect x="726.07" y="330" width="19.23" height="20.96" style="fill:url(#linear-gradient-38)"/></g><g style="clip-path:url(#clip-path-39)"><rect x="749.76" y="329.48" width="20.51" height="22.01" style="fill:url(#linear-gradient-39)"/></g><g style="clip-path:url(#clip-path-40)"><rect x="774.56" y="330" width="15.91" height="20.96" style="fill:url(#linear-gradient-40)"/></g><text transform="translate(261.49 393.33)" style="font-size:16px;fill:#fff;font-family:MyriadPro-Regular, Myriad Pro"><tspan style="letter-spacing:0.016998291015625em">A</tspan><tspan x="10.06" y="0" style="letter-spacing:0.027008056640625em">t</tspan><tspan x="15.79" y="0" xml:space="preserve" style="letter-spacing:0.027984619140625em"> 3K</tspan><tspan x="37.41" y="0" style="letter-spacing:0.031005859375em">E</tspan><tspan x="45.78" y="0" style="letter-spacing:0.027984619140625em">Y </tspan><tspan x="58.72" y="0" style="letter-spacing:0.02099609375em">t</tspan><tspan x="64.35" y="0" style="letter-spacing:0.02801513671875em">e</tspan><tspan x="72.81" y="0" style="letter-spacing:0.027008056640625em">chnolo</tspan><tspan x="121.68" y="0" style="letter-spacing:0.022003173828125em">g</tspan><tspan x="130.97" y="0" style="letter-spacing:0.027008056640625em">i</tspan><tspan x="135.15" y="0" style="letter-spacing:0.02801513671875em">e</tspan><tspan x="143.61" y="0" style="letter-spacing:0.016998291015625em">s</tspan><tspan x="150.22" y="0" style="letter-spacing:0.02801513671875em">, </tspan><tspan x="157.82" y="0" style="letter-spacing:0.01800537109375em">w</tspan><tspan x="169.89" y="0" style="letter-spacing:0.027984619140625em">e p</tspan><tspan x="191.74" y="0" style="letter-spacing:0.01800537109375em">r</tspan><tspan x="197.26" y="0" style="letter-spacing:0.019989013671875em">o</tspan><tspan x="206.36" y="0" style="letter-spacing:0.02801513671875em">v</tspan><tspan x="214.51" y="0" style="letter-spacing:0.027008056640625em">id</tspan><tspan x="228.14" y="0" style="letter-spacing:0.027984619140625em">e </tspan><tspan x="240.44" y="0" style="letter-spacing:0.027008056640625em">a</tspan><tspan x="248.59" y="0" xml:space="preserve" style="letter-spacing:0.02801513671875em"> 1</tspan><tspan x="261.08" y="0" style="letter-spacing:0.04595947265625em">-</tspan><tspan x="266.73" y="0" style="letter-spacing:0.027008056640625em">click</tspan><tspan x="298.25" y="0" style="letter-spacing:0.02801513671875em"> </tspan><tspan x="302.09" y="0" style="letter-spacing:0.02703857421875em">m</tspan><tspan x="315.87" y="0" style="letter-spacing:0.02801513671875em">e</tspan><tspan x="324.33" y="0" style="letter-spacing:0.0269775390625em">thod</tspan><tspan x="358.04" y="0" style="letter-spacing:0.02801513671875em"> </tspan><tspan x="361.88" y="0" style="letter-spacing:0.01495361328125em">f</tspan><tspan x="366.79" y="0" style="letter-spacing:0.02703857421875em">or</tspan><tspan x="381.67" y="0" style="letter-spacing:0.02801513671875em"> </tspan><tspan x="385.51" y="0" style="letter-spacing:0.02703857421875em">cli</tspan><tspan x="401.5" y="0" style="letter-spacing:0.02801513671875em">e</tspan><tspan x="409.96" y="0" style="letter-spacing:0.02301025390625em">n</tspan><tspan x="419.21" y="0" style="letter-spacing:0.0269775390625em">ts</tspan><tspan x="431.7" y="0" style="letter-spacing:0.02801513671875em"> </tspan><tspan x="435.54" y="0" style="letter-spacing:0.02203369140625em">t</tspan><tspan x="441.19" y="0" style="letter-spacing:0.0269775390625em">o</tspan><tspan x="450.41" y="0" xml:space="preserve" style="letter-spacing:0.02801513671875em"> p</tspan><tspan x="463.8" y="0" style="letter-spacing:0.0269775390625em">a</tspan><tspan x="471.94" y="0" style="letter-spacing:0.051025390625em">r</tspan><tspan x="477.99" y="0" style="letter-spacing:0.02703857421875em">tici</tspan><tspan x="499.67" y="0" style="letter-spacing:0.02801513671875em">p</tspan><tspan x="509.22" y="0" style="letter-spacing:0.02301025390625em">a</tspan><tspan x="517.3" y="0" style="letter-spacing:0.02203369140625em">t</tspan><tspan x="522.95" y="0" style="letter-spacing:0.02801513671875em">e </tspan><tspan x="535.26" y="0" style="letter-spacing:0.0269775390625em">in</tspan><tspan x="548.74" y="0" style="letter-spacing:0.02801513671875em"> </tspan><tspan x="552.58" y="0">a</tspan></text><text transform="translate(397.3 415.33)" style="font-size:16px;fill:#fff;font-family:MyriadPro-Regular, Myriad Pro"><tspan style="letter-spacing:0.02801513671875em">b</tspan><tspan x="9.55" y="0" style="letter-spacing:0.01800537109375em">r</tspan><tspan x="15.07" y="0" style="letter-spacing:0.027008056640625em">oad</tspan><tspan x="41.89" y="0" xml:space="preserve" style="letter-spacing:0.027984619140625em"> b</tspan><tspan x="55.28" y="0" style="letter-spacing:0.0269775390625em">as</tspan><tspan x="70.19" y="0" style="letter-spacing:0.02801513671875em">e </tspan><tspan x="82.49" y="0" style="letter-spacing:0.0269775390625em">o</tspan><tspan x="91.71" y="0" style="letter-spacing:0.02801513671875em">f </tspan><tspan x="100.67" y="0" style="letter-spacing:0.02099609375em">c</tspan><tspan x="108.17" y="0" style="letter-spacing:0.0269775390625em">om</tspan><tspan x="131.17" y="0" style="letter-spacing:0.02801513671875em">p</tspan><tspan x="140.72" y="0" style="letter-spacing:0.027008056640625em">l</tspan><tspan x="144.93" y="0" style="letter-spacing:0.024993896484375em">e</tspan><tspan x="153.34" y="0" style="letter-spacing:0.0269775390625em">x</tspan><tspan x="161.18" y="0" style="letter-spacing:0.02801513671875em"> </tspan><tspan x="165.02" y="0" style="letter-spacing:0.03094482421875em">D</tspan><tspan x="176.17" y="0" style="letter-spacing:0.02801513671875em">e</tspan><tspan x="184.64" y="0" style="letter-spacing:0.02703857421875em">FI</tspan><tspan x="197.12" y="0" style="letter-spacing:0.02801513671875em"> </tspan><tspan x="200.96" y="0" style="letter-spacing:0.0269775390625em">instrum</tspan><tspan x="255.63" y="0" style="letter-spacing:0.0279541015625em">e</tspan><tspan x="264.09" y="0" style="letter-spacing:0.0240478515625em">n</tspan><tspan x="273.36" y="0" style="letter-spacing:0.0269775390625em">t</tspan><tspan x="279.08" y="0" style="letter-spacing:0.0159912109375em">s</tspan><tspan x="285.68" y="0">.</tspan></text><text transform="translate(269.68 459.27)" style="font-size:16px;fill:#fff;font-family:MyriadPro-Regular, Myriad Pro"><tspan style="letter-spacing:0.031005859375em">O</tspan><tspan x="11.52" y="0" style="letter-spacing:0.027008056640625em">ur</tspan><tspan x="26.43" y="0" style="letter-spacing:0.027984619140625em"> </tspan><tspan x="30.27" y="0" style="letter-spacing:0.01202392578125em">P</tspan><tspan x="38.98" y="0" style="letter-spacing:0.016998291015625em">r</tspan><tspan x="44.48" y="0" style="letter-spacing:0.027008056640625em">o</tspan><tspan x="53.7" y="0" style="letter-spacing:0.02801513671875em">p</tspan><tspan x="63.25" y="0" style="letter-spacing:0.031005859375em">r</tspan><tspan x="68.98" y="0" style="letter-spacing:0.027008056640625em">i</tspan><tspan x="73.15" y="0" style="letter-spacing:0.02801513671875em">e</tspan><tspan x="81.61" y="0" style="letter-spacing:0.027008056640625em">ta</tspan><tspan x="95.49" y="0" style="letter-spacing:0.052001953125em">r</tspan><tspan x="101.55" y="0" style="letter-spacing:0.027008056640625em">y</tspan><tspan x="109.52" y="0" xml:space="preserve" style="letter-spacing:0.02801513671875em">  Ke</tspan><tspan x="134.78" y="0" style="letter-spacing:0.0269775390625em">y</tspan><tspan x="142.75" y="0" style="letter-spacing:0.02801513671875em"> </tspan><tspan x="146.59" y="0" style="letter-spacing:0.02001953125em">S</tspan><tspan x="154.8" y="0" style="letter-spacing:0.020965576171875em">y</tspan><tspan x="162.67" y="0" style="letter-spacing:0.027008056640625em">s</tspan><tspan x="169.44" y="0" style="letter-spacing:0.022003173828125em">t</tspan><tspan x="175.09" y="0" style="letter-spacing:0.02801513671875em">e</tspan><tspan x="183.55" y="0" style="letter-spacing:0.027008056640625em">m</tspan><tspan x="197.33" y="0" style="letter-spacing:0.02801513671875em"> </tspan><tspan x="201.17" y="0" style="letter-spacing:0.0269775390625em">is</tspan><tspan x="212.11" y="0" style="letter-spacing:0.02801513671875em"> </tspan><tspan x="215.95" y="0" style="letter-spacing:0.027008056640625em">an</tspan><tspan x="233.4" y="0" style="letter-spacing:0.02801513671875em"> </tspan><tspan x="237.24" y="0" style="letter-spacing:0.0269775390625em">a</tspan><tspan x="245.39" y="0" style="letter-spacing:0.041015625em">c</tspan><tspan x="253.21" y="0" style="letter-spacing:0.027008056640625em">ti</tspan><tspan x="263.12" y="0" style="letter-spacing:0.016998291015625em">v</tspan><tspan x="271.08" y="0" style="letter-spacing:0.027984619140625em">e</tspan><tspan x="279.55" y="0" style="letter-spacing:0.027008056640625em">ly</tspan><tspan x="291.72" y="0" style="letter-spacing:0.02801513671875em"> </tspan><tspan x="295.56" y="0" style="letter-spacing:0.0269775390625em">mana</tspan><tspan x="334.94" y="0" style="letter-spacing:0.0279541015625em">ge</tspan><tspan x="352.79" y="0" style="letter-spacing:0.02703857421875em">d</tspan><tspan x="362.25" y="0" style="letter-spacing:0.02801513671875em"> </tspan><tspan x="366.09" y="0" style="letter-spacing:0.0269775390625em">s</tspan><tspan x="372.86" y="0" style="letter-spacing:0.02099609375em">y</tspan><tspan x="380.73" y="0" style="letter-spacing:0.0269775390625em">s</tspan><tspan x="387.5" y="0" style="letter-spacing:0.02099609375em">t</tspan><tspan x="393.13" y="0" style="letter-spacing:0.02801513671875em">e</tspan><tspan x="401.59" y="0" style="letter-spacing:0.02703857421875em">m</tspan><tspan x="415.37" y="0" style="letter-spacing:0.02801513671875em"> </tspan><tspan x="419.21" y="0" style="letter-spacing:0.0269775390625em">th</tspan><tspan x="434.25" y="0" style="letter-spacing:0.02398681640625em">a</tspan><tspan x="442.35" y="0" style="letter-spacing:0.0269775390625em">t</tspan><tspan x="448.07" y="0" style="letter-spacing:0.02801513671875em"> </tspan><tspan x="451.91" y="0" style="letter-spacing:0.02703857421875em">all</tspan><tspan x="468.47" y="0" style="letter-spacing:0.02001953125em">o</tspan><tspan x="477.58" y="0" style="letter-spacing:0.02197265625em">w</tspan><tspan x="489.71" y="0" style="letter-spacing:0.0269775390625em">s</tspan><tspan x="496.47" y="0" style="letter-spacing:0.02801513671875em"> </tspan><tspan x="500.31" y="0" style="letter-spacing:0.02703857421875em">sha</tspan><tspan x="524.54" y="0" style="letter-spacing:0.01702880859375em">r</tspan><tspan x="530.04" y="0" style="letter-spacing:0.0560302734375em">e</tspan><tspan x="538.95" y="0">-</tspan></text><text transform="translate(277.71 481.27)" style="font-size:16px;fill:#fff;font-family:MyriadPro-Regular, Myriad Pro"><tspan style="letter-spacing:0.027008056640625em">hold</tspan><tspan x="32.19" y="0" style="letter-spacing:0.02801513671875em">e</tspan><tspan x="40.66" y="0" style="letter-spacing:0.027008056640625em">rs</tspan><tspan x="53.09" y="0" style="letter-spacing:0.027984619140625em"> </tspan><tspan x="56.93" y="0" style="letter-spacing:0.022003173828125em">t</tspan><tspan x="62.58" y="0" style="letter-spacing:0.0269775390625em">o</tspan><tspan x="71.79" y="0" xml:space="preserve" style="letter-spacing:0.02801513671875em"> p</tspan><tspan x="85.18" y="0" style="letter-spacing:0.027008056640625em">a</tspan><tspan x="93.33" y="0" style="letter-spacing:0.052001953125em">r</tspan><tspan x="99.39" y="0" style="letter-spacing:0.0269775390625em">tici</tspan><tspan x="121.07" y="0" style="letter-spacing:0.02801513671875em">p</tspan><tspan x="130.62" y="0" style="letter-spacing:0.02398681640625em">a</tspan><tspan x="138.72" y="0" style="letter-spacing:0.02099609375em">t</tspan><tspan x="144.35" y="0" style="letter-spacing:0.02801513671875em">e </tspan><tspan x="156.65" y="0" style="letter-spacing:0.0269775390625em">in</tspan><tspan x="170.14" y="0" style="letter-spacing:0.02801513671875em"> </tspan><tspan x="173.98" y="0" style="letter-spacing:0.02099609375em">c</tspan><tspan x="181.48" y="0" style="letter-spacing:0.027008056640625em">om</tspan><tspan x="204.48" y="0" style="letter-spacing:0.02801513671875em">p</tspan><tspan x="214.03" y="0" style="letter-spacing:0.027008056640625em">l</tspan><tspan x="218.24" y="0" style="letter-spacing:0.02496337890625em">e</tspan><tspan x="226.65" y="0" style="letter-spacing:0.0269775390625em">x</tspan><tspan x="234.49" y="0" style="letter-spacing:0.02801513671875em"> </tspan><tspan x="238.33" y="0" style="letter-spacing:0.032012939453125em">D</tspan><tspan x="249.5" y="0" style="letter-spacing:0.027984619140625em">e</tspan><tspan x="257.96" y="0" style="letter-spacing:0.027008056640625em">FI</tspan><tspan x="270.44" y="0" style="letter-spacing:0.02801513671875em"> </tspan><tspan x="274.28" y="0" style="letter-spacing:0.0269775390625em">instrum</tspan><tspan x="328.96" y="0" style="letter-spacing:0.02801513671875em">e</tspan><tspan x="337.42" y="0" style="letter-spacing:0.02301025390625em">n</tspan><tspan x="346.67" y="0" style="letter-spacing:0.0269775390625em">ts</tspan><tspan x="359.16" y="0" style="letter-spacing:0.02801513671875em"> </tspan><tspan x="363" y="0" style="letter-spacing:0.0269775390625em">with</tspan><tspan x="394.43" y="0" style="letter-spacing:0.02801513671875em"> </tspan><tspan x="398.27" y="0" style="letter-spacing:0.02703857421875em">a</tspan><tspan x="406.41" y="0" style="letter-spacing:0.02801513671875em"> </tspan><tspan x="410.25" y="0" style="letter-spacing:0.0269775390625em">click</tspan><tspan x="441.77" y="0" style="letter-spacing:0.02801513671875em"> </tspan><tspan x="445.61" y="0" style="letter-spacing:0.0269775390625em">o</tspan><tspan x="454.83" y="0" style="letter-spacing:0.02801513671875em">f </tspan><tspan x="463.79" y="0" style="letter-spacing:0.0269775390625em">a</tspan><tspan x="471.93" y="0" xml:space="preserve" style="letter-spacing:0.02801513671875em"> b</tspan><tspan x="485.32" y="0" style="letter-spacing:0.02703857421875em">ut</tspan><tspan x="500.3" y="0" style="letter-spacing:0.02203369140625em">t</tspan><tspan x="505.94" y="0" style="letter-spacing:0.0269775390625em">on</tspan><tspan x="524.47" y="0">.</tspan></text></svg>