<svg id="_3Key" data-name="3Key" xmlns="http://www.w3.org/2000/svg" xmlns:xlink="http://www.w3.org/1999/xlink" viewBox="0 0 1366 768"><defs><linearGradient id="linear-gradient" x1="342.14" y1="668.21" x2="342.14" y2="346.41" gradientUnits="userSpaceOnUse"><stop offset="0" stop-color="#59095e"/><stop offset="1" stop-color="#55b2ff"/></linearGradient><linearGradient id="linear-gradient-2" x1="680.74" y1="650" x2="680.74" y2="368.27" xlink:href="#linear-gradient"/><linearGradient id="linear-gradient-3" x1="1050.4" y1="668.21" x2="1050.4" y2="346.02" xlink:href="#linear-gradient"/></defs><title>Solutions</title><path d="M80.37,156.62s759.23,58,1201.55,0v562.7s-789.09-70.78-1201.55,0Z" style="fill:none;stroke:#0fb2ee;stroke-miterlimit:10"/><polyline points="439.34 380.47 224.77 346.99 224.77 667.65 459.51 640.22 459.51 408.3" style="fill:none;stroke-miterlimit:10;stroke:url(#linear-gradient)"/><polyline points="802.75 401.44 802.75 649.5 558.73 649.5 558.73 368.77 788.23 368.77" style="fill:none;stroke-miterlimit:10;stroke:url(#linear-gradient-2)"/><polyline points="956.02 372 1165.36 346.59 1165.36 667.65 935.45 641.43 935.45 400.23" style="fill:none;stroke-miterlimit:10;stroke:url(#linear-gradient-3)"/><g style="opacity:0.08"><image width="1275" height="112" transform="translate(44 180)" xlink:href="Solutions1.png"/></g><polygon points="249.25 167.2 249.25 200.78 523.24 210.46 523.24 254.02 508.72 271.57 278.21 260.68 266.11 270.06 238.88 269.15 226.18 257.65 226.18 167.2 249.25 167.2" style="fill:#08b8f6"/><text transform="translate(260.32 244.04) rotate(1.91)" style="font-size:38.72063064575195px;fill:#fff;font-family:MyriadPro-Regular, Myriad Pro;letter-spacing:0.12401032040078101em">SO<tspan x="55.37" y="0" style="letter-spacing:0.08800773094133117em">L</tspan><tspan x="77.05" y="0" style="letter-spacing:0.12399771003669714em">UTIONS</tspan></text><path d="M562,211.2h-5.12v5.6h5.72v.77h-6.63v-12.8h6.33v.76h-5.42v4.91H562Z" style="fill:#fff"/><path d="M564.4,216.37a4,4,0,0,0,2.05.63c1.44,0,2.12-.78,2.12-1.73s-.6-1.54-1.92-2.06c-1.49-.58-2.31-1.39-2.31-2.5a2.55,2.55,0,0,1,2.8-2.47,3.59,3.59,0,0,1,2,.58l-.36.74A3,3,0,0,0,567,209a1.59,1.59,0,0,0-1.77,1.57c0,1,.64,1.36,1.89,1.87,1.47.59,2.34,1.32,2.34,2.7,0,1.56-1.21,2.62-3.08,2.62a4.44,4.44,0,0,1-2.31-.63Z" style="fill:#fff"/><path d="M573.12,205.81v2.64h2.59v.73h-2.59v5.93c0,1.16.36,1.88,1.33,1.88a3.23,3.23,0,0,0,1-.14l.11.7a3.35,3.35,0,0,1-1.26.22,1.93,1.93,0,0,1-1.57-.65,3.29,3.29,0,0,1-.56-2.17v-5.77h-1.54v-.73h1.54V206.1Z" style="fill:#fff"/><path d="M582.71,217.57l-.13-1.31h-.05a3.41,3.41,0,0,1-2.9,1.52,2.49,2.49,0,0,1-2.69-2.51c0-2.1,1.86-3.37,5.57-3.33v-.25c0-.9-.18-2.7-2.34-2.68a4,4,0,0,0-2.29.68l-.28-.66a4.85,4.85,0,0,1,2.67-.79c2.63,0,3.14,2,3.14,3.61v3.55a15.52,15.52,0,0,0,.13,2.17Zm-.2-4.87c-2-.06-4.61.24-4.61,2.43a1.73,1.73,0,0,0,1.81,1.9,2.74,2.74,0,0,0,2.7-1.83,1.69,1.69,0,0,0,.1-.55Z" style="fill:#fff"/><path d="M586.28,217.57c.05-.64.08-1.45.08-2.12V204.08h.9v6.07h0a3.52,3.52,0,0,1,3.33-1.91c2.32,0,3.91,1.93,3.91,4.67,0,3.26-2.07,4.87-4.07,4.87a3.49,3.49,0,0,1-3.26-1.85h-.05l-.06,1.64Zm1-3.52a2.91,2.91,0,0,0,.08.66,3.07,3.07,0,0,0,3,2.32c2.09,0,3.29-1.71,3.29-4.09,0-2.1-1.15-3.95-3.21-3.95a3.21,3.21,0,0,0-3,2.44,3,3,0,0,0-.12.8Z" style="fill:#fff"/><path d="M596.85,204.08h.9v13.49h-.9Z" style="fill:#fff"/><path d="M602.05,205.84a.73.73,0,1,1-1.46,0,.77.77,0,0,1,.73-.79A.74.74,0,0,1,602.05,205.84Zm-1.18,11.73v-9.12h.9v9.12Z" style="fill:#fff"/><path d="M604.46,216.37a4,4,0,0,0,2.06.63c1.43,0,2.11-.78,2.11-1.73s-.6-1.54-1.91-2.06c-1.5-.58-2.32-1.39-2.32-2.5a2.56,2.56,0,0,1,2.81-2.47,3.56,3.56,0,0,1,2,.58l-.36.74a3,3,0,0,0-1.8-.55,1.6,1.6,0,0,0-1.78,1.57c0,1,.65,1.36,1.89,1.87,1.47.59,2.35,1.32,2.35,2.7,0,1.56-1.21,2.62-3.08,2.62a4.47,4.47,0,0,1-2.32-.63Z" style="fill:#fff"/><path d="M611.93,204.08h.9v6h0a3.33,3.33,0,0,1,1.24-1.32,3.5,3.5,0,0,1,1.84-.52c.86,0,3.17.43,3.17,3.83v5.5h-.91v-5.4c0-1.64-.64-3.14-2.51-3.14A3,3,0,0,0,613,211.1a2.63,2.63,0,0,0-.12.89v5.58h-.9Z" style="fill:#fff"/><path d="M622.25,212.92c0,2.92,1.59,4.07,3.47,4.07a5.33,5.33,0,0,0,2.54-.52l.23.71a6.12,6.12,0,0,1-2.88.59c-2.62,0-4.25-1.91-4.25-4.58,0-3,1.74-4.95,4.1-4.95,3,0,3.55,2.81,3.55,4.12a2.92,2.92,0,0,1,0,.56Zm5.82-.72c0-1.27-.51-3.21-2.73-3.21-2,0-2.87,1.81-3,3.21Z" style="fill:#fff"/><path d="M638.59,204.08v11.37c0,.67,0,1.48.08,2.12h-.82l-.06-1.73h0a3.42,3.42,0,0,1-3.24,1.94c-2.25,0-3.93-1.88-3.93-4.6,0-3,1.86-4.94,4.11-4.94a3.23,3.23,0,0,1,3,1.61h0v-5.77Zm-.9,8a3.91,3.91,0,0,0-.09-.83,2.94,2.94,0,0,0-2.88-2.24c-2,0-3.24,1.73-3.24,4.09,0,2,1,3.95,3.2,3.95a3,3,0,0,0,2.91-2.39,2.59,2.59,0,0,0,.1-.76Z" style="fill:#fff"/><path d="M647,205.84a.74.74,0,1,1-1.47,0,.78.78,0,0,1,.74-.79A.75.75,0,0,1,647,205.84Zm-1.19,11.73v-9.12h.91v9.12Z" style="fill:#fff"/><path d="M649.78,210.63c0-.84,0-1.46-.07-2.18h.84l.06,1.65h0a3.44,3.44,0,0,1,3.14-1.86c.87,0,3.18.45,3.18,3.86v5.47h-.9v-5.39c0-1.66-.64-3.16-2.53-3.16a2.92,2.92,0,0,0-2.85,2.91v5.64h-.91Z" style="fill:#fff"/><path d="M663.47,217.57V217l1.14-1.17c3.43-3.36,4.94-5.1,4.94-7.22a2.48,2.48,0,0,0-2.69-2.8,4.13,4.13,0,0,0-2.62,1.06l-.36-.61A4.65,4.65,0,0,1,667,205a3.25,3.25,0,0,1,3.43,3.41c0,2.43-1.76,4.38-4.85,7.43l-.87.91v0h6.06v.77Z" style="fill:#fff"/><path d="M680.4,211.22c0,4.43-1.59,6.56-4,6.56-1.93,0-3.71-1.89-3.77-6.33s2-6.44,4-6.44S680.4,207,680.4,211.22Zm-6.89.25c0,3.45,1.18,5.56,3,5.56,2.06,0,3-2.35,3-5.71s-.88-5.56-3-5.56C674.79,205.76,673.51,207.83,673.51,211.47Z" style="fill:#fff"/><path d="M682,217.57V217l1.14-1.17c3.43-3.36,4.94-5.1,4.94-7.22a2.48,2.48,0,0,0-2.69-2.8,4.1,4.1,0,0,0-2.61,1.06l-.36-.61a4.63,4.63,0,0,1,3.15-1.25,3.24,3.24,0,0,1,3.43,3.41c0,2.43-1.75,4.38-4.85,7.43l-.87.91v0h6.07v.77Z" style="fill:#fff"/><path d="M698.92,211.22c0,4.43-1.58,6.56-4,6.56-1.93,0-3.71-1.89-3.77-6.33s2-6.44,4-6.44S698.92,207,698.92,211.22Zm-6.88.25c0,3.45,1.18,5.56,3,5.56,2.06,0,3-2.35,3-5.71s-.88-5.56-3-5.56C693.32,205.76,692,207.83,692,211.47Z" style="fill:#fff"/><path d="M700.13,220a25.41,25.41,0,0,0,1-4l1.19-.19a24.06,24.06,0,0,1-1.46,4.12Z" style="fill:#fff"/><path d="M704.16,216.23a5.19,5.19,0,0,0,2.66.77c2.53,0,3.14-1.75,3.12-2.85,0-2.06-1.81-2.9-3.62-2.9h-.79v-.75h.82c1.37,0,3.1-.78,3.1-2.5a2.11,2.11,0,0,0-2.39-2.21,4,4,0,0,0-2.39.86l-.36-.67a4.88,4.88,0,0,1,2.87-1c2.32,0,3.21,1.47,3.21,2.87a3.15,3.15,0,0,1-2.3,2.93v0a3.28,3.28,0,0,1,2.79,3.27c0,1.84-1.32,3.66-4.17,3.66a5.33,5.33,0,0,1-2.91-.83Z" style="fill:#fff"/><path d="M717.91,204.77h.9v6.48h.07c.37-.5.76-.94,1.09-1.34l4.54-5.14h1.11l-4.87,5.43,5.33,7.37H725l-4.86-6.75-1.32,1.44v5.31h-.9Z" style="fill:#fff"/><path d="M727.7,212.92c0,2.92,1.59,4.07,3.47,4.07a5.25,5.25,0,0,0,2.53-.52l.24.71a6.16,6.16,0,0,1-2.88.59c-2.62,0-4.25-1.91-4.25-4.58,0-3,1.74-4.95,4.1-4.95,3,0,3.55,2.81,3.55,4.12a2.92,2.92,0,0,1,0,.56Zm5.81-.72c0-1.27-.5-3.21-2.72-3.21-2,0-2.87,1.81-3,3.21Z" style="fill:#fff"/><path d="M736.49,208.45l2.39,6c.25.65.5,1.38.67,2h0c.18-.57.42-1.28.69-2l2.23-5.9h1l-2.74,6.81c-1.1,2.83-1.87,4.52-3.07,5.55a5,5,0,0,1-1.59.95l-.29-.75a4.67,4.67,0,0,0,1.59-1,7.31,7.31,0,0,0,1.53-2.29,1.31,1.31,0,0,0,.1-.4,1.06,1.06,0,0,0-.1-.4l-3.38-8.45Z" style="fill:#fff"/><path d="M751,205.52h-4.18v-.75h9.26v.75H751.9v12H751Z" style="fill:#fff"/><path d="M756.3,212.92c0,2.92,1.58,4.07,3.46,4.07a5.33,5.33,0,0,0,2.54-.52l.23.71a6.12,6.12,0,0,1-2.88.59c-2.62,0-4.25-1.91-4.25-4.58,0-3,1.75-4.95,4.1-4.95,3,0,3.55,2.81,3.55,4.12a4.37,4.37,0,0,1,0,.56Zm5.81-.72c0-1.27-.51-3.21-2.73-3.21-2,0-2.87,1.81-3,3.21Z" style="fill:#fff"/><path d="M771.66,217.17a6,6,0,0,1-2.67.6,4.31,4.31,0,0,1-4.38-4.66,4.59,4.59,0,0,1,4.7-4.87,4.69,4.69,0,0,1,2.4.57l-.32.75a4.24,4.24,0,0,0-2.17-.54c-2.44,0-3.7,1.88-3.7,4,0,2.39,1.51,4,3.61,4a5.13,5.13,0,0,0,2.28-.53Z" style="fill:#fff"/><path d="M773.84,204.08h.9v6h0a3.33,3.33,0,0,1,1.24-1.32,3.5,3.5,0,0,1,1.84-.52c.86,0,3.17.43,3.17,3.83v5.5h-.9v-5.4c0-1.64-.65-3.14-2.52-3.14a3,3,0,0,0-2.75,2.07,2.63,2.63,0,0,0-.12.89v5.58h-.9Z" style="fill:#fff"/><path d="M784,210.63c0-.84,0-1.46-.08-2.18h.84l.07,1.65h0a3.44,3.44,0,0,1,3.14-1.86c.87,0,3.19.45,3.19,3.86v5.47h-.91v-5.39c0-1.66-.64-3.16-2.52-3.16a2.92,2.92,0,0,0-2.86,2.91v5.64H784Z" style="fill:#fff"/><path d="M802,212.92c0,3.41-2.33,4.86-4.36,4.86-2.36,0-4.18-1.84-4.18-4.7,0-3.12,2-4.84,4.31-4.84C800.29,208.24,802,210.13,802,212.92Zm-7.63.12c0,2.28,1.45,4,3.33,4s3.39-1.73,3.39-4.06c0-1.67-.94-4-3.34-4S794.37,211.07,794.37,213Z" style="fill:#fff"/><path d="M804.32,204.08h.9v13.49h-.9Z" style="fill:#fff"/><path d="M816.13,212.92c0,3.41-2.34,4.86-4.37,4.86-2.36,0-4.18-1.84-4.18-4.7,0-3.12,2-4.84,4.31-4.84C814.41,208.24,816.13,210.13,816.13,212.92Zm-7.64.12c0,2.28,1.46,4,3.33,4s3.39-1.73,3.39-4.06c0-1.67-.94-4-3.34-4S808.49,211.07,808.49,213Z" style="fill:#fff"/><path d="M825.78,208.45c0,.68-.07,1.4-.07,2.36v5.43c0,2.34-.49,3.49-1.25,4.22a4.55,4.55,0,0,1-3.09,1.08,5.27,5.27,0,0,1-2.9-.78l.32-.73a4.94,4.94,0,0,0,2.72.76c1.91,0,3.29-1,3.29-3.7v-1.28h0a3.42,3.42,0,0,1-3.17,1.76c-2.29,0-3.91-2-3.91-4.47,0-3.19,2.09-4.86,4.11-4.86a3.19,3.19,0,0,1,3.06,1.75h0l.06-1.54Zm-1,3.51a2.88,2.88,0,0,0-2.95-3c-1.93,0-3.26,1.59-3.26,4,0,2,1.08,3.83,3.24,3.83a3,3,0,0,0,2.81-2.07,2.85,2.85,0,0,0,.16-1Z" style="fill:#fff"/><path d="M829.8,205.84a.73.73,0,1,1-1.46,0,.77.77,0,0,1,.73-.79A.74.74,0,0,1,829.8,205.84Zm-1.18,11.73v-9.12h.9v9.12Z" style="fill:#fff"/><path d="M832.73,212.92c0,2.92,1.58,4.07,3.46,4.07a5.33,5.33,0,0,0,2.54-.52l.23.71a6.12,6.12,0,0,1-2.88.59c-2.62,0-4.25-1.91-4.25-4.58,0-3,1.75-4.95,4.1-4.95,3,0,3.55,2.81,3.55,4.12a4.37,4.37,0,0,1,0,.56Zm5.81-.72c0-1.27-.51-3.21-2.73-3.21-2,0-2.87,1.81-3,3.21Z" style="fill:#fff"/><path d="M841.42,216.37a4,4,0,0,0,2.06.63c1.43,0,2.11-.78,2.11-1.73s-.6-1.54-1.92-2.06c-1.49-.58-2.31-1.39-2.31-2.5a2.56,2.56,0,0,1,2.81-2.47,3.56,3.56,0,0,1,2,.58l-.36.74A3,3,0,0,0,844,209a1.6,1.6,0,0,0-1.78,1.57c0,1,.65,1.36,1.89,1.87,1.47.59,2.35,1.32,2.35,2.7,0,1.56-1.21,2.62-3.08,2.62a4.47,4.47,0,0,1-2.32-.63Z" style="fill:#fff"/><path d="M854.22,205.84a.73.73,0,1,1-1.46,0,.78.78,0,0,1,.74-.79A.74.74,0,0,1,854.22,205.84ZM853,217.57v-9.12h.9v9.12Z" style="fill:#fff"/><path d="M856.64,216.37a3.92,3.92,0,0,0,2.05.63c1.43,0,2.12-.78,2.12-1.73s-.61-1.54-1.92-2.06c-1.49-.58-2.31-1.39-2.31-2.5a2.55,2.55,0,0,1,2.8-2.47,3.62,3.62,0,0,1,2,.58l-.37.74a3,3,0,0,0-1.8-.55,1.6,1.6,0,0,0-1.78,1.57c0,1,.65,1.36,1.89,1.87,1.48.59,2.35,1.32,2.35,2.7,0,1.56-1.21,2.62-3.08,2.62a4.47,4.47,0,0,1-2.32-.63Z" style="fill:#fff"/><path d="M873.23,217.57l-.13-1.31h-.05a3.43,3.43,0,0,1-2.9,1.52,2.49,2.49,0,0,1-2.69-2.51c0-2.1,1.85-3.37,5.56-3.33v-.25c0-.9-.17-2.7-2.33-2.68a4,4,0,0,0-2.29.68l-.28-.66a4.85,4.85,0,0,1,2.67-.79c2.63,0,3.14,2,3.14,3.61v3.55a15.52,15.52,0,0,0,.13,2.17ZM873,212.7c-2-.06-4.6.24-4.6,2.43a1.73,1.73,0,0,0,1.81,1.9,2.74,2.74,0,0,0,2.7-1.83,1.66,1.66,0,0,0,.09-.55Z" style="fill:#fff"/><path d="M881.05,204.94a20.27,20.27,0,0,1,3.28-.28,6.92,6.92,0,0,1,5.16,1.76,6.05,6.05,0,0,1,1.59,4.43,7.05,7.05,0,0,1-1.67,4.86,7.32,7.32,0,0,1-5.52,2,26.19,26.19,0,0,1-2.84-.12Zm.9,11.87a15.49,15.49,0,0,0,2.07.09c4.11,0,6.14-2.3,6.14-6,0-3.25-1.78-5.47-5.88-5.47a12.18,12.18,0,0,0-2.33.2Z" style="fill:#fff"/><path d="M893.58,212.92c0,2.92,1.59,4.07,3.47,4.07a5.33,5.33,0,0,0,2.54-.52l.23.71a6.12,6.12,0,0,1-2.88.59c-2.62,0-4.25-1.91-4.25-4.58,0-3,1.74-4.95,4.1-4.95,3,0,3.55,2.81,3.55,4.12a2.92,2.92,0,0,1,0,.56Zm5.82-.72c0-1.27-.51-3.21-2.73-3.21-2,0-2.87,1.81-3,3.21Z" style="fill:#fff"/><path d="M908.94,217.17a5.93,5.93,0,0,1-2.66.6c-2.63,0-4.38-1.92-4.38-4.66a4.59,4.59,0,0,1,4.7-4.87,4.72,4.72,0,0,1,2.4.57l-.33.75a4.16,4.16,0,0,0-2.16-.54c-2.44,0-3.7,1.88-3.7,4,0,2.39,1.51,4,3.61,4a5.17,5.17,0,0,0,2.28-.53Z" style="fill:#fff"/><path d="M911.22,212.92c0,2.92,1.59,4.07,3.47,4.07a5.33,5.33,0,0,0,2.54-.52l.23.71a6.12,6.12,0,0,1-2.88.59c-2.62,0-4.25-1.91-4.25-4.58,0-3,1.74-4.95,4.1-4.95,3,0,3.55,2.81,3.55,4.12a2.92,2.92,0,0,1,0,.56Zm5.82-.72c0-1.27-.51-3.21-2.73-3.21-2,0-2.87,1.81-3,3.21Z" style="fill:#fff"/><path d="M920.3,210.63c0-.84,0-1.46-.08-2.18h.84l.07,1.65h0a3.41,3.41,0,0,1,3.13-1.86c.87,0,3.19.45,3.19,3.86v5.47h-.91v-5.39c0-1.66-.64-3.16-2.52-3.16a2.92,2.92,0,0,0-2.86,2.91v5.64h-.9Z" style="fill:#fff"/><path d="M931.7,205.81v2.64h2.6v.73h-2.6v5.93c0,1.16.36,1.88,1.34,1.88a3.16,3.16,0,0,0,1-.14l.11.7a3.28,3.28,0,0,1-1.26.22,1.94,1.94,0,0,1-1.57-.65,3.34,3.34,0,0,1-.55-2.17v-5.77h-1.54v-.73h1.54V206.1Z" style="fill:#fff"/><path d="M936.32,211.19c0-.92,0-1.86-.08-2.74h.84l0,1.85h0a2.82,2.82,0,0,1,2.59-2.06,2.33,2.33,0,0,1,.37,0v.87a2,2,0,0,0-.44,0c-1.25,0-2.15,1.09-2.39,2.55a4.82,4.82,0,0,0-.08.86v5h-.9Z" style="fill:#fff"/><path d="M946.86,217.57l-.14-1.31h0a3.43,3.43,0,0,1-2.91,1.52,2.49,2.49,0,0,1-2.68-2.51c0-2.1,1.85-3.37,5.56-3.33v-.25c0-.9-.17-2.7-2.33-2.68a4,4,0,0,0-2.29.68l-.28-.66a4.82,4.82,0,0,1,2.67-.79c2.63,0,3.14,2,3.14,3.61v3.55a14.14,14.14,0,0,0,.13,2.17Zm-.21-4.87c-2-.06-4.6.24-4.6,2.43a1.73,1.73,0,0,0,1.81,1.9,2.75,2.75,0,0,0,2.7-1.83,2,2,0,0,0,.09-.55Z" style="fill:#fff"/><path d="M950.51,204.08h.9v13.49h-.9Z" style="fill:#fff"/><path d="M955.71,205.84a.73.73,0,1,1-1.46,0,.77.77,0,0,1,.73-.79A.74.74,0,0,1,955.71,205.84Zm-1.18,11.73v-9.12h.9v9.12Z" style="fill:#fff"/><path d="M957.26,217l4.92-6.48c.33-.44.67-.86,1-1.31v0h-5.56v-.75h6.66l0,.61-4.91,6.47c-.32.43-.63.83-1,1.26v0h5.92v.75h-7.08Z" style="fill:#fff"/><path d="M966.15,212.92c0,2.92,1.59,4.07,3.47,4.07a5.33,5.33,0,0,0,2.54-.52l.23.71a6.12,6.12,0,0,1-2.88.59c-2.62,0-4.25-1.91-4.25-4.58,0-3,1.74-4.95,4.1-4.95,3,0,3.55,2.81,3.55,4.12a2.92,2.92,0,0,1,0,.56Zm5.82-.72c0-1.27-.51-3.21-2.73-3.21-2,0-2.87,1.81-3,3.21Z" style="fill:#fff"/><path d="M982.49,204.08v11.37c0,.67,0,1.48.08,2.12h-.82l-.06-1.73h-.05a3.42,3.42,0,0,1-3.24,1.94c-2.25,0-3.93-1.88-3.93-4.6,0-3,1.86-4.94,4.11-4.94a3.23,3.23,0,0,1,3,1.61h0v-5.77Zm-.9,8a3.91,3.91,0,0,0-.09-.83,2.94,2.94,0,0,0-2.88-2.24c-2,0-3.24,1.73-3.24,4.09,0,2,1,3.95,3.2,3.95a3,3,0,0,0,2.91-2.39,2.59,2.59,0,0,0,.1-.76Z" style="fill:#fff"/><path d="M989.73,204.77h6.32v.76h-5.42v5.08h5v.77h-5v6.19h-.9Z" style="fill:#fff"/><path d="M999.09,205.84a.73.73,0,1,1-1.46,0,.78.78,0,0,1,.74-.79A.74.74,0,0,1,999.09,205.84Zm-1.18,11.73v-9.12h.9v9.12Z" style="fill:#fff"/><path d="M1001.88,210.63c0-.84,0-1.46-.08-2.18h.85l.06,1.65h0a3.43,3.43,0,0,1,3.14-1.86c.87,0,3.18.45,3.18,3.86v5.47h-.9v-5.39c0-1.66-.64-3.16-2.53-3.16a2.91,2.91,0,0,0-2.73,2.09,2.88,2.88,0,0,0-.13.82v5.64h-.9Z" style="fill:#fff"/><path d="M1017,217.57l-.13-1.31h0a3.45,3.45,0,0,1-2.91,1.52,2.49,2.49,0,0,1-2.68-2.51c0-2.1,1.85-3.37,5.56-3.33v-.25c0-.9-.18-2.7-2.33-2.68a4,4,0,0,0-2.29.68l-.29-.66a4.85,4.85,0,0,1,2.68-.79c2.63,0,3.13,2,3.13,3.61v3.55a15.52,15.52,0,0,0,.13,2.17Zm-.2-4.87c-2-.06-4.61.24-4.61,2.43A1.73,1.73,0,0,0,1014,217a2.74,2.74,0,0,0,2.7-1.83,1.69,1.69,0,0,0,.1-.55Z" style="fill:#fff"/><path d="M1020.7,210.63c0-.84,0-1.46-.08-2.18h.84l.07,1.65h0a3.44,3.44,0,0,1,3.14-1.86c.87,0,3.19.45,3.19,3.86v5.47H1027v-5.39c0-1.66-.64-3.16-2.52-3.16a2.92,2.92,0,0,0-2.86,2.91v5.64h-.9Z" style="fill:#fff"/><path d="M1037.17,217.17a5.93,5.93,0,0,1-2.66.6c-2.63,0-4.38-1.92-4.38-4.66a4.58,4.58,0,0,1,4.7-4.87,4.64,4.64,0,0,1,2.39.57l-.32.75a4.19,4.19,0,0,0-2.16-.54c-2.45,0-3.7,1.88-3.7,4,0,2.39,1.51,4,3.61,4a5.08,5.08,0,0,0,2.27-.53Z" style="fill:#fff"/><path d="M1039.45,212.92c0,2.92,1.59,4.07,3.47,4.07a5.33,5.33,0,0,0,2.54-.52l.23.71a6.12,6.12,0,0,1-2.88.59c-2.62,0-4.25-1.91-4.25-4.58,0-3,1.74-4.95,4.1-4.95,3,0,3.55,2.81,3.55,4.12a2.92,2.92,0,0,1,0,.56Zm5.82-.72c0-1.27-.51-3.21-2.73-3.21-2,0-2.87,1.81-3,3.21Z" style="fill:#fff"/><path d="M1054.78,221.57a19.89,19.89,0,0,1-1.86-3.94,14.66,14.66,0,0,1-.84-5,16.79,16.79,0,0,1,2.7-8.89h1a33.38,33.38,0,0,0-1.44,3.38,17.07,17.07,0,0,0-.62,2.64,18.66,18.66,0,0,0-.22,2.89,19.48,19.48,0,0,0,2.28,8.92Z" style="fill:#fff"/><path d="M1057.88,204.94a20.17,20.17,0,0,1,3.28-.28,6.92,6.92,0,0,1,5.16,1.76,6.05,6.05,0,0,1,1.59,4.43,7.05,7.05,0,0,1-1.67,4.86,7.34,7.34,0,0,1-5.52,2,26.19,26.19,0,0,1-2.84-.12Zm.9,11.87a15.49,15.49,0,0,0,2.07.09c4.11,0,6.14-2.3,6.14-6,0-3.25-1.78-5.47-5.88-5.47a12.18,12.18,0,0,0-2.33.2Z" style="fill:#fff"/><path d="M1070.41,212.92c0,2.92,1.59,4.07,3.47,4.07a5.33,5.33,0,0,0,2.54-.52l.23.71a6.12,6.12,0,0,1-2.88.59c-2.62,0-4.25-1.91-4.25-4.58,0-3,1.74-4.95,4.1-4.95,3,0,3.55,2.81,3.55,4.12a2.92,2.92,0,0,1,0,.56Zm5.82-.72c0-1.27-.51-3.21-2.73-3.21-2,0-2.87,1.81-3,3.21Z" style="fill:#fff"/><path d="M1079.5,204.77h6.32v.76h-5.42v5.08h5v.77h-5v6.19h-.9Z" style="fill:#fff"/><path d="M1088.87,205.84a.75.75,0,0,1-.76.79.74.74,0,0,1-.71-.79.78.78,0,0,1,.74-.79A.75.75,0,0,1,1088.87,205.84Zm-1.19,11.73v-9.12h.9v9.12Z" style="fill:#fff"/><path d="M1091.67,221.57h-1a19.59,19.59,0,0,0,2.27-8.92,18.67,18.67,0,0,0-.23-2.89,17.07,17.07,0,0,0-.62-2.64,30.24,30.24,0,0,0-1.42-3.38h1a16.87,16.87,0,0,1,2.69,8.89,15,15,0,0,1-.81,4.93A18.46,18.46,0,0,1,1091.67,221.57Z" style="fill:#fff"/><path d="M1101.05,217.57v-8.39h-1.31v-.73h1.31V208a4.49,4.49,0,0,1,1-3.28,2.84,2.84,0,0,1,2-.8,2.76,2.76,0,0,1,1.37.32l-.29.7a2.43,2.43,0,0,0-1.16-.25c-1.69,0-2,1.56-2,3.3v.51h2.44v.73H1102v8.39Z" style="fill:#fff"/><path d="M1113.48,212.92c0,3.41-2.33,4.86-4.37,4.86-2.36,0-4.18-1.84-4.18-4.7,0-3.12,2-4.84,4.32-4.84C1111.76,208.24,1113.48,210.13,1113.48,212.92Zm-7.64.12c0,2.28,1.46,4,3.33,4s3.4-1.73,3.4-4.06c0-1.67-.94-4-3.35-4S1105.84,211.07,1105.84,213Z" style="fill:#fff"/><path d="M1122.08,217.17a5.93,5.93,0,0,1-2.66.6c-2.63,0-4.38-1.92-4.38-4.66a4.58,4.58,0,0,1,4.7-4.87,4.64,4.64,0,0,1,2.39.57l-.32.75a4.19,4.19,0,0,0-2.16-.54c-2.45,0-3.7,1.88-3.7,4,0,2.39,1.5,4,3.6,4a5.13,5.13,0,0,0,2.28-.53Z" style="fill:#fff"/><path d="M1131.28,215.34c0,.81,0,1.53.08,2.23h-.84l-.07-1.62h0a3.54,3.54,0,0,1-3.13,1.83c-1.16,0-3.11-.58-3.11-4v-5.31h.91v5.12c0,2,.61,3.42,2.42,3.42a3,3,0,0,0,2.69-1.85,3.43,3.43,0,0,0,.18-1v-5.68h.9Z" style="fill:#fff"/><path d="M1134,216.37a4,4,0,0,0,2.06.63c1.43,0,2.11-.78,2.11-1.73s-.6-1.54-1.91-2.06c-1.5-.58-2.32-1.39-2.32-2.5a2.56,2.56,0,0,1,2.81-2.47,3.56,3.56,0,0,1,2,.58l-.36.74a3,3,0,0,0-1.8-.55,1.6,1.6,0,0,0-1.78,1.57c0,1,.65,1.36,1.89,1.87,1.47.59,2.35,1.32,2.35,2.7,0,1.56-1.21,2.62-3.08,2.62a4.47,4.47,0,0,1-2.32-.63Z" style="fill:#fff"/><path d="M1141.56,212.92c0,2.92,1.59,4.07,3.47,4.07a5.33,5.33,0,0,0,2.54-.52l.23.71a6.12,6.12,0,0,1-2.88.59c-2.62,0-4.25-1.91-4.25-4.58,0-3,1.74-4.95,4.1-4.95,3,0,3.55,2.81,3.55,4.12a2.92,2.92,0,0,1,0,.56Zm5.82-.72c0-1.27-.51-3.21-2.73-3.21-2,0-2.87,1.81-3,3.21Z" style="fill:#fff"/><path d="M1157.9,204.08v11.37c0,.67,0,1.48.08,2.12h-.82l-.06-1.73h0a3.41,3.41,0,0,1-3.24,1.94c-2.25,0-3.93-1.88-3.93-4.6,0-3,1.86-4.94,4.11-4.94a3.23,3.23,0,0,1,3,1.61h0v-5.77Zm-.9,8a3.91,3.91,0,0,0-.09-.83A2.94,2.94,0,0,0,1154,209c-2,0-3.24,1.73-3.24,4.09,0,2,1,3.95,3.2,3.95a3,3,0,0,0,2.92-2.39,3,3,0,0,0,.09-.76Z" style="fill:#fff"/><path d="M1172.39,204.08v11.37c0,.67,0,1.48.08,2.12h-.82l-.06-1.73h0a3.42,3.42,0,0,1-3.24,1.94c-2.25,0-3.93-1.88-3.93-4.6,0-3,1.86-4.94,4.11-4.94a3.23,3.23,0,0,1,3,1.61h0v-5.77Zm-.9,8a3.91,3.91,0,0,0-.09-.83,2.94,2.94,0,0,0-2.88-2.24c-2,0-3.24,1.73-3.24,4.09,0,2,1,3.95,3.2,3.95a3,3,0,0,0,2.91-2.39,2.59,2.59,0,0,0,.1-.76Z" style="fill:#fff"/><path d="M1176.64,205.84a.73.73,0,1,1-1.46,0,.77.77,0,0,1,.73-.79A.75.75,0,0,1,1176.64,205.84Zm-1.18,11.73v-9.12h.9v9.12Z" style="fill:#fff"/><path d="M1186.77,208.45c0,.68-.08,1.4-.08,2.36v5.43c0,2.34-.48,3.49-1.25,4.22a4.53,4.53,0,0,1-3.08,1.08,5.25,5.25,0,0,1-2.9-.78l.32-.73a4.91,4.91,0,0,0,2.72.76c1.91,0,3.29-1,3.29-3.7v-1.28h0a3.42,3.42,0,0,1-3.17,1.76c-2.29,0-3.91-2-3.91-4.47,0-3.19,2.09-4.86,4.11-4.86a3.19,3.19,0,0,1,3.06,1.75h0l0-1.54Zm-1,3.51a2.88,2.88,0,0,0-3-3c-1.93,0-3.26,1.59-3.26,4,0,2,1.08,3.83,3.24,3.83a3,3,0,0,0,2.81-2.07,3.12,3.12,0,0,0,.16-1Z" style="fill:#fff"/><path d="M1190.79,205.84a.73.73,0,1,1-1.46,0,.77.77,0,0,1,.73-.79A.75.75,0,0,1,1190.79,205.84Zm-1.18,11.73v-9.12h.9v9.12Z" style="fill:#fff"/><path d="M1194.83,205.81v2.64h2.6v.73h-2.6v5.93c0,1.16.36,1.88,1.34,1.88a3.28,3.28,0,0,0,1-.14l.1.7a3.26,3.26,0,0,1-1.25.22,2,2,0,0,1-1.58-.65,3.34,3.34,0,0,1-.55-2.17v-5.77h-1.54v-.73h1.54V206.1Z" style="fill:#fff"/><path d="M1204.43,217.57l-.14-1.31h0a3.43,3.43,0,0,1-2.91,1.52,2.49,2.49,0,0,1-2.68-2.51c0-2.1,1.85-3.37,5.56-3.33v-.25c0-.9-.17-2.7-2.33-2.68a4,4,0,0,0-2.29.68l-.28-.66a4.82,4.82,0,0,1,2.67-.79c2.63,0,3.13,2,3.13,3.61v3.55a14.13,14.13,0,0,0,.14,2.17Zm-.21-4.87c-2-.06-4.61.24-4.61,2.43a1.74,1.74,0,0,0,1.82,1.9,2.75,2.75,0,0,0,2.7-1.83,2,2,0,0,0,.09-.55Z" style="fill:#fff"/><path d="M1208.08,204.08h.9v13.49h-.9Z" style="fill:#fff"/><path d="M1221.23,217.57l-.14-1.31h0a3.43,3.43,0,0,1-2.91,1.52,2.49,2.49,0,0,1-2.68-2.51c0-2.1,1.85-3.37,5.56-3.33v-.25c0-.9-.17-2.7-2.33-2.68a4,4,0,0,0-2.29.68l-.28-.66a4.82,4.82,0,0,1,2.67-.79c2.63,0,3.13,2,3.13,3.61v3.55a14.13,14.13,0,0,0,.14,2.17Zm-.21-4.87c-2-.06-4.61.24-4.61,2.43a1.74,1.74,0,0,0,1.82,1.9,2.75,2.75,0,0,0,2.7-1.83,2,2,0,0,0,.09-.55Z" style="fill:#fff"/><path d="M1224.5,216.37a4,4,0,0,0,2.06.63c1.43,0,2.11-.78,2.11-1.73s-.6-1.54-1.92-2.06c-1.49-.58-2.31-1.39-2.31-2.5a2.56,2.56,0,0,1,2.81-2.47,3.56,3.56,0,0,1,2,.58l-.36.74a3,3,0,0,0-1.8-.55,1.6,1.6,0,0,0-1.78,1.57c0,1,.65,1.36,1.89,1.87,1.47.59,2.35,1.32,2.35,2.7,0,1.56-1.21,2.62-3.08,2.62a4.47,4.47,0,0,1-2.32-.63Z" style="fill:#fff"/><path d="M1231.59,216.37a4,4,0,0,0,2.05.63c1.44,0,2.12-.78,2.12-1.73s-.6-1.54-1.92-2.06c-1.49-.58-2.31-1.39-2.31-2.5a2.55,2.55,0,0,1,2.81-2.47,3.58,3.58,0,0,1,2,.58l-.36.74a3,3,0,0,0-1.81-.55,1.59,1.59,0,0,0-1.77,1.57c0,1,.64,1.36,1.89,1.87,1.47.59,2.34,1.32,2.34,2.7,0,1.56-1.21,2.62-3.07,2.62a4.47,4.47,0,0,1-2.32-.63Z" style="fill:#fff"/><path d="M1239.19,212.92c0,2.92,1.59,4.07,3.47,4.07a5.25,5.25,0,0,0,2.53-.52l.24.71a6.16,6.16,0,0,1-2.88.59c-2.62,0-4.25-1.91-4.25-4.58,0-3,1.74-4.95,4.1-4.95,3,0,3.55,2.81,3.55,4.12a2.92,2.92,0,0,1,0,.56Zm5.81-.72c0-1.27-.5-3.21-2.72-3.21-2,0-2.88,1.81-3,3.21Z" style="fill:#fff"/><path d="M1249.52,205.81v2.64h2.59v.73h-2.59v5.93c0,1.16.36,1.88,1.34,1.88a3.16,3.16,0,0,0,1-.14l.11.7a3.31,3.31,0,0,1-1.26.22,1.94,1.94,0,0,1-1.57-.65,3.34,3.34,0,0,1-.56-2.17v-5.77h-1.53v-.73h1.53V206.1Z" style="fill:#fff"/><path d="M562.22,239.17a6,6,0,0,1-2.67.6,4.31,4.31,0,0,1-4.38-4.66,4.59,4.59,0,0,1,4.71-4.87,4.68,4.68,0,0,1,2.39.57l-.32.75a4.22,4.22,0,0,0-2.16-.54c-2.45,0-3.7,1.88-3.7,4,0,2.39,1.5,4,3.6,4a5.13,5.13,0,0,0,2.28-.53Z" style="fill:#fff"/><path d="M572.15,234.92c0,3.41-2.33,4.86-4.36,4.86-2.37,0-4.18-1.84-4.18-4.7,0-3.12,2-4.84,4.31-4.84C570.44,230.24,572.15,232.13,572.15,234.92Zm-7.63.12c0,2.28,1.45,4,3.33,4s3.39-1.73,3.39-4.06c0-1.67-.94-4-3.35-4S564.52,233.07,564.52,235Z" style="fill:#fff"/><path d="M574.46,232.63c0-.84,0-1.46-.07-2.18h.84l.07,1.61h0a3.2,3.2,0,0,1,3-1.82,2.77,2.77,0,0,1,2.62,2h0a3.66,3.66,0,0,1,.93-1.24,3.1,3.1,0,0,1,2.18-.76c.89,0,3,.5,3,4v5.37h-.9v-5.29c0-2-.79-3.26-2.38-3.26a2.63,2.63,0,0,0-2.39,1.8,2.84,2.84,0,0,0-.16.91v5.84h-.9v-5.7c0-1.64-.79-2.85-2.26-2.85a2.84,2.84,0,0,0-2.54,2,3.06,3.06,0,0,0-.13.88v5.62h-.91Z" style="fill:#fff"/><path d="M590,233.36c0-1.14,0-2.05-.08-2.91h.87l.07,1.73h0a3.61,3.61,0,0,1,3.37-1.94c2.34,0,3.92,1.94,3.92,4.62,0,3.26-1.94,4.92-4.15,4.92a3.45,3.45,0,0,1-3.09-1.69h0v5.24H590Zm.9,2.62a3.38,3.38,0,0,0,.08.72,3.07,3.07,0,0,0,3,2.33c2.09,0,3.29-1.7,3.29-4.13,0-2.06-1.15-3.91-3.21-3.91a3.16,3.16,0,0,0-3,2.43,3.13,3.13,0,0,0-.14.78Z" style="fill:#fff"/><path d="M605.48,239.57l-.14-1.31h0a3.43,3.43,0,0,1-2.91,1.52,2.49,2.49,0,0,1-2.68-2.51c0-2.1,1.85-3.37,5.56-3.33v-.25c0-.9-.17-2.7-2.33-2.68a4,4,0,0,0-2.29.68l-.28-.66a4.82,4.82,0,0,1,2.67-.79c2.63,0,3.13,2,3.13,3.61v3.55a14.13,14.13,0,0,0,.14,2.17Zm-.21-4.87c-2-.06-4.61.24-4.61,2.43a1.74,1.74,0,0,0,1.82,1.9,2.75,2.75,0,0,0,2.7-1.83,2,2,0,0,0,.09-.55Z" style="fill:#fff"/><path d="M609.13,232.63c0-.84,0-1.46-.08-2.18h.84l.07,1.65h0a3.43,3.43,0,0,1,3.14-1.86c.87,0,3.18.45,3.18,3.86v5.47h-.9v-5.39c0-1.66-.64-3.16-2.53-3.16a2.91,2.91,0,0,0-2.73,2.09,2.88,2.88,0,0,0-.13.82v5.64h-.9Z" style="fill:#fff"/><path d="M618.77,230.45l2.39,6c.25.65.5,1.38.67,2h0c.18-.57.42-1.28.69-2l2.23-5.9h1L623,237.26c-1.1,2.83-1.87,4.52-3.07,5.55a5,5,0,0,1-1.59.95l-.29-.75a4.67,4.67,0,0,0,1.59-1,7.15,7.15,0,0,0,1.52-2.29,1.14,1.14,0,0,0,.11-.4,1,1,0,0,0-.11-.4l-3.37-8.45Z" style="fill:#fff"/><path d="M632.89,227.81v2.64h2.6v.73h-2.6v5.93c0,1.16.36,1.88,1.34,1.88a3.16,3.16,0,0,0,1-.14l.11.7a3.31,3.31,0,0,1-1.26.22,1.94,1.94,0,0,1-1.57-.65A3.34,3.34,0,0,1,632,237v-5.77h-1.54v-.73H632V228.1Z" style="fill:#fff"/><path d="M637.51,226.08h.9v6h0a3.29,3.29,0,0,1,1.25-1.32,3.47,3.47,0,0,1,1.83-.52c.87,0,3.17.43,3.17,3.83v5.5h-.9v-5.4c0-1.64-.65-3.14-2.51-3.14a3,3,0,0,0-2.75,2.07,2.39,2.39,0,0,0-.13.89v5.58h-.9Z" style="fill:#fff"/><path d="M652.67,239.57l-.13-1.31h0a3.45,3.45,0,0,1-2.91,1.52,2.49,2.49,0,0,1-2.68-2.51c0-2.1,1.85-3.37,5.56-3.33v-.25c0-.9-.18-2.7-2.33-2.68a4,4,0,0,0-2.29.68l-.29-.66a4.85,4.85,0,0,1,2.68-.79c2.63,0,3.13,2,3.13,3.61v3.55a15.52,15.52,0,0,0,.13,2.17Zm-.2-4.87c-2-.06-4.61.24-4.61,2.43a1.74,1.74,0,0,0,1.81,1.9,2.74,2.74,0,0,0,2.7-1.83,1.69,1.69,0,0,0,.1-.55Z" style="fill:#fff"/><path d="M657.54,227.81v2.64h2.6v.73h-2.6v5.93c0,1.16.36,1.88,1.34,1.88a3.28,3.28,0,0,0,1-.14l.1.7a3.26,3.26,0,0,1-1.25.22,2,2,0,0,1-1.58-.65,3.34,3.34,0,0,1-.55-2.17v-5.77H655.1v-.73h1.54V228.1Z" style="fill:#fff"/><path d="M672.61,239.17a6,6,0,0,1-2.67.6,4.31,4.31,0,0,1-4.38-4.66,4.59,4.59,0,0,1,4.71-4.87,4.68,4.68,0,0,1,2.39.57l-.32.75a4.22,4.22,0,0,0-2.16-.54c-2.45,0-3.7,1.88-3.7,4,0,2.39,1.5,4,3.6,4a5.13,5.13,0,0,0,2.28-.53Z" style="fill:#fff"/><path d="M682.54,234.92c0,3.41-2.33,4.86-4.37,4.86-2.36,0-4.18-1.84-4.18-4.7,0-3.12,2-4.84,4.32-4.84C680.82,230.24,682.54,232.13,682.54,234.92Zm-7.63.12c0,2.28,1.45,4,3.33,4s3.39-1.73,3.39-4.06c0-1.67-.94-4-3.35-4S674.91,233.07,674.91,235Z" style="fill:#fff"/><path d="M684.85,232.63c0-.84,0-1.46-.07-2.18h.84l.06,1.61h0a3.2,3.2,0,0,1,3-1.82,2.77,2.77,0,0,1,2.62,2h0a3.66,3.66,0,0,1,.93-1.24,3.1,3.1,0,0,1,2.18-.76c.88,0,3,.5,3,4v5.37h-.9v-5.29c0-2-.8-3.26-2.38-3.26a2.66,2.66,0,0,0-2.4,1.8,3.15,3.15,0,0,0-.15.91v5.84h-.9v-5.7c0-1.64-.79-2.85-2.27-2.85a2.82,2.82,0,0,0-2.53,2,3.06,3.06,0,0,0-.13.88v5.62h-.91Z" style="fill:#fff"/><path d="M700.32,239.57c0-.64.08-1.45.08-2.12V226.08h.9v6.07h0a3.52,3.52,0,0,1,3.33-1.91c2.32,0,3.91,1.93,3.91,4.67,0,3.26-2.07,4.87-4.07,4.87a3.49,3.49,0,0,1-3.26-1.85h0l-.06,1.64Zm1-3.52a2.91,2.91,0,0,0,.08.66,3.07,3.07,0,0,0,3,2.32c2.09,0,3.29-1.71,3.29-4.09,0-2.1-1.15-3.95-3.21-3.95a3.21,3.21,0,0,0-3,2.44,3,3,0,0,0-.12.8Z" style="fill:#fff"/><path d="M712.08,227.84a.75.75,0,0,1-.76.79.74.74,0,0,1-.71-.79.78.78,0,0,1,.74-.79A.75.75,0,0,1,712.08,227.84Zm-1.19,11.73v-9.12h.9v9.12Z" style="fill:#fff"/><path d="M714.86,232.63c0-.84,0-1.46-.07-2.18h.84l.06,1.65h0a3.44,3.44,0,0,1,3.14-1.86c.87,0,3.18.45,3.18,3.86v5.47h-.9v-5.39c0-1.66-.64-3.16-2.52-3.16a2.92,2.92,0,0,0-2.86,2.91v5.64h-.91Z" style="fill:#fff"/><path d="M725.19,234.92c0,2.92,1.59,4.07,3.47,4.07a5.28,5.28,0,0,0,2.53-.52l.23.71a6.07,6.07,0,0,1-2.87.59c-2.62,0-4.25-1.91-4.25-4.58,0-3,1.74-4.95,4.1-4.95,3,0,3.55,2.81,3.55,4.12a2.92,2.92,0,0,1,0,.56Zm5.81-.72c0-1.27-.51-3.21-2.72-3.21-2,0-2.88,1.81-3,3.21Z" style="fill:#fff"/><path d="M733.89,238.37a3.92,3.92,0,0,0,2.05.63c1.43,0,2.12-.78,2.12-1.73s-.61-1.54-1.92-2.06c-1.49-.58-2.32-1.39-2.32-2.5a2.56,2.56,0,0,1,2.81-2.47,3.56,3.56,0,0,1,2,.58l-.36.74a3,3,0,0,0-1.8-.55,1.6,1.6,0,0,0-1.78,1.57c0,1,.65,1.36,1.89,1.87,1.48.59,2.35,1.32,2.35,2.7,0,1.56-1.21,2.62-3.08,2.62a4.47,4.47,0,0,1-2.32-.63Z" style="fill:#fff"/><path d="M745.56,239.57v-8.39h-1.31v-.73h1.31V230a4.49,4.49,0,0,1,1-3.28,2.84,2.84,0,0,1,2-.8,2.79,2.79,0,0,1,1.37.32l-.29.7a2.43,2.43,0,0,0-1.16-.25c-1.69,0-2,1.56-2,3.3v.51h2.45v.73h-2.45v8.39Z" style="fill:#fff"/><path d="M757.5,237.34c0,.81,0,1.53.08,2.23h-.84l-.06-1.62h0a3.54,3.54,0,0,1-3.13,1.83c-1.16,0-3.1-.58-3.1-4v-5.31h.9v5.12c0,2,.61,3.42,2.42,3.42a3,3,0,0,0,2.69-1.85,3.43,3.43,0,0,0,.18-1v-5.68h.9Z" style="fill:#fff"/><path d="M760.56,232.63c0-.84,0-1.46-.07-2.18h.84l.06,1.65h0a3.43,3.43,0,0,1,3.14-1.86c.87,0,3.18.45,3.18,3.86v5.47h-.9v-5.39c0-1.66-.64-3.16-2.53-3.16a2.91,2.91,0,0,0-2.73,2.09,2.88,2.88,0,0,0-.13.82v5.64h-.9Z" style="fill:#fff"/><path d="M778,226.08v11.37c0,.67,0,1.48.07,2.12h-.81l-.07-1.73h0a3.43,3.43,0,0,1-3.25,1.94c-2.24,0-3.92-1.88-3.92-4.6,0-3,1.85-4.94,4.1-4.94a3.24,3.24,0,0,1,3,1.61h0v-5.77Zm-.9,8a3.37,3.37,0,0,0-.1-.83,2.92,2.92,0,0,0-2.87-2.24c-2,0-3.24,1.73-3.24,4.09,0,2,1,3.95,3.19,3.95a3,3,0,0,0,2.92-2.39,2.59,2.59,0,0,0,.1-.76Z" style="fill:#fff"/><path d="M786.05,239.57l-.13-1.31h0a3.43,3.43,0,0,1-2.91,1.52,2.49,2.49,0,0,1-2.68-2.51c0-2.1,1.85-3.37,5.56-3.33v-.25c0-.9-.18-2.7-2.33-2.68a4,4,0,0,0-2.29.68l-.29-.66a4.88,4.88,0,0,1,2.68-.79c2.63,0,3.13,2,3.13,3.61v3.55a14.13,14.13,0,0,0,.14,2.17Zm-.2-4.87c-2-.06-4.61.24-4.61,2.43a1.74,1.74,0,0,0,1.82,1.9,2.73,2.73,0,0,0,2.69-1.83,1.69,1.69,0,0,0,.1-.55Z" style="fill:#fff"/><path d="M789.71,232.63c0-.84,0-1.46-.08-2.18h.84l.07,1.61h0a3.19,3.19,0,0,1,3-1.82,2.77,2.77,0,0,1,2.61,2h0a3.66,3.66,0,0,1,.93-1.24,3.12,3.12,0,0,1,2.18-.76c.89,0,3,.5,3,4v5.37h-.9v-5.29c0-2-.79-3.26-2.38-3.26a2.66,2.66,0,0,0-2.39,1.8,2.84,2.84,0,0,0-.16.91v5.84h-.9v-5.7c0-1.64-.79-2.85-2.26-2.85a2.81,2.81,0,0,0-2.53,2,3.06,3.06,0,0,0-.14.88v5.62h-.9Z" style="fill:#fff"/><path d="M805.4,234.92c0,2.92,1.58,4.07,3.46,4.07a5.33,5.33,0,0,0,2.54-.52l.23.71a6.12,6.12,0,0,1-2.88.59c-2.62,0-4.25-1.91-4.25-4.58,0-3,1.75-4.95,4.1-4.95,3,0,3.55,2.81,3.55,4.12a4.37,4.37,0,0,1,0,.56Zm5.81-.72c0-1.27-.51-3.21-2.73-3.21-2,0-2.87,1.81-3,3.21Z" style="fill:#fff"/><path d="M814.47,232.63c0-.84,0-1.46-.08-2.18h.84l.07,1.65h0a3.43,3.43,0,0,1,3.14-1.86c.87,0,3.18.45,3.18,3.86v5.47h-.9v-5.39c0-1.66-.64-3.16-2.53-3.16a2.94,2.94,0,0,0-2.74,2.09,3.3,3.3,0,0,0-.12.82v5.64h-.9Z" style="fill:#fff"/><path d="M825.87,227.81v2.64h2.6v.73h-2.6v5.93c0,1.16.36,1.88,1.34,1.88a3.23,3.23,0,0,0,1-.14l.11.7a3.35,3.35,0,0,1-1.26.22,1.91,1.91,0,0,1-1.57-.65A3.29,3.29,0,0,1,825,237v-5.77h-1.54v-.73H825V228.1Z" style="fill:#fff"/><path d="M835.47,239.57l-.14-1.31h0a3.43,3.43,0,0,1-2.91,1.52,2.49,2.49,0,0,1-2.68-2.51c0-2.1,1.85-3.37,5.56-3.33v-.25c0-.9-.17-2.7-2.33-2.68a4,4,0,0,0-2.29.68l-.28-.66a4.85,4.85,0,0,1,2.67-.79c2.63,0,3.14,2,3.14,3.61v3.55a14.14,14.14,0,0,0,.13,2.17Zm-.21-4.87c-2-.06-4.6.24-4.6,2.43a1.73,1.73,0,0,0,1.81,1.9,2.75,2.75,0,0,0,2.7-1.83,2,2,0,0,0,.09-.55Z" style="fill:#fff"/><path d="M839.12,226.08h.9v13.49h-.9Z" style="fill:#fff"/><path d="M847.29,233.19c0-.92,0-1.86-.08-2.74h.84l0,1.85h0a2.82,2.82,0,0,1,2.59-2.06,2.1,2.1,0,0,1,.37,0v.87a2,2,0,0,0-.44,0c-1.25,0-2.14,1.09-2.39,2.55a4.82,4.82,0,0,0-.08.86v5h-.9Z" style="fill:#fff"/><path d="M852.83,234.92c0,2.92,1.58,4.07,3.46,4.07a5.33,5.33,0,0,0,2.54-.52l.23.71a6.12,6.12,0,0,1-2.88.59c-2.62,0-4.25-1.91-4.25-4.58,0-3,1.74-4.95,4.1-4.95,3,0,3.55,2.81,3.55,4.12a2.92,2.92,0,0,1,0,.56Zm5.81-.72c0-1.27-.51-3.21-2.73-3.21-2,0-2.87,1.81-3,3.21Z" style="fill:#fff"/><path d="M861.52,238.37a4,4,0,0,0,2.05.63c1.44,0,2.12-.78,2.12-1.73s-.6-1.54-1.92-2.06c-1.49-.58-2.31-1.39-2.31-2.5a2.56,2.56,0,0,1,2.81-2.47,3.56,3.56,0,0,1,2,.58l-.36.74a3,3,0,0,0-1.8-.55,1.6,1.6,0,0,0-1.78,1.57c0,1,.64,1.36,1.89,1.87,1.47.59,2.34,1.32,2.34,2.7,0,1.56-1.21,2.62-3.07,2.62a4.47,4.47,0,0,1-2.32-.63Z" style="fill:#fff"/><path d="M869.12,234.92c0,2.92,1.59,4.07,3.47,4.07a5.33,5.33,0,0,0,2.54-.52l.23.71a6.12,6.12,0,0,1-2.88.59c-2.62,0-4.25-1.91-4.25-4.58,0-3,1.74-4.95,4.1-4.95,3,0,3.55,2.81,3.55,4.12a2.92,2.92,0,0,1,0,.56Zm5.82-.72c0-1.27-.51-3.21-2.73-3.21-2,0-2.87,1.81-3,3.21Z" style="fill:#fff"/><path d="M883.17,239.57l-.14-1.31h0a3.43,3.43,0,0,1-2.91,1.52,2.49,2.49,0,0,1-2.68-2.51c0-2.1,1.85-3.37,5.56-3.33v-.25c0-.9-.17-2.7-2.33-2.68a4,4,0,0,0-2.29.68l-.28-.66a4.82,4.82,0,0,1,2.67-.79c2.63,0,3.14,2,3.14,3.61v3.55a14.14,14.14,0,0,0,.13,2.17ZM883,234.7c-2-.06-4.6.24-4.6,2.43a1.73,1.73,0,0,0,1.81,1.9,2.75,2.75,0,0,0,2.7-1.83,2,2,0,0,0,.09-.55Z" style="fill:#fff"/><path d="M886.82,233.19c0-.92,0-1.86-.08-2.74h.84l0,1.85h.06a2.8,2.8,0,0,1,2.58-2.06,2.1,2.1,0,0,1,.37,0v.87a1.89,1.89,0,0,0-.43,0c-1.25,0-2.15,1.09-2.4,2.55a6,6,0,0,0-.07.86v5h-.9Z" style="fill:#fff"/><path d="M898.5,239.17a6,6,0,0,1-2.67.6c-2.62,0-4.37-1.92-4.37-4.66a4.58,4.58,0,0,1,4.7-4.87,4.64,4.64,0,0,1,2.39.57l-.32.75a4.22,4.22,0,0,0-2.16-.54c-2.45,0-3.7,1.88-3.7,4,0,2.39,1.5,4,3.6,4a5.13,5.13,0,0,0,2.28-.53Z" style="fill:#fff"/><path d="M900.68,226.08h.9v6h0a3.29,3.29,0,0,1,1.25-1.32,3.47,3.47,0,0,1,1.83-.52c.87,0,3.17.43,3.17,3.83v5.5H907v-5.4c0-1.64-.65-3.14-2.51-3.14a3,3,0,0,0-2.75,2.07,2.39,2.39,0,0,0-.13.89v5.58h-.9Z" style="fill:#fff"/><path d="M914.85,230.45l1.53,5.19c.32,1.06.58,2,.78,2.86h.05c.22-.85.54-1.81.91-2.85l1.83-5.2h.85l1.74,5.14c.38,1.11.66,2,.9,2.91h0c.19-.86.48-1.78.83-2.87l1.63-5.18h.92l-3,9.12H923l-1.72-5.08a28.39,28.39,0,0,1-.94-3.1h0a32.41,32.41,0,0,1-1,3.13l-1.82,5h-.79l-2.81-9.12Z" style="fill:#fff"/><path d="M929.92,227.84a.73.73,0,1,1-1.46,0,.77.77,0,0,1,.73-.79A.74.74,0,0,1,929.92,227.84Zm-1.18,11.73v-9.12h.9v9.12Z" style="fill:#fff"/><path d="M934,227.81v2.64h2.6v.73H934v5.93c0,1.16.36,1.88,1.34,1.88a3.28,3.28,0,0,0,1-.14l.11.7a3.35,3.35,0,0,1-1.26.22,1.91,1.91,0,0,1-1.57-.65,3.29,3.29,0,0,1-.56-2.17v-5.77h-1.54v-.73h1.54V228.1Z" style="fill:#fff"/><path d="M938.58,226.08h.91v6h0a3.33,3.33,0,0,1,1.24-1.32,3.48,3.48,0,0,1,1.84-.52c.86,0,3.17.43,3.17,3.83v5.5h-.91v-5.4c0-1.64-.64-3.14-2.51-3.14a3,3,0,0,0-2.75,2.07,2.63,2.63,0,0,0-.12.89v5.58h-.91Z" style="fill:#fff"/><path d="M957.9,239.57l-.13-1.31h0a3.45,3.45,0,0,1-2.91,1.52,2.49,2.49,0,0,1-2.68-2.51c0-2.1,1.85-3.37,5.56-3.33v-.25c0-.9-.18-2.7-2.33-2.68a4,4,0,0,0-2.29.68l-.29-.66a4.85,4.85,0,0,1,2.68-.79c2.63,0,3.13,2,3.13,3.61v3.55a15.52,15.52,0,0,0,.13,2.17Zm-.2-4.87c-2-.06-4.61.24-4.61,2.43a1.74,1.74,0,0,0,1.82,1.9,2.74,2.74,0,0,0,2.69-1.83,1.69,1.69,0,0,0,.1-.55Z" style="fill:#fff"/><path d="M961.56,232.63c0-.84,0-1.46-.08-2.18h.84l.07,1.65h0a3.44,3.44,0,0,1,3.14-1.86c.87,0,3.19.45,3.19,3.86v5.47h-.91v-5.39c0-1.66-.64-3.16-2.52-3.16a2.92,2.92,0,0,0-2.86,2.91v5.64h-.9Z" style="fill:#fff"/><path d="M980.87,239.57l-.13-1.31h0a3.45,3.45,0,0,1-2.91,1.52,2.49,2.49,0,0,1-2.68-2.51c0-2.1,1.85-3.37,5.56-3.33v-.25c0-.9-.18-2.7-2.33-2.68a4,4,0,0,0-2.29.68l-.29-.66a4.85,4.85,0,0,1,2.68-.79c2.63,0,3.13,2,3.13,3.61v3.55a15.52,15.52,0,0,0,.13,2.17Zm-.2-4.87c-2-.06-4.61.24-4.61,2.43a1.74,1.74,0,0,0,1.82,1.9,2.73,2.73,0,0,0,2.69-1.83,1.69,1.69,0,0,0,.1-.55Z" style="fill:#fff"/><path d="M990.81,239.17a5.93,5.93,0,0,1-2.66.6c-2.63,0-4.38-1.92-4.38-4.66a4.59,4.59,0,0,1,4.7-4.87,4.72,4.72,0,0,1,2.4.57l-.33.75a4.16,4.16,0,0,0-2.16-.54c-2.44,0-3.7,1.88-3.7,4,0,2.39,1.51,4,3.61,4a5.13,5.13,0,0,0,2.28-.53Z" style="fill:#fff"/><path d="M994.46,227.81v2.64h2.6v.73h-2.6v5.93c0,1.16.36,1.88,1.34,1.88a3.16,3.16,0,0,0,1-.14l.11.7a3.31,3.31,0,0,1-1.26.22,1.94,1.94,0,0,1-1.57-.65,3.34,3.34,0,0,1-.55-2.17v-5.77H992v-.73h1.54V228.1Z" style="fill:#fff"/><path d="M1000.26,227.84a.73.73,0,1,1-1.46,0,.78.78,0,0,1,.74-.79A.74.74,0,0,1,1000.26,227.84Zm-1.18,11.73v-9.12h.9v9.12Z" style="fill:#fff"/><path d="M1002.76,230.45l2.14,5.66c.36.89.65,1.67.89,2.44h0c.25-.76.58-1.57.93-2.44l2.17-5.66h1l-3.71,9.12h-.8l-3.57-9.12Z" style="fill:#fff"/><path d="M1011.63,234.92c0,2.92,1.59,4.07,3.47,4.07a5.33,5.33,0,0,0,2.54-.52l.23.71a6.12,6.12,0,0,1-2.88.59c-2.62,0-4.25-1.91-4.25-4.58,0-3,1.74-4.95,4.1-4.95,3,0,3.55,2.81,3.55,4.12a2.92,2.92,0,0,1,0,.56Zm5.82-.72c0-1.27-.51-3.21-2.73-3.21-2,0-2.87,1.81-3,3.21Z" style="fill:#fff"/><path d="M1026,227.84a.73.73,0,1,1-1.46,0,.78.78,0,0,1,.74-.79A.74.74,0,0,1,1026,227.84Zm-1.18,11.73v-9.12h.9v9.12Z" style="fill:#fff"/><path d="M1028.83,232.63c0-.84,0-1.46-.07-2.18h.84l.07,1.65h0a3.44,3.44,0,0,1,3.14-1.86c.87,0,3.18.45,3.18,3.86v5.47h-.9v-5.39c0-1.66-.64-3.16-2.52-3.16a2.92,2.92,0,0,0-2.86,2.91v5.64h-.91Z" style="fill:#fff"/><path d="M1038.54,230.45l2.14,5.66c.36.89.65,1.67.89,2.44h0c.25-.76.57-1.57.92-2.44l2.17-5.66h1l-3.71,9.12h-.8l-3.57-9.12Z" style="fill:#fff"/><path d="M1047.42,234.92c0,2.92,1.58,4.07,3.46,4.07a5.33,5.33,0,0,0,2.54-.52l.23.71a6.12,6.12,0,0,1-2.88.59c-2.62,0-4.25-1.91-4.25-4.58,0-3,1.75-4.95,4.1-4.95,3,0,3.55,2.81,3.55,4.12a4.37,4.37,0,0,1,0,.56Zm5.81-.72c0-1.27-.51-3.21-2.73-3.21-2,0-2.87,1.81-3,3.21Z" style="fill:#fff"/><path d="M1056.11,238.37a4,4,0,0,0,2.06.63c1.43,0,2.11-.78,2.11-1.73s-.6-1.54-1.92-2.06c-1.49-.58-2.31-1.39-2.31-2.5a2.56,2.56,0,0,1,2.81-2.47,3.56,3.56,0,0,1,2,.58l-.36.74a3,3,0,0,0-1.8-.55,1.6,1.6,0,0,0-1.78,1.57c0,1,.64,1.36,1.89,1.87,1.47.59,2.35,1.32,2.35,2.7,0,1.56-1.22,2.62-3.08,2.62a4.47,4.47,0,0,1-2.32-.63Z" style="fill:#fff"/><path d="M1064.83,227.81v2.64h2.6v.73h-2.6v5.93c0,1.16.36,1.88,1.34,1.88a3.16,3.16,0,0,0,1-.14l.11.7a3.28,3.28,0,0,1-1.26.22,1.94,1.94,0,0,1-1.57-.65,3.34,3.34,0,0,1-.55-2.17v-5.77h-1.54v-.73h1.54V228.1Z" style="fill:#fff"/><path d="M1069.45,232.63c0-.84,0-1.46-.08-2.18h.84l.07,1.61h0a3.19,3.19,0,0,1,3-1.82,2.75,2.75,0,0,1,2.61,2h0a3.79,3.79,0,0,1,.93-1.24,3.12,3.12,0,0,1,2.18-.76c.89,0,3,.5,3,4v5.37h-.91v-5.29c0-2-.79-3.26-2.37-3.26a2.66,2.66,0,0,0-2.4,1.8,3.14,3.14,0,0,0-.16.91v5.84h-.9v-5.7c0-1.64-.79-2.85-2.26-2.85a2.82,2.82,0,0,0-2.53,2,3.06,3.06,0,0,0-.14.88v5.62h-.9Z" style="fill:#fff"/><path d="M1085.14,234.92c0,2.92,1.59,4.07,3.47,4.07a5.25,5.25,0,0,0,2.53-.52l.24.71a6.16,6.16,0,0,1-2.88.59c-2.62,0-4.25-1.91-4.25-4.58,0-3,1.74-4.95,4.1-4.95,3,0,3.55,2.81,3.55,4.12a2.92,2.92,0,0,1,0,.56Zm5.81-.72c0-1.27-.51-3.21-2.72-3.21-2,0-2.88,1.81-3,3.21Z" style="fill:#fff"/><path d="M1094.21,232.63c0-.84,0-1.46-.07-2.18h.84l.06,1.65h0a3.43,3.43,0,0,1,3.14-1.86c.87,0,3.18.45,3.18,3.86v5.47h-.9v-5.39c0-1.66-.64-3.16-2.53-3.16a2.91,2.91,0,0,0-2.73,2.09,2.88,2.88,0,0,0-.13.82v5.64h-.9Z" style="fill:#fff"/><path d="M1105.62,227.81v2.64h2.59v.73h-2.59v5.93c0,1.16.36,1.88,1.34,1.88a3.16,3.16,0,0,0,1-.14l.11.7a3.31,3.31,0,0,1-1.26.22,1.94,1.94,0,0,1-1.57-.65,3.34,3.34,0,0,1-.56-2.17v-5.77h-1.54v-.73h1.54V228.1Z" style="fill:#fff"/><path d="M1119.37,239.57l-.14-1.31h0a3.43,3.43,0,0,1-2.91,1.52,2.49,2.49,0,0,1-2.68-2.51c0-2.1,1.85-3.37,5.56-3.33v-.25c0-.9-.17-2.7-2.33-2.68a4,4,0,0,0-2.29.68l-.28-.66a4.82,4.82,0,0,1,2.67-.79c2.63,0,3.14,2,3.14,3.61v3.55a14.14,14.14,0,0,0,.13,2.17Zm-.21-4.87c-2-.06-4.6.24-4.6,2.43a1.73,1.73,0,0,0,1.81,1.9,2.75,2.75,0,0,0,2.7-1.83,2,2,0,0,0,.09-.55Z" style="fill:#fff"/><path d="M1123,233.36c0-1.14,0-2.05-.08-2.91h.86l.07,1.73h0a3.6,3.6,0,0,1,3.36-1.94c2.34,0,3.92,1.94,3.92,4.62,0,3.26-1.94,4.92-4.14,4.92a3.45,3.45,0,0,1-3.09-1.69h0v5.24h-.9Zm.9,2.62a3.38,3.38,0,0,0,.08.72,3.06,3.06,0,0,0,3,2.33c2.09,0,3.28-1.7,3.28-4.13,0-2.06-1.14-3.91-3.21-3.91a3.18,3.18,0,0,0-3,2.43,3.63,3.63,0,0,0-.13.78Z" style="fill:#fff"/><path d="M1133.5,233.36c0-1.14,0-2.05-.07-2.91h.86l.07,1.73h0a3.6,3.6,0,0,1,3.36-1.94c2.34,0,3.92,1.94,3.92,4.62,0,3.26-1.94,4.92-4.14,4.92a3.47,3.47,0,0,1-3.1-1.69h0v5.24h-.91Zm.91,2.62a2.84,2.84,0,0,0,.08.72,3.06,3.06,0,0,0,3,2.33c2.1,0,3.29-1.7,3.29-4.13,0-2.06-1.14-3.91-3.21-3.91a3.17,3.17,0,0,0-3,2.43,3.63,3.63,0,0,0-.13.78Z" style="fill:#fff"/><path d="M1144,233.19c0-.92,0-1.86-.07-2.74h.83l0,1.85h0a2.82,2.82,0,0,1,2.59-2.06,2.1,2.1,0,0,1,.37,0v.87a2,2,0,0,0-.44,0c-1.25,0-2.14,1.09-2.39,2.55a4.82,4.82,0,0,0-.08.86v5h-.9Z" style="fill:#fff"/><path d="M1157.18,234.92c0,3.41-2.34,4.86-4.37,4.86-2.36,0-4.18-1.84-4.18-4.7,0-3.12,2-4.84,4.31-4.84C1155.46,230.24,1157.18,232.13,1157.18,234.92Zm-7.64.12c0,2.28,1.46,4,3.33,4s3.39-1.73,3.39-4.06c0-1.67-.94-4-3.34-4S1149.54,233.07,1149.54,235Z" style="fill:#fff"/><path d="M1164.46,239.57l-.13-1.31h0a3.45,3.45,0,0,1-2.91,1.52,2.49,2.49,0,0,1-2.68-2.51c0-2.1,1.85-3.37,5.56-3.33v-.25c0-.9-.18-2.7-2.33-2.68a4,4,0,0,0-2.29.68l-.29-.66a4.85,4.85,0,0,1,2.68-.79c2.63,0,3.13,2,3.13,3.61v3.55a15.52,15.52,0,0,0,.13,2.17Zm-.2-4.87c-2-.06-4.61.24-4.61,2.43a1.74,1.74,0,0,0,1.82,1.9,2.73,2.73,0,0,0,2.69-1.83,1.69,1.69,0,0,0,.1-.55Z" style="fill:#fff"/><path d="M1174.4,239.17a5.93,5.93,0,0,1-2.66.6c-2.63,0-4.38-1.92-4.38-4.66a4.59,4.59,0,0,1,4.7-4.87,4.72,4.72,0,0,1,2.4.57l-.33.75A4.16,4.16,0,0,0,1172,231c-2.44,0-3.7,1.88-3.7,4,0,2.39,1.51,4,3.61,4a5.17,5.17,0,0,0,2.28-.53Z" style="fill:#fff"/><path d="M1176.58,226.08h.91v6h0a3.33,3.33,0,0,1,1.24-1.32,3.48,3.48,0,0,1,1.84-.52c.86,0,3.17.43,3.17,3.83v5.5h-.91v-5.4c0-1.64-.64-3.14-2.51-3.14a3,3,0,0,0-2.75,2.07,2.63,2.63,0,0,0-.12.89v5.58h-.91Z" style="fill:#fff"/><path d="M1186.26,238.93a.79.79,0,0,1,.78-.86.78.78,0,0,1,.76.86.77.77,0,1,1-1.54,0Z" style="fill:#fff"/><path d="M557.47,279.09l-1.58,4.48H555l4.63-12.8h.88l4.61,12.8h-.94l-1.61-4.48Zm4.8-.76-1.56-4.28a21.37,21.37,0,0,1-.67-2.25h0a22.54,22.54,0,0,1-.66,2.21l-1.57,4.32Z" style="fill:#fff"/><path d="M568.23,271.81v2.64h2.6v.73h-2.6v5.93c0,1.16.36,1.88,1.34,1.88a3.16,3.16,0,0,0,1-.14l.11.7a3.31,3.31,0,0,1-1.26.22,1.94,1.94,0,0,1-1.57-.65,3.34,3.34,0,0,1-.56-2.17v-5.77h-1.53v-.73h1.53V272.1Z" style="fill:#fff"/><path d="M572.53,282.23a5.19,5.19,0,0,0,2.66.77c2.53,0,3.14-1.75,3.13-2.85,0-2.06-1.82-2.9-3.63-2.9h-.79v-.75h.82c1.37,0,3.1-.78,3.1-2.5a2.11,2.11,0,0,0-2.39-2.21,4,4,0,0,0-2.39.86l-.36-.67a4.88,4.88,0,0,1,2.87-1c2.32,0,3.21,1.47,3.21,2.87a3.15,3.15,0,0,1-2.3,2.93v0a3.28,3.28,0,0,1,2.79,3.27c0,1.84-1.31,3.66-4.17,3.66a5.33,5.33,0,0,1-2.91-.83Z" style="fill:#fff"/><path d="M582.13,270.77h.9v6.48h.06c.38-.5.76-.94,1.1-1.34l4.53-5.14h1.12L585,276.2l5.32,7.37H589.2l-4.86-6.75L583,278.26v5.31h-.9Z" style="fill:#fff"/><path d="M591.92,278.92c0,2.92,1.58,4.07,3.46,4.07a5.33,5.33,0,0,0,2.54-.52l.23.71a6.12,6.12,0,0,1-2.88.59c-2.62,0-4.25-1.91-4.25-4.58,0-3,1.75-4.95,4.1-4.95,3,0,3.55,2.81,3.55,4.12a2.92,2.92,0,0,1,0,.56Zm5.81-.72c0-1.27-.51-3.21-2.73-3.21-2,0-2.87,1.81-3,3.21Z" style="fill:#fff"/><path d="M600.71,274.45l2.39,6c.25.65.5,1.38.67,2h0c.19-.57.43-1.28.7-2l2.23-5.9h1L605,281.26c-1.1,2.83-1.88,4.52-3.07,5.55a4.92,4.92,0,0,1-1.6.95L600,287a4.61,4.61,0,0,0,1.6-1,7.32,7.32,0,0,0,1.52-2.29.78.78,0,0,0,0-.8l-3.38-8.45Z" style="fill:#fff"/><path d="M615.21,271.52H611v-.75h9.25v.75h-4.17v12.05h-.91Z" style="fill:#fff"/><path d="M620.51,278.92c0,2.92,1.59,4.07,3.47,4.07a5.25,5.25,0,0,0,2.53-.52l.24.71a6.16,6.16,0,0,1-2.88.59c-2.62,0-4.25-1.91-4.25-4.58,0-3,1.74-4.95,4.1-4.95,3,0,3.55,2.81,3.55,4.12a2.92,2.92,0,0,1,0,.56Zm5.81-.72c0-1.27-.51-3.21-2.72-3.21-2,0-2.88,1.81-3,3.21Z" style="fill:#fff"/><path d="M635.87,283.17a5.93,5.93,0,0,1-2.66.6c-2.63,0-4.38-1.92-4.38-4.66a4.58,4.58,0,0,1,4.7-4.87,4.64,4.64,0,0,1,2.39.57l-.32.75a4.19,4.19,0,0,0-2.16-.54c-2.45,0-3.7,1.88-3.7,4,0,2.39,1.5,3.95,3.6,3.95a5.13,5.13,0,0,0,2.28-.53Z" style="fill:#fff"/><path d="M638.05,270.08h.9v6h0a3.29,3.29,0,0,1,1.25-1.32,3.47,3.47,0,0,1,1.83-.52c.87,0,3.17.43,3.17,3.83v5.5h-.9v-5.4c0-1.64-.65-3.14-2.51-3.14a3,3,0,0,0-2.75,2.07,2.39,2.39,0,0,0-.13.89v5.58h-.9Z" style="fill:#fff"/><path d="M648.24,276.63c0-.84,0-1.46-.08-2.18H649l.07,1.65h0a3.43,3.43,0,0,1,3.14-1.86c.87,0,3.18.45,3.18,3.86v5.47h-.9v-5.39c0-1.66-.64-3.16-2.53-3.16a2.91,2.91,0,0,0-2.73,2.09,2.88,2.88,0,0,0-.13.82v5.64h-.9Z" style="fill:#fff"/><path d="M666.22,278.92c0,3.41-2.33,4.86-4.37,4.86-2.36,0-4.18-1.84-4.18-4.7,0-3.12,2.05-4.84,4.32-4.84C664.5,274.24,666.22,276.13,666.22,278.92Zm-7.63.12c0,2.28,1.45,4,3.32,4s3.4-1.73,3.4-4.06c0-1.67-.94-4-3.35-4S658.59,277.07,658.59,279Z" style="fill:#fff"/><path d="M668.53,270.08h.9v13.49h-.9Z" style="fill:#fff"/><path d="M680.34,278.92c0,3.41-2.33,4.86-4.37,4.86-2.36,0-4.18-1.84-4.18-4.7,0-3.12,2.05-4.84,4.32-4.84C678.62,274.24,680.34,276.13,680.34,278.92Zm-7.63.12c0,2.28,1.45,4,3.33,4s3.39-1.73,3.39-4.06c0-1.67-.94-4-3.35-4S672.71,277.07,672.71,279Z" style="fill:#fff"/><path d="M690,274.45c0,.68-.08,1.4-.08,2.36v5.43c0,2.34-.48,3.49-1.25,4.22a4.55,4.55,0,0,1-3.09,1.08,5.21,5.21,0,0,1-2.89-.78L683,286a4.9,4.9,0,0,0,2.71.76c1.91,0,3.3-1,3.3-3.7v-1.28h0a3.44,3.44,0,0,1-3.17,1.76c-2.29,0-3.91-2-3.91-4.47,0-3.19,2.08-4.86,4.11-4.86a3.19,3.19,0,0,1,3.06,1.75h0l0-1.54ZM689,278a2.68,2.68,0,0,0-.12-.88,3,3,0,0,0-2.83-2.09c-1.93,0-3.26,1.59-3.26,4,0,2.05,1.08,3.83,3.23,3.83a3,3,0,0,0,2.82-2.07,3.12,3.12,0,0,0,.16-1Z" style="fill:#fff"/><path d="M694,271.84a.75.75,0,0,1-.77.79.74.74,0,0,1-.7-.79.78.78,0,0,1,.74-.79A.75.75,0,0,1,694,271.84Zm-1.19,11.73v-9.12h.9v9.12Z" style="fill:#fff"/><path d="M696.94,278.92c0,2.92,1.59,4.07,3.47,4.07a5.25,5.25,0,0,0,2.53-.52l.24.71a6.12,6.12,0,0,1-2.88.59c-2.62,0-4.25-1.91-4.25-4.58,0-3,1.74-4.95,4.1-4.95,3,0,3.55,2.81,3.55,4.12a2.92,2.92,0,0,1,0,.56Zm5.81-.72c0-1.27-.5-3.21-2.72-3.21-2,0-2.87,1.81-3,3.21Z" style="fill:#fff"/><path d="M705.64,282.37a3.92,3.92,0,0,0,2.05.63c1.43,0,2.12-.78,2.12-1.73s-.6-1.54-1.92-2.06c-1.49-.58-2.31-1.39-2.31-2.5a2.55,2.55,0,0,1,2.8-2.47,3.62,3.62,0,0,1,2,.58l-.36.74a3,3,0,0,0-1.81-.55,1.6,1.6,0,0,0-1.78,1.57c0,1,.65,1.36,1.89,1.87,1.48.59,2.35,1.32,2.35,2.7,0,1.56-1.21,2.62-3.08,2.62a4.44,4.44,0,0,1-2.31-.63Z" style="fill:#fff"/><path d="M711.85,286a26.62,26.62,0,0,0,1-4l1.2-.19a23.93,23.93,0,0,1-1.47,4.12Z" style="fill:#fff"/><path d="M728.14,278.92c0,3.41-2.33,4.86-4.37,4.86-2.36,0-4.18-1.84-4.18-4.7,0-3.12,2-4.84,4.32-4.84C726.42,274.24,728.14,276.13,728.14,278.92Zm-7.64.12c0,2.28,1.46,4,3.33,4s3.4-1.73,3.4-4.06c0-1.67-.94-4-3.35-4S720.5,277.07,720.5,279Z" style="fill:#fff"/><path d="M737.47,281.34c0,.81,0,1.53.08,2.23h-.84l-.06-1.62h0a3.54,3.54,0,0,1-3.13,1.83c-1.16,0-3.1-.58-3.1-4v-5.31h.9v5.12c0,2,.61,3.42,2.42,3.42a3,3,0,0,0,2.69-1.85,3.43,3.43,0,0,0,.18-1v-5.68h.9Z" style="fill:#fff"/><path d="M740.53,277.19c0-.92,0-1.86-.08-2.74h.84l0,1.85h.06a2.82,2.82,0,0,1,2.58-2.06,2.1,2.1,0,0,1,.37,0v.87a1.89,1.89,0,0,0-.43,0c-1.25,0-2.15,1.09-2.4,2.55a6,6,0,0,0-.07.86v5h-.9Z" style="fill:#fff"/><path d="M750.29,276.63c0-.84,0-1.46-.08-2.18h.84l.07,1.61h0a3.18,3.18,0,0,1,3-1.82,2.77,2.77,0,0,1,2.61,2h0a3.66,3.66,0,0,1,.93-1.24,3.12,3.12,0,0,1,2.18-.76c.89,0,3,.5,3,4v5.37H762v-5.29c0-2-.79-3.26-2.38-3.26a2.65,2.65,0,0,0-2.39,1.8,2.84,2.84,0,0,0-.16.91v5.84h-.9v-5.7c0-1.64-.79-2.85-2.26-2.85a2.81,2.81,0,0,0-2.53,2.05,3.06,3.06,0,0,0-.14.88v5.62h-.9Z" style="fill:#fff"/><path d="M767,271.84a.73.73,0,1,1-1.46,0,.77.77,0,0,1,.73-.79A.74.74,0,0,1,767,271.84Zm-1.18,11.73v-9.12h.9v9.12Z" style="fill:#fff"/><path d="M769.43,282.37a4,4,0,0,0,2.06.63c1.43,0,2.11-.78,2.11-1.73s-.6-1.54-1.91-2.06c-1.5-.58-2.32-1.39-2.32-2.5a2.56,2.56,0,0,1,2.81-2.47,3.56,3.56,0,0,1,2,.58l-.36.74A3,3,0,0,0,772,275a1.6,1.6,0,0,0-1.78,1.57c0,1,.65,1.36,1.89,1.87,1.47.59,2.35,1.32,2.35,2.7,0,1.56-1.21,2.62-3.08,2.62a4.47,4.47,0,0,1-2.32-.63Z" style="fill:#fff"/><path d="M776.52,282.37a4,4,0,0,0,2.05.63c1.44,0,2.12-.78,2.12-1.73s-.6-1.54-1.92-2.06c-1.49-.58-2.31-1.39-2.31-2.5a2.56,2.56,0,0,1,2.81-2.47,3.58,3.58,0,0,1,2,.58l-.36.74a3,3,0,0,0-1.81-.55,1.59,1.59,0,0,0-1.77,1.57c0,1,.64,1.36,1.89,1.87,1.47.59,2.34,1.32,2.34,2.7,0,1.56-1.21,2.62-3.07,2.62a4.47,4.47,0,0,1-2.32-.63Z" style="fill:#fff"/><path d="M785.17,271.84a.74.74,0,1,1-1.47,0,.78.78,0,0,1,.74-.79A.75.75,0,0,1,785.17,271.84ZM784,283.57v-9.12h.91v9.12Z" style="fill:#fff"/><path d="M795.74,278.92c0,3.41-2.33,4.86-4.36,4.86-2.36,0-4.18-1.84-4.18-4.7,0-3.12,2-4.84,4.31-4.84C794,274.24,795.74,276.13,795.74,278.92Zm-7.63.12c0,2.28,1.45,4,3.33,4s3.39-1.73,3.39-4.06c0-1.67-.94-4-3.34-4S788.11,277.07,788.11,279Z" style="fill:#fff"/><path d="M798.06,276.63c0-.84,0-1.46-.08-2.18h.84l.07,1.65h0a3.42,3.42,0,0,1,3.14-1.86c.86,0,3.18.45,3.18,3.86v5.47h-.9v-5.39c0-1.66-.65-3.16-2.53-3.16a2.93,2.93,0,0,0-2.74,2.09,3.3,3.3,0,0,0-.12.82v5.64h-.9Z" style="fill:#fff"/><path d="M813.58,271.84a.73.73,0,1,1-1.46,0,.78.78,0,0,1,.74-.79A.74.74,0,0,1,813.58,271.84Zm-1.18,11.73v-9.12h.9v9.12Z" style="fill:#fff"/><path d="M816,282.37a3.92,3.92,0,0,0,2,.63c1.43,0,2.12-.78,2.12-1.73s-.61-1.54-1.92-2.06c-1.49-.58-2.31-1.39-2.31-2.5a2.55,2.55,0,0,1,2.8-2.47,3.62,3.62,0,0,1,2,.58l-.36.74a3,3,0,0,0-1.81-.55,1.6,1.6,0,0,0-1.78,1.57c0,1,.65,1.36,1.89,1.87,1.48.59,2.35,1.32,2.35,2.7,0,1.56-1.21,2.62-3.08,2.62a4.41,4.41,0,0,1-2.31-.63Z" style="fill:#fff"/><path d="M828.87,271.81v2.64h2.6v.73h-2.6v5.93c0,1.16.36,1.88,1.34,1.88a3.16,3.16,0,0,0,1-.14l.11.7a3.28,3.28,0,0,1-1.26.22,1.94,1.94,0,0,1-1.57-.65A3.34,3.34,0,0,1,828,281v-5.77h-1.54v-.73H828V272.1Z" style="fill:#fff"/><path d="M841.17,278.92c0,3.41-2.34,4.86-4.37,4.86-2.36,0-4.18-1.84-4.18-4.7,0-3.12,2-4.84,4.31-4.84C839.45,274.24,841.17,276.13,841.17,278.92Zm-7.64.12c0,2.28,1.46,4,3.33,4s3.39-1.73,3.39-4.06c0-1.67-.94-4-3.34-4S833.53,277.07,833.53,279Z" style="fill:#fff"/><path d="M855,274.45c-.05.68-.08,1.4-.08,2.36v5.43c0,2.34-.48,3.49-1.25,4.22a4.53,4.53,0,0,1-3.08,1.08,5.25,5.25,0,0,1-2.9-.78L848,286a4.91,4.91,0,0,0,2.72.76c1.91,0,3.29-1,3.29-3.7v-1.28h0a3.42,3.42,0,0,1-3.17,1.76c-2.29,0-3.91-2-3.91-4.47,0-3.19,2.09-4.86,4.11-4.86a3.19,3.19,0,0,1,3.06,1.75h0l0-1.54ZM854,278a2.88,2.88,0,0,0-3-3c-1.93,0-3.26,1.59-3.26,4,0,2.05,1.08,3.83,3.24,3.83a3,3,0,0,0,2.81-2.07,3.12,3.12,0,0,0,.16-1Z" style="fill:#fff"/><path d="M859,271.84a.73.73,0,1,1-1.46,0,.77.77,0,0,1,.73-.79A.75.75,0,0,1,859,271.84Zm-1.18,11.73v-9.12h.9v9.12Z" style="fill:#fff"/><path d="M861.5,274.45l2.14,5.66c.36.89.65,1.67.89,2.44h0c.25-.76.58-1.57.93-2.44l2.17-5.66h1l-3.71,9.12h-.8l-3.57-9.12Z" style="fill:#fff"/><path d="M870.37,278.92c0,2.92,1.59,4.07,3.47,4.07a5.25,5.25,0,0,0,2.53-.52l.24.71a6.16,6.16,0,0,1-2.88.59c-2.62,0-4.25-1.91-4.25-4.58,0-3,1.74-4.95,4.1-4.95,3,0,3.55,2.81,3.55,4.12a2.92,2.92,0,0,1,0,.56Zm5.81-.72c0-1.27-.5-3.21-2.72-3.21-2,0-2.88,1.81-3,3.21Z" style="fill:#fff"/><path d="M884.78,271.84a.73.73,0,1,1-1.46,0,.78.78,0,0,1,.74-.79A.74.74,0,0,1,884.78,271.84Zm-1.18,11.73v-9.12h.9v9.12Z" style="fill:#fff"/><path d="M887.57,276.63c0-.84,0-1.46-.08-2.18h.84l.07,1.65h0a3.43,3.43,0,0,1,3.14-1.86c.87,0,3.18.45,3.18,3.86v5.47h-.9v-5.39c0-1.66-.64-3.16-2.53-3.16a2.91,2.91,0,0,0-2.73,2.09,2.88,2.88,0,0,0-.13.82v5.64h-.9Z" style="fill:#fff"/><path d="M897.38,282.37a4,4,0,0,0,2.06.63c1.43,0,2.11-.78,2.11-1.73s-.6-1.54-1.92-2.06c-1.49-.58-2.31-1.39-2.31-2.5a2.56,2.56,0,0,1,2.81-2.47,3.56,3.56,0,0,1,2,.58l-.36.74A3,3,0,0,0,900,275a1.6,1.6,0,0,0-1.78,1.57c0,1,.65,1.36,1.89,1.87,1.47.59,2.35,1.32,2.35,2.7,0,1.56-1.21,2.62-3.08,2.62a4.47,4.47,0,0,1-2.32-.63Z" style="fill:#fff"/><path d="M906.1,271.81v2.64h2.6v.73h-2.6v5.93c0,1.16.36,1.88,1.34,1.88a3.16,3.16,0,0,0,1-.14l.11.7a3.28,3.28,0,0,1-1.26.22,1.94,1.94,0,0,1-1.57-.65,3.34,3.34,0,0,1-.55-2.17v-5.77h-1.54v-.73h1.54V272.1Z" style="fill:#fff"/><path d="M911.9,271.84a.73.73,0,1,1-1.46,0,.78.78,0,0,1,.74-.79A.74.74,0,0,1,911.9,271.84Zm-1.18,11.73v-9.12h.9v9.12Z" style="fill:#fff"/><path d="M916,271.81v2.64h2.59v.73H916v5.93c0,1.16.36,1.88,1.34,1.88a3.16,3.16,0,0,0,1-.14l.11.7a3.31,3.31,0,0,1-1.26.22,1.94,1.94,0,0,1-1.57-.65A3.34,3.34,0,0,1,915,281v-5.77H913.5v-.73H915V272.1Z" style="fill:#fff"/><path d="M927.59,281.34c0,.81,0,1.53.07,2.23h-.84l-.06-1.62h0a3.52,3.52,0,0,1-3.13,1.83c-1.16,0-3.1-.58-3.1-4v-5.31h.9v5.12c0,2,.62,3.42,2.43,3.42a3,3,0,0,0,2.68-1.85,3.13,3.13,0,0,0,.19-1v-5.68h.9Z" style="fill:#fff"/><path d="M931.9,271.81v2.64h2.6v.73h-2.6v5.93c0,1.16.36,1.88,1.34,1.88a3.28,3.28,0,0,0,1-.14l.1.7a3.26,3.26,0,0,1-1.25.22,2,2,0,0,1-1.58-.65A3.34,3.34,0,0,1,931,281v-5.77h-1.54v-.73H931V272.1Z" style="fill:#fff"/><path d="M937.71,271.84a.74.74,0,1,1-1.47,0,.78.78,0,0,1,.74-.79A.75.75,0,0,1,937.71,271.84Zm-1.19,11.73v-9.12h.91v9.12Z" style="fill:#fff"/><path d="M948.28,278.92c0,3.41-2.33,4.86-4.36,4.86-2.36,0-4.18-1.84-4.18-4.7,0-3.12,2-4.84,4.31-4.84C946.57,274.24,948.28,276.13,948.28,278.92Zm-7.63.12c0,2.28,1.45,4,3.33,4s3.39-1.73,3.39-4.06c0-1.67-.94-4-3.34-4S940.65,277.07,940.65,279Z" style="fill:#fff"/><path d="M950.6,276.63c0-.84,0-1.46-.08-2.18h.84l.07,1.65h0a3.41,3.41,0,0,1,3.13-1.86c.87,0,3.19.45,3.19,3.86v5.47h-.91v-5.39c0-1.66-.64-3.16-2.52-3.16a2.93,2.93,0,0,0-2.74,2.09,3.3,3.3,0,0,0-.12.82v5.64h-.9Z" style="fill:#fff"/><path d="M965.76,283.57l-.13-1.31h0a3.43,3.43,0,0,1-2.91,1.52,2.49,2.49,0,0,1-2.68-2.51c0-2.1,1.85-3.37,5.56-3.33v-.25c0-.9-.17-2.7-2.33-2.68a4,4,0,0,0-2.29.68l-.28-.66a4.85,4.85,0,0,1,2.67-.79c2.63,0,3.14,2,3.14,3.61v3.55a14.14,14.14,0,0,0,.13,2.17Zm-.21-4.87c-2-.06-4.6.24-4.6,2.43a1.73,1.73,0,0,0,1.81,1.9,2.75,2.75,0,0,0,2.7-1.83,2,2,0,0,0,.09-.55Z" style="fill:#fff"/><path d="M969.41,270.08h.9v13.49h-.9Z" style="fill:#fff"/><path d="M982.56,283.57l-.13-1.31h0a3.43,3.43,0,0,1-2.9,1.52,2.49,2.49,0,0,1-2.69-2.51c0-2.1,1.85-3.37,5.56-3.33v-.25c0-.9-.17-2.7-2.33-2.68a4,4,0,0,0-2.29.68l-.28-.66a4.85,4.85,0,0,1,2.67-.79c2.63,0,3.14,2,3.14,3.61v3.55a15.52,15.52,0,0,0,.13,2.17Zm-.21-4.87c-2-.06-4.6.24-4.6,2.43a1.73,1.73,0,0,0,1.81,1.9,2.74,2.74,0,0,0,2.7-1.83,1.66,1.66,0,0,0,.09-.55Z" style="fill:#fff"/><path d="M986.21,276.63c0-.84,0-1.46-.07-2.18H987l.06,1.65h0a3.43,3.43,0,0,1,3.14-1.86c.87,0,3.18.45,3.18,3.86v5.47h-.9v-5.39c0-1.66-.64-3.16-2.53-3.16a2.91,2.91,0,0,0-2.73,2.09,2.88,2.88,0,0,0-.13.82v5.64h-.9Z" style="fill:#fff"/><path d="M1003.67,270.08v11.37c0,.67,0,1.48.07,2.12h-.81l-.07-1.73h0a3.43,3.43,0,0,1-3.25,1.94c-2.24,0-3.92-1.88-3.92-4.6,0-3,1.85-4.94,4.1-4.94a3.24,3.24,0,0,1,3,1.61h0v-5.77Zm-.91,8a3.35,3.35,0,0,0-.09-.83A2.92,2.92,0,0,0,999.8,275c-2,0-3.24,1.73-3.24,4.09,0,2.05,1,3.95,3.19,3.95a3,3,0,0,0,2.92-2.39,2.6,2.6,0,0,0,.09-.76Z" style="fill:#fff"/><path d="M1010.88,277.19c0-.92,0-1.86-.07-2.74h.83l0,1.85h.05a2.82,2.82,0,0,1,2.59-2.06,2.1,2.1,0,0,1,.37,0v.87a2,2,0,0,0-.44,0c-1.24,0-2.14,1.09-2.39,2.55a4.83,4.83,0,0,0-.07.86v5h-.91Z" style="fill:#fff"/><path d="M1016.42,278.92c0,2.92,1.58,4.07,3.46,4.07a5.33,5.33,0,0,0,2.54-.52l.23.71a6.09,6.09,0,0,1-2.88.59c-2.62,0-4.25-1.91-4.25-4.58,0-3,1.75-4.95,4.1-4.95,3,0,3.55,2.81,3.55,4.12a4.37,4.37,0,0,1,0,.56Zm5.81-.72c0-1.27-.51-3.21-2.73-3.21-2,0-2.87,1.81-3,3.21Z" style="fill:#fff"/><path d="M1026.74,271.81v2.64h2.6v.73h-2.6v5.93c0,1.16.36,1.88,1.34,1.88a3.28,3.28,0,0,0,1-.14l.11.7a3.35,3.35,0,0,1-1.26.22,1.91,1.91,0,0,1-1.57-.65,3.29,3.29,0,0,1-.56-2.17v-5.77h-1.54v-.73h1.54V272.1Z" style="fill:#fff"/><path d="M1036.34,283.57l-.13-1.31h0a3.43,3.43,0,0,1-2.91,1.52,2.49,2.49,0,0,1-2.68-2.51c0-2.1,1.85-3.37,5.56-3.33v-.25c0-.9-.17-2.7-2.33-2.68a4,4,0,0,0-2.29.68l-.28-.66a4.85,4.85,0,0,1,2.67-.79c2.63,0,3.14,2,3.14,3.61v3.55a14.14,14.14,0,0,0,.13,2.17Zm-.21-4.87c-2-.06-4.6.24-4.6,2.43a1.73,1.73,0,0,0,1.81,1.9,2.75,2.75,0,0,0,2.7-1.83,2,2,0,0,0,.09-.55Z" style="fill:#fff"/><path d="M1041.17,271.84a.73.73,0,1,1-1.46,0,.78.78,0,0,1,.74-.79A.74.74,0,0,1,1041.17,271.84ZM1040,283.57v-9.12h.9v9.12Z" style="fill:#fff"/><path d="M1044,270.08h.9v13.49h-.9Z" style="fill:#fff"/><path d="M1053.32,271.84a.73.73,0,1,1-1.46,0,.77.77,0,0,1,.73-.79A.75.75,0,0,1,1053.32,271.84Zm-1.18,11.73v-9.12h.9v9.12Z" style="fill:#fff"/><path d="M1056.11,276.63c0-.84,0-1.46-.08-2.18h.84l.07,1.65h0a3.42,3.42,0,0,1,3.14-1.86c.86,0,3.18.45,3.18,3.86v5.47h-.9v-5.39c0-1.66-.65-3.16-2.53-3.16a2.93,2.93,0,0,0-2.74,2.09,3.3,3.3,0,0,0-.12.82v5.64h-.9Z" style="fill:#fff"/><path d="M1065.82,274.45l2.14,5.66c.36.89.64,1.67.89,2.44h0c.25-.76.58-1.57.93-2.44l2.17-5.66h1l-3.71,9.12h-.8l-3.57-9.12Z" style="fill:#fff"/><path d="M1074.69,278.92c0,2.92,1.59,4.07,3.47,4.07a5.28,5.28,0,0,0,2.53-.52l.23.71a6.07,6.07,0,0,1-2.87.59c-2.62,0-4.25-1.91-4.25-4.58,0-3,1.74-4.95,4.1-4.95,3,0,3.55,2.81,3.55,4.12a2.92,2.92,0,0,1,0,.56Zm5.81-.72c0-1.27-.51-3.21-2.72-3.21-2,0-2.88,1.81-3,3.21Z" style="fill:#fff"/><path d="M1083.39,282.37a3.92,3.92,0,0,0,2,.63c1.43,0,2.12-.78,2.12-1.73s-.61-1.54-1.92-2.06c-1.49-.58-2.32-1.39-2.32-2.5a2.56,2.56,0,0,1,2.81-2.47,3.56,3.56,0,0,1,2,.58l-.36.74a3,3,0,0,0-1.8-.55,1.6,1.6,0,0,0-1.78,1.57c0,1,.65,1.36,1.89,1.87,1.48.59,2.35,1.32,2.35,2.7,0,1.56-1.21,2.62-3.08,2.62a4.47,4.47,0,0,1-2.32-.63Z" style="fill:#fff"/><path d="M1092.1,271.81v2.64h2.6v.73h-2.6v5.93c0,1.16.36,1.88,1.34,1.88a3.28,3.28,0,0,0,1-.14l.11.7a3.35,3.35,0,0,1-1.26.22,1.91,1.91,0,0,1-1.57-.65,3.29,3.29,0,0,1-.56-2.17v-5.77h-1.54v-.73h1.54V272.1Z" style="fill:#fff"/><path d="M1104.4,278.92c0,3.41-2.33,4.86-4.37,4.86-2.36,0-4.17-1.84-4.17-4.7,0-3.12,2-4.84,4.31-4.84C1102.68,274.24,1104.4,276.13,1104.4,278.92Zm-7.63.12c0,2.28,1.45,4,3.33,4s3.39-1.73,3.39-4.06c0-1.67-.94-4-3.35-4S1096.77,277.07,1096.77,279Z" style="fill:#fff"/><path d="M1106.71,277.19c0-.92,0-1.86-.08-2.74h.84l0,1.85h0a2.82,2.82,0,0,1,2.59-2.06,2.33,2.33,0,0,1,.37,0v.87a2,2,0,0,0-.44,0c-1.25,0-2.15,1.09-2.39,2.55a4.82,4.82,0,0,0-.08.86v5h-.9Z" style="fill:#fff"/><path d="M1111.94,282.37a3.92,3.92,0,0,0,2,.63c1.43,0,2.12-.78,2.12-1.73s-.61-1.54-1.92-2.06c-1.49-.58-2.31-1.39-2.31-2.5a2.55,2.55,0,0,1,2.8-2.47,3.62,3.62,0,0,1,2,.58l-.36.74a3,3,0,0,0-1.81-.55,1.6,1.6,0,0,0-1.78,1.57c0,1,.65,1.36,1.89,1.87,1.48.59,2.35,1.32,2.35,2.7,0,1.56-1.21,2.62-3.08,2.62a4.41,4.41,0,0,1-2.31-.63Z" style="fill:#fff"/><path d="M1123.69,278.92c0,2.92,1.59,4.07,3.47,4.07a5.33,5.33,0,0,0,2.54-.52l.23.71a6.12,6.12,0,0,1-2.88.59c-2.62,0-4.25-1.91-4.25-4.58,0-3,1.74-4.95,4.1-4.95,3,0,3.55,2.81,3.55,4.12a2.92,2.92,0,0,1,0,.56Zm5.82-.72c0-1.27-.51-3.21-2.73-3.21-2,0-2.87,1.81-3,3.21Z" style="fill:#fff"/><path d="M1137.74,283.57l-.13-1.31h0a3.41,3.41,0,0,1-2.9,1.52,2.49,2.49,0,0,1-2.69-2.51c0-2.1,1.86-3.37,5.57-3.33v-.25c0-.9-.18-2.7-2.34-2.68a4,4,0,0,0-2.29.68l-.28-.66a4.85,4.85,0,0,1,2.67-.79c2.63,0,3.14,2,3.14,3.61v3.55a15.52,15.52,0,0,0,.13,2.17Zm-.2-4.87c-2-.06-4.61.24-4.61,2.43a1.73,1.73,0,0,0,1.81,1.9,2.74,2.74,0,0,0,2.7-1.83,1.69,1.69,0,0,0,.1-.55Z" style="fill:#fff"/><path d="M1141,282.37a3.92,3.92,0,0,0,2,.63c1.43,0,2.12-.78,2.12-1.73s-.61-1.54-1.92-2.06c-1.49-.58-2.31-1.39-2.31-2.5a2.55,2.55,0,0,1,2.8-2.47,3.62,3.62,0,0,1,2,.58l-.37.74a3,3,0,0,0-1.8-.55,1.6,1.6,0,0,0-1.78,1.57c0,1,.65,1.36,1.89,1.87,1.48.59,2.35,1.32,2.35,2.7,0,1.56-1.21,2.62-3.08,2.62a4.47,4.47,0,0,1-2.32-.63Z" style="fill:#fff"/><path d="M1148.12,274.45l2.39,6c.25.65.51,1.38.67,2h0c.19-.57.42-1.28.69-2l2.24-5.9h1l-2.74,6.81c-1.1,2.83-1.87,4.52-3.06,5.55a5.13,5.13,0,0,1-1.6.95l-.29-.75a4.67,4.67,0,0,0,1.59-1,7.15,7.15,0,0,0,1.53-2.29,1.31,1.31,0,0,0,.1-.4,1.06,1.06,0,0,0-.1-.4l-3.38-8.45Z" style="fill:#fff"/><path d="M1166,283.57l-.13-1.31h0a3.43,3.43,0,0,1-2.9,1.52,2.49,2.49,0,0,1-2.69-2.51c0-2.1,1.85-3.37,5.56-3.33v-.25c0-.9-.17-2.7-2.33-2.68a4,4,0,0,0-2.29.68l-.28-.66a4.85,4.85,0,0,1,2.67-.79c2.63,0,3.14,2,3.14,3.61v3.55a14.14,14.14,0,0,0,.13,2.17Zm-.21-4.87c-2-.06-4.6.24-4.6,2.43A1.73,1.73,0,0,0,1163,283a2.75,2.75,0,0,0,2.7-1.83,2,2,0,0,0,.09-.55Z" style="fill:#fff"/><path d="M1175.9,283.17a5.93,5.93,0,0,1-2.66.6c-2.63,0-4.38-1.92-4.38-4.66a4.58,4.58,0,0,1,4.7-4.87,4.64,4.64,0,0,1,2.39.57l-.32.75a4.22,4.22,0,0,0-2.16-.54c-2.45,0-3.7,1.88-3.7,4,0,2.39,1.5,3.95,3.6,3.95a5.13,5.13,0,0,0,2.28-.53Z" style="fill:#fff"/><path d="M1184.33,283.17a5.93,5.93,0,0,1-2.66.6c-2.63,0-4.38-1.92-4.38-4.66a4.58,4.58,0,0,1,4.7-4.87,4.64,4.64,0,0,1,2.39.57l-.32.75a4.19,4.19,0,0,0-2.16-.54c-2.45,0-3.7,1.88-3.7,4,0,2.39,1.51,3.95,3.6,3.95a5.13,5.13,0,0,0,2.28-.53Z" style="fill:#fff"/><path d="M1186.61,278.92c0,2.92,1.59,4.07,3.47,4.07a5.25,5.25,0,0,0,2.53-.52l.24.71a6.12,6.12,0,0,1-2.88.59c-2.62,0-4.25-1.91-4.25-4.58,0-3,1.74-4.95,4.1-4.95,3,0,3.55,2.81,3.55,4.12a2.92,2.92,0,0,1,0,.56Zm5.81-.72c0-1.27-.5-3.21-2.72-3.21-2,0-2.87,1.81-3,3.21Z" style="fill:#fff"/><path d="M1195.31,282.37a3.92,3.92,0,0,0,2,.63c1.43,0,2.12-.78,2.12-1.73s-.6-1.54-1.92-2.06c-1.49-.58-2.31-1.39-2.31-2.5a2.55,2.55,0,0,1,2.8-2.47,3.62,3.62,0,0,1,2,.58l-.36.74a3,3,0,0,0-1.81-.55,1.6,1.6,0,0,0-1.78,1.57c0,1,.65,1.36,1.89,1.87,1.48.59,2.35,1.32,2.35,2.7,0,1.56-1.21,2.62-3.08,2.62a4.44,4.44,0,0,1-2.31-.63Z" style="fill:#fff"/><path d="M1202.4,282.37a3.89,3.89,0,0,0,2,.63c1.43,0,2.12-.78,2.12-1.73s-.61-1.54-1.92-2.06c-1.49-.58-2.32-1.39-2.32-2.5a2.56,2.56,0,0,1,2.81-2.47,3.56,3.56,0,0,1,2,.58l-.36.74a3,3,0,0,0-1.8-.55,1.6,1.6,0,0,0-1.78,1.57c0,1,.65,1.36,1.89,1.87,1.47.59,2.35,1.32,2.35,2.7,0,1.56-1.21,2.62-3.08,2.62a4.47,4.47,0,0,1-2.32-.63Z" style="fill:#fff"/><path d="M1215.27,271.81v2.64h2.6v.73h-2.6v5.93c0,1.16.36,1.88,1.34,1.88a3.16,3.16,0,0,0,1-.14l.11.7a3.31,3.31,0,0,1-1.26.22,1.94,1.94,0,0,1-1.57-.65,3.34,3.34,0,0,1-.55-2.17v-5.77h-1.54v-.73h1.54V272.1Z" style="fill:#fff"/><path d="M1227.56,278.92c0,3.41-2.33,4.86-4.36,4.86-2.36,0-4.18-1.84-4.18-4.7,0-3.12,2-4.84,4.31-4.84C1225.85,274.24,1227.56,276.13,1227.56,278.92Zm-7.63.12c0,2.28,1.45,4,3.33,4s3.39-1.73,3.39-4.06c0-1.67-.94-4-3.34-4S1219.93,277.07,1219.93,279Z" style="fill:#fff"/><path d="M555.93,299.36c0-1.14,0-2.05-.08-2.91h.86l.07,1.73h0a3.6,3.6,0,0,1,3.36-1.94c2.34,0,3.92,1.94,3.92,4.62,0,3.26-1.94,4.92-4.14,4.92a3.45,3.45,0,0,1-3.09-1.69h0v5.24h-.9Zm.9,2.62a3.38,3.38,0,0,0,.08.72,3.06,3.06,0,0,0,3,2.33c2.09,0,3.28-1.7,3.28-4.13,0-2.06-1.14-3.91-3.21-3.91a3.17,3.17,0,0,0-3,2.43,3.63,3.63,0,0,0-.13.78Z" style="fill:#fff"/><path d="M566.41,299.19c0-.92,0-1.86-.07-2.74h.83l0,1.85h0a2.82,2.82,0,0,1,2.59-2.06,2.1,2.1,0,0,1,.37,0v.87a1.94,1.94,0,0,0-.43,0c-1.25,0-2.15,1.09-2.4,2.55a4.83,4.83,0,0,0-.07.86v5h-.91Z" style="fill:#fff"/><path d="M572,300.92c0,2.92,1.58,4.07,3.46,4.07a5.33,5.33,0,0,0,2.54-.52l.23.71a6.09,6.09,0,0,1-2.88.59c-2.62,0-4.25-1.91-4.25-4.58,0-3,1.75-4.95,4.1-4.95,3,0,3.56,2.81,3.56,4.12a2.92,2.92,0,0,1,0,.56Zm5.81-.72c0-1.27-.51-3.21-2.73-3.21-2,0-2.87,1.81-3,3.21Z" style="fill:#fff"/><path d="M580.81,296.45l2.14,5.66c.36.89.64,1.67.89,2.44h0c.25-.76.58-1.57.92-2.44l2.17-5.66h.95l-3.7,9.12h-.8l-3.57-9.12Z" style="fill:#fff"/><path d="M590.86,293.84a.74.74,0,1,1-1.47,0,.78.78,0,0,1,.74-.79A.75.75,0,0,1,590.86,293.84Zm-1.19,11.73v-9.12h.91v9.12Z" style="fill:#fff"/><path d="M601.43,300.92c0,3.41-2.33,4.86-4.36,4.86-2.36,0-4.18-1.84-4.18-4.7,0-3.12,2.05-4.84,4.31-4.84C599.72,296.24,601.43,298.13,601.43,300.92Zm-7.63.12c0,2.28,1.45,4,3.33,4s3.39-1.73,3.39-4.06c0-1.67-.94-4-3.34-4S593.8,299.07,593.8,301Z" style="fill:#fff"/><path d="M610.77,303.34c0,.81,0,1.53.07,2.23H610l-.06-1.62h0a3.52,3.52,0,0,1-3.13,1.83c-1.16,0-3.1-.58-3.1-4v-5.31h.9v5.12c0,2,.62,3.42,2.43,3.42a3,3,0,0,0,2.68-1.85,3.13,3.13,0,0,0,.18-1v-5.68h.91Z" style="fill:#fff"/><path d="M613.45,304.37a4,4,0,0,0,2,.63c1.44,0,2.12-.78,2.12-1.73s-.6-1.54-1.92-2.06c-1.49-.58-2.31-1.39-2.31-2.5a2.55,2.55,0,0,1,2.81-2.47,3.58,3.58,0,0,1,2,.58l-.36.74a3,3,0,0,0-1.81-.55,1.6,1.6,0,0,0-1.77,1.57c0,1,.64,1.36,1.89,1.87,1.47.59,2.34,1.32,2.34,2.7,0,1.56-1.21,2.62-3.07,2.62a4.47,4.47,0,0,1-2.32-.63Z" style="fill:#fff"/><path d="M620.91,292.08h.91v13.49h-.91Z" style="fill:#fff"/><path d="M624.56,296.45l2.39,6c.25.65.5,1.38.67,2h0c.19-.57.43-1.28.7-2l2.23-5.9h1l-2.73,6.81c-1.1,2.83-1.88,4.52-3.07,5.55a4.92,4.92,0,0,1-1.6.95l-.29-.75a4.49,4.49,0,0,0,1.59-1A7.15,7.15,0,0,0,627,305.7a.78.78,0,0,0,0-.8l-3.38-8.45Z" style="fill:#fff"/><path d="M644.44,303.34c0,.81,0,1.53.08,2.23h-.85l-.06-1.62h0a3.52,3.52,0,0,1-3.12,1.83c-1.16,0-3.11-.58-3.11-4v-5.31h.91v5.12c0,2,.61,3.42,2.42,3.42a3,3,0,0,0,2.69-1.85,3.43,3.43,0,0,0,.18-1v-5.68h.9Z" style="fill:#fff"/><path d="M647.5,298.63c0-.84,0-1.46-.08-2.18h.84l.07,1.65h0a3.43,3.43,0,0,1,3.14-1.86c.87,0,3.18.45,3.18,3.86v5.47h-.9v-5.39c0-1.66-.64-3.16-2.53-3.16a2.94,2.94,0,0,0-2.74,2.09,3.3,3.3,0,0,0-.12.82v5.64h-.9Z" style="fill:#fff"/><path d="M657.31,304.37a4,4,0,0,0,2.05.63c1.44,0,2.12-.78,2.12-1.73s-.6-1.54-1.92-2.06c-1.49-.58-2.31-1.39-2.31-2.5a2.56,2.56,0,0,1,2.81-2.47,3.56,3.56,0,0,1,2,.58l-.36.74a3,3,0,0,0-1.81-.55,1.6,1.6,0,0,0-1.77,1.57c0,1,.64,1.36,1.89,1.87,1.47.59,2.35,1.32,2.35,2.7,0,1.56-1.22,2.62-3.08,2.62a4.47,4.47,0,0,1-2.32-.63Z" style="fill:#fff"/><path d="M664.91,300.92c0,2.92,1.59,4.07,3.47,4.07a5.33,5.33,0,0,0,2.54-.52l.23.71a6.12,6.12,0,0,1-2.88.59c-2.62,0-4.25-1.91-4.25-4.58,0-3,1.74-4.95,4.1-4.95,3,0,3.55,2.81,3.55,4.12a2.92,2.92,0,0,1,0,.56Zm5.82-.72c0-1.27-.51-3.21-2.73-3.21-2,0-2.87,1.81-3,3.21Z" style="fill:#fff"/><path d="M674.12,300.92c0,2.92,1.59,4.07,3.47,4.07a5.33,5.33,0,0,0,2.54-.52l.23.71a6.12,6.12,0,0,1-2.88.59c-2.62,0-4.25-1.91-4.25-4.58,0-3,1.74-4.95,4.1-4.95,3,0,3.55,2.81,3.55,4.12a2.92,2.92,0,0,1,0,.56Zm5.82-.72c0-1.27-.51-3.21-2.73-3.21-2,0-2.87,1.81-3,3.21Z" style="fill:#fff"/><path d="M683.19,298.63c0-.84,0-1.46-.07-2.18H684l.07,1.65h0a3.44,3.44,0,0,1,3.14-1.86c.87,0,3.18.45,3.18,3.86v5.47h-.9v-5.39c0-1.66-.64-3.16-2.52-3.16a2.92,2.92,0,0,0-2.86,2.91v5.64h-.91Z" style="fill:#fff"/><path d="M697.53,299.19c0-.92,0-1.86-.07-2.74h.83l0,1.85h0a2.82,2.82,0,0,1,2.59-2.06,2.1,2.1,0,0,1,.37,0v.87a1.89,1.89,0,0,0-.43,0c-1.25,0-2.15,1.09-2.4,2.55a4.83,4.83,0,0,0-.07.86v5h-.91Z" style="fill:#fff"/><path d="M703.07,300.92c0,2.92,1.58,4.07,3.47,4.07a5.28,5.28,0,0,0,2.53-.52l.23.71a6.07,6.07,0,0,1-2.87.59c-2.63,0-4.25-1.91-4.25-4.58,0-3,1.74-4.95,4.09-4.95,3,0,3.56,2.81,3.56,4.12a2.92,2.92,0,0,1,0,.56Zm5.81-.72c0-1.27-.51-3.21-2.72-3.21-2,0-2.88,1.81-3,3.21Z" style="fill:#fff"/><path d="M713.39,293.81v2.64H716v.73h-2.6v5.93c0,1.16.36,1.88,1.34,1.88a3.23,3.23,0,0,0,1-.14l.11.7a3.35,3.35,0,0,1-1.26.22,1.93,1.93,0,0,1-1.57-.65,3.29,3.29,0,0,1-.56-2.17v-5.77H711v-.73h1.54V294.1Z" style="fill:#fff"/><path d="M725,303.34c0,.81,0,1.53.07,2.23h-.84l-.06-1.62h0a3.52,3.52,0,0,1-3.13,1.83c-1.16,0-3.1-.58-3.1-4v-5.31h.9v5.12c0,2,.62,3.42,2.42,3.42a3,3,0,0,0,2.69-1.85,3.13,3.13,0,0,0,.18-1v-5.68H725Z" style="fill:#fff"/><path d="M728.09,299.19c0-.92,0-1.86-.08-2.74h.84l0,1.85h.05a2.82,2.82,0,0,1,2.59-2.06,2.1,2.1,0,0,1,.37,0v.87a2,2,0,0,0-.44,0c-1.25,0-2.14,1.09-2.39,2.55a4.82,4.82,0,0,0-.08.86v5h-.9Z" style="fill:#fff"/><path d="M733.83,298.63c0-.84,0-1.46-.08-2.18h.84l.07,1.65h0a3.43,3.43,0,0,1,3.14-1.86c.87,0,3.18.45,3.18,3.86v5.47h-.9v-5.39c0-1.66-.65-3.16-2.53-3.16a2.93,2.93,0,0,0-2.74,2.09,3.3,3.3,0,0,0-.12.82v5.64h-.9Z" style="fill:#fff"/><path d="M749.43,293.81v2.64H752v.73h-2.59v5.93c0,1.16.36,1.88,1.34,1.88a3.16,3.16,0,0,0,1-.14l.11.7a3.31,3.31,0,0,1-1.26.22,1.94,1.94,0,0,1-1.57-.65,3.34,3.34,0,0,1-.56-2.17v-5.77H747v-.73h1.53V294.1Z" style="fill:#fff"/><path d="M754.05,292.08h.9v6h0a3.33,3.33,0,0,1,1.24-1.32,3.53,3.53,0,0,1,1.84-.52c.87,0,3.17.43,3.17,3.83v5.5h-.9v-5.4c0-1.64-.65-3.14-2.52-3.14a3,3,0,0,0-2.75,2.07,2.63,2.63,0,0,0-.12.89v5.58h-.9Z" style="fill:#fff"/><path d="M764.23,299.19c0-.92,0-1.86-.07-2.74H765l0,1.85h.05a2.82,2.82,0,0,1,2.59-2.06,2.1,2.1,0,0,1,.37,0v.87a2,2,0,0,0-.44,0c-1.24,0-2.14,1.09-2.39,2.55a4.82,4.82,0,0,0-.08.86v5h-.9Z" style="fill:#fff"/><path d="M777.42,300.92c0,3.41-2.33,4.86-4.37,4.86-2.36,0-4.18-1.84-4.18-4.7,0-3.12,2-4.84,4.32-4.84C775.7,296.24,777.42,298.13,777.42,300.92Zm-7.63.12c0,2.28,1.45,4,3.32,4s3.4-1.73,3.4-4.06c0-1.67-.94-4-3.35-4S769.79,299.07,769.79,301Z" style="fill:#fff"/><path d="M786.75,303.34c0,.81,0,1.53.08,2.23H786l-.07-1.62h0a3.54,3.54,0,0,1-3.13,1.83c-1.16,0-3.1-.58-3.1-4v-5.31h.9v5.12c0,2,.61,3.42,2.42,3.42a3,3,0,0,0,2.69-1.85,3.43,3.43,0,0,0,.18-1v-5.68h.9Z" style="fill:#fff"/><path d="M797.15,296.45c0,.68-.07,1.4-.07,2.36v5.43c0,2.34-.48,3.49-1.25,4.22a4.55,4.55,0,0,1-3.09,1.08,5.27,5.27,0,0,1-2.9-.78l.33-.73a4.9,4.9,0,0,0,2.71.76c1.91,0,3.3-1,3.3-3.7v-1.28h0a3.45,3.45,0,0,1-3.18,1.76c-2.28,0-3.9-2-3.9-4.47,0-3.19,2.08-4.86,4.1-4.86a3.2,3.2,0,0,1,3.07,1.75h0l.05-1.54Zm-1,3.51a2.68,2.68,0,0,0-.12-.88,3,3,0,0,0-2.83-2.09c-1.93,0-3.26,1.59-3.26,4,0,2.05,1.08,3.83,3.23,3.83a3,3,0,0,0,2.81-2.07,2.85,2.85,0,0,0,.17-1Z" style="fill:#fff"/><path d="M800.14,292.08h.9v6h0a3.36,3.36,0,0,1,1.25-1.32,3.48,3.48,0,0,1,1.84-.52c.86,0,3.16.43,3.16,3.83v5.5h-.9v-5.4c0-1.64-.65-3.14-2.51-3.14a3,3,0,0,0-2.75,2.07,2.39,2.39,0,0,0-.13.89v5.58h-.9Z" style="fill:#fff"/><path d="M814.5,292.94a20.17,20.17,0,0,1,3.28-.28,6.92,6.92,0,0,1,5.16,1.76,6.05,6.05,0,0,1,1.59,4.43,7.05,7.05,0,0,1-1.67,4.86,7.34,7.34,0,0,1-5.52,2,26.19,26.19,0,0,1-2.84-.12Zm.9,11.87a15.49,15.49,0,0,0,2.07.09c4.11,0,6.14-2.3,6.14-6,0-3.25-1.78-5.47-5.88-5.47a12.18,12.18,0,0,0-2.33.2Z" style="fill:#fff"/><path d="M827,300.92c0,2.92,1.59,4.07,3.47,4.07a5.25,5.25,0,0,0,2.53-.52l.24.71a6.12,6.12,0,0,1-2.88.59c-2.62,0-4.25-1.91-4.25-4.58,0-3,1.74-4.95,4.1-4.95,3,0,3.55,2.81,3.55,4.12a2.92,2.92,0,0,1,0,.56Zm5.81-.72c0-1.27-.5-3.21-2.72-3.21-2,0-2.87,1.81-3,3.21Z" style="fill:#fff"/><path d="M836.12,292.77h6.32v.76H837v5.08h5v.77h-5v6.19h-.9Z" style="fill:#fff"/><path d="M845.48,293.84a.73.73,0,1,1-1.46,0,.78.78,0,0,1,.74-.79A.74.74,0,0,1,845.48,293.84Zm-1.18,11.73v-9.12h.9v9.12Z" style="fill:#fff"/><path d="M847.76,304.93a.79.79,0,0,1,.78-.86.78.78,0,0,1,.76.86.77.77,0,1,1-1.54,0Z" style="fill:#fff"/><path d="M80.37,277.84s631.44,74.78,1201.55,0" style="fill:none;stroke:#e81acb;stroke-miterlimit:10;stroke-width:5px;opacity:0.08"/><g style="opacity:0.08"><image width="1275" height="112" transform="translate(44 297)" xlink:href="Solutions2.png"/></g><g style="opacity:0.08"><image width="1275" height="111" transform="translate(44 356)" xlink:href="Solutions3.png"/></g><g style="opacity:0.08"><image width="1275" height="111" transform="translate(44 590)" xlink:href="Solutions4.png"/></g><g style="opacity:0.08"><image width="1275" height="111" transform="translate(44 531)" xlink:href="Solutions5.png"/></g><g style="opacity:0.08"><image width="1275" height="111" transform="translate(44 473)" xlink:href="Solutions6.png"/></g><g style="opacity:0.08"><image width="1275" height="111" transform="translate(44 414)" xlink:href="Solutions7.png"/></g></svg>