<svg id="_3Key" data-name="3Key" xmlns="http://www.w3.org/2000/svg" viewBox="0 0 1366 768"><title>Strategies</title><polyline points="886.56 0 886.56 127.24 706.8 127.24 612.88 221.16 240.25 221.16" style="fill:none;stroke:#0fb2ee;stroke-miterlimit:10"/><polyline points="472.51 221.16 472.51 316.59 565.93 410.51 565.93 768" style="fill:none;stroke:#0fb2ee;stroke-miterlimit:10"/><path d="M437.63,387.79H159.5c-.86,0-1.56-.47-1.56-1.05V333.8c0-.58.7-1.05,1.56-1.05H437.63c.86,0,1.56.47,1.56,1.05v52.94C439.19,387.32,438.49,387.79,437.63,387.79Z" style="fill:none;stroke:#0fb2ee;stroke-miterlimit:10"/><text transform="translate(179.65 367.8)" style="font-size:21.425230026245117px;fill:#fff;font-family:MyriadPro-Regular, Myriad Pro">SEED FUNDING</text><path d="M437.63,456.46H159.5c-.86,0-1.56-.47-1.56-1V402.47c0-.58.7-1.05,1.56-1.05H437.63c.86,0,1.56.47,1.56,1.05v52.94C439.19,456,438.49,456.46,437.63,456.46Z" style="fill:none;stroke:#0fb2ee;stroke-miterlimit:10"/><text transform="translate(179.65 436.48)" style="font-size:21.425230026245117px;fill:#fff;font-family:MyriadPro-Regular, Myriad Pro">BOR<tspan x="37.9" y="0" style="letter-spacing:0.0029854915756631515em">R</tspan><tspan x="49.49" y="0">OWING/LENDING</tspan></text><path d="M437.63,527.15H159.5c-.86,0-1.56-.47-1.56-1V473.16c0-.58.7-1.05,1.56-1.05H437.63c.86,0,1.56.47,1.56,1.05V526.1C439.19,526.68,438.49,527.15,437.63,527.15Z" style="fill:none;stroke:#0fb2ee;stroke-miterlimit:10"/><text transform="translate(179.65 507.17)" style="font-size:21.425230026245117px;fill:#fff;font-family:MyriadPro-Regular, Myriad Pro">L<tspan x="10.11" y="0" style="letter-spacing:0.008979264739017417em">E</tspan><tspan x="20.85" y="0" style="letter-spacing:0.00002279001202796299em">VE</tspan><tspan x="43.34" y="0" style="letter-spacing:0.004968222622095932em">R</tspan><tspan x="54.98" y="0" style="letter-spacing:-0.014995827914399646em">A</tspan><tspan x="67.77" y="0" style="letter-spacing:-0.00002279001202796299em">GE</tspan><tspan x="92.15" y="0" style="letter-spacing:-0.04599024427242931em"> </tspan><tspan x="95.7" y="0" style="letter-spacing:-0.006996533692584637em">Y</tspan><tspan x="107.15" y="0">IEL</tspan><tspan x="132.92" y="0" style="letter-spacing:0.013993067385169275em">D</tspan><tspan x="147.49" y="0">-</tspan><tspan x="154.07" y="0" style="letter-spacing:-0.07798742115968935em">F</tspan><tspan x="162.83" y="0">ARMING</tspan></text></svg>