<?xml version="1.0" encoding="utf-8"?>
<!-- Generator: Adobe Illustrator 22.1.0, SVG Export Plug-In . SVG Version: 6.00 Build 0)  -->
<svg version="1.1" id="Layer_1" xmlns="http://www.w3.org/2000/svg" xmlns:xlink="http://www.w3.org/1999/xlink" x="0px" y="0px"
	 viewBox="0 0 1120.9 750.8" style="enable-background:new 0 0 1120.9 750.8;" xml:space="preserve">
<style type="text/css">
	.st0{fill:#FF00FF;}
	.st1{fill:none;}
	.st2{fill:#FF4A5E;}
	.st3{stroke:url(#SVGID_1_);stroke-width:4;stroke-miterlimit:10;}
	.st4{stroke:url(#SVGID_2_);stroke-width:4;stroke-miterlimit:10;}
	.st5{stroke:url(#SVGID_3_);stroke-width:4;stroke-miterlimit:10;}
	.st6{stroke:url(#SVGID_4_);stroke-width:4;stroke-miterlimit:10;}
	.st7{fill:#DB28EA;}
	.st8{fill:url(#SVGID_5_);}
	.st9{fill:url(#SVGID_6_);}
	.st10{fill:url(#SVGID_7_);}
	.st11{fill:#318BEE;}
	.st12{fill:#8618D1;}
	.st13{fill:url(#SVGID_8_);}
</style>
<path class="st0" d="M395.8,388.6c-1.3,0-2.5-0.6-3.6-1.2c-9.8-5.9-21.2-8.8-32.9-8.4c-11.9,0.4-24.1,0.3-35.8,0.1
	c-5.8-0.1-11.8-0.1-17.7-0.1h-1.2l-0.7-0.9c-1-1.2-1.8-3.2,0.2-5.7c0,0,0.1-0.1,0.1-0.1c11-19.1,22-38.1,33-57.2
	c11-19.1,22.1-38.2,33.1-57.3l20.7-35.8c23-39.8,46.7-81,70.2-121.6l0.1-0.1c0.8-1.2,0.8-2.8,0-4l-0.1-0.2
	c-6.6-12.9-2.4-28.6,9.9-36.4c11.8-7.8,27.5-5.4,36.5,5.6c7.2,8,8.9,19.5,4.3,29.3c-3.8,9.9-13.4,16.6-24,16.7l-0.1,0l-0.1,0
	c-1.9-0.1-3.5,1-4.3,2.8l-0.1,0.2c-8.5,15.2-17.1,29.9-23.6,41c0,0,0,0,0,0c0,0,0,0,0.1,0H523l9.9,0.3l-2.1,3.6
	c-6.2,10.9-10.8,18.8-15.3,26.5l-16.8,29.1c-14.1,24.4-28.3,48.9-42.4,73.3c-14.2,24.6-28.4,49.1-42.6,73.7c-1.5,2.6-3,5.2-4.5,7.8
	c-3,5.1-6,10.3-9,15.6c-0.7,1.2-1.7,2.7-3.4,3.2C396.5,388.5,396.1,388.6,395.8,388.6z M361.3,373.9c11.9,0,23.4,3.2,33.4,9.2
	c0.3,0.2,0.6,0.3,0.7,0.4c0.1-0.1,0.2-0.3,0.4-0.6c3-5.3,6-10.6,9-15.7c1.5-2.6,3-5.2,4.5-7.8c14.2-24.6,28.4-49.1,42.6-73.7
	c14.1-24.4,28.3-48.9,42.4-73.3l16.8-29.1c4-6.8,8-13.8,13.2-22.9l-1.6-0.1l-63.1,0c-1.6,0-4.1,0-5.3-2c-1.2-2,0.1-4.2,0.9-5.6
	c6.5-11.1,15.1-25.8,23.5-40.9c1.6-3.6,5.1-5.8,9-5.7c8.5-0.1,16.3-5.6,19.3-13.6l0.1-0.2c3.8-8,2.4-17.4-3.5-24l-0.1-0.1
	c-7.4-9-20.3-11-30-4.6c-10.1,6.4-13.6,19.3-8.2,29.9c1.7,2.8,1.7,6.5,0,9.2c-23.5,40.5-47.2,81.7-70.2,121.5l-20.7,35.9
	c-11.1,19.1-22.1,38.2-33.1,57.3c-10.8,18.8-21.7,37.6-32.6,56.4c4.9,0,9.8,0.1,14.5,0.1c11.7,0.1,23.7,0.3,35.6-0.1
	C359.9,373.9,360.6,373.9,361.3,373.9z M486.2,95.7H486c-3.3-0.1-6.4-1.4-8.7-3.8c-2.3-2.4-3.5-5.5-3.4-8.8c0.1-3.3,1.4-6.3,3.7-8.6
	c2.3-2.3,5.4-3.5,8.7-3.4c3.3,0.1,6.3,1.4,8.6,3.7c2.3,2.3,3.5,5.4,3.4,8.7c0,0.3,0,0.6-0.1,0.8C498,90.6,492.7,95.7,486.2,95.7z
	 M486.1,76c-1.9,0-3.7,0.7-5,2c-1.4,1.3-2.2,3.2-2.2,5.1c0,2,0.7,3.8,2.1,5.3c1.4,1.4,3.2,2.2,5.1,2.3l0.2,0c3.9,0,7.1-3.1,7.1-7v-1
	l0.1-0.1c-0.1-1.6-0.8-3.2-2-4.4c-1.3-1.4-3.2-2.2-5.1-2.2C486.2,76,486.2,76,486.1,76z"/>
<path class="st0" d="M216.5,334.9c-2.2,0-4.4-0.3-6.5-0.8c-10.9-2-19.3-10.3-21.5-21c-3.5-14.9,5.8-30,20.8-33.5
	c1.5-0.4,3.3-0.6,5.4-0.8l0.2,0l0.2,0c1.2,0.1,2.4-0.6,2.9-1.7l0.3-0.5c21.9-38,44.5-77.4,66.8-116.1c1.5-3.3,5.2-5.4,9-5.1
	c13.4,0.1,27.1,0.1,40.4,0.1c4.5,0,9,0,13.5,0h54.8c1.4,0,4,0,5.2,2c1.1,2-0.1,4.1-0.9,5.6c-2.7,4.6-5.4,9.2-8.1,13.9
	c-11.2,19-22.7,38.6-33.2,57.9c-4.3,7.8-9.1,10.5-18.4,10.4c-14.5-0.3-29.3-0.2-43.6-0.2c-11.4,0-23.3,0-34.9-0.1l-0.3,0
	c-1.3-0.2-2.5,0.5-3,1.8l-0.1,0.2c-8.2,14.8-16.5,29.3-24.6,42.9l-0.1,0.1c-0.7,1.1-0.7,2.5,0,3.6l0.1,0.2
	c5.2,9.5,4.3,21.1-2.4,29.6C233.3,330.6,225.1,334.9,216.5,334.9z M214.8,283.7c-1.7,0.1-3.1,0.3-4.4,0.6
	c-12.3,2.9-20,15.3-17.1,27.6c1.8,8.8,8.7,15.6,17.6,17.2l0.2,0c8.7,2.3,18-1.2,23-8.9l0.1-0.2c5.4-6.9,6.2-16.3,2-24.1
	c-1.8-2.8-1.8-6.3,0-9c8.1-13.5,16.3-27.8,24.5-42.6c1.5-3.1,4.6-4.9,8-4.6c11.6,0.1,23.4,0.1,34.7,0.1c14.3,0,29.1-0.1,43.7,0.2
	c7.4,0.1,10.6-1.7,14-7.8c10.6-19.4,22.1-39.1,33.3-58c2.7-4.6,5.4-9.2,8.1-13.8c0,0,0,0,0,0h-54.8c-4.5,0-9,0-13.5,0
	c-13.3,0-27,0-40.5-0.1l-0.2,0c-1.7-0.2-3.4,0.7-4,2.2l-0.1,0.2c-22.4,38.7-45,78.1-66.9,116.2l-0.1,0.1
	C221.1,282.1,218.1,283.9,214.8,283.7z M216,318.8c-0.3,0-0.6,0-0.8-0.1c-6.4-0.2-11.6-5.4-11.7-11.9l0-0.4c0-6.6,5.4-12,12.1-12
	h0.8c3.2,0.1,6.2,1.4,8.4,3.7c2.2,2.4,3.4,5.4,3.3,8.7C228.1,313.4,222.7,318.8,216,318.8z M216,313.8l0,2.5L216,313.8
	C216,313.8,216,313.8,216,313.8z M216.7,313.7L216.7,313.7c3.6-0.3,6.4-3.3,6.4-7c0.1-2-0.6-3.8-1.9-5.1c-1.3-1.4-3-2.1-4.9-2.2
	l-0.8,0c-3.9,0-7.1,3.1-7.1,7v0.4c0.1,3.8,3.2,6.9,7,6.9c0,0,0.1,0,0.1,0L216.7,313.7z"/>
<path class="st0" d="M353.9,622.8c-37.1,0-72.9-12.3-102.6-35.6c-35-27.5-57.2-66.9-62.6-111.1l0-0.1c-0.1-1.6-0.2-3.4,1.1-4.8
	c1.2-1.3,3-1.5,4.4-1.5h78.1c4.5,0,5.6,2.9,6.1,5.1c8.8,34.9,38.2,58.4,74.9,59.7c38.2,1.2,75.2-30.9,79.1-68.8
	c0.2-2.2,0.4-4.4,0.5-6.7c0.1-1.5,0.2-2.9,0.3-4.4c-0.5-19.2-7.9-37.6-20.9-51.9c-2.4-2.8-0.9-5.3-0.3-6.3
	c10.5-18.1,21.1-36.6,31.4-54.5l8.3-14.5c0.6-1,1.6-2.6,3.3-2.9c1.9-0.4,3.4,0.8,4.6,1.7c14.1,11.5,26.1,25.1,35.6,40.2l0.8,1.2
	c4.4-7.6,8.7-15.1,13.1-22.7c4.4-7.6,8.8-15.2,13.2-22.8l0.1-0.2c0.8-1.2,0.9-2.8,0.2-3.9c-0.4-0.7-0.8-1.4-1-2
	c-6-14.1,0.6-30.4,14.6-36.5c0.3-0.2,0.6-0.2,0.7-0.3l0.1,0c14.6-5.7,31.1,1.5,36.8,16.1l0,0.1c1,2.9,1.6,5.9,1.8,8.7
	c0.3,7.5-2.4,14.6-7.5,20.1c-5.1,5.5-12,8.6-19.5,8.9l-0.1,0l-0.1,0c-1.6-0.1-3.1,0.9-3.7,2.3l-0.1,0.2
	c-24.6,42.9-50.2,87.1-76,131.6c-0.5,0.9-1.1,1.7-1.7,2.6c-0.2,0.4-0.5,0.7-0.7,1.1l-6.1,11h18.4c0.2-0.3,0.5-0.8,0.9-1.1
	c8.6-15.1,17.1-30.1,26.1-45.9l10.9-19.1l1.4,6.4c5.7,26,4.7,53.3-2.7,78.8c-18.1,64.5-72.8,111.8-139.3,120.4
	c-0.3,0.1-0.6,0.1-1,0.1c-0.2,0-0.4,0-0.5,0.1l-0.2,0C367.3,622.4,360.6,622.8,353.9,622.8z M193.7,475.6
	c10.7,88.4,91.3,151.6,179.7,141.1c0.3-0.1,0.6-0.1,1-0.1c0.2,0,0.4,0,0.5-0.1l0.2,0c64.6-8.3,117.6-54.1,135.2-116.8
	c6.6-22.6,8-46.6,3.9-69.8l-4.3,7.6c-9.1,16-17.8,31.1-26.4,46.4l-0.4,0.7l-0.4,0.2c0,0,0,0,0,0.1c-0.4,0.6-1.4,2.2-3.5,2.2h-27.5
	l10.4-18.7c0.3-0.4,0.6-0.8,0.9-1.2c0.5-0.8,1.1-1.5,1.5-2.2c25.8-44.4,51.4-88.7,75.9-131.5c1.5-3.2,4.8-5.3,8.3-5.1
	c6.1-0.2,11.8-2.8,16-7.3c4.2-4.5,6.4-10.3,6.2-16.4c-0.2-2.3-0.7-4.8-1.5-7.3c-4.7-12-18.3-17.9-30.3-13.3
	c-0.1,0.1-0.2,0.1-0.3,0.1l-0.2,0.1c-11.6,5-17.1,18.5-12.2,30.1c0.2,0.4,0.4,0.9,0.6,1.3c1.8,2.7,1.7,6.5-0.2,9.3
	c-4.4,7.6-8.7,15.1-13.1,22.7c-4.4,7.6-8.8,15.2-13.2,22.8c-0.1,0.1-0.2,0.3-0.3,0.6c-0.4,1-1.2,2.9-3.7,3.5l-1.7,0.4l-3.6-5.6
	c-9.2-14.7-20.8-27.8-34.5-39c-0.1-0.1-0.2-0.2-0.4-0.3c0,0,0,0,0,0l-8.3,14.5c-10.3,17.9-20.9,36.4-31.4,54.6
	c-0.1,0.2-0.2,0.4-0.3,0.5c0,0,0,0,0,0c13.8,15.1,21.7,34.7,22.2,55.2l0,0.1l0,0.1c-0.1,1.5-0.2,3-0.3,4.4c-0.1,2.3-0.3,4.6-0.5,6.9
	c-2,19.7-12.1,38.4-28.3,52.5c-16,13.8-36.3,21.4-55.9,20.8c-39-1.4-70.3-26.3-79.6-63.5c-0.2-1-0.4-1.2-0.4-1.2l0,0
	c0,0-0.2-0.1-0.9-0.1h-78.1c-0.2,0-0.4,0-0.5,0C193.7,474.9,193.7,475.2,193.7,475.6z M547.3,317.7c-3.1,0-6.1-1.2-8.4-3.3
	c-2.3-2.2-3.7-5.2-3.7-8.4l0-0.8c0.3-6.7,5.4-11.8,12-12.1l0.1,0l0.1,0c6.8,0.3,12.1,6,11.8,12.8c-0.4,6.4-5.2,11.4-11.5,11.9
	l-0.2,0C547.5,317.7,547.4,317.7,547.3,317.7z M547.3,298c-3.9,0.2-7,3.3-7.1,7.2l0,0.7c0,1.8,0.8,3.6,2.2,4.9
	c1.3,1.3,3.1,1.9,5,1.9c3.7-0.3,6.6-3.3,6.8-7.1C554.4,301.6,551.3,298.2,547.3,298z"/>
<path d="M617,281.2c-0.2,0-0.4,0-0.7,0c0.2,0,0.3,0,0.5,0C616.8,281.2,616.9,281.2,617,281.2z"/>
<path d="M592.7,475.3c0,0.2,0,0.3,0,0.5c0,0,0,0,0,0c0,0,0,0,0,0C592.7,475.6,592.7,475.5,592.7,475.3z"/>
<g>
	<path d="M-210.2,224.9c-6.9,12-13.9,24-20.8,36.1c-11.1,19.1-22.1,38.2-33.1,57.3c-10.4,18-20.8,36.1-31.2,54.1c4,0,8,0.1,12,0.1
		c5.8,0.1,11.9,0.1,17.8,0.1c6.6,0,12.4-0.1,17.7-0.3c0.8,0,1.5,0,2.3,0c11.9,0,23.5,3.1,33.6,9.1c2.9-5.1,5.8-10.2,8.7-15.1
		c1.5-2.6,3-5.2,4.5-7.8c14.1-24.5,28.3-49,42.5-73.5c14.2-24.5,28.4-49,42.5-73.5l16.8-29.1c3.6-6.2,7.4-12.8,12-20.7h-62.1
		c-1.7,0-5,0-6.5-2.7c-1.6-2.7,0-5.5,0.9-7.1l0,0l0,0c6.5-11.1,15.1-25.7,23.5-40.8c1.8-4,5.8-6.5,10-6.5c0.1,0,0.2,0,0.3,0
		c7.9-0.1,15.1-5.2,17.9-12.6l0.1-0.1l0.1-0.1c3.5-7.5,2.2-16.2-3.2-22.3l-0.1-0.1l-0.1-0.1c-4.1-5-10-7.8-16.4-7.8
		c-4.1,0-8.1,1.2-11.6,3.5l0,0l0,0c-9.4,6-12.7,17.9-7.7,27.9c2,3.3,2,7.5-0.1,10.8C-163.5,144.1-187.2,185.2-210.2,224.9z
		 M-120.8,69.5l0.3,0c7.6,0.1,13.6,6.4,13.5,13.9c0,0.4,0,0.7-0.1,1c-0.4,7.1-6.3,12.7-13.6,12.7h-0.2h0l0,0
		c-7.6-0.1-13.7-6.5-13.5-14.2C-134.4,75.4-128.4,69.5-120.8,69.5z"/>
	<path d="M-395.7,327.7l0.2,0l0.2,0c1.6,0.4,3.3,0.7,5,0.7c6.6,0,12.7-3.3,16.4-8.9l0.1-0.1l0.1-0.1c5.1-6.4,5.8-15.1,1.9-22.4
		c-2.1-3.3-2-7.4,0.1-10.6c8-13.5,16.2-27.8,24.4-42.5c1.6-3.4,4.8-5.4,8.5-5.4c0.3,0,0.6,0,0.9,0c6.1,0.1,12.7,0.1,20.9,0.1
		c4.6,0,9.2,0,13.8,0c4.6,0,9.2,0,13.8,0c8.2,0,18.9,0,29.9,0.2c0.2,0,0.3,0,0.5,0c6.5,0,9.1-1.5,12.1-7
		c10.6-19.4,22.2-39.1,33.4-58.1c2.3-3.9,4.5-7.7,6.8-11.6h-52.1c-4.5,0-9,0-13.5,0c-4.5,0-9,0-13.5,0c-10.9,0-19.2,0-27-0.1l-0.2,0
		l-0.2,0c-0.1,0-0.2,0-0.3,0c-1,0-1.9,0.5-2.2,1.3l-0.1,0.2l-0.1,0.2c-22.4,38.7-45,78.1-66.9,116.2c-1.5,3.3-4.8,5.4-8.5,5.4
		c-0.2,0-0.3,0-0.5,0c-1.6,0.1-2.9,0.3-4,0.6l0,0l0,0c-11.5,2.7-18.6,14.3-15.9,25.8l0,0.1l0,0.1
		C-410.5,319.9-404,326.1-395.7,327.7z M-404.9,306.8v-0.4c0-7.4,6.1-13.5,13.6-13.5h0.8h0l0,0c3.6,0.1,7,1.6,9.5,4.2
		c2.5,2.6,3.8,6.1,3.7,9.7c0,7.5-6.1,13.5-13.6,13.5c-0.4,0-0.7,0-1-0.1C-399.2,319.9-404.8,314.2-404.9,306.8L-404.9,306.8
		L-404.9,306.8z"/>
	<path d="M-59.7,283.8c-2.7,0-5.3,0.5-7.9,1.5c-0.1,0.1-0.3,0.1-0.4,0.1l-0.1,0c-10.9,4.6-16,17.3-11.4,28.2l0,0l0,0
		c0.1,0.3,0.3,0.7,0.5,1c2.1,3.3,2,7.6-0.2,10.9c-4.4,7.6-8.7,15.1-13.1,22.6c-4.4,7.6-8.7,15.1-13.1,22.7l0,0l0,0
		c0,0.1-0.1,0.2-0.1,0.3c-0.5,1.1-1.5,3.6-4.8,4.4l-2.8,0.7l-1.5-2.4l-2.6-4.1c-8.9-14.2-20.1-27-33.2-37.8c-2.5,4.4-5,8.8-7.5,13.1
		c-10.2,17.7-20.7,36.1-31.1,54c13.6,15.3,21.4,34.9,21.9,55.3l0,0.2l0,0.2c-0.1,1.5-0.2,3-0.3,4.4c-0.1,2.3-0.3,4.7-0.5,7
		c-4.2,40.4-42.4,74.6-83.4,74.6c-0.8,0-1.6,0-2.4,0c-39.7-1.4-71.5-26.8-81-64.6l0,0l0,0c0,0,0-0.1,0-0.1h-76.8
		c10.1,79.9,78.2,140.1,158.7,140.1c6.4,0,12.8-0.4,19.2-1.1c0.4-0.1,0.7-0.1,1-0.1c0.1,0,0.3,0,0.4,0l0.1,0l0.1,0
		c31.3-4,60.5-17.1,84.4-37.7c23.9-20.6,41-47.6,49.6-78c6.2-21.1,7.7-43.3,4.6-65l-2.1,3.6c-9.2,16.1-17.9,31.3-26.6,46.7l-0.7,1.1
		l-0.5,0.2c-0.6,0.9-2,2.6-4.6,2.6h-23.3h-6.8l3.3-5.9l8.2-14.8l0.1-0.1l0.1-0.1c0.3-0.4,0.6-0.8,0.9-1.3c0.5-0.8,1-1.5,1.4-2.1
		c25.8-44.3,51.3-88.6,75.9-131.4c1.7-3.6,5.4-6,9.4-6c0.1,0,0.2,0,0.2,0c5.7-0.2,11-2.7,14.9-6.8c3.9-4.2,5.9-9.6,5.8-15.3
		c-0.2-2.3-0.7-4.6-1.5-6.9C-42.6,289.4-50.8,283.8-59.7,283.8z M-46.3,305.9L-46.3,305.9c-0.4,7.2-5.8,12.7-12.9,13.3l-0.1,0
		l-0.1,0l-0.3,0c-7.5,0-13.5-5.8-13.6-13.2l0,0v0v-0.8V305l0-0.1c0.3-7.4,6.1-13.2,13.4-13.4l0.1,0l0.1,0
		C-51.9,291.8-46,298.2-46.3,305.9L-46.3,305.9z"/>
	<path d="M-348.3,161.9c-3.6,0-7.1,0-10.7,0c-4.5,0-9.1,0-13.6,0c-5.1,0-9.5,0-13.6-0.1c0,0.1,0,0.1,0,0.2v65.4
		c8-13.8,16-27.7,23.8-41.2C-357.8,178.2-353.1,170.1-348.3,161.9z"/>
</g>
<path class="st1" d="M930.8,95.2l0.2,0c6.1,0,11.2-4.8,11.6-10.8l0-0.3c0-0.2,0.1-0.4,0.1-0.6c0.1-6.5-5.1-11.8-11.6-11.9l-0.2,0
	c-6.4,0-11.6,5.1-11.7,11.6C919.1,89.6,924.3,95.1,930.8,95.2z"/>
<path class="st1" d="M672.4,306.8c0.1-3.1-1-6.1-3.1-8.3c-2.1-2.2-5-3.5-8-3.6l-0.8,0c-6.4,0-11.6,5.2-11.6,11.5v0.4
	c0.1,6.2,4.9,11.1,11.1,11.4l0.4,0c0.2,0,0.4,0.1,0.6,0.1C667.2,318.3,672.4,313.1,672.4,306.8z"/>
<path class="st1" d="M992.1,317.2l0.3,0c6-0.5,10.7-5.3,11-11.4l2,0.1l-2-0.1l0,0c0.2-6.5-4.8-12-11.3-12.3l-0.1,0l-0.1,0
	c-6.3,0.2-11.3,5.2-11.5,11.5l0,0.9C980.7,312.3,985.8,317.2,992.1,317.2z"/>
<path d="M469.1,92c2.4,3.9,2.3,8.9-0.1,12.8c-23.5,40.6-47.1,81.6-70,121.2l-0.2,0.3L378.2,262c-10.7,18.4-21.3,36.9-31.9,55.3
	l-1.2,2c-9.8,17-19.7,34.1-29.5,51.1c2.8,0,5.5,0.1,8.3,0.1l0.3,0c5.9,0.1,11.9,0.1,17.8,0.1c6.6,0,12.4-0.1,17.6-0.3
	c0.8,0,1.6,0,2.3,0c11.6,0,22.9,2.9,32.9,8.3c2.5-4.5,5.1-8.9,7.6-13.2l0.1-0.1c1.5-2.6,3-5.2,4.5-7.8c14.2-24.5,28.3-49,42.5-73.5
	c14.2-24.5,28.4-49,42.5-73.5l16.8-29.1c3.1-5.4,6.4-11.1,10.2-17.7h-58.6c-1.8,0-6.1,0-8.3-3.7c-2.2-3.7-0.1-7.5,0.8-9.1l0.1-0.1
	c6.5-11.1,15-25.7,23.4-40.7c2.2-4.6,6.8-7.6,11.8-7.6h0l0.3,0c7-0.1,13.5-4.7,16-11.3l0.2-0.4c3.2-6.7,2-14.6-2.9-20.1l-0.1-0.2
	c-3.7-4.6-9.1-7.1-14.9-7.1c-3.7,0-7.4,1.1-10.5,3.2C467.6,72.2,464.6,83,469.1,92z M486.6,67.5l0.3,0c8.7,0.2,15.6,7.3,15.5,16
	c0,0.4,0,0.9-0.1,1.3c-0.6,8.1-7.4,14.4-15.6,14.4l-0.3,0c-8.7-0.2-15.6-7.4-15.5-16.2C471,74.3,477.9,67.5,486.6,67.5z"/>
<path class="st2" d="M910,94c1.6,2.6,1.6,6.1-0.1,8.7c-23.6,40.7-47.2,81.6-70,121.2L819.1,260c-10.7,18.4-21.3,36.9-31.9,55.3
	l-1.2,2c-10.4,18-20.8,36.1-31.2,54.1l-1.7,3l3.4,0c3.9,0,7.8,0.1,11.7,0.1l0.3,0c5.8,0.1,11.9,0.1,17.8,0.1
	c6.6,0,12.5-0.1,17.8-0.3c12.3-0.4,24.4,2.6,34.8,8.7l1.8,1l1-1.8c2.8-5,5.7-10,8.6-14.9l0.1-0.1c1.5-2.6,3-5.2,4.5-7.8
	c14.1-24.5,28.3-49,42.5-73.5c14.2-24.5,28.4-49,42.5-73.5l16.8-29.1c3.6-6.2,7.4-12.8,12-20.7l1.7-3h-65.6c-1.9,0-3.9-0.1-4.8-1.7
	c-0.9-1.6-0.1-3.4,0.9-5.1c6.5-11.1,15.1-25.8,23.5-40.8l0.1-0.1c1.5-3.2,4.7-5.3,8.2-5.3h0l0.3,0c8.7-0.1,16.7-5.7,19.8-13.9
	l0.1-0.1c3.9-8.2,2.5-17.8-3.6-24.5l-0.1-0.1c-4.4-5.4-11-8.5-17.9-8.5c-4.5,0-8.9,1.3-12.7,3.8c-10.2,6.5-13.8,19.6-8.4,30.4
	L910,94z M931.1,63.5c5.8,0,11.2,2.6,14.9,7.1l0.1,0.2c5,5.5,6.1,13.4,2.9,20.1l-0.2,0.4c-2.5,6.7-9,11.2-16,11.3l-0.3,0h0
	c-5,0-9.6,3-11.8,7.6c-8.4,15-16.9,29.6-23.4,40.7l-0.1,0.1c-0.9,1.6-3,5.4-0.8,9.1c2.2,3.7,6.4,3.7,8.3,3.7h58.6
	c-3.8,6.6-7.1,12.3-10.2,17.7l-16.8,29.1c-14.2,24.5-28.3,49-42.5,73.5c-14.2,24.5-28.3,49-42.5,73.5c-1.5,2.6-3,5.2-4.5,7.8
	l-0.1,0.1c-2.5,4.3-5.1,8.7-7.6,13.2c-10-5.5-21.3-8.3-32.9-8.3c-0.8,0-1.6,0-2.3,0c-5.3,0.2-11,0.3-17.6,0.3
	c-5.9,0-11.9-0.1-17.8-0.1l-0.3,0c-2.7,0-5.5-0.1-8.3-0.1c9.9-17,19.7-34.1,29.5-51.1l1.2-2c10.6-18.4,21.3-36.9,31.9-55.3
	l20.6-35.8l0.2-0.3c22.8-39.6,46.5-80.6,70-121.2c2.4-3.9,2.5-8.9,0.1-12.8c-4.5-9-1.5-19.8,7.1-25.2
	C923.7,64.6,927.3,63.5,931.1,63.5z"/>
<path class="st2" d="M930.7,99.2l0.3,0c8.2,0,15-6.3,15.6-14.4c0.1-0.4,0.1-0.9,0.1-1.3c0.1-8.6-6.8-15.8-15.5-16l-0.3,0
	c-8.7,0-15.6,6.8-15.7,15.5C915.1,91.8,922,99,930.7,99.2z M930.9,71.5l0.2,0c6.5,0.1,11.7,5.5,11.6,11.9c0,0.2,0,0.4-0.1,0.6l0,0.3
	c-0.3,6.1-5.4,10.8-11.6,10.8l-0.2,0c-6.5-0.1-11.7-5.6-11.6-12.1C919.4,76.6,924.5,71.5,930.9,71.5z"/>
<path d="M215.3,287.2c-1.4,0.1-2.6,0.3-3.6,0.5c-10.5,2.5-17,13-14.5,23.4l0,0.2c1.5,7.4,7.3,13,14.8,14.4l0.5,0.1
	c1.5,0.4,3,0.6,4.5,0.6c5.9,0,11.4-3,14.7-8l0.3-0.4c4.5-5.7,5.2-13.6,1.7-20.1c-2.4-3.9-2.4-8.9,0.1-12.7
	c8-13.4,16.1-27.6,24.3-42.3c1.9-4,5.9-6.5,10.3-6.5h0c0.3,0,0.7,0,1,0c6.1,0.1,12.7,0.1,20.8,0.1c4.6,0,9.2,0,13.8,0
	c4.6,0,9.2,0,13.8,0c8.2,0,19,0,29.9,0.2l0.5,0c5.8,0,7.7-1.1,10.4-6c10.6-19.4,22.2-39.1,33.3-58.1l0.6-1c1.5-2.6,3-5.1,4.5-7.7
	h-48.7c-4.5,0-9,0-13.5,0l-1,0c-4.2,0-8.4,0-12.5,0c-10.9,0-19.3,0-27.1-0.1l-0.6,0c0,0,0,0,0,0c-0.3,0-0.4,0.1-0.5,0.2l-0.3,0.6
	c-22.6,39.1-45.1,78.2-66.9,116.1C224.1,284.8,219.8,287.4,215.3,287.2z M232.1,306.8c0,8.5-7,15.5-15.6,15.5c-0.4,0-0.9,0-1.3-0.1
	c-8.3-0.4-14.6-6.9-14.7-15.3l0-0.5c0-8.5,7-15.5,15.6-15.5l0.9,0c4.1,0.1,8,1.8,10.9,4.8C230.7,298.7,232.2,302.7,232.1,306.8z"/>
<path class="st2" d="M655.7,329.6l0.2,0c1.8,0.5,3.6,0.7,5.5,0.7c7.3,0,14-3.7,18-9.8l0.1-0.1c5.5-7,6.4-16.6,2.1-24.6l-0.1-0.1
	c-1.6-2.6-1.6-5.9,0.1-8.5c8-13.5,16.3-27.8,24.4-42.5l0.1-0.1c1.3-2.6,3.8-4.3,6.7-4.3h0c0.2,0,0.5,0,0.7,0l0.2,0
	c6.1,0.1,12.8,0.1,20.9,0.1c4.6,0,9.2,0,13.8,0c4.6,0,9.2,0,13.8,0c8.1,0,18.9,0,29.9,0.2l0.5,0c7.2,0,10.5-1.9,13.9-8.1
	c10.6-19.4,22.1-39,33.3-58l0.6-1c2.1-3.6,4.2-7.1,6.3-10.7l1.8-3h-55.6c-4.5,0-9,0-13.5,0l-1,0c-4.2,0-8.4,0-12.5,0
	c-10.9,0-19.2,0-27-0.1l-0.2,0c-2-0.2-3.8,0.8-4.5,2.5l-0.1,0.2c-22.6,39.1-45.1,78.3-66.9,116.2l-0.1,0.2c-1.2,2.7-4,4.4-7.1,4.2
	l-0.1,0l-0.1,0c-1.7,0.1-3.1,0.3-4.4,0.6c-12.5,3-20.4,15.6-17.4,28.3C639.5,321.1,646.6,328,655.7,329.6z M737.5,164
	c0,0,0.2-0.2,0.5-0.2c0,0,0,0,0,0l0.6,0c7.8,0.1,16.2,0.1,27.1,0.1c4.2,0,8.4,0,12.5,0l1,0c4.5,0,9,0,13.5,0h48.7
	c-1.5,2.6-3,5.1-4.5,7.7l-0.6,1c-11.2,19-22.7,38.6-33.3,58.1c-2.7,4.9-4.6,6-10.4,6l-0.5,0c-11-0.2-21.8-0.2-29.9-0.2
	c-4.6,0-9.2,0-13.8,0c-4.6,0-9.2,0-13.8,0c-8.1,0-14.7,0-20.8-0.1c-0.3,0-0.7,0-1,0h0c-4.4,0-8.3,2.5-10.3,6.5
	c-8.2,14.7-16.4,28.9-24.3,42.3c-2.5,3.8-2.6,8.8-0.1,12.7c3.5,6.5,2.8,14.4-1.7,20.1l-0.3,0.4c-3.3,5-8.8,8-14.7,8
	c-1.5,0-3-0.2-4.5-0.6l-0.5-0.1c-7.5-1.4-13.3-7-14.8-14.4l0-0.2c-2.4-10.5,4-20.9,14.5-23.4c1-0.2,2.1-0.4,3.6-0.5
	c4.6,0.2,8.8-2.4,10.7-6.5c21.8-37.9,44.3-77.1,66.9-116.1L737.5,164z"/>
<path class="st2" d="M660.4,290.9c-8.6,0-15.6,7-15.6,15.5l0,0.5c0.2,8.3,6.5,14.9,14.7,15.3c0.4,0.1,0.8,0.1,1.3,0.1
	c8.6,0,15.6-7,15.6-15.5c0.1-4.1-1.4-8.1-4.2-11.1c-2.9-3-6.7-4.7-10.9-4.8L660.4,290.9z M660.3,318.2l-0.4,0
	c-6.2-0.2-10.9-5.1-11.1-11.4v-0.4c0-6.3,5.2-11.5,11.6-11.5l0.8,0c3.1,0.1,5.9,1.3,8,3.6c2.1,2.2,3.2,5.2,3.1,8.3
	c0,6.4-5.2,11.5-11.6,11.5C660.6,318.3,660.4,318.3,660.3,318.2z"/>
<path d="M537.5,331.7c2.1-4.3,6.5-7,11.2-7l0.2,0c5.2-0.2,9.9-2.4,13.4-6.2c3.5-3.8,5.4-8.7,5.2-13.8c-0.2-2-0.6-4.2-1.4-6.3
	c-2.9-7.4-10.4-12.5-18.6-12.5c-2.4,0-4.8,0.4-7.1,1.3c-0.1,0-0.2,0.1-0.4,0.1l0,0c-9.9,4.2-14.5,15.7-10.3,25.5l0,0.1
	c0.1,0.2,0.2,0.5,0.4,0.7c2.4,3.8,2.4,9.1-0.2,13c-4.4,7.5-8.7,15.1-13,22.6c-4.4,7.6-8.7,15.1-13.1,22.7l-0.1,0.1
	c-0.5,1.3-1.9,4.6-6.2,5.6l-4.2,1l-4.9-7.7c-8.4-13.4-18.8-25.4-30.9-35.8l-6.3,11.1c-9.9,17.3-20.2,35.2-30.4,52.8
	c13.3,15.5,20.9,35.2,21.4,55.5l0,0.3l0,0.3c-0.1,1.4-0.2,2.9-0.3,4.3l0,0.1c-0.1,2.3-0.3,4.7-0.5,7.1C437.1,508,398,543,356.1,543
	c-0.8,0-1.7,0-2.5,0c-40.2-1.4-72.4-26.8-82.6-64.8h-73c11,77.7,77.8,136.1,156.4,136.1c6.3,0,12.6-0.4,18.9-1.1
	c0.4-0.1,0.8-0.1,1.1-0.1l0.6-0.1c30.9-4,59.7-16.8,83.3-37.2c23.6-20.4,40.5-47,48.9-77c5.5-18.7,7.3-38.7,5.3-58.2
	c-8.4,14.8-17.2,30.1-25.7,45.1l-1,1.7l-0.6,0.2c-1.9,2.4-4.2,3-5.9,3h-33.5l13.4-24.1c0.3-0.4,0.6-0.8,0.9-1.3c0.5-0.7,1-1.4,1.3-2
	C487.5,418.7,513,374.5,537.5,331.7z M532.2,304.9c0.3-8.5,6.9-15.1,15.4-15.4l0.2,0l0.2,0c8.7,0.3,15.5,7.7,15.2,16.4l0,0.1
	c-0.5,8.1-6.7,14.5-14.7,15.2l-0.6,0c-8.6,0-15.5-6.7-15.6-15.2V304.9z"/>
<path class="st2" d="M1015.9,304.5c-0.2-2.4-0.7-4.9-1.6-7.5c-3.6-9-12.5-15.1-22.3-15.1c-2.9,0-5.8,0.5-8.7,1.6
	c-0.1,0-0.2,0.1-0.2,0.1l-0.2,0.1c-11.9,5.1-17.5,18.9-12.4,30.8c0.2,0.4,0.4,0.9,0.7,1.3c1.7,2.6,1.6,6.1-0.2,8.7l-0.1,0.1
	c-4.4,7.6-8.7,15.1-13.1,22.6c-4.4,7.6-8.7,15.1-13.2,22.8l0,0.1c-0.1,0.1-0.1,0.2-0.2,0.5c-0.4,0.9-1.1,2.7-3.4,3.2l-1.4,0.3
	l-3.4-5.3c-9-14.4-20.3-27.3-33.6-38.3l-1.8-1.5l-8.7,15.2c-10.2,17.7-20.6,36-31.1,54l-0.7,1.3l1,1.1c13.3,15,20.9,34.2,21.4,54.1
	l0,0.1l0,0.1c-0.1,1.4-0.2,2.9-0.3,4.3l0,0.1c-0.1,2.3-0.3,4.6-0.5,6.9c-4.1,39.5-41.4,72.8-81.4,72.8c-0.8,0-1.6,0-2.4,0
	c-38.8-1.4-69.9-26.1-79.2-63.2l-0.4-1.6h-80.6l0.3,2.3c10.2,80.9,79.3,141.8,160.7,141.8c6.4,0,13-0.4,19.4-1.2l0.1,0
	c0.3-0.1,0.6-0.1,0.9-0.1c0.2,0,0.3,0,0.5-0.1l0.1,0c31.7-4.1,61.3-17.3,85.4-38.2c24.2-20.9,41.6-48.2,50.2-79
	c6.2-21.2,7.8-43.9,4.6-65.8l-0.8-5.8l-5,8.7c-8.7,15.3-17.8,31.1-26.6,46.7l-0.3,0.6l-0.4,0.2l-0.3,0.5c-0.8,1.1-1.7,1.7-2.9,1.7
	h-26.7l9.8-17.8l0.1-0.1c0.3-0.4,0.5-0.8,0.8-1.2c0.5-0.8,1.1-1.5,1.5-2.3c25.8-44.4,51.3-88.6,75.9-131.4l0.1-0.1
	c1.4-2.9,4.4-4.8,7.6-4.8l0.2,0l0.1,0c6.2-0.3,12-2.9,16.2-7.4C1013.9,316.7,1016.1,310.8,1015.9,304.5z M903.8,466.4l-13.4,24.1
	h33.5c1.7,0,4-0.5,5.9-3l0.6-0.2l1-1.7c8.5-15,17.2-30.3,25.7-45.1c2,19.5,0.2,39.5-5.3,58.2c-8.4,30-25.3,56.7-48.9,77
	c-23.6,20.4-52.4,33.3-83.3,37.2l-0.6,0.1c-0.3,0-0.7,0.1-1.1,0.1c-6.3,0.7-12.6,1.1-18.9,1.1c-78.6,0-145.5-58.3-156.4-136.1h73
	c10.1,38,42.4,63.4,82.6,64.8c0.8,0,1.7,0,2.5,0c42,0,81.1-35,85.4-76.4c0.3-2.4,0.4-4.8,0.5-7.1l0-0.1c0.1-1.4,0.2-2.8,0.3-4.3
	l0-0.3l0-0.3c-0.5-20.4-8.1-40-21.4-55.5c10.2-17.6,20.5-35.5,30.4-52.8l6.3-11.1c12.1,10.4,22.5,22.4,30.9,35.8l4.9,7.7l4.2-1
	c4.2-1,5.6-4.3,6.2-5.6l0.1-0.1c4.4-7.6,8.8-15.2,13.1-22.7c4.3-7.5,8.7-15,13-22.6c2.6-3.9,2.7-9.2,0.2-13
	c-0.1-0.2-0.3-0.5-0.4-0.7l0-0.1c-4.2-9.9,0.5-21.3,10.3-25.5l0,0c0.1,0,0.3-0.1,0.4-0.1c2.3-0.9,4.7-1.3,7.1-1.3
	c8.1,0,15.6,5.1,18.6,12.5c0.7,2.2,1.2,4.3,1.4,6.3c0.2,5.1-1.7,10.1-5.2,13.8c-3.5,3.8-8.3,6-13.4,6.2l-0.2,0
	c-4.7,0-9.1,2.8-11.2,7c-24.6,42.8-50.1,87-75.9,131.4c-0.4,0.6-0.8,1.3-1.3,2C904.4,465.5,904.1,466,903.8,466.4z"/>
<path class="st2" d="M992.2,321.2l0.6,0c8-0.6,14.2-7,14.7-15.2l0-0.1c0.3-8.7-6.5-16.1-15.2-16.4l-0.2,0l-0.2,0
	c-8.4,0.3-15,6.9-15.4,15.4v1.1C976.7,314.5,983.6,321.2,992.2,321.2z M980.5,305c0.2-6.3,5.2-11.3,11.5-11.5l0.1,0l0.1,0
	c6.5,0.2,11.6,5.7,11.3,12.3l0,0l2,0.1l-2-0.1c-0.4,6.1-5,10.9-11,11.4l-0.3,0c-6.4,0-11.5-4.9-11.6-11.3L980.5,305z"/>
<path d="M243.2,185.3c4.1-7.1,8.2-14.2,12.4-21.4c-2.4,0-4.8,0-7.2,0c-4.5,0-9.1,0-13.6,0c-4.3,0-8.1,0-11.6-0.1V220
	c6.7-11.6,13.3-23.1,19.9-34.4L243.2,185.3z"/>
<path class="st2" d="M690.9,187.6l0.2-0.3c4.7-8.1,9.4-16.2,14.1-24.4l1.7-3l-3.5,0c-3.6,0-7.1,0-10.7,0c-4.5,0-9.1,0-13.6,0
	c-5.1,0-9.5,0-13.6-0.1l-2,0l0,75.1l3.7-6.5C675.2,214.8,683.1,201,690.9,187.6z M667.5,163.9c3.5,0,7.3,0.1,11.6,0.1
	c4.5,0,9.2,0,13.6,0c2.4,0,4.8,0,7.2,0c-4.1,7.2-8.3,14.3-12.4,21.4l-0.2,0.3c-6.5,11.3-13.2,22.9-19.9,34.4V163.9z"/>
<path d="M639.1,158c-1.8,0-3.5,0-5.3,0c0.7,0,1.3,0,2,0C636.9,158,638,158,639.1,158z"/>
<path class="st0" d="M218.6,244.2l-2-0.7c-1.4-0.5-2.9-1.7-2.5-4.5c0-0.1,0-0.1,0-0.2l0-76.7c0-1.8,0.1-3.8,1.6-5.3
	c1.4-1.4,3.4-1.5,5-1.4c9,0.1,18.2,0.1,27.1,0c4.5,0,9,0,13.5,0l0.2,0c0.3,0,0.7,0.1,1.1,0.1c0.7,0.1,1.6,0.2,2.7,0.3l4.1,0.2
	l-2,3.5c-5.8,10.1-11.7,20.2-17.4,30.2c-10,17.2-20.3,35.1-30.4,52.6L218.6,244.2z M219.3,160.5c-0.1,0.2-0.1,0.7-0.1,1.6v71
	c8.8-15.3,17.8-30.8,26.5-45.9c5.2-8.9,10.3-17.8,15.5-26.8c-4.4,0-8.9,0-13.3,0c-8.9,0-18.1,0.1-27.2,0
	C219.9,160.4,219.5,160.4,219.3,160.5z"/>
<g>
	
		<linearGradient id="SVGID_1_" gradientUnits="userSpaceOnUse" x1="1897.3822" y1="199.3932" x2="1897.3822" y2="531.9199" gradientTransform="matrix(1 0 0 -1 0 752)">
		<stop  offset="0" style="stop-color:#F92AFF"/>
		<stop  offset="8.729889e-02" style="stop-color:#EE31FF"/>
		<stop  offset="0.239" style="stop-color:#D243FF"/>
		<stop  offset="0.437" style="stop-color:#A461FF"/>
		<stop  offset="0.6736" style="stop-color:#648BFF"/>
		<stop  offset="0.9402" style="stop-color:#13C0FF"/>
		<stop  offset="1" style="stop-color:#00CCFF"/>
	</linearGradient>
	<path class="st3" d="M2008.4,322.5c-5.4,9.4-10.3,17.9-15.3,26.5l-16.8,29.1c-28.3,49-56.7,98-85,147c-4.5,7.8-9.1,15.5-13.5,23.4
		c-1.3,2.4-2.3,2.6-4.6,1.2c-10.3-6.2-22.2-9.2-34.3-8.8c-17.8,0.6-35.7,0-53.4,0c-1.1-1.3,0-2.1,0.5-2.8
		c22.1-38.2,44.1-76.4,66.2-114.6c30.3-52.5,60.5-104.9,90.9-157.4c1.3-2,1.3-4.7,0-6.7c-6-11.7-2.1-26.1,9-33.2
		c10.8-7.1,25.1-4.9,33.3,5.1c6.6,7.3,8.1,17.8,3.9,26.7c-3.4,9-12.1,15.1-21.7,15.2c-2.9-0.1-5.5,1.6-6.7,4.3
		c-7.7,13.8-15.6,27.4-23.6,41c-1.8,3.2-1.3,3.8,2.2,3.8c21,0,42.1,0,63.2,0L2008.4,322.5z M1975.6,248c0.1-5.4-4.2-9.8-9.6-9.9
		c-5.4-0.1-9.8,4.2-9.9,9.6c-0.1,5.4,4.2,10,9.6,10.1c0.1,0,0.2,0,0.2,0c5.3,0,9.6-4.3,9.6-9.5
		C1975.6,248.1,1975.6,248.1,1975.6,248z"/>
	
		<linearGradient id="SVGID_2_" gradientUnits="userSpaceOnUse" x1="1777.6538" y1="253.082" x2="1777.6538" y2="431.6051" gradientTransform="matrix(1 0 0 -1 0 752)">
		<stop  offset="0" style="stop-color:#F92AFF"/>
		<stop  offset="8.729889e-02" style="stop-color:#EE31FF"/>
		<stop  offset="0.239" style="stop-color:#D243FF"/>
		<stop  offset="0.437" style="stop-color:#A461FF"/>
		<stop  offset="0.6736" style="stop-color:#648BFF"/>
		<stop  offset="0.9402" style="stop-color:#13C0FF"/>
		<stop  offset="1" style="stop-color:#00CCFF"/>
	</linearGradient>
	<path class="st4" d="M1827.5,322.5c18.3,0,36.5,0,54.8,0c3.6,0,3.8,0.8,2.1,3.8c-14,23.9-28.3,47.8-41.4,71.8
		c-4,7.3-8.3,9.2-16.2,9.1c-26.2-0.5-52.3,0-78.5-0.3c-2.4-0.3-4.6,1-5.6,3.2c-8,14.4-16.2,28.7-24.6,42.8c-1.3,1.9-1.3,4.4,0,6.4
		c4.7,8.6,3.9,19.2-2.2,26.9c-5.6,8.5-15.9,12.5-25.7,9.9c-9.8-1.8-17.6-9.3-19.6-19.1c-3.2-13.7,5.3-27.4,18.9-30.6
		c1.6-0.4,3.3-0.6,5-0.7c2.3,0.2,4.5-1.1,5.4-3.2c22.3-38.8,44.6-77.6,67-116.4c1.1-2.5,3.8-4,6.6-3.7
		C1791.5,322.7,1809.5,322.5,1827.5,322.5z M1695.7,480.9c5.3,0,9.6-4.3,9.6-9.6c0.2-5.3-4-9.7-9.2-9.8c-0.3,0-0.5,0-0.8,0
		c-5.3,0-9.6,4.3-9.6,9.5c0,0.1,0,0.3,0,0.4c0.1,5.3,4.4,9.5,9.7,9.4C1695.5,480.9,1695.6,480.9,1695.7,480.9z"/>
	
		<linearGradient id="SVGID_3_" gradientUnits="userSpaceOnUse" x1="1861.8081" y1="-34.9199" x2="1861.8081" y2="309.5446" gradientTransform="matrix(1 0 0 -1 0 752)">
		<stop  offset="0" style="stop-color:#F92AFF"/>
		<stop  offset="8.729889e-02" style="stop-color:#EE31FF"/>
		<stop  offset="0.239" style="stop-color:#D243FF"/>
		<stop  offset="0.437" style="stop-color:#A461FF"/>
		<stop  offset="0.6736" style="stop-color:#648BFF"/>
		<stop  offset="0.9402" style="stop-color:#13C0FF"/>
		<stop  offset="1" style="stop-color:#00CCFF"/>
	</linearGradient>
	<path class="st5" d="M2051.1,460.9c-5.2-13.3-20.3-19.9-33.6-14.7c-0.2,0.1-0.4,0.1-0.5,0.2c-12.9,5.5-19,20.4-13.5,33.4
		c0.2,0.5,0.5,1.1,0.8,1.6c1.3,2,1.2,4.7-0.2,6.7c-8.8,15.2-17.5,30.3-26.3,45.5c-0.6,1-0.7,2.5-2.4,2.9l-2.6-4.1
		c-9.4-15-21.3-28.4-35-39.6c-1.8-1.4-2.8-2.1-4.2,0.5c-13.2,23-26.4,46.1-39.7,69c-0.7,1.2-1.1,2.1,0,3.4
		c13.4,14.7,21.1,33.7,21.6,53.6c-0.3,3.8-0.4,7.6-0.8,11.3c-4.1,39.6-42,72.3-81.7,71c-37.1-1.3-68-24.6-77.3-61.6
		c-0.5-2.2-1.3-3.2-3.7-3.2c-26,0-52.1,0-78.1,0c-2.9,0-3.2,1-3,3.6c10.9,90,92.6,154.1,182.6,143.3c0.5-0.1,1.1-0.1,1.6-0.2
		c65.4-8.4,119.5-55.1,137.3-118.6c7.4-25.3,8.3-51.9,2.7-77.6c-11.8,20.7-23,40.3-34.1,59.9c-0.9,0.4-0.9,1.9-2.2,1.9h-23.3
		l8.2-14.8c0.8-1.2,1.7-2.4,2.4-3.6c25.5-43.9,50.8-87.7,76-131.6c1.1-2.4,3.5-3.9,6.1-3.8c14.1-0.5,25.1-12.3,24.6-26.3
		C2052.6,466.2,2052,463.5,2051.1,460.9z M2027.2,479.8c-5.3,0.1-9.7-4-9.8-9.3c0-0.3,0-0.5,0-0.8c0.2-5.2,4.3-9.4,9.6-9.6
		c5.4,0.2,9.6,4.8,9.4,10.2C2036.1,475.4,2032.2,479.4,2027.2,479.8z"/>
	
		<linearGradient id="SVGID_4_" gradientUnits="userSpaceOnUse" x1="1721.2892" y1="343.8214" x2="1721.2892" y2="431.4732" gradientTransform="matrix(1 0 0 -1 0 752)">
		<stop  offset="0" style="stop-color:#F92AFF"/>
		<stop  offset="8.729889e-02" style="stop-color:#EE31FF"/>
		<stop  offset="0.239" style="stop-color:#D243FF"/>
		<stop  offset="0.437" style="stop-color:#A461FF"/>
		<stop  offset="0.6736" style="stop-color:#648BFF"/>
		<stop  offset="0.9402" style="stop-color:#13C0FF"/>
		<stop  offset="1" style="stop-color:#00CCFF"/>
	</linearGradient>
	<path class="st6" d="M1745,322.9c-16.1,27.9-32,55.3-47.8,82.8c-1.4-0.5-0.8-1.5-0.8-2.3c0-25.5,0-51.1,0-76.7c0-3.2,0.6-4.3,4-4.2
		c13.6,0.2,27.2,0,40.7,0C1742.1,322.5,1743.2,322.8,1745,322.9z"/>
</g>
<path class="st1" d="M1469,297.8c0.3,0.6,0.6,1.1,1,1.6c0.8,1,1.8,1.8,2.9,2.5c1.4,0.8,3,1.3,4.7,1.3c0.1,0,0.2,0,0.2,0
	c0.2,0,0.4,0,0.7,0c0.1,0,0.2,0,0.3,0c0.2,0,0.4-0.1,0.5-0.1s0.3,0,0.4-0.1c0.2,0,0.3-0.1,0.5-0.1s0.3-0.1,0.5-0.1
	c0.3-0.1,0.6-0.2,0.9-0.3l0,0c2.5-1.1,4.5-3.2,5.3-5.8c0-0.1,0-0.1,0.1-0.2c0.2-0.5,0.3-1.1,0.3-1.6c0.1-0.4,0.1-0.8,0.1-1.2
	c0-0.1,0-0.2,0-0.2c0.1-3.4-1.6-6.3-4.1-8.1c-0.5-0.4-1.1-0.7-1.6-0.9s-1.2-0.5-1.8-0.6c-0.6-0.1-1.3-0.2-2-0.2c-0.2,0-0.4,0-0.6,0
	s-0.3,0-0.5,0s-0.3,0-0.5,0.1c-0.2,0-0.3,0-0.5,0.1c-0.2,0-0.3,0.1-0.5,0.1c-0.1,0-0.3,0.1-0.4,0.1c-0.2,0-0.3,0.1-0.5,0.2
	c-0.1,0-0.3,0.1-0.4,0.2c-0.2,0.1-0.3,0.1-0.5,0.2c-0.1,0.1-0.3,0.1-0.4,0.2s-0.3,0.2-0.4,0.3c-0.1,0.1-0.3,0.1-0.4,0.2
	s-0.3,0.2-0.4,0.3c-0.1,0.1-0.2,0.2-0.3,0.3c-0.1,0.1-0.3,0.2-0.4,0.3c-0.1,0.1-0.2,0.2-0.3,0.3c-0.1,0.1-0.2,0.2-0.3,0.4
	c-0.1,0.1-0.2,0.2-0.3,0.3c-0.1,0.1-0.2,0.3-0.3,0.4c-0.1,0.1-0.2,0.2-0.3,0.3c-0.1,0.1-0.2,0.3-0.3,0.4c-0.1,0.1-0.1,0.2-0.2,0.3
	c-0.1,0.2-0.2,0.3-0.2,0.5c-0.1,0.1-0.1,0.2-0.2,0.4c-0.1,0.2-0.1,0.3-0.2,0.5c0,0.1-0.1,0.2-0.1,0.4c-0.1,0.2-0.1,0.4-0.2,0.6
	c0,0.1-0.1,0.2-0.1,0.4c0,0.2-0.1,0.4-0.1,0.6c0,0.1,0,0.2-0.1,0.3c0,0.3-0.1,0.7-0.1,1C1467.9,294.8,1468.3,296.4,1469,297.8z"/>
<path class="st1" d="M1197.5,516.8c0,0.3,0,0.7,0.1,1c0,0.1,0,0.2,0.1,0.3c0,0.2,0.1,0.4,0.1,0.6c0,0.1,0.1,0.3,0.1,0.4
	c0,0.2,0.1,0.4,0.1,0.5s0.1,0.3,0.1,0.4c0.1,0.2,0.1,0.3,0.2,0.5c0.1,0.1,0.1,0.3,0.2,0.4c0.1,0.1,0.1,0.3,0.2,0.4
	c0.1,0.1,0.2,0.2,0.2,0.4c0.1,0.1,0.2,0.3,0.3,0.4c0.1,0.1,0.2,0.2,0.3,0.4c0.1,0.1,0.2,0.2,0.3,0.4c0.1,0.1,0.2,0.2,0.3,0.3
	c0.1,0.1,0.2,0.2,0.3,0.3c0.1,0.1,0.2,0.2,0.3,0.3c0.1,0.1,0.2,0.2,0.3,0.3c0.1,0.1,0.2,0.2,0.4,0.3c0.1,0.1,0.2,0.2,0.4,0.3
	c0.1,0.1,0.3,0.2,0.4,0.2c0.1,0.1,0.3,0.2,0.4,0.2c0.1,0.1,0.3,0.1,0.4,0.2c0.1,0.1,0.3,0.1,0.4,0.2c0.1,0.1,0.3,0.1,0.4,0.2
	c0.1,0.1,0.3,0.1,0.5,0.2c0.1,0,0.3,0.1,0.4,0.1c0.2,0,0.3,0.1,0.5,0.1c0.1,0,0.3,0,0.5,0.1c0.2,0,0.3,0.1,0.5,0.1s0.3,0,0.5,0
	s0.4,0,0.6,0l0,0c0.1,0,0.3,0,0.4,0c3.3,0,6.2-1.7,7.9-4.2c0.2-0.3,0.3-0.5,0.5-0.8c0.3-0.5,0.5-1.1,0.7-1.7
	c0.3-0.9,0.4-1.9,0.4-2.8c0.2-5.3-4-9.7-9.2-9.8c-0.3,0-0.5,0-0.8,0c-0.2,0-0.4,0-0.5,0s-0.3,0-0.4,0c-0.2,0-0.4,0.1-0.6,0.1
	c-0.1,0-0.2,0-0.4,0.1c-0.2,0-0.4,0.1-0.6,0.2c-0.1,0-0.2,0-0.3,0.1c-0.2,0.1-0.4,0.2-0.6,0.2c-0.1,0-0.2,0.1-0.2,0.1
	c-0.2,0.1-0.4,0.2-0.6,0.3c-0.1,0-0.1,0.1-0.2,0.1c-0.2,0.1-0.4,0.2-0.6,0.4c-0.1,0-0.1,0.1-0.2,0.1c-0.2,0.1-0.4,0.3-0.6,0.5
	l-0.1,0.1c-0.5,0.4-0.9,0.8-1.3,1.3l0,0c-0.4,0.5-0.7,0.9-1,1.5c0,0,0,0,0,0.1c-0.1,0.2-0.2,0.4-0.3,0.7c0,0.1-0.1,0.1-0.1,0.2
	c-0.1,0.2-0.2,0.4-0.2,0.6c0,0.1-0.1,0.2-0.1,0.3c0,0.2-0.1,0.3-0.1,0.5c0,0.1-0.1,0.3-0.1,0.4c0,0.2-0.1,0.4-0.1,0.6
	c0,0.1,0,0.2-0.1,0.3c0,0.3,0,0.6-0.1,1C1197.5,516.6,1197.5,516.7,1197.5,516.8z"/>
<path class="st1" d="M1547.9,513c-0.1-0.4-0.2-0.7-0.3-1.1c-0.1-0.3-0.2-0.6-0.4-0.9c-0.4-0.9-1-1.6-1.6-2.3
	c-0.6-0.7-1.4-1.3-2.2-1.8c-1.4-0.8-2.9-1.3-4.6-1.4c-0.6,0-1.2,0.1-1.7,0.2c-0.7,0.1-1.3,0.3-1.9,0.6c-0.6,0.2-1.1,0.5-1.6,0.9
	c-0.5,0.3-1,0.7-1.4,1.2c-0.2,0.2-0.4,0.4-0.6,0.7c-0.8,0.9-1.4,2-1.8,3.2c-0.3,0.9-0.5,1.8-0.5,2.8c0,0.3,0,0.5,0,0.8
	c0,0,0,0,0,0.1c0,0.3,0,0.6,0.1,0.9c0,0.1,0,0.2,0.1,0.3c0,0.2,0.1,0.4,0.1,0.6c0,0.1,0.1,0.2,0.1,0.4s0.1,0.4,0.2,0.5
	c0,0.1,0.1,0.2,0.1,0.4c0.1,0.2,0.1,0.3,0.2,0.5c0.1,0.1,0.1,0.2,0.2,0.4s0.1,0.3,0.2,0.5c0.1,0.1,0.1,0.2,0.2,0.3s0.2,0.3,0.3,0.4
	c0.1,0.1,0.2,0.2,0.3,0.3c0.1,0.1,0.2,0.3,0.3,0.4c0.1,0.1,0.2,0.2,0.3,0.3c0.1,0.1,0.2,0.2,0.3,0.4c0.1,0.1,0.2,0.2,0.3,0.3
	c0.1,0.1,0.2,0.2,0.4,0.3c0.1,0.1,0.2,0.2,0.3,0.3c0.1,0.1,0.3,0.2,0.4,0.3s0.2,0.1,0.4,0.2c0.1,0.1,0.3,0.2,0.4,0.2
	c0.1,0.1,0.3,0.1,0.4,0.2c0.1,0.1,0.3,0.1,0.4,0.2c0.1,0.1,0.3,0.1,0.4,0.1c0.2,0.1,0.3,0.1,0.5,0.2c0.1,0,0.3,0.1,0.4,0.1
	c0.2,0,0.3,0.1,0.5,0.1c0.1,0,0.3,0,0.4,0.1c0.2,0,0.3,0,0.5,0.1c0.2,0,0.3,0,0.5,0s0.4,0,0.6,0c0.6,0,1.2-0.1,1.8-0.3
	c0.3-0.1,0.6-0.2,0.9-0.3c1.1-0.4,2.2-1,3-1.8c0.4-0.4,0.9-0.8,1.2-1.3s0.7-0.9,1-1.5c0.6-1,1-2.2,1.1-3.4c0-0.3,0.1-0.6,0.1-0.9
	C1548.2,514.8,1548.1,513.9,1547.9,513z"/>
<path d="M1448.5,365.1c0.2-0.3,0.3-0.7,0.6-1.1c8-13.6,15.8-27.3,23.6-41c-7.7,13.8-15.6,27.4-23.6,41
	C1448.9,364.4,1448.7,364.8,1448.5,365.1z"/>
<path d="M1323.8,586.7c-3,0-6-0.1-9-0.1C1317.8,586.6,1320.8,586.7,1323.8,586.7z"/>
<path d="M1474,320.9c0.1-0.2,0.3-0.3,0.4-0.4C1474.3,320.6,1474.2,320.8,1474,320.9z"/>
<path d="M1478.6,318.7c0.2,0,0.5,0,0.7,0c-0.1,0-0.2,0-0.2,0C1478.9,318.7,1478.8,318.7,1478.6,318.7z"/>
<path d="M1453.5,301.6c0.4,1.1,0.9,2.3,1.4,3.4c0.3,0.5,0.6,1.1,0.8,1.6c-0.2-0.6-0.4-1.1-0.8-1.6
	C1454.3,303.8,1453.9,302.7,1453.5,301.6z"/>
<path d="M1461.9,273.2c-1.9,1.5-3.6,3.2-5,5.1C1458.3,276.4,1460,274.7,1461.9,273.2z"/>
<path d="M1453.5,301.6c-0.7-1.9-1.1-3.8-1.3-5.8C1452.4,297.7,1452.8,299.7,1453.5,301.6z"/>
<path d="M1353,586.4c0.7,0,1.5,0,2.2,0C1354.5,586.4,1353.8,586.4,1353,586.4C1353.1,586.4,1353.1,586.4,1353,586.4z"/>
<path d="M1399.7,576.4c1.1-1.9,2.3-3.9,3.4-5.8c28.3-49,56.6-98.1,85-147c-28.3,49-56.7,98-85,147
	C1402,572.5,1400.9,574.5,1399.7,576.4z"/>
<path d="M1331.9,586.7c-2.6,0-5.2,0-7.8,0C1326.7,586.7,1329.3,586.7,1331.9,586.7z"/>
<path d="M1468.1,291.8c0-0.2,0.1-0.4,0.1-0.6C1468.1,291.4,1468.1,291.6,1468.1,291.8z"/>
<path d="M1350.7,586.5c-2.7,0.1-5.4,0.1-8.1,0.2C1345.3,586.6,1348,586.6,1350.7,586.5z"/>
<path d="M1308.3,586.5c-0.9,0-1.9,0-2.8,0C1306.5,586.5,1307.4,586.5,1308.3,586.5z"/>
<path d="M1340.2,586.7c-2,0-4,0-6,0C1336.2,586.7,1338.2,586.7,1340.2,586.7z"/>
<path d="M1471.2,286c0.1-0.1,0.2-0.2,0.4-0.3C1471.5,285.8,1471.3,285.9,1471.2,286z"/>
<path d="M1480.2,302.9c-0.2,0-0.3,0.1-0.5,0.1C1479.9,303,1480.1,302.9,1480.2,302.9z"/>
<path d="M1487.4,293.6c0-0.1,0-0.2,0-0.2C1487.4,293.5,1487.4,293.6,1487.4,293.6L1487.4,293.6z"/>
<path d="M1481.5,302.4c2.5-1.1,4.5-3.2,5.3-5.8C1486,299.3,1484.1,301.4,1481.5,302.4z"/>
<path d="M1477.8,303.2c0.2,0,0.4,0,0.7,0C1478.3,303.2,1478.1,303.2,1477.8,303.2L1477.8,303.2z"/>
<path d="M1481.5,302.4c-0.3,0.1-0.6,0.2-0.9,0.3C1481,302.7,1481.3,302.6,1481.5,302.4z"/>
<path d="M1487.3,294.9c-0.1,0.6-0.2,1.1-0.3,1.6C1487.1,296,1487.2,295.4,1487.3,294.9z"/>
<path d="M1479.3,303c-0.2,0-0.4,0.1-0.5,0.1C1479,303.1,1479.2,303.1,1479.3,303z"/>
<path d="M1479.8,283.8c-0.6-0.1-1.3-0.2-2-0.2c-0.1,0-0.1,0-0.2,0s-0.3,0-0.4,0c0.2,0,0.4,0,0.6,0
	C1478.5,283.5,1479.2,283.6,1479.8,283.8z"/>
<path d="M1452.2,295.8c-0.1-0.8-0.1-1.6-0.1-2.3C1452.1,294.2,1452.1,295,1452.2,295.8z"/>
<path d="M1466.7,311c-0.1,0.7-0.3,1.5-0.5,2.2c0.5-0.5,1.1-1,1.6-1.5C1467.5,311.4,1467.1,311.2,1466.7,311z"/>
<path d="M1468,292.1c0,0.3-0.1,0.7-0.1,1C1468,292.8,1468,292.4,1468,292.1z"/>
<path d="M1357.4,586.6c-0.5,0-1.1-0.1-1.6-0.1C1356.3,586.5,1356.9,586.5,1357.4,586.6z"/>
<path d="M1476.3,283.6c0.2,0,0.3-0.1,0.5-0.1C1476.6,283.6,1476.4,283.6,1476.3,283.6z"/>
<path d="M1469.4,288.2c0.1-0.1,0.2-0.3,0.3-0.4C1469.6,287.9,1469.5,288,1469.4,288.2z"/>
<path d="M1471.9,285.4c0.1-0.1,0.3-0.2,0.4-0.3C1472.2,285.2,1472.1,285.3,1471.9,285.4z"/>
<path d="M1470.5,286.7c0.1-0.1,0.2-0.3,0.3-0.4C1470.8,286.4,1470.7,286.5,1470.5,286.7z"/>
<path d="M1469.9,287.4c0.1-0.1,0.2-0.3,0.3-0.4C1470.1,287.1,1470,287.2,1469.9,287.4z"/>
<path d="M1468.6,289.8c0.1-0.2,0.1-0.3,0.2-0.5C1468.7,289.5,1468.6,289.7,1468.6,289.8z"/>
<path d="M1469,289c0.1-0.2,0.2-0.3,0.2-0.5C1469.1,288.7,1469,288.8,1469,289z"/>
<path d="M1468.3,290.8c0-0.2,0.1-0.4,0.2-0.6C1468.4,290.4,1468.3,290.6,1468.3,290.8z"/>
<path d="M1475.3,283.8c0.2,0,0.3-0.1,0.5-0.1C1475.6,283.7,1475.5,283.8,1475.3,283.8z"/>
<path d="M1472.7,284.9c0.1-0.1,0.3-0.2,0.4-0.3C1473,284.7,1472.9,284.8,1472.7,284.9z"/>
<path d="M1481.6,284.4c0.6,0.3,1.1,0.6,1.6,0.9C1482.7,284.9,1482.2,284.6,1481.6,284.4z"/>
<path d="M1474.4,284.1c0.2-0.1,0.3-0.1,0.5-0.2C1474.7,284,1474.6,284.1,1474.4,284.1z"/>
<path d="M1473.5,284.5c0.2-0.1,0.3-0.1,0.5-0.2C1473.8,284.3,1473.7,284.4,1473.5,284.5z"/>
<path d="M1478.2,318.8c-0.2,0-0.4,0.1-0.6,0.1C1477.8,318.8,1478,318.8,1478.2,318.8z"/>
<path d="M1493.7,273.3c0.1,0.1,0.2,0.2,0.3,0.2C1493.9,273.5,1493.8,273.4,1493.7,273.3z"/>
<path d="M1497.6,309.7c-0.7,0.9-1.5,1.8-2.4,2.6C1496.1,311.5,1496.9,310.6,1497.6,309.7z"/>
<path d="M1495.5,274.9c0.1,0.1,0.2,0.2,0.3,0.3C1495.6,275.1,1495.6,275,1495.5,274.9z"/>
<path d="M1489.9,270.8c0.1,0.1,0.2,0.1,0.3,0.2C1490.1,270.9,1490,270.8,1489.9,270.8z"/>
<path d="M1473.8,321.2c-0.1,0.2-0.3,0.4-0.4,0.6C1473.5,321.6,1473.6,321.4,1473.8,321.2z"/>
<path d="M1485.9,269c0.1,0,0.1,0,0.2,0.1C1486,269,1485.9,269,1485.9,269z"/>
<path d="M1495.2,312.3c-0.8,0.8-1.7,1.5-2.7,2.2C1493.5,313.8,1494.4,313.1,1495.2,312.3z"/>
<path d="M1476.2,319.4c-0.2,0.1-0.3,0.2-0.5,0.3C1475.9,319.5,1476,319.4,1476.2,319.4z"/>
<path d="M1475.3,319.8c-0.2,0.1-0.3,0.2-0.5,0.4C1475,320.1,1475.1,320,1475.3,319.8z"/>
<path d="M1477.1,319c-0.2,0.1-0.4,0.1-0.5,0.2C1476.8,319.1,1477,319,1477.1,319z"/>
<path d="M1492.5,314.5c-2.4,1.7-5,2.9-7.9,3.6C1487.5,317.3,1490.2,316.1,1492.5,314.5z"/>
<path d="M1487.8,269.7c0.1,0,0.2,0.1,0.3,0.1C1488,269.8,1487.9,269.8,1487.8,269.7z"/>
<path d="M1467.8,269.7c0.2-0.1,0.4-0.2,0.7-0.3C1468.2,269.5,1468,269.6,1467.8,269.7z"/>
<path d="M1472.4,268.2c0.1,0,0.2,0,0.4-0.1C1472.7,268.1,1472.6,268.2,1472.4,268.2z"/>
<path d="M1359.6,586.8c-0.4,0-0.9-0.1-1.3-0.1C1358.7,586.7,1359.1,586.7,1359.6,586.8z"/>
<path d="M1465.8,270.6c0.2-0.1,0.4-0.2,0.6-0.3C1466.2,270.4,1466,270.5,1465.8,270.6z"/>
<path d="M1453.7,284.4c0.5-1.4,1.2-2.8,2-4.2C1454.9,281.6,1454.2,282.9,1453.7,284.4z"/>
<path d="M1483.6,268.3c0.1,0,0.3,0.1,0.4,0.1C1483.8,268.4,1483.7,268.3,1483.6,268.3z"/>
<path d="M1479.2,267.7c0.1,0,0.2,0,0.2,0C1479.4,267.7,1479.3,267.7,1479.2,267.7z"/>
<path d="M1474.5,267.8c0.2,0,0.4,0,0.7-0.1C1475,267.8,1474.7,267.8,1474.5,267.8z"/>
<path d="M1481.3,267.9c0.1,0,0.2,0,0.3,0C1481.5,267.9,1481.4,267.9,1481.3,267.9z"/>
<path d="M1476.6,267.7c0.2,0,0.5,0,0.7,0C1477.1,267.6,1476.8,267.7,1476.6,267.7z"/>
<path d="M1469.9,268.9c0.2-0.1,0.4-0.1,0.6-0.2C1470.2,268.8,1470.1,268.8,1469.9,268.9z"/>
<path d="M1374.3,590.2c-0.4-0.1-0.7-0.3-1.1-0.4C1373.6,589.9,1374,590,1374.3,590.2z"/>
<path d="M1380.4,592.8c-0.4-0.2-0.8-0.4-1.2-0.6C1379.6,592.4,1380,592.6,1380.4,592.8z"/>
<path d="M1370.2,588.8c-0.4-0.1-0.8-0.2-1.1-0.3C1369.4,588.6,1369.8,588.7,1370.2,588.8z"/>
<path d="M1378.4,591.8c-0.4-0.2-0.8-0.3-1.1-0.5C1377.6,591.5,1378,591.6,1378.4,591.8z"/>
<path d="M1376.4,591c-0.4-0.2-0.7-0.3-1.1-0.4C1375.6,590.7,1376,590.8,1376.4,591z"/>
<path d="M1473.2,322c-0.2,0.3-0.3,0.6-0.5,0.9C1472.8,322.6,1473,322.3,1473.2,322z"/>
<path d="M1363.9,587.4c-0.4-0.1-0.8-0.1-1.2-0.2C1363.1,587.2,1363.5,587.3,1363.9,587.4z"/>
<path d="M1361.7,587c-0.4-0.1-0.8-0.1-1.2-0.2C1360.9,586.9,1361.3,587,1361.7,587z"/>
<path d="M1366,587.8c-0.4-0.1-0.8-0.2-1.2-0.2C1365.2,587.6,1365.6,587.7,1366,587.8z"/>
<path d="M1368.1,588.3c-0.4-0.1-0.8-0.2-1.1-0.3C1367.3,588.1,1367.7,588.2,1368.1,588.3z"/>
<path d="M1372.3,589.5c-0.4-0.1-0.7-0.2-1.1-0.4C1371.5,589.2,1371.9,589.3,1372.3,589.5z"/>
<path d="M1388.3,595.8L1388.3,595.8L1388.3,595.8z"/>
<path d="M1388.8,595.4C1388.7,595.4,1388.7,595.4,1388.8,595.4C1388.7,595.4,1388.7,595.4,1388.8,595.4z"/>
<path d="M1520.2,368l-5.7-0.2L1520.2,368z"/>
<path d="M1387.8,596C1387.8,596,1387.7,596,1387.8,596C1387.7,596,1387.8,596,1387.8,596z"/>
<path d="M1389.3,594.7L1389.3,594.7C1389.2,594.8,1389.2,594.8,1389.3,594.7z"/>
<path d="M1386.7,596c-0.1,0-0.1,0-0.2-0.1C1386.5,595.9,1386.6,596,1386.7,596z"/>
<path d="M1386,595.7c-0.1,0-0.1-0.1-0.2-0.1C1385.8,595.7,1385.9,595.7,1386,595.7z"/>
<path d="M1385,595.3c-0.6-0.4-1.3-0.7-1.9-1.1C1383.8,594.5,1384.4,594.9,1385,595.3z"/>
<path d="M1387.2,596.1c-0.1,0-0.1,0-0.2,0C1387.1,596.1,1387.2,596.1,1387.2,596.1z"/>
<path d="M1382.5,593.8c-0.4-0.2-0.9-0.5-1.3-0.7C1381.6,593.4,1382.1,593.6,1382.5,593.8z"/>
<path d="M1492,272C1492,272.1,1492,272.1,1492,272C1492,272.1,1492,272.1,1492,272z"/>
<path class="st7" d="M1453.5,301.6c0.4,1.1,0.9,2.3,1.4,3.4c0.3,0.5,0.6,1.1,0.8,1.6c0.5,1.7,0.3,3.6-0.8,5.1
	c-30.3,52.5-60.6,104.9-90.9,157.4c-22.1,38.2-44.1,76.4-66.2,114.6c-0.1,0.1-0.1,0.2-0.2,0.3c-0.5,0.7-1.2,1.4-0.3,2.5
	c2.7,0,5.5,0,8.2,0c0.9,0,1.9,0,2.8,0c2.1,0,4.3,0,6.4,0.1c3,0,6,0.1,9,0.1c0.1,0,0.2,0,0.3,0c2.6,0,5.2,0,7.8,0c0.3,0,0.7,0,1,0
	c0.4,0,0.9,0,1.3,0c2,0,4,0,6,0c0.8,0,1.6,0,2.5,0c2.7,0,5.4-0.1,8.1-0.2l0,0c0.8,0,1.5,0,2.3,0l0,0c0.7,0,1.4,0,2.1,0
	c0.2,0,0.4,0,0.6,0c0.5,0,1.1,0,1.6,0.1c0.3,0,0.6,0,0.8,0.1c0.4,0,0.9,0.1,1.3,0.1c0.3,0,0.6,0.1,0.9,0.1c0.4,0,0.8,0.1,1.2,0.2
	c0.3,0,0.6,0.1,0.9,0.1c0.4,0.1,0.8,0.1,1.2,0.2c0.3,0.1,0.6,0.1,1,0.2c0.4,0.1,0.8,0.2,1.2,0.2c0.3,0.1,0.6,0.1,1,0.2
	c0.4,0.1,0.8,0.2,1.1,0.3c0.3,0.1,0.6,0.2,1,0.2c0.4,0.1,0.8,0.2,1.1,0.3c0.3,0.1,0.6,0.2,1,0.3s0.8,0.2,1.1,0.4
	c0.3,0.1,0.6,0.2,0.9,0.3c0.4,0.1,0.7,0.3,1.1,0.4c0.3,0.1,0.6,0.2,0.9,0.3c0.4,0.1,0.8,0.3,1.1,0.4c0.3,0.1,0.6,0.2,0.9,0.4
	c0.4,0.2,0.8,0.3,1.1,0.5c0.3,0.1,0.6,0.2,0.8,0.4c0.4,0.2,0.8,0.4,1.2,0.6c0.3,0.1,0.5,0.3,0.8,0.4c0.4,0.2,0.9,0.4,1.3,0.7
	c0.2,0.1,0.4,0.2,0.6,0.3c0.6,0.4,1.3,0.7,1.9,1.1c0.3,0.2,0.5,0.3,0.7,0.4c0.1,0,0.1,0.1,0.2,0.1c0.2,0.1,0.3,0.1,0.5,0.2
	c0.1,0,0.1,0,0.2,0.1c0.1,0,0.3,0.1,0.4,0.1s0.1,0,0.2,0c0,0,0,0,0.1,0s0.3,0,0.4-0.1h0.1c0.2,0,0.3-0.1,0.5-0.2l0,0
	c0.1-0.1,0.3-0.2,0.4-0.4l0.1-0.1c0.1-0.1,0.3-0.3,0.4-0.5l0.1-0.1c0.1-0.2,0.3-0.4,0.4-0.7c2.2-3.9,4.4-7.9,6.7-11.8
	c1.1-1.9,2.3-3.9,3.4-5.8c1.1-1.9,2.3-3.9,3.4-5.8c28.3-49,56.6-98.1,85-147l16.8-29.1c1.9-3.2,3.7-6.4,5.6-9.7
	c2.5-4.3,5.1-8.7,7.7-13.3c0.7-1.1,1.3-2.3,2-3.5l0,0l-5.7-0.2c-21.1,0-42.1,0-63.2,0c-3.1,0-3.9-0.5-2.8-2.7
	c0.2-0.3,0.3-0.7,0.6-1.1c8-13.6,15.8-27.3,23.6-41c0.1-0.3,0.3-0.6,0.5-0.9c0.1-0.1,0.1-0.2,0.2-0.3c0.1-0.2,0.3-0.4,0.4-0.6
	c0.1-0.1,0.2-0.2,0.3-0.3c0.1-0.2,0.3-0.3,0.4-0.4s0.2-0.2,0.3-0.3c0.2-0.1,0.3-0.2,0.5-0.4c0.1-0.1,0.3-0.1,0.4-0.2
	c0.2-0.1,0.3-0.2,0.5-0.3c0.1-0.1,0.3-0.1,0.4-0.2c0.2-0.1,0.4-0.1,0.5-0.2c0.1,0,0.3-0.1,0.5-0.1s0.4-0.1,0.6-0.1s0.3,0,0.5,0
	s0.3,0,0.5,0c0.1,0,0.2,0,0.2,0c1.8,0,3.6-0.3,5.3-0.7c2.9-0.7,5.5-1.9,7.9-3.6c0.9-0.7,1.8-1.4,2.7-2.2c0.8-0.8,1.6-1.7,2.4-2.6
	c1.4-1.8,2.6-3.9,3.5-6.2c1-2.2,1.7-4.5,2.1-6.9c0.1-0.6,0.2-1.2,0.2-1.8c0.3-4.1-0.5-8.3-2.2-12c-0.2-0.5-0.5-1.1-0.8-1.6
	c-0.9-1.6-1.9-3-3.2-4.4c-0.5-0.6-0.9-1.1-1.4-1.6c-0.1-0.1-0.2-0.2-0.3-0.3c-0.5-0.5-1-0.9-1.5-1.4c-0.1-0.1-0.2-0.2-0.3-0.2
	c-0.5-0.4-1.1-0.8-1.6-1.2c0,0-0.1,0-0.1-0.1c-0.6-0.4-1.1-0.7-1.7-1.1c-0.1-0.1-0.2-0.1-0.3-0.2c-0.6-0.3-1.2-0.6-1.8-0.9
	c-0.1,0-0.2-0.1-0.3-0.1c-0.6-0.3-1.2-0.5-1.8-0.7c-0.1,0-0.1,0-0.2-0.1c-0.6-0.2-1.3-0.4-1.9-0.6c-0.1,0-0.3-0.1-0.4-0.1
	c-0.6-0.2-1.3-0.3-1.9-0.4c-0.1,0-0.2,0-0.3,0c-0.6-0.1-1.2-0.2-1.9-0.2c-0.1,0-0.2,0-0.2,0c-0.5,0-1,0-1.5,0c-0.1,0-0.3,0-0.4,0
	c-0.2,0-0.5,0-0.7,0c-0.5,0-1,0.1-1.4,0.1c-0.2,0-0.4,0-0.7,0.1c-0.6,0.1-1.1,0.2-1.7,0.3c-0.1,0-0.2,0-0.4,0.1
	c-0.7,0.1-1.3,0.3-2,0.5c-0.2,0.1-0.4,0.1-0.6,0.2c-0.5,0.2-1,0.3-1.4,0.5c-0.2,0.1-0.4,0.2-0.7,0.3c-0.5,0.2-0.9,0.4-1.4,0.6
	c-0.2,0.1-0.4,0.2-0.6,0.3c-0.6,0.3-1.3,0.7-1.9,1.1c-0.7,0.4-1.4,0.9-2,1.4c-1.9,1.5-3.6,3.2-5,5.1c-0.5,0.6-0.9,1.3-1.3,1.9
	c-0.8,1.3-1.5,2.7-2,4.2c-0.7,1.8-1.1,3.7-1.4,5.6c-0.1,1.1-0.2,2.3-0.2,3.5c0,0.8,0,1.6,0.1,2.3
	C1452.4,297.7,1452.8,299.7,1453.5,301.6z M1451.3,378.8h50c-2,3.4-3.9,6.8-5.8,10.1l-16.8,29.1c-28.2,48.8-56.8,98.3-85,147
	c-1.2,2-2.3,4-3.5,6c-2.1,3.6-4.3,7.3-6.4,11.1c-9.6-4.4-20-6.7-30.6-6.7c-0.9,0-1.8,0-2.7,0c-5.2,0.2-10.9,0.2-17.5,0.2
	c-5.9,0-11.9-0.1-17.7-0.1c19.5-33.7,38.9-67.4,58.4-101.1c21.1-36.6,42.5-73.6,63.7-110.4c-0.5,2.5-0.4,5.4,1.3,8.5
	C1442.3,378.8,1449.1,378.8,1451.3,378.8z M1468.1,291.8c0-0.2,0.1-0.4,0.1-0.6c0-0.1,0.1-0.2,0.1-0.4c0-0.2,0.1-0.4,0.2-0.6
	c0-0.1,0.1-0.2,0.1-0.4c0.1-0.2,0.1-0.3,0.2-0.5c0.1-0.1,0.1-0.2,0.2-0.4c0.1-0.2,0.2-0.3,0.2-0.5c0.1-0.1,0.1-0.2,0.2-0.3
	c0.1-0.1,0.2-0.3,0.3-0.4c0.1-0.1,0.2-0.2,0.3-0.3c0.1-0.1,0.2-0.3,0.3-0.4c0.1-0.1,0.2-0.2,0.3-0.3c0.1-0.1,0.2-0.3,0.3-0.4
	c0.1-0.1,0.2-0.2,0.3-0.3c0.1-0.1,0.2-0.2,0.4-0.3c0.1-0.1,0.2-0.2,0.3-0.3c0.1-0.1,0.3-0.2,0.4-0.3c0.1-0.1,0.2-0.1,0.4-0.2
	c0.1-0.1,0.3-0.2,0.4-0.3c0.1-0.1,0.3-0.1,0.4-0.2c0.2-0.1,0.3-0.1,0.5-0.2c0.1-0.1,0.3-0.1,0.4-0.2c0.2-0.1,0.3-0.1,0.5-0.2
	c0.1,0,0.3-0.1,0.4-0.1c0.2,0,0.3-0.1,0.5-0.1s0.3,0,0.5-0.1c0.2,0,0.3-0.1,0.5-0.1s0.3,0,0.5,0c0.1,0,0.3,0,0.4,0s0.1,0,0.2,0
	c0.7,0,1.3,0.1,2,0.2c0.6,0.1,1.2,0.3,1.8,0.6s1.1,0.6,1.6,0.9c2.6,1.8,4.2,4.8,4.1,8.1c0,0.1,0,0.2,0,0.2l0,0c0,0.4,0,0.8-0.1,1.2
	c-0.1,0.6-0.2,1.1-0.3,1.6c0,0.1,0,0.1-0.1,0.2c-0.9,2.6-2.8,4.7-5.3,5.8l0,0c-0.3,0.1-0.6,0.2-0.9,0.3c-0.2,0-0.3,0.1-0.5,0.1
	s-0.3,0.1-0.5,0.1c-0.1,0-0.3,0-0.4,0.1c-0.2,0-0.4,0.1-0.5,0.1s-0.2,0-0.3,0c-0.2,0-0.4,0-0.7,0l0,0c-0.1,0-0.2,0-0.2,0
	c-1.7,0-3.3-0.5-4.7-1.3c-1.1-0.6-2.1-1.5-2.9-2.5c-0.4-0.5-0.7-1-1-1.6c-0.7-1.4-1.1-3-1.1-4.7
	C1467.9,292.5,1467.9,292.1,1468.1,291.8C1468,292,1468.1,291.9,1468.1,291.8z M1466.7,311c0.4,0.2,0.8,0.5,1.1,0.7
	c-0.6,0.5-1.1,1-1.6,1.5C1466.4,312.4,1466.6,311.7,1466.7,311z"/>
<path d="M1211.2,488.9c-0.1,0.1-0.2,0.3-0.3,0.4C1211,489.2,1211.1,489.1,1211.2,488.9z"/>
<path d="M1218.5,497.3c-0.4,0.4-0.8,0.7-1.2,1.1c0.3,0.2,0.6,0.3,0.8,0.5C1218.3,498.3,1218.4,497.8,1218.5,497.3z"/>
<path d="M1207,491.2c-0.2,0-0.4,0-0.7,0c0.1,0,0.3,0,0.4,0S1206.9,491.2,1207,491.2z"/>
<path d="M1198,513.3c0.1-0.2,0.1-0.4,0.2-0.6C1198.2,512.9,1198.1,513.1,1198,513.3z"/>
<path d="M1198.7,511.8c0.3-0.5,0.6-1,1-1.5C1199.3,510.8,1199,511.3,1198.7,511.8z"/>
<path d="M1198.3,512.5c0.1-0.2,0.2-0.5,0.3-0.7C1198.5,512.1,1198.4,512.3,1198.3,512.5z"/>
<path d="M1201.9,508.4c0.2-0.1,0.4-0.3,0.6-0.4C1202.3,508.1,1202.1,508.3,1201.9,508.4z"/>
<path d="M1197.6,515.1c0-0.2,0.1-0.4,0.1-0.6C1197.6,514.7,1197.6,514.9,1197.6,515.1z"/>
<path d="M1197.8,514.1c0-0.2,0.1-0.3,0.1-0.5C1197.9,513.7,1197.8,513.9,1197.8,514.1z"/>
<path d="M1307.6,368c-1.9,0-3.8,0-5.7,0c0.5,0,0.9,0,1.4,0C1304.7,368,1306.2,368,1307.6,368z"/>
<path d="M1201.1,509c0.2-0.2,0.4-0.3,0.6-0.5C1201.5,508.6,1201.3,508.8,1201.1,509z"/>
<path d="M1206,542.2c-0.2,0-0.4,0-0.6-0.1C1205.6,542.2,1205.8,542.2,1206,542.2z"/>
<path d="M1380.4,398.6c5.3-9,10.5-17.9,15.8-26.9c0.3-0.6,0.6-1,0.8-1.4c-0.2,0.4-0.4,0.9-0.8,1.4
	C1390.9,380.7,1385.7,389.6,1380.4,398.6z"/>
<path d="M1211.6,542c-0.2,0-0.3,0.1-0.5,0.1C1211.2,542.1,1211.4,542.1,1211.6,542z"/>
<path d="M1209.4,542.3L1209.4,542.3L1209.4,542.3z"/>
<path d="M1204.2,542c-0.2,0-0.4-0.1-0.5-0.1C1203.9,542,1204.1,542,1204.2,542z"/>
<path d="M1207.7,542.3c-0.2,0-0.4,0-0.5,0C1207.4,542.3,1207.6,542.3,1207.7,542.3z"/>
<path d="M1259.3,452.4c0.3,0,0.5,0,0.8,0c-0.2,0-0.5,0-0.7,0C1259.4,452.4,1259.4,452.4,1259.3,452.4z"/>
<path d="M1309.4,452.4c0.3,0,0.5,0,0.8,0c-0.2,0-0.4,0-0.6,0C1309.5,452.4,1309.5,452.4,1309.4,452.4z"/>
<path d="M1227.7,531.7C1227.7,531.6,1227.7,531.6,1227.7,531.7c0.4-0.5,0.7-1,1.1-1.5C1228.5,530.7,1228.1,531.2,1227.7,531.7
	C1227.7,531.6,1227.7,531.6,1227.7,531.7z"/>
<path d="M1255.6,454c0.1-0.1,0.2-0.2,0.4-0.3C1255.9,453.7,1255.8,453.8,1255.6,454z"/>
<path d="M1200.4,523.5c-0.1-0.1-0.2-0.2-0.3-0.3C1200.2,523.3,1200.3,523.4,1200.4,523.5z"/>
<path d="M1199.2,522.1c-0.1-0.1-0.2-0.3-0.3-0.4C1199,521.9,1199.1,522,1199.2,522.1z"/>
<path d="M1199.7,522.9c-0.1-0.1-0.2-0.2-0.3-0.4C1199.6,522.6,1199.6,522.8,1199.7,522.9z"/>
<path d="M1198.7,521.4c-0.1-0.1-0.1-0.3-0.2-0.4C1198.6,521.1,1198.6,521.2,1198.7,521.4z"/>
<path d="M1198.3,520.5c-0.1-0.2-0.1-0.3-0.2-0.5C1198.2,520.2,1198.2,520.4,1198.3,520.5z"/>
<path d="M1201,524.2c-0.1-0.1-0.2-0.2-0.3-0.3C1200.8,523.9,1200.9,524.1,1201,524.2z"/>
<path d="M1213.3,541.7c-0.2,0-0.4,0.1-0.6,0.1C1212.9,541.8,1213.1,541.8,1213.3,541.7z"/>
<path d="M1201,509.1c-0.5,0.4-0.9,0.8-1.3,1.3C1200.1,509.9,1200.5,509.4,1201,509.1z"/>
<path d="M1197.5,515.4c0,0.3,0,0.6-0.1,1C1197.5,516.1,1197.5,515.8,1197.5,515.4z"/>
<path d="M1198,519.7c-0.1-0.2-0.1-0.3-0.1-0.5C1197.9,519.3,1197.9,519.5,1198,519.7z"/>
<path d="M1201.8,524.7c-0.1-0.1-0.2-0.2-0.4-0.3C1201.5,524.5,1201.7,524.6,1201.8,524.7z"/>
<path d="M1197.6,517.8c0-0.3-0.1-0.6-0.1-1C1197.5,517.2,1197.5,517.5,1197.6,517.8z"/>
<path d="M1197.7,518.8c0-0.2-0.1-0.4-0.1-0.6C1197.6,518.4,1197.7,518.6,1197.7,518.8z"/>
<path d="M1202.6,525.2c-0.1-0.1-0.3-0.2-0.4-0.2C1202.3,525,1202.4,525.1,1202.6,525.2z"/>
<path d="M1205.5,507c0.2,0,0.4-0.1,0.6-0.1C1205.9,506.9,1205.7,507,1205.5,507z"/>
<path d="M1207.6,506.9c-0.2,0-0.3,0-0.5,0c0.3,0,0.5,0,0.8,0C1207.8,506.9,1207.7,506.9,1207.6,506.9z"/>
<path d="M1207,506.9c-0.2,0-0.4,0-0.5,0C1206.7,506.9,1206.9,506.9,1207,506.9S1207,506.9,1207,506.9z"/>
<path d="M1203.6,507.5c0.2-0.1,0.4-0.2,0.6-0.2C1204,507.4,1203.8,507.5,1203.6,507.5z"/>
<path d="M1204.5,507.2c0.2-0.1,0.4-0.1,0.6-0.2C1204.9,507.1,1204.7,507.2,1204.5,507.2z"/>
<path d="M1204.3,525.9c-0.2,0-0.3-0.1-0.5-0.2C1204,525.8,1204.1,525.8,1204.3,525.9z"/>
<path d="M1207.1,526.3L1207.1,526.3c-0.1,0-0.3,0-0.5,0C1206.8,526.3,1206.9,526.3,1207.1,526.3z"/>
<path d="M1203.4,525.6c-0.1-0.1-0.3-0.1-0.4-0.2C1203.1,525.4,1203.3,525.5,1203.4,525.6z"/>
<path d="M1202.7,507.9c0.2-0.1,0.4-0.2,0.6-0.3C1203.1,507.7,1202.9,507.8,1202.7,507.9z"/>
<path d="M1206.1,526.2c-0.2,0-0.3,0-0.5-0.1C1205.8,526.2,1206,526.2,1206.1,526.2z"/>
<path d="M1205.2,526.1c-0.2,0-0.3-0.1-0.5-0.1C1204.9,526,1205,526.1,1205.2,526.1z"/>
<path d="M1221.4,538.1c-0.1,0.1-0.3,0.2-0.4,0.3C1221.1,538.3,1221.3,538.2,1221.4,538.1z"/>
<path d="M1397.2,369.2c0,0.1,0,0.2,0,0.3C1397.2,369.4,1397.2,369.3,1397.2,369.2z"/>
<path d="M1375.2,407.6c-3.5,6-6.9,12-10.3,18C1368.2,419.5,1371.7,413.5,1375.2,407.6z"/>
<path d="M1354.1,444.8c-0.1,0.1-0.2,0.3-0.3,0.4C1353.9,445.1,1354,445,1354.1,444.8z"/>
<path d="M1283.1,368.1c0.1,0,0.3-0.1,0.4-0.1C1283.3,368,1283.2,368.1,1283.1,368.1z"/>
<path d="M1320.7,368c6.2,0,12.4,0,18.6,0C1333.1,368,1326.9,368,1320.7,368z"/>
<path d="M1284,368c0.1,0,0.3,0,0.4,0C1284.3,367.9,1284.2,367.9,1284,368z"/>
<path d="M1353.3,446c-0.1,0.2-0.2,0.3-0.3,0.4C1353.1,446.3,1353.2,446.2,1353.3,446z"/>
<path d="M1349.2,450.3c-0.1,0.1-0.3,0.2-0.4,0.3C1348.9,450.4,1349,450.4,1349.2,450.3z"/>
<path d="M1350.1,449.6c-0.1,0.1-0.3,0.2-0.4,0.3C1349.8,449.8,1349.9,449.7,1350.1,449.6z"/>
<path d="M1350.9,448.9c-0.1,0.1-0.3,0.2-0.4,0.4C1350.7,449.1,1350.8,449,1350.9,448.9z"/>
<path d="M1352.5,447.1c-0.1,0.1-0.2,0.3-0.3,0.4C1352.3,447.4,1352.4,447.2,1352.5,447.1z"/>
<path d="M1351.7,448c-0.1,0.1-0.2,0.3-0.4,0.4C1351.5,448.3,1351.6,448.2,1351.7,448z"/>
<path d="M1282.2,368.4c0.1-0.1,0.3-0.1,0.4-0.1C1282.4,368.3,1282.3,368.4,1282.2,368.4z"/>
<path d="M1208.9,490.8c0.1-0.1,0.3-0.1,0.4-0.2C1209.2,490.6,1209,490.7,1208.9,490.8z"/>
<path d="M1348.3,450.8c-0.2,0.1-0.3,0.2-0.5,0.2C1348,451,1348.1,450.9,1348.3,450.8z"/>
<path d="M1208.1,491c0.1,0,0.3-0.1,0.4-0.1C1208.4,490.9,1208.3,491,1208.1,491z"/>
<path d="M1214.9,541.3c-0.2,0.1-0.3,0.1-0.5,0.1C1214.6,541.4,1214.7,541.3,1214.9,541.3z"/>
<path d="M1201.3,491.9c0.8-0.2,1.6-0.3,2.5-0.5C1203,491.5,1202.1,491.7,1201.3,491.9z"/>
<path d="M1207.3,491.2c0.1,0,0.3,0,0.4-0.1C1207.6,491.1,1207.5,491.1,1207.3,491.2z"/>
<path d="M1209.6,490.4c0.1-0.1,0.3-0.2,0.4-0.3C1209.9,490.2,1209.8,490.3,1209.6,490.4z"/>
<path d="M1211.4,488.7c0.2-0.2,0.3-0.5,0.4-0.7C1211.6,488.3,1211.5,488.5,1211.4,488.7z"/>
<path d="M1281.3,368.8c0.1-0.1,0.2-0.1,0.4-0.2C1281.5,368.7,1281.4,368.8,1281.3,368.8z"/>
<path d="M1280.5,369.4c0.1-0.1,0.2-0.2,0.3-0.2C1280.7,369.2,1280.6,369.3,1280.5,369.4z"/>
<path d="M1279.3,370.8c0.1-0.1,0.1-0.2,0.2-0.3C1279.4,370.6,1279.3,370.7,1279.3,370.8z"/>
<path d="M1279.8,370c0.1-0.1,0.2-0.2,0.3-0.3C1280,369.9,1279.9,369.9,1279.8,370z"/>
<path d="M1210.3,489.9c0.1-0.1,0.2-0.2,0.4-0.3C1210.5,489.7,1210.4,489.8,1210.3,489.9z"/>
<path d="M1230.6,527c-0.5,1.1-1.1,2.1-1.8,3.1C1229.5,529.2,1230.1,528.1,1230.6,527z"/>
<path d="M1232.7,520.3c-0.2,1.2-0.4,2.3-0.8,3.4C1232.2,522.6,1232.5,521.5,1232.7,520.3z"/>
<path d="M1226.7,533.1c-0.1,0.1-0.2,0.3-0.3,0.4C1226.5,533.3,1226.6,533.2,1226.7,533.1z"/>
<path d="M1256.7,453.2c-0.1,0.1-0.3,0.2-0.4,0.3C1256.4,453.3,1256.5,453.2,1256.7,453.2z"/>
<path d="M1225.6,534.4c-0.1,0.1-0.3,0.3-0.4,0.4C1225.4,534.7,1225.5,534.5,1225.6,534.4z"/>
<path d="M1255.4,454.2c-0.1,0.1-0.2,0.3-0.3,0.4C1255.2,454.5,1255.3,454.3,1255.4,454.2z"/>
<path d="M1254.9,454.9c-0.1,0.2-0.3,0.5-0.4,0.7C1254.6,455.3,1254.8,455.1,1254.9,454.9z"/>
<path d="M1218.5,539.9c-0.2,0.1-0.3,0.2-0.5,0.2C1218.2,540,1218.3,539.9,1218.5,539.9z"/>
<path d="M1347.3,451.3c-0.2,0.1-0.3,0.1-0.5,0.2C1347,451.4,1347.1,451.4,1347.3,451.3z"/>
<path d="M1224.4,535.7c-0.1,0.1-0.2,0.2-0.4,0.4C1224.2,535.9,1224.3,535.8,1224.4,535.7z"/>
<path d="M1220,539c-0.2,0.1-0.3,0.2-0.5,0.3C1219.7,539.2,1219.8,539.1,1220,539z"/>
<path d="M1222.8,537.1C1222.8,537.1,1222.7,537.1,1222.8,537.1C1222.7,537.1,1222.8,537.1,1222.8,537.1z"/>
<path d="M1216.5,540.7L1216.5,540.7L1216.5,540.7z"/>
<path d="M1342.9,452.5c-0.2,0-0.4,0-0.6,0.1C1342.5,452.5,1342.7,452.5,1342.9,452.5z"/>
<path d="M1344.1,452.3c-0.2,0-0.4,0.1-0.6,0.1C1343.7,452.3,1343.9,452.3,1344.1,452.3z"/>
<path d="M1257.4,452.8c-0.1,0.1-0.3,0.1-0.4,0.2C1257.1,452.9,1257.2,452.9,1257.4,452.8z"/>
<path d="M1345.2,452c-0.2,0-0.4,0.1-0.5,0.1C1344.9,452.1,1345,452.1,1345.2,452z"/>
<path d="M1340.3,452.7c-0.2,0-0.4,0-0.7,0C1339.9,452.7,1340.1,452.7,1340.3,452.7z"/>
<path d="M1346.3,451.7c-0.2,0.1-0.3,0.1-0.5,0.2C1345.9,451.8,1346.1,451.8,1346.3,451.7z"/>
<path d="M1341.7,452.6c-0.2,0-0.4,0-0.6,0C1341.2,452.6,1341.5,452.6,1341.7,452.6z"/>
<path d="M1272.9,452.5c-1.1,0-2.2,0-3.4,0C1270.7,452.5,1271.8,452.5,1272.9,452.5z"/>
<path d="M1259,452.4c-0.2,0-0.3,0-0.5,0.1C1258.7,452.4,1258.8,452.4,1259,452.4z"/>
<path d="M1258.2,452.5c-0.2,0-0.3,0.1-0.5,0.1C1257.9,452.6,1258,452.6,1258.2,452.5z"/>
<path d="M1325.5,452.5c-1.1,0-2.3,0-3.4,0C1323.3,452.5,1324.4,452.5,1325.5,452.5z"/>
<path d="M1294,452.5c-5,0-10.1,0-15.1,0C1283.9,452.5,1288.9,452.5,1294,452.5z"/>
<path class="st7" d="M1202,541.6c0.6,0.1,1.1,0.3,1.7,0.4c0.2,0,0.4,0.1,0.5,0.1c0.4,0.1,0.8,0.1,1.2,0.2c0.2,0,0.4,0,0.6,0.1
	c0.4,0,0.8,0.1,1.2,0.1c0.2,0,0.4,0,0.5,0s0.1,0,0.2,0c0.5,0,0.9,0,1.4,0c0,0,0,0,0.1,0c0.6,0,1.1-0.1,1.7-0.2
	c0.2,0,0.3-0.1,0.5-0.1c0.4-0.1,0.8-0.1,1.2-0.2c0.2,0,0.4-0.1,0.6-0.1c0.4-0.1,0.7-0.2,1.1-0.3c0.2,0,0.3-0.1,0.5-0.1
	c0.5-0.2,1-0.3,1.5-0.5l0,0c0.5-0.2,1-0.4,1.5-0.7c0.2-0.1,0.3-0.2,0.5-0.2c0.3-0.2,0.7-0.4,1-0.5c0.2-0.1,0.3-0.2,0.5-0.3
	c0.3-0.2,0.7-0.4,1-0.6c0.1-0.1,0.3-0.2,0.4-0.3c0.4-0.3,0.9-0.6,1.3-1l0,0c0.4-0.3,0.9-0.7,1.3-1.1c0.1-0.1,0.3-0.2,0.4-0.4
	c0.3-0.3,0.6-0.6,0.8-0.8c0.1-0.1,0.3-0.3,0.4-0.4c0.3-0.3,0.5-0.6,0.8-0.9c0.1-0.1,0.2-0.3,0.3-0.4c0.3-0.5,0.7-0.9,1-1.4l0,0
	c0.4-0.5,0.7-1,1.1-1.5c0.7-1,1.3-2.1,1.8-3.1s0.9-2.2,1.3-3.3c0.3-1.1,0.6-2.3,0.8-3.4c0.8-5.2-0.1-10.7-2.7-15.5
	c-1.3-1.9-1.3-4.4,0-6.4c4.2-7.1,8.3-14.2,12.4-21.3c4.1-7.1,8.2-14.3,12.1-21.5c0.1-0.3,0.2-0.5,0.4-0.7c0-0.1,0.1-0.1,0.2-0.2
	c0.1-0.2,0.2-0.3,0.3-0.4c0.1-0.1,0.1-0.2,0.2-0.2c0.1-0.1,0.2-0.2,0.4-0.3c0.1-0.1,0.2-0.1,0.3-0.2c0.1-0.1,0.3-0.2,0.4-0.3
	c0.1-0.1,0.2-0.1,0.3-0.2c0.1-0.1,0.3-0.1,0.4-0.2c0.1,0,0.2-0.1,0.3-0.1c0.1-0.1,0.3-0.1,0.5-0.1c0.1,0,0.2-0.1,0.3-0.1
	c0.2,0,0.3,0,0.5-0.1c0.1,0,0.2,0,0.3,0h0.1c0.2,0,0.4,0,0.7,0c3.1,0,6.3,0,9.4,0.1c1.1,0,2.2,0,3.4,0c1.7,0,3.3,0,5,0
	c0.3,0,0.6,0,0.9,0c5,0,10.1,0,15.1,0c5.1,0,10.3,0,15.4,0c0.1,0,0.1,0,0.2,0c0.2,0,0.4,0,0.6,0c4,0,8,0,11.9,0c1.1,0,2.3,0,3.4,0
	c4.4,0,8.7,0.1,13.1,0.2c0.2,0,0.5,0,0.7,0c0.1,0,0.2,0,0.4,0c0.2,0,0.4,0,0.7,0c0.2,0,0.5,0,0.7,0s0.4,0,0.6,0s0.4,0,0.7-0.1
	c0.2,0,0.4,0,0.6-0.1c0.2,0,0.4-0.1,0.6-0.1s0.4-0.1,0.6-0.1s0.4-0.1,0.6-0.1s0.4-0.1,0.5-0.1c0.2,0,0.4-0.1,0.6-0.2
	s0.3-0.1,0.5-0.2s0.4-0.1,0.5-0.2c0.2-0.1,0.3-0.1,0.5-0.2s0.3-0.2,0.5-0.2c0.2-0.1,0.3-0.2,0.5-0.2c0.2-0.1,0.3-0.2,0.5-0.3
	c0.1-0.1,0.3-0.2,0.4-0.3c0.2-0.1,0.3-0.2,0.5-0.3c0.1-0.1,0.3-0.2,0.4-0.3c0.2-0.1,0.3-0.3,0.5-0.4c0.1-0.1,0.3-0.2,0.4-0.4
	c0.2-0.1,0.3-0.3,0.4-0.5c0.1-0.1,0.2-0.3,0.4-0.4c0.2-0.2,0.3-0.4,0.4-0.5s0.2-0.3,0.3-0.4c0.2-0.2,0.3-0.4,0.5-0.6
	c0.1-0.1,0.2-0.3,0.3-0.4c0.2-0.2,0.3-0.5,0.5-0.8c0.1-0.1,0.2-0.3,0.3-0.4c0.2-0.4,0.5-0.8,0.7-1.3c3.3-6,6.6-12,10-18
	s6.9-12,10.3-18c1.7-3,3.5-6,5.2-9c5.3-9,10.5-17.9,15.8-26.9c0.3-0.6,0.6-1,0.8-1.4c0.1-0.3,0.2-0.5,0.3-0.7c0-0.1,0-0.2,0-0.3
	c0-0.2,0-0.4-0.1-0.5c-0.3-0.6-1.2-0.8-3.1-0.8c-18.3,0-36.5,0-54.8,0c-6.2,0-12.4,0-18.6,0c-4.4,0-8.7,0-13.1,0c-1.4,0-2.9,0-4.3,0
	c-0.5,0-0.9,0-1.4,0c-5.5,0-11.1,0-16.6-0.1c-0.3,0-0.5,0-0.8,0h-0.1c-0.1,0-0.3,0-0.4,0c-0.2,0-0.4,0-0.6,0.1
	c-0.1,0-0.3,0.1-0.4,0.1c-0.2,0-0.4,0.1-0.5,0.2c-0.1,0-0.3,0.1-0.4,0.1c-0.2,0.1-0.3,0.1-0.5,0.2c-0.1,0.1-0.2,0.1-0.4,0.2
	c-0.2,0.1-0.3,0.2-0.5,0.3c-0.1,0.1-0.2,0.2-0.3,0.2c-0.1,0.1-0.3,0.3-0.4,0.4s-0.2,0.2-0.3,0.3c-0.1,0.2-0.3,0.3-0.4,0.5
	c-0.1,0.1-0.1,0.2-0.2,0.3c-0.2,0.3-0.3,0.6-0.5,0.9c-22.4,38.8-44.7,77.6-67,116.4c-0.1,0.3-0.3,0.5-0.4,0.7
	c-0.1,0.1-0.1,0.1-0.2,0.2s-0.2,0.3-0.3,0.4c-0.1,0.1-0.2,0.1-0.2,0.2c-0.1,0.1-0.2,0.2-0.4,0.3c-0.1,0.1-0.2,0.1-0.3,0.2
	c-0.1,0.1-0.2,0.2-0.4,0.3c-0.1,0.1-0.2,0.1-0.3,0.2c-0.1,0.1-0.3,0.1-0.4,0.2c-0.1,0-0.2,0.1-0.3,0.1c-0.1,0-0.3,0.1-0.4,0.1
	s-0.2,0.1-0.4,0.1c-0.1,0-0.3,0.1-0.4,0.1s-0.2,0-0.4,0c-0.1,0-0.2,0-0.2,0c-0.1,0-0.3,0-0.4,0c-0.8,0-1.7,0.1-2.5,0.2
	s-1.7,0.3-2.5,0.5c-13.7,3.2-22.2,16.9-18.9,30.6C1184.5,532.2,1192.2,539.8,1202,541.6z M1287.2,379c4.9,0,10.1,0.1,16.1,0.1
	s12,0,18,0s12,0,18,0h39.9c-0.2,0.4-0.5,0.8-0.7,1.2c-11.2,19-22.7,38.6-33.3,58.1c-1.7,3.2-2.1,3.4-5.8,3.4c-0.2,0-0.3,0-0.5,0
	c-8.5-0.2-17.5-0.2-29.2-0.2c-5.3,0-10.6,0-15.9,0s-10.6,0-15.8,0c-6.6,0-12,0-17.2-0.1c-0.4,0-0.8,0-1.2,0c-3.8,0-7.4,1.3-10.2,3.6
	C1261.9,422.9,1274.6,400.9,1287.2,379z M1218.5,497.3c-0.1,0.5-0.3,1-0.3,1.6c-0.3-0.2-0.6-0.3-0.8-0.5
	C1217.8,498,1218.1,497.6,1218.5,497.3z M1197.6,515.1c0-0.2,0.1-0.4,0.1-0.6c0-0.1,0.1-0.3,0.1-0.4c0-0.2,0.1-0.3,0.1-0.5
	c0-0.1,0.1-0.2,0.1-0.3c0.1-0.2,0.1-0.4,0.2-0.6c0-0.1,0.1-0.1,0.1-0.2c0.1-0.2,0.2-0.5,0.3-0.7c0,0,0,0,0-0.1c0.3-0.5,0.6-1,1-1.5
	l0,0c0.4-0.5,0.8-0.9,1.3-1.3l0.1-0.1c0.2-0.2,0.4-0.3,0.6-0.5c0.1,0,0.1-0.1,0.2-0.1c0.2-0.1,0.4-0.3,0.6-0.4
	c0.1,0,0.1-0.1,0.2-0.1c0.2-0.1,0.4-0.2,0.6-0.3c0.1,0,0.2-0.1,0.2-0.1c0.2-0.1,0.4-0.2,0.6-0.2c0.1,0,0.2-0.1,0.3-0.1
	c0.2-0.1,0.4-0.1,0.6-0.2c0.1,0,0.2,0,0.4-0.1c0.2,0,0.4-0.1,0.6-0.1c0.1,0,0.3,0,0.4,0c0.2,0,0.4,0,0.5,0l0,0c0.2,0,0.3,0,0.5,0
	c0.1,0,0.2,0,0.3,0c5.3,0.2,9.4,4.6,9.2,9.8c0,1-0.2,1.9-0.4,2.8c-0.2,0.6-0.4,1.2-0.7,1.7c-0.1,0.3-0.3,0.5-0.5,0.8
	c-1.7,2.5-4.6,4.2-7.9,4.2c-0.1,0-0.3,0-0.4,0l0,0h-0.1c-0.2,0-0.3,0-0.4,0c-0.2,0-0.3,0-0.5,0s-0.3,0-0.5-0.1c-0.2,0-0.3,0-0.5-0.1
	c-0.2,0-0.3-0.1-0.5-0.1c-0.1,0-0.3-0.1-0.4-0.1c-0.2,0-0.3-0.1-0.5-0.2c-0.1-0.1-0.3-0.1-0.4-0.2c-0.1-0.1-0.3-0.1-0.4-0.2
	c-0.1-0.1-0.3-0.1-0.4-0.2c-0.1-0.1-0.3-0.2-0.4-0.2c-0.1-0.1-0.3-0.1-0.4-0.2c-0.1-0.1-0.3-0.2-0.4-0.3s-0.2-0.2-0.4-0.3
	c-0.1-0.1-0.2-0.2-0.3-0.3c-0.1-0.1-0.2-0.2-0.3-0.3c-0.1-0.1-0.2-0.2-0.3-0.3c-0.1-0.1-0.2-0.2-0.3-0.3c-0.1-0.1-0.2-0.2-0.3-0.4
	c-0.1-0.1-0.2-0.2-0.3-0.4c-0.1-0.1-0.2-0.3-0.3-0.4c-0.1-0.1-0.2-0.2-0.2-0.4c-0.1-0.1-0.1-0.3-0.2-0.4c-0.1-0.1-0.1-0.3-0.2-0.4
	c-0.1-0.2-0.1-0.3-0.2-0.5c0-0.1-0.1-0.3-0.1-0.4c-0.1-0.2-0.1-0.3-0.1-0.5c0-0.1-0.1-0.3-0.1-0.4c0-0.2-0.1-0.4-0.1-0.6
	c0-0.1,0-0.2-0.1-0.3c0-0.3-0.1-0.6-0.1-1c0-0.1,0-0.3,0-0.4c0-0.3,0-0.7,0.1-1C1197.6,515.3,1197.6,515.2,1197.6,515.1z"/>
<path d="M1190.2,718.9c-0.2-0.6-0.4-1.1-0.6-1.7C1189.8,717.8,1190,718.4,1190.2,718.9z"/>
<path d="M1535.5,542.2c-0.1,0.1-0.3,0.3-0.4,0.4C1535.3,542.5,1535.4,542.4,1535.5,542.2z"/>
<path d="M1191.5,722.7c-0.2-0.6-0.4-1.1-0.6-1.7C1191.1,721.6,1191.3,722.1,1191.5,722.7z"/>
<path d="M1192.9,726.3c-0.2-0.5-0.4-1.1-0.6-1.6C1192.5,725.3,1192.7,725.8,1192.9,726.3z"/>
<path d="M1195.9,733.5c-0.2-0.4-0.4-0.8-0.5-1.2C1195.6,732.7,1195.8,733.1,1195.9,733.5z"/>
<path d="M1194.4,730c-0.2-0.5-0.4-1-0.6-1.5C1194,728.9,1194.2,729.5,1194.4,730z"/>
<path d="M1185.9,703.6c-0.1-0.6-0.3-1.1-0.4-1.7C1185.6,702.4,1185.7,703,1185.9,703.6z"/>
<path d="M1186.8,707.5c-0.1-0.6-0.3-1.2-0.4-1.7C1186.5,706.3,1186.7,706.9,1186.8,707.5z"/>
<path d="M1189,715.2c-0.2-0.6-0.4-1.1-0.5-1.7C1188.6,714,1188.8,714.6,1189,715.2z"/>
<path d="M1187.9,711.4c-0.2-0.6-0.3-1.2-0.5-1.7C1187.5,710.2,1187.7,710.8,1187.9,711.4z"/>
<path d="M1200.1,742c-0.3-0.5-0.5-1-0.8-1.5C1199.5,741,1199.8,741.5,1200.1,742z"/>
<path d="M1198.2,738.3c-0.2-0.4-0.4-0.9-0.6-1.3C1197.8,737.4,1198,737.9,1198.2,738.3z"/>
<path d="M1203.9,748.9c-0.3-0.5-0.6-1.1-0.9-1.6C1203.2,747.8,1203.5,748.3,1203.9,748.9z"/>
<path d="M1509.9,652.1c0.3,3.3,0.5,6.5,0.6,9.8C1510.4,658.6,1510.2,655.4,1509.9,652.1z"/>
<path d="M1185,699.6c-0.1-0.6-0.2-1.1-0.3-1.7C1184.7,698.5,1184.9,699,1185,699.6z"/>
<path d="M1205.8,752.2c-0.3-0.5-0.7-1.1-1-1.6C1205.2,751.1,1205.5,751.7,1205.8,752.2z"/>
<path d="M1477,685.3c2.8-4.9,5.6-9.8,8.4-14.8C1482.6,675.5,1479.8,680.4,1477,685.3z"/>
<path d="M1534.3,543.6c-0.2,0.3-0.3,0.5-0.4,0.8C1534,544.2,1534.1,543.9,1534.3,543.6z"/>
<path d="M1201.9,745.5c-0.3-0.5-0.6-1.1-0.9-1.6C1201.3,744.4,1201.6,745,1201.9,745.5z"/>
<path d="M1207.9,755.5c-0.3-0.5-0.7-1.1-1-1.6C1207.2,754.4,1207.6,754.9,1207.9,755.5z"/>
<path d="M1210,758.7c-0.4-0.5-0.7-1.1-1.1-1.6C1209.3,757.6,1209.7,758.1,1210,758.7z"/>
<path d="M1364.2,745c0.6-0.1,1.2-0.3,1.8-0.5C1365.4,744.7,1364.8,744.9,1364.2,745z"/>
<path d="M1360.6,745.8c0.6-0.1,1.2-0.2,1.8-0.4C1361.8,745.6,1361.2,745.7,1360.6,745.8z"/>
<path d="M1555,535.1c-1.3,1-2.6,1.9-4.1,2.7C1552.3,537,1553.7,536.1,1555,535.1z"/>
<path d="M1357,746.4c0.6-0.1,1.2-0.2,1.9-0.3C1358.2,746.2,1357.6,746.3,1357,746.4z"/>
<path d="M1536.3,541.7c-0.1,0.1-0.3,0.2-0.4,0.3C1536,541.9,1536.1,541.8,1536.3,541.7z"/>
<path d="M1371.2,743c0.6-0.2,1.2-0.4,1.7-0.6C1372.3,742.6,1371.7,742.8,1371.2,743z"/>
<path d="M1374.6,741.7c0.6-0.2,1.1-0.5,1.7-0.7C1375.7,741.3,1375.2,741.5,1374.6,741.7z"/>
<path d="M1353.3,746.8c0.6-0.1,1.3-0.1,1.9-0.2C1354.6,746.7,1354,746.7,1353.3,746.8z"/>
<path d="M1560.6,528.8c-0.4,0.7-0.9,1.4-1.4,2C1559.7,530.1,1560.2,529.5,1560.6,528.8z"/>
<path d="M1367.7,744.1c0.6-0.2,1.2-0.3,1.8-0.5C1368.9,743.8,1368.3,743.9,1367.7,744.1z"/>
<path d="M1549.7,538.4c-1.5,0.7-3.1,1.2-4.7,1.6C1546.7,539.6,1548.2,539.1,1549.7,538.4z"/>
<path d="M1265.3,682.5c0.4,0.1,0.8,0.3,1,0.6C1266.1,682.8,1265.7,682.6,1265.3,682.5z"/>
<path d="M1538.9,540.7c-0.2,0-0.3,0.1-0.5,0.1C1538.5,540.8,1538.7,540.8,1538.9,540.7z"/>
<path d="M1184.2,695.5c-0.1-0.5-0.2-1.1-0.3-1.6C1184,694.5,1184.1,695,1184.2,695.5z"/>
<path d="M1266.7,683.5c0.2,0.3,0.4,0.7,0.6,1.2C1267.1,684.2,1267,683.8,1266.7,683.5z"/>
<path d="M1183.5,691.3c-0.1-0.4-0.1-0.9-0.2-1.3C1183.3,690.4,1183.4,690.8,1183.5,691.3z"/>
<path d="M1537.1,541.3c-0.2,0.1-0.3,0.2-0.5,0.2C1536.8,541.4,1536.9,541.3,1537.1,541.3z"/>
<path d="M1538,540.9c-0.2,0-0.3,0.1-0.5,0.2C1537.6,541.1,1537.8,541,1538,540.9z"/>
<path d="M1349.7,747c0.6,0,1.3,0,1.9-0.1C1350.9,747,1350.3,747,1349.7,747z"/>
<path d="M1294.4,728.5c1.3,1.1,2.6,2.1,3.9,3.1C1297,730.6,1295.7,729.5,1294.4,728.5z"/>
<path d="M1319.5,742.4c1.7,0.6,3.5,1.1,5.3,1.6C1322.9,743.5,1321.2,743,1319.5,742.4z"/>
<path d="M1300.6,824.1c-0.5-0.2-1.1-0.3-1.6-0.5C1299.6,823.8,1300.1,823.9,1300.6,824.1z"/>
<path d="M1297,823c-0.6-0.2-1.1-0.4-1.7-0.5C1295.8,822.6,1296.4,822.8,1297,823z"/>
<path d="M1286.1,819.2c-0.6-0.2-1.2-0.5-1.7-0.7C1285,818.7,1285.5,818.9,1286.1,819.2z"/>
<path d="M1293.3,821.8c-0.6-0.2-1.1-0.4-1.7-0.6C1292.2,821.4,1292.7,821.6,1293.3,821.8z"/>
<path d="M1212.2,761.8c-0.4-0.5-0.7-1-1.1-1.6C1211.5,760.8,1211.9,761.3,1212.2,761.8z"/>
<path d="M1279.1,816.2c-0.6-0.3-1.1-0.5-1.7-0.8C1277.9,815.7,1278.5,816,1279.1,816.2z"/>
<path d="M1282.6,817.7c-0.6-0.2-1.2-0.5-1.7-0.7C1281.4,817.3,1282,817.5,1282.6,817.7z"/>
<path d="M1349.6,830.3c-1,0-2,0-3,0C1347.6,830.3,1348.6,830.3,1349.6,830.3z"/>
<path d="M1275.6,814.6c-0.6-0.3-1.1-0.5-1.7-0.8C1274.5,814.1,1275,814.4,1275.6,814.6z"/>
<path d="M1265.4,809.4c-0.5-0.3-1.1-0.6-1.6-0.9C1264.3,808.8,1264.9,809.1,1265.4,809.4z"/>
<path d="M1268.8,811.2c-0.5-0.3-1.1-0.6-1.6-0.9C1267.7,810.6,1268.2,810.9,1268.8,811.2z"/>
<path d="M1272.2,813c-0.6-0.3-1.1-0.6-1.7-0.8C1271,812.4,1271.6,812.7,1272.2,813z"/>
<path d="M1260.6,806.6c-0.5-0.3-1.1-0.7-1.6-1C1259.6,805.9,1260.1,806.3,1260.6,806.6z"/>
<path d="M1325.1,829.1c-0.6-0.1-1.1-0.1-1.7-0.2C1324,828.9,1324.5,829,1325.1,829.1z"/>
<path d="M1321.2,828.5c-0.6-0.1-1.1-0.2-1.7-0.3C1320.1,828.4,1320.6,828.4,1321.2,828.5z"/>
<path d="M1317.3,827.9c-0.5-0.1-1.1-0.2-1.6-0.3C1316.2,827.7,1316.7,827.8,1317.3,827.9z"/>
<path d="M1329,829.5c-0.6-0.1-1.2-0.1-1.7-0.2C1327.9,829.4,1328.5,829.5,1329,829.5z"/>
<path d="M1336.9,830.1c-0.6,0-1.2-0.1-1.8-0.1C1335.8,830,1336.3,830.1,1336.9,830.1z"/>
<path d="M1308.8,826.2c-0.3-0.1-0.6-0.1-1-0.2C1308.1,826,1308.5,826.1,1308.8,826.2z"/>
<path d="M1304.4,825.1c-0.5-0.1-1-0.3-1.5-0.4C1303.4,824.8,1303.9,825,1304.4,825.1z"/>
<path d="M1313.3,827.1c-0.5-0.1-1-0.2-1.4-0.3C1312.3,827,1312.8,827,1313.3,827.1z"/>
<path d="M1340.9,830.3c-0.6,0-1.2,0-1.7-0.1C1339.7,830.2,1340.3,830.3,1340.9,830.3z"/>
<path d="M1333,829.9c-0.6,0-1.2-0.1-1.8-0.1C1331.8,829.8,1332.4,829.8,1333,829.9z"/>
<path d="M1289.7,820.5c-0.6-0.2-1.2-0.4-1.7-0.6C1288.5,820.1,1289.1,820.3,1289.7,820.5z"/>
<path d="M1225.4,777.9c-0.8-0.9-1.6-1.8-2.4-2.7C1223.8,776.1,1224.6,777,1225.4,777.9z"/>
<path d="M1439.4,801.2c-9.1,6.3-18.8,11.6-29,16C1420.6,812.8,1430.3,807.5,1439.4,801.2z"/>
<path d="M1228.1,780.7c-0.5-0.5-0.9-0.9-1.4-1.4C1227.2,779.8,1227.6,780.2,1228.1,780.7z"/>
<path d="M1359.2,829.8c-1,0.1-2.1,0.2-3.1,0.2C1357.1,829.9,1358.1,829.8,1359.2,829.8z"/>
<path d="M1405.8,819c-4.9,1.9-9.8,3.6-14.9,5C1396,822.6,1400.9,820.9,1405.8,819z"/>
<path d="M1230.8,783.4c-0.5-0.5-0.9-0.9-1.4-1.4C1229.8,782.5,1230.3,782.9,1230.8,783.4z"/>
<path d="M1257.4,804.6c-0.5-0.3-1.1-0.7-1.6-1.1C1256.3,803.9,1256.9,804.2,1257.4,804.6z"/>
<path d="M1214.5,764.9c-0.4-0.5-0.8-1-1.1-1.5C1213.7,763.8,1214.1,764.4,1214.5,764.9z"/>
<path d="M1216.8,767.9c-0.4-0.5-0.8-1-1.2-1.5C1216,766.9,1216.4,767.4,1216.8,767.9z"/>
<path d="M1219.2,770.9c-0.4-0.5-0.8-1-1.2-1.5C1218.4,769.9,1218.8,770.4,1219.2,770.9z"/>
<path d="M1221.7,773.8c-0.4-0.5-0.8-1-1.3-1.5C1220.9,772.8,1221.3,773.3,1221.7,773.8z"/>
<path d="M1378,740.3c0.6-0.2,1.1-0.5,1.7-0.8C1379.1,739.8,1378.5,740.1,1378,740.3z"/>
<path d="M1251.1,800.4c-0.5-0.4-1.1-0.8-1.6-1.1C1250.1,799.6,1250.6,800,1251.1,800.4z"/>
<path d="M1248.1,798.1c-0.5-0.4-1-0.8-1.6-1.2C1247,797.4,1247.5,797.8,1248.1,798.1z"/>
<path d="M1354.3,830.1c-1,0.1-2,0.1-2.9,0.1C1352.3,830.2,1353.3,830.1,1354.3,830.1z"/>
<path d="M1233.5,786c-0.5-0.4-1-0.9-1.4-1.4C1232.5,785.1,1233,785.6,1233.5,786z"/>
<path d="M1254.3,802.5c-0.5-0.4-1.1-0.7-1.6-1.1C1253.2,801.8,1253.7,802.2,1254.3,802.5z"/>
<path d="M1236.3,788.6c-0.5-0.4-1-0.9-1.5-1.3C1235.3,787.7,1235.8,788.1,1236.3,788.6z"/>
<path d="M1239.2,791.1c-0.5-0.4-1-0.9-1.5-1.3C1238.2,790.2,1238.7,790.6,1239.2,791.1z"/>
<path d="M1242.1,793.5c-0.5-0.4-1-0.8-1.5-1.3C1241.1,792.7,1241.6,793.1,1242.1,793.5z"/>
<path d="M1245,795.9c-0.5-0.4-1-0.8-1.6-1.2C1244,795,1244.5,795.5,1245,795.9z"/>
<path d="M1420.9,697.2c0.3-0.6,0.5-1.2,0.7-1.8C1421.4,696,1421.2,696.6,1420.9,697.2z"/>
<path d="M1347.2,747.1c0.2,0,0.4,0,0.7,0c-1,0-2,0-3.1,0c-4.6-0.2-9.2-0.7-13.6-1.5c4.4,0.8,9,1.3,13.6,1.5
	C1345.6,747.1,1346.4,747.1,1347.2,747.1z"/>
<path d="M1403.5,722.7c-0.4,0.4-0.9,0.9-1.3,1.3C1402.6,723.6,1403,723.2,1403.5,722.7z"/>
<path d="M1488.5,581.1c-0.2,0.2-0.4,0.5-0.8,0.6C1488.1,581.5,1488.3,581.3,1488.5,581.1z"/>
<path d="M1445.4,538.6C1445.4,538.7,1445.4,538.7,1445.4,538.6c-6.6,11.6-13.2,23.1-19.8,34.6
	C1432.2,561.7,1438.8,550.2,1445.4,538.6C1445.4,538.7,1445.4,538.7,1445.4,538.6z"/>
<path d="M1529.3,491.6L1529.3,491.6c-0.2,0.1-0.4,0.2-0.6,0.2C1528.9,491.7,1529.1,491.7,1529.3,491.6L1529.3,491.6z"/>
<path d="M1562.2,504.6c0.3,0.5,0.5,1.1,0.7,1.7C1562.7,505.7,1562.4,505.2,1562.2,504.6z"/>
<path d="M1496.1,567.6c-2.2,3.8-4.4,7.6-6.6,11.4c-0.3,0.5-0.5,1.1-0.8,1.7c0.3-0.5,0.5-1.2,0.8-1.7
	C1491.8,575.2,1494,571.4,1496.1,567.6z"/>
<path d="M1539.3,540.7c0.2,0,0.4,0,0.6,0c-0.1,0-0.1,0-0.2,0C1539.6,540.7,1539.5,540.7,1539.3,540.7z"/>
<path d="M1534.5,543.4c0.1-0.2,0.2-0.3,0.4-0.5C1534.7,543,1534.6,543.2,1534.5,543.4z"/>
<path d="M1472.8,692.6c1.4-2.5,2.8-4.9,4.2-7.4C1475.6,687.7,1474.2,690.2,1472.8,692.6c-0.2,0.1-0.4,0.3-0.5,0.5
	C1472.4,692.9,1472.6,692.7,1472.8,692.6z"/>
<path d="M1365.3,829.1c-1.6,0.2-3.1,0.3-4.6,0.5C1362.2,829.5,1363.8,829.3,1365.3,829.1c0.5-0.1,1.1-0.1,1.6-0.2
	c5.7-0.7,11.3-1.8,16.7-3c-5.5,1.3-11.1,2.3-16.7,3C1366.4,829,1365.8,829.1,1365.3,829.1z"/>
<path d="M1447.3,694.5L1447.3,694.5l8.2-14.8c0.3-0.5,0.6-1,1-1.4c-0.3,0.5-0.7,1-1,1.4L1447.3,694.5z"/>
<path d="M1558.9,499.4c0.4,0.4,0.7,0.9,1,1.4C1559.6,500.3,1559.3,499.9,1558.9,499.4z"/>
<path d="M1550,492.4c0.5,0.2,1,0.5,1.5,0.8C1551,492.9,1550.5,492.6,1550,492.4z"/>
<path d="M1544.6,490.5c0.5,0.1,1,0.3,1.5,0.4C1545.6,490.7,1545.1,490.6,1544.6,490.5z"/>
<path d="M1546.5,491c0.5,0.2,1.1,0.3,1.6,0.6C1547.6,491.4,1547,491.2,1546.5,491z"/>
<path d="M1548.3,491.6c0.5,0.2,0.9,0.4,1.4,0.6C1549.2,492,1548.8,491.8,1548.3,491.6z"/>
<path d="M1561.1,502.7c0.3,0.5,0.6,1,0.8,1.6C1561.7,503.7,1561.4,503.2,1561.1,502.7z"/>
<path d="M1553.3,494.3c0.5,0.3,0.9,0.6,1.4,1C1554.2,494.9,1553.8,494.6,1553.3,494.3z"/>
<path d="M1555,535.1c1.3-1,2.4-2.2,3.5-3.4C1557.4,533,1556.2,534.1,1555,535.1z"/>
<path d="M1381.3,738.8c0.5-0.3,1.1-0.6,1.6-0.8C1382.4,738.2,1381.8,738.5,1381.3,738.8z"/>
<path d="M1556.3,496.6c0.4,0.4,0.8,0.8,1.2,1.2C1557.1,497.4,1556.7,497,1556.3,496.6z"/>
<path d="M1557.8,498.1c0.3,0.4,0.7,0.8,1,1.2C1558.4,498.9,1558.1,498.5,1557.8,498.1z"/>
<path d="M1554.9,495.5c0.4,0.3,0.8,0.6,1.1,1C1555.7,496.1,1555.3,495.8,1554.9,495.5z"/>
<path d="M1551.7,493.3c0.4,0.2,0.9,0.5,1.3,0.8C1552.6,493.8,1552.2,493.6,1551.7,493.3z"/>
<path d="M1529.4,517.8c0-0.2-0.1-0.4-0.1-0.6C1529.4,517.4,1529.4,517.6,1529.4,517.8z"/>
<path d="M1529.3,516.9c0-0.3-0.1-0.6-0.1-0.9C1529.2,516.3,1529.2,516.6,1529.3,516.9z"/>
<path d="M1529.7,518.7c-0.1-0.2-0.1-0.4-0.2-0.5C1529.6,518.4,1529.6,518.5,1529.7,518.7z"/>
<path d="M1530.5,520.4c-0.1-0.1-0.2-0.3-0.2-0.5C1530.3,520.1,1530.4,520.2,1530.5,520.4z"/>
<path d="M1532.1,508.4c0.4-0.4,0.9-0.8,1.4-1.2C1533,507.6,1532.5,508,1532.1,508.4z"/>
<path d="M1530,519.6c-0.1-0.2-0.1-0.3-0.2-0.5C1529.9,519.2,1530,519.4,1530,519.6z"/>
<path d="M1535.1,506.4c0.6-0.3,1.3-0.5,1.9-0.6C1536.4,505.9,1535.7,506.1,1535.1,506.4z"/>
<path d="M1533.5,507.3c0.5-0.3,1-0.6,1.6-0.9C1534.5,506.6,1534,506.9,1533.5,507.3z"/>
<path d="M1538.4,525.2c0.1,0,0.2,0,0.4,0c0.1,0,0.2,0,0.3,0c0.6,0,1.2-0.1,1.8-0.3c-0.6,0.2-1.2,0.3-1.8,0.3
	C1538.8,525.2,1538.6,525.2,1538.4,525.2z"/>
<path d="M1547.6,511.9c0.1,0.4,0.2,0.7,0.3,1.1C1547.8,512.6,1547.7,512.3,1547.6,511.9z"/>
<path d="M1531,521.2c-0.1-0.1-0.2-0.3-0.3-0.4C1530.8,520.9,1530.9,521,1531,521.2z"/>
<path d="M1545.6,508.7c0.6,0.7,1.2,1.5,1.6,2.3C1546.8,510.2,1546.2,509.4,1545.6,508.7z"/>
<path d="M1537,525c-0.2,0-0.3-0.1-0.5-0.1C1536.7,525,1536.8,525,1537,525z"/>
<path d="M1527.7,533c-0.1,0.7-0.3,1.3-0.5,1.9c0.5-0.5,1-0.9,1.5-1.3C1528.4,533.4,1528,533.2,1527.7,533z"/>
<path d="M1537.9,525.1c-0.2,0-0.3,0-0.5-0.1C1537.6,525.1,1537.7,525.1,1537.9,525.1z"/>
<path d="M1536.1,524.8c-0.2,0-0.3-0.1-0.5-0.2C1535.8,524.7,1535.9,524.8,1536.1,524.8z"/>
<path d="M1532.8,523.1c-0.1-0.1-0.2-0.2-0.4-0.3C1532.6,522.9,1532.7,523,1532.8,523.1z"/>
<path d="M1532.1,522.5c-0.1-0.1-0.2-0.2-0.3-0.4C1531.9,522.3,1532,522.4,1532.1,522.5z"/>
<path d="M1531.5,521.9c-0.1-0.1-0.2-0.3-0.3-0.4C1531.3,521.6,1531.4,521.8,1531.5,521.9z"/>
<path d="M1535.2,524.5c-0.2-0.1-0.3-0.1-0.4-0.2C1534.9,524.4,1535,524.4,1535.2,524.5z"/>
<path d="M1534.4,524.1c-0.1-0.1-0.3-0.2-0.4-0.2C1534.1,524,1534.2,524,1534.4,524.1z"/>
<path d="M1533.6,523.7c-0.1-0.1-0.3-0.2-0.4-0.3C1533.3,523.5,1533.4,523.6,1533.6,523.7z"/>
<path d="M1560.2,501.2c0.3,0.4,0.6,0.9,0.9,1.4C1560.8,502.1,1560.5,501.6,1560.2,501.2z"/>
<path d="M1561.8,526.6c-0.4,0.7-0.8,1.4-1.2,2.1C1561.1,528.1,1561.5,527.4,1561.8,526.6z"/>
<path d="M1422.3,693.8c0.2-0.6,0.4-1.2,0.6-1.9C1422.7,692.6,1422.5,693.2,1422.3,693.8z"/>
<path d="M1423.5,690.4c0.2-0.6,0.4-1.3,0.6-2C1423.9,689.1,1423.7,689.8,1423.5,690.4z"/>
<path d="M1424.5,686.9c0.2-0.7,0.3-1.4,0.5-2.1C1424.8,685.5,1424.7,686.2,1424.5,686.9z"/>
<path d="M1419.4,700.5c0.3-0.6,0.5-1.1,0.8-1.7C1419.9,699.4,1419.7,700,1419.4,700.5z"/>
<path d="M1417.7,703.8c0.3-0.5,0.6-1.1,0.9-1.7C1418.3,702.7,1418,703.2,1417.7,703.8z"/>
<path d="M1427.1,661c-0.2-2.5-0.5-4.9-0.9-7.4C1426.7,656.1,1426.9,658.6,1427.1,661z"/>
<path d="M1425.6,650c-1-4.8-2.4-9.5-4.3-14.1C1423.1,640.5,1424.6,645.2,1425.6,650z"/>
<path d="M1416.5,626.1c-1.2-2.1-2.5-4.2-3.9-6.2C1414,621.9,1415.3,623.9,1416.5,626.1z"/>
<path d="M1415.9,706.9c0.3-0.5,0.6-1.1,0.9-1.6C1416.5,705.9,1416.2,706.4,1415.9,706.9z"/>
<path d="M1426,679.7c0.2-1.2,0.3-2.4,0.5-3.7C1426.4,677.3,1426.2,678.5,1426,679.7z"/>
<path d="M1425.3,683.3c0.2-0.8,0.3-1.6,0.4-2.4C1425.6,681.7,1425.5,682.5,1425.3,683.3z"/>
<path d="M1411.8,713c0.4-0.5,0.7-1,1.1-1.5C1412.5,712,1412.2,712.5,1411.8,713z"/>
<path d="M1396.7,728.9c0.5-0.4,0.9-0.8,1.4-1.2C1397.6,728.1,1397.1,728.5,1396.7,728.9z"/>
<path d="M1390.8,733.2c0.5-0.3,1-0.7,1.5-1C1391.8,732.5,1391.3,732.9,1390.8,733.2z"/>
<path d="M1393.8,731.1c0.5-0.4,1-0.7,1.4-1.1C1394.7,730.4,1394.2,730.7,1393.8,731.1z"/>
<path d="M1384.5,737.1c0.5-0.3,1.1-0.6,1.6-0.9C1385.6,736.5,1385.1,736.8,1384.5,737.1z"/>
<path d="M1387.7,735.2c0.5-0.3,1-0.6,1.5-1C1388.7,734.6,1388.2,734.9,1387.7,735.2z"/>
<path d="M1399.5,726.5c0.5-0.4,0.9-0.8,1.3-1.2C1400.4,725.7,1399.9,726.1,1399.5,726.5z"/>
<path d="M1409.6,715.9c0.4-0.5,0.7-1,1.1-1.4C1410.4,715,1410,715.4,1409.6,715.9z"/>
<path d="M1410.4,616.8c-1.5-2-3.1-3.9-4.8-5.7C1407.3,613,1408.9,614.9,1410.4,616.8z"/>
<path d="M1404.8,721.4c0.4-0.4,0.8-0.9,1.2-1.3C1405.6,720.5,1405.2,721,1404.8,721.4z"/>
<path d="M1413.9,710c0.3-0.5,0.7-1,1-1.5C1414.6,709,1414.3,709.5,1413.9,710z"/>
<path d="M1542.8,490.1c0.6,0.1,1.1,0.2,1.7,0.3C1543.9,490.3,1543.4,490.2,1542.8,490.1z"/>
<path d="M1407.3,718.7c0.4-0.5,0.8-0.9,1.2-1.4C1408,717.8,1407.6,718.3,1407.3,718.7z"/>
<path d="M1534.2,490.2c0.2,0,0.4-0.1,0.5-0.1C1534.6,490.2,1534.4,490.2,1534.2,490.2z"/>
<path d="M1533,490.5c0.2,0,0.3-0.1,0.5-0.1C1533.3,490.4,1533.1,490.4,1533,490.5z"/>
<path d="M1531.7,490.8c0.2,0,0.3-0.1,0.5-0.1C1532.1,490.7,1531.9,490.7,1531.7,490.8z"/>
<path d="M1496.1,567.6c6.6-11.4,13.1-22.8,19.7-34.1C1509.2,544.9,1502.7,556.2,1496.1,567.6z"/>
<path d="M1530.5,491.2c0.1,0,0.3-0.1,0.4-0.1C1530.8,491.1,1530.7,491.1,1530.5,491.2z"/>
<path d="M1535.4,490c0.2,0,0.4,0,0.5-0.1C1535.8,490,1535.6,490,1535.4,490z"/>
<path d="M1473,561.6c3.3,4,6.3,8.2,9.2,12.5C1479.4,569.8,1476.3,565.6,1473,561.6z"/>
<path d="M1540.7,489.9c0.6,0,1.1,0.1,1.7,0.2C1541.8,490,1541.3,489.9,1540.7,489.9z"/>
<path d="M1539,489.8c0.6,0,1.1,0,1.7,0.1C1540.1,489.8,1539.5,489.8,1539,489.8z"/>
<path d="M1537.9,489.8c0.2,0,0.4,0,0.6,0C1538.3,489.8,1538.1,489.8,1537.9,489.8z"/>
<path d="M1536.7,489.9c0.2,0,0.4,0,0.6,0C1537,489.9,1536.9,489.9,1536.7,489.9z"/>
<path d="M1446.9,537L1446.9,537L1446.9,537z"/>
<path d="M1446.4,537.3L1446.4,537.3C1446.5,537.3,1446.5,537.3,1446.4,537.3z"/>
<path d="M1446.2,537.6L1446.2,537.6C1446.2,537.5,1446.2,537.5,1446.2,537.6z"/>
<path d="M1445.7,538.2L1445.7,538.2C1445.7,538.2,1445.7,538.2,1445.7,538.2z"/>
<path d="M1446.7,537.1C1446.7,537.1,1446.8,537.1,1446.7,537.1C1446.7,537.1,1446.7,537.1,1446.7,537.1z"/>
<path d="M1445.9,537.9L1445.9,537.9C1446,537.8,1446,537.8,1445.9,537.9z"/>
<path d="M1448.4,537.3c0.2,0.1,0.4,0.2,0.6,0.4C1448.8,537.5,1448.6,537.4,1448.4,537.3z"/>
<path d="M1405.1,610.2c-0.1-0.3-0.1-0.6-0.1-0.8C1404.9,609.7,1405,609.9,1405.1,610.2z"/>
<path d="M1449,537.7c0.2,0.1,0.4,0.3,0.6,0.5C1449.4,538,1449.2,537.8,1449,537.7z"/>
<path d="M1447.9,537c0.2,0.1,0.3,0.1,0.5,0.2C1448.2,537.2,1448,537.1,1447.9,537z"/>
<path d="M1447.4,536.9c0.2,0,0.3,0,0.5,0.1C1447.7,537,1447.5,536.9,1447.4,536.9z"/>
<path d="M1447.1,537L1447.1,537C1447.2,536.9,1447.2,536.9,1447.1,537z"/>
<path d="M1344.9,830.3c-0.6,0-1.1,0-1.7,0C1343.8,830.3,1344.3,830.3,1344.9,830.3z"/>
<path class="st7" d="M1564.5,514.4c-0.1-2.1-0.4-4.1-1-6.1c-0.2-0.7-0.4-1.3-0.7-2l0,0c-0.2-0.6-0.5-1.1-0.7-1.7
	c-0.1-0.1-0.1-0.3-0.2-0.4c-0.3-0.5-0.5-1.1-0.8-1.6l-0.1-0.1c-0.3-0.5-0.6-0.9-0.9-1.4c-0.1-0.1-0.2-0.2-0.2-0.3
	c-0.3-0.5-0.7-0.9-1-1.4c-0.1-0.1-0.1-0.1-0.2-0.2c-0.3-0.4-0.7-0.8-1-1.2c-0.1-0.1-0.2-0.2-0.3-0.3c-0.4-0.4-0.8-0.8-1.2-1.2
	c-0.1-0.1-0.2-0.1-0.2-0.2c-0.4-0.3-0.8-0.7-1.1-1c-0.1-0.1-0.2-0.1-0.3-0.2c-0.4-0.3-0.9-0.7-1.4-1c-0.1-0.1-0.2-0.1-0.3-0.2
	c-0.4-0.3-0.8-0.5-1.3-0.8c-0.1,0-0.2-0.1-0.2-0.1c-0.5-0.3-1-0.5-1.5-0.8c-0.1-0.1-0.2-0.1-0.3-0.2c-0.5-0.2-0.9-0.4-1.4-0.6
	c-0.1,0-0.1-0.1-0.2-0.1c-0.5-0.2-1.1-0.4-1.6-0.6c-0.1,0-0.2-0.1-0.4-0.1c-0.5-0.2-1-0.3-1.5-0.4h-0.1c-0.6-0.1-1.1-0.2-1.7-0.3
	c-0.1,0-0.3,0-0.4-0.1c-0.6-0.1-1.1-0.1-1.7-0.2l0,0c-0.6,0-1.1-0.1-1.7-0.1c-0.1,0-0.1,0-0.2,0s-0.2,0-0.3,0c-0.2,0-0.4,0-0.6,0
	s-0.5,0-0.7,0s-0.4,0-0.6,0s-0.5,0-0.7,0.1c-0.2,0-0.4,0-0.5,0.1c-0.2,0-0.5,0.1-0.7,0.1s-0.4,0.1-0.5,0.1c-0.2,0-0.5,0.1-0.7,0.1
	s-0.3,0.1-0.5,0.1c-0.2,0.1-0.5,0.1-0.7,0.2c-0.2,0-0.3,0.1-0.5,0.1c-0.3,0.1-0.5,0.2-0.8,0.2c-0.1,0-0.3,0.1-0.4,0.1
	c-0.4,0.1-0.8,0.3-1.2,0.4l0,0c-0.2,0.1-0.4,0.1-0.5,0.2c-12.9,5.5-19,20.4-13.5,33.4c0.2,0.5,0.5,1.1,0.8,1.6
	c1.3,2,1.2,4.7-0.2,6.7c-6.6,11.4-13.1,22.7-19.7,34.1c-2.2,3.8-4.4,7.6-6.6,11.4c-0.3,0.5-0.5,1.1-0.8,1.7
	c-0.1,0.1-0.2,0.3-0.3,0.4c-0.2,0.2-0.4,0.5-0.8,0.6c-0.2,0.1-0.3,0.1-0.6,0.2l-2.6-4.1c-0.8-1.2-1.6-2.4-2.4-3.7
	c-2.9-4.3-5.9-8.5-9.2-12.5c-5.6-6.9-11.7-13.2-18.3-19.1c-1.7-1.5-3.3-2.9-5.1-4.3c-0.2-0.2-0.4-0.3-0.6-0.5l0,0
	c-0.2-0.1-0.4-0.3-0.6-0.4l0,0c-0.2-0.1-0.3-0.2-0.5-0.2l0,0c-0.2-0.1-0.3-0.1-0.5-0.1l0,0h-0.1h-0.1h-0.1h-0.1c0,0-0.1,0-0.1,0.1
	c0,0-0.1,0-0.1,0.1l-0.1,0.1l-0.1,0.1l-0.1,0.1l-0.1,0.1c0,0.1-0.1,0.1-0.1,0.2l-0.1,0.1c-0.1,0.1-0.1,0.2-0.2,0.2l-0.1,0.1
	c-0.1,0.1-0.2,0.3-0.2,0.4l0,0c-6.6,11.5-13.2,23-19.8,34.5c-6.6,11.5-13.3,23-19.9,34.5c-0.1,0.2-0.2,0.3-0.2,0.4
	c-0.2,0.3-0.3,0.6-0.4,0.8c0,0.1-0.1,0.3-0.1,0.4c0,0.3,0,0.5,0.1,0.8s0.3,0.6,0.6,0.9c1.7,1.8,3.3,3.7,4.8,5.7c0.7,1,1.5,2,2.2,3
	c1.4,2,2.7,4.1,3.9,6.2c1.8,3.2,3.4,6.5,4.8,9.9c1.8,4.5,3.3,9.2,4.3,14.1c0.3,1.2,0.5,2.4,0.7,3.6c0.4,2.4,0.7,4.9,0.9,7.4
	c0.1,1.2,0.2,2.5,0.2,3.7c-0.3,3.8-0.4,7.6-0.8,11.3c-0.1,1.2-0.3,2.4-0.5,3.7c-0.1,0.4-0.2,0.8-0.2,1.2c-0.1,0.8-0.3,1.6-0.4,2.4
	c-0.1,0.5-0.2,1-0.3,1.5c-0.2,0.7-0.3,1.4-0.5,2.1c-0.1,0.5-0.3,1-0.4,1.6c-0.2,0.7-0.4,1.3-0.6,2c-0.2,0.5-0.4,1.1-0.5,1.6
	c-0.2,0.6-0.4,1.2-0.6,1.9c-0.2,0.5-0.4,1.1-0.6,1.6c-0.2,0.6-0.5,1.2-0.7,1.8c-0.2,0.5-0.5,1.1-0.7,1.6c-0.3,0.6-0.5,1.1-0.8,1.7
	c-0.3,0.5-0.5,1.1-0.8,1.6c-0.3,0.6-0.6,1.1-0.9,1.7c-0.3,0.5-0.6,1-0.9,1.6c-0.3,0.5-0.6,1.1-0.9,1.6s-0.6,1-1,1.5
	c-0.3,0.5-0.7,1-1,1.5s-0.7,1-1,1.5s-0.7,1-1.1,1.5s-0.7,1-1.1,1.5s-0.7,1-1.1,1.4c-0.4,0.5-0.8,1-1.2,1.4c-0.4,0.5-0.8,0.9-1.2,1.4
	c-0.4,0.5-0.8,0.9-1.3,1.4c-0.4,0.4-0.8,0.9-1.2,1.3c-0.4,0.4-0.9,0.9-1.3,1.3c-0.4,0.4-0.9,0.9-1.3,1.3c-0.4,0.4-0.9,0.8-1.4,1.3
	c-0.4,0.4-0.9,0.8-1.3,1.2c-0.5,0.4-0.9,0.8-1.4,1.2s-0.9,0.8-1.4,1.2s-1,0.8-1.5,1.2s-1,0.7-1.4,1.1c-0.5,0.4-1,0.7-1.5,1.1
	c-0.5,0.3-1,0.7-1.5,1s-1,0.7-1.6,1c-0.5,0.3-1,0.7-1.5,1s-1.1,0.6-1.6,0.9c-0.5,0.3-1,0.6-1.6,0.9c-0.5,0.3-1.1,0.6-1.6,0.9
	c-0.5,0.3-1.1,0.6-1.6,0.8c-0.5,0.3-1.1,0.5-1.6,0.8c-0.6,0.3-1.1,0.5-1.7,0.8c-0.6,0.2-1.1,0.5-1.7,0.7s-1.1,0.5-1.7,0.7
	s-1.1,0.4-1.7,0.6c-0.6,0.2-1.2,0.4-1.7,0.6c-0.6,0.2-1.1,0.4-1.7,0.6c-0.6,0.2-1.2,0.4-1.8,0.5c-0.6,0.2-1.2,0.3-1.7,0.5
	c-0.6,0.2-1.2,0.3-1.8,0.5c-0.6,0.1-1.2,0.3-1.7,0.4c-0.6,0.1-1.2,0.3-1.8,0.4c-0.6,0.1-1.2,0.2-1.8,0.3c-0.6,0.1-1.2,0.2-1.9,0.3
	c-0.6,0.1-1.2,0.2-1.8,0.2c-0.6,0.1-1.2,0.1-1.9,0.2c-0.6,0.1-1.2,0.1-1.8,0.1c-0.6,0-1.3,0.1-1.9,0.1s-1.2,0-1.8,0
	c-0.2,0-0.4,0-0.7,0c-0.8,0-1.6,0-2.4,0c-4.6-0.2-9.2-0.7-13.6-1.5c-2.2-0.4-4.4-0.9-6.5-1.5c-1.8-0.5-3.5-1-5.3-1.6
	c-1.4-0.5-2.8-1-4.1-1.5c-1-0.4-2-0.8-3-1.3c-3-1.3-5.9-2.8-8.6-4.5c-1.8-1.1-3.6-2.3-5.4-3.6c-1.4-1-2.7-2-3.9-3.1
	c-2.9-2.4-5.6-4.9-8.1-7.7c-8.8-9.6-15.3-21.5-18.8-35.4c-0.1-0.3-0.1-0.5-0.2-0.8c-0.2-0.5-0.3-0.9-0.6-1.2
	c-0.1-0.2-0.2-0.3-0.4-0.4c-0.3-0.3-0.6-0.5-1-0.6s-0.9-0.2-1.5-0.2c-26,0-52.1,0-78.1,0c-2.9,0-3.2,1-3,3.6
	c0.2,1.4,0.3,2.7,0.5,4.1c0.1,0.4,0.1,0.9,0.2,1.3c0.1,0.9,0.3,1.8,0.4,2.7c0.1,0.5,0.2,1.1,0.3,1.6c0.1,0.8,0.3,1.6,0.4,2.4
	c0.1,0.6,0.2,1.1,0.3,1.7c0.2,0.8,0.3,1.5,0.5,2.3c0.1,0.6,0.3,1.1,0.4,1.7c0.2,0.7,0.3,1.5,0.5,2.2c0.1,0.6,0.3,1.2,0.4,1.7
	c0.2,0.7,0.4,1.4,0.6,2.1c0.2,0.6,0.3,1.2,0.5,1.7c0.2,0.7,0.4,1.4,0.6,2.1c0.2,0.6,0.3,1.2,0.5,1.7c0.2,0.7,0.4,1.4,0.7,2.1
	c0.2,0.6,0.4,1.1,0.6,1.7c0.2,0.7,0.5,1.4,0.7,2.1c0.2,0.6,0.4,1.1,0.6,1.7c0.3,0.7,0.5,1.4,0.8,2.1c0.2,0.5,0.4,1.1,0.6,1.6
	c0.3,0.7,0.6,1.4,0.9,2.1c0.2,0.5,0.4,1,0.6,1.5c0.3,0.8,0.7,1.6,1,2.3c0.2,0.4,0.4,0.8,0.5,1.2c0.5,1.2,1.1,2.3,1.6,3.5
	c0.2,0.4,0.4,0.9,0.6,1.3c0.4,0.7,0.7,1.4,1.1,2.2c0.3,0.5,0.5,1,0.8,1.5c0.3,0.6,0.7,1.3,1,1.9c0.3,0.5,0.6,1.1,0.9,1.6
	c0.3,0.6,0.7,1.2,1,1.8c0.3,0.5,0.6,1.1,0.9,1.6c0.3,0.6,0.7,1.1,1,1.7c0.3,0.5,0.7,1.1,1,1.6c0.3,0.6,0.7,1.1,1,1.7
	c0.3,0.5,0.7,1.1,1,1.6s0.7,1.1,1.1,1.6s0.7,1.1,1.1,1.6s0.7,1.1,1.1,1.6s0.7,1,1.1,1.6c0.4,0.5,0.7,1,1.1,1.5s0.8,1,1.1,1.5
	c0.4,0.5,0.8,1,1.1,1.5c0.4,0.5,0.8,1,1.2,1.5c0.4,0.5,0.8,1,1.2,1.5c0.4,0.5,0.8,1,1.2,1.5c0.4,0.5,0.8,1,1.2,1.4
	c0.4,0.5,0.8,1,1.3,1.5c0.4,0.5,0.9,1,1.3,1.5c0.8,0.9,1.6,1.8,2.4,2.7c0.4,0.5,0.9,0.9,1.3,1.4c0.5,0.5,0.9,0.9,1.4,1.4
	c0.4,0.4,0.8,0.9,1.3,1.3c0.5,0.5,0.9,0.9,1.4,1.4c0.4,0.4,0.9,0.8,1.3,1.3c0.5,0.5,1,0.9,1.4,1.4c0.4,0.4,0.9,0.8,1.3,1.2
	c0.5,0.4,1,0.9,1.5,1.3c0.5,0.4,0.9,0.8,1.4,1.2s1,0.9,1.5,1.3c0.5,0.4,0.9,0.8,1.4,1.2s1,0.8,1.5,1.3c0.5,0.4,0.9,0.8,1.4,1.1
	c0.5,0.4,1,0.8,1.6,1.2c0.5,0.4,1,0.7,1.4,1.1c0.5,0.4,1,0.8,1.6,1.2c0.5,0.4,1,0.7,1.5,1.1c0.5,0.4,1.1,0.8,1.6,1.1
	c0.5,0.4,1,0.7,1.5,1c0.5,0.4,1.1,0.7,1.6,1.1c0.5,0.3,1,0.7,1.6,1c0.5,0.4,1.1,0.7,1.6,1.1c0.5,0.3,1.1,0.7,1.6,1s1,0.7,1.6,1
	c1,0.6,2.1,1.3,3.2,1.9c0.5,0.3,1.1,0.6,1.6,0.9c0.6,0.3,1.1,0.7,1.7,1c0.5,0.3,1.1,0.6,1.6,0.9c0.6,0.3,1.1,0.6,1.7,0.9
	c0.6,0.3,1.1,0.6,1.7,0.8c0.6,0.3,1.1,0.6,1.7,0.9c0.6,0.3,1.1,0.5,1.7,0.8s1.2,0.6,1.8,0.8c0.6,0.3,1.1,0.5,1.7,0.8
	s1.2,0.5,1.8,0.8c0.6,0.2,1.2,0.5,1.7,0.7c0.6,0.3,1.2,0.5,1.8,0.7c0.6,0.2,1.2,0.5,1.7,0.7c0.6,0.2,1.2,0.5,1.8,0.7
	c0.6,0.2,1.2,0.4,1.7,0.6c0.6,0.2,1.3,0.5,1.9,0.7s1.1,0.4,1.7,0.6c0.7,0.2,1.3,0.4,2,0.6c0.6,0.2,1.1,0.4,1.7,0.5
	c0.7,0.2,1.4,0.4,2.1,0.6c0.5,0.2,1.1,0.3,1.6,0.5c0.8,0.2,1.5,0.4,2.3,0.6c0.5,0.1,1,0.3,1.5,0.4c1.1,0.3,2.3,0.6,3.5,0.9
	c0.3,0.1,0.6,0.1,1,0.2c1,0.2,2.1,0.5,3.1,0.7c0.5,0.1,1,0.2,1.4,0.3c0.8,0.2,1.6,0.3,2.4,0.5c0.5,0.1,1.1,0.2,1.6,0.3
	c0.7,0.1,1.5,0.3,2.2,0.4c0.6,0.1,1.1,0.2,1.7,0.3c0.7,0.1,1.5,0.2,2.2,0.3c0.6,0.1,1.1,0.1,1.7,0.2c0.7,0.1,1.5,0.2,2.2,0.3
	c0.6,0.1,1.2,0.1,1.7,0.2c0.7,0.1,1.5,0.1,2.2,0.2c0.6,0.1,1.2,0.1,1.8,0.1c0.7,0.1,1.5,0.1,2.2,0.2c0.6,0,1.2,0.1,1.8,0.1
	c0.7,0,1.5,0.1,2.2,0.1c0.6,0,1.2,0,1.7,0.1c0.8,0,1.5,0,2.3,0c0.6,0,1.1,0,1.7,0c0.2,0,0.4,0,0.5,0c0.4,0,0.8,0,1.1,0c1,0,2,0,3,0
	c0.6,0,1.2,0,1.8-0.1c1,0,2-0.1,2.9-0.1c0.6,0,1.2-0.1,1.7-0.1c1-0.1,2.1-0.1,3.1-0.2c0.5,0,1-0.1,1.5-0.1c1.5-0.1,3.1-0.3,4.6-0.5
	c0.5-0.1,1.1-0.1,1.6-0.2c5.7-0.7,11.3-1.8,16.7-3c2.4-0.6,4.8-1.2,7.2-1.8c5.1-1.4,10.1-3.1,14.9-5c1.5-0.6,3-1.2,4.5-1.8
	c10.2-4.4,20-9.7,29-16c3.3-2.2,6.4-4.6,9.5-7.1c1.5-1.2,3.1-2.5,4.6-3.8c3-2.6,5.9-5.3,8.7-8.1c9.8-9.8,18.4-20.8,25.5-32.9
	c7.1-12.1,12.7-25.2,16.6-39c3.2-11,5.2-22.4,6-33.8c0.3-4.9,0.4-9.8,0.3-14.7c-0.1-3.3-0.3-6.5-0.6-9.8c-0.6-6.5-1.6-13-3-19.4
	c-7.4,13-14.5,25.5-21.5,37.8c-2.8,4.9-5.6,9.9-8.4,14.8c-1.4,2.5-2.8,4.9-4.2,7.4c-0.2,0.1-0.4,0.3-0.5,0.5
	c-0.4,0.6-0.7,1.4-1.7,1.4h-23.3l0,0l8.2-14.8c0.3-0.5,0.6-1,1-1.4c0.5-0.7,1-1.4,1.4-2.2c25.5-43.9,50.8-87.7,76-131.6l0,0
	c0.1-0.3,0.3-0.5,0.4-0.8c0.1-0.1,0.1-0.2,0.2-0.3c0.1-0.2,0.2-0.3,0.4-0.5c0.1-0.1,0.2-0.2,0.3-0.3c0.1-0.1,0.3-0.3,0.4-0.4
	c0.1-0.1,0.2-0.2,0.3-0.2c0.1-0.1,0.3-0.2,0.4-0.3s0.2-0.1,0.4-0.2c0.2-0.1,0.3-0.2,0.5-0.2c0.1-0.1,0.3-0.1,0.4-0.1
	c0.2-0.1,0.3-0.1,0.5-0.2c0.1,0,0.3-0.1,0.4-0.1c0.2,0,0.3-0.1,0.5-0.1c0.1,0,0.3,0,0.4,0s0.3,0,0.4,0s0.1,0,0.2,0
	c1.8-0.1,3.5-0.3,5.1-0.7s3.2-0.9,4.7-1.6c0.4-0.2,0.7-0.4,1.1-0.5c1.5-0.8,2.8-1.7,4.1-2.7s2.4-2.2,3.5-3.4c0.3-0.3,0.5-0.6,0.8-1
	c0.5-0.6,1-1.3,1.4-2s0.8-1.4,1.2-2.1C1563.7,522.9,1564.7,518.8,1564.5,514.4z M1527.7,533c0.3,0.2,0.7,0.4,1,0.6
	c-0.5,0.4-1,0.9-1.5,1.3C1527.4,534.3,1527.6,533.7,1527.7,533z M1470.6,705.5c2.1,0,5.7-0.5,8.8-3.7l1.1-0.5l1.9-3.3
	c5.6-9.9,11.3-19.9,17.1-30.1c-0.2,13.3-2.1,26.5-5.8,39.3v0.1v0.1c-8.1,29.1-24.5,54.9-47.4,74.6c-22.9,19.7-50.8,32.2-80.8,36
	c-0.5,0.1-1,0.1-1.5,0.2c-6.2,0.7-12.4,1.1-18.5,1.1c-74.3,0-137.5-53.6-150.5-126.1h63.3c11.8,38.1,45.1,63.3,86.2,64.7
	c0.9,0,1.9,0,2.8,0c34.4,0,66.9-22.2,81.9-52.6h18.2h23.2V705.5z M1448.4,670.6L1448.4,670.6L1448.4,670.6c-0.4,0.6-0.8,1.2-1.3,1.9
	c-0.3,0.4-0.5,0.8-0.8,1.2l-0.2,0.3l-0.2,0.4l-8.2,14.8l-6.2,11.2c3.1-7.4,5.1-15.2,6-23.2c0.3-3,0.5-6,0.7-8.8
	c0.1-1,0.1-1.9,0.2-2.9V665v-0.5c-0.6-20.4-7.8-40-20.4-55.9c10.7-18.4,21.4-37.1,32-55.6c9.8,9,18.3,19.3,25.4,30.6l2.6,4.1l4,6.4
	l7.4-1.4c1.7-0.3,3.7-1,5.6-2.5C1479.4,617,1463.8,643.9,1448.4,670.6z M1547,520.1c-0.3,0.5-0.6,1-1,1.5s-0.8,0.9-1.2,1.3
	c-0.9,0.8-1.9,1.4-3,1.8c-0.3,0.1-0.6,0.2-0.9,0.3c-0.6,0.2-1.2,0.3-1.8,0.3c-0.1,0-0.2,0-0.3,0c-0.1,0-0.2,0-0.4,0
	c-0.2,0-0.3,0-0.5,0s-0.3,0-0.5-0.1c-0.2,0-0.3,0-0.4-0.1c-0.2,0-0.3-0.1-0.5-0.1c-0.1,0-0.3-0.1-0.4-0.1c-0.2,0-0.3-0.1-0.5-0.2
	c-0.1,0-0.3-0.1-0.4-0.1c-0.2-0.1-0.3-0.1-0.4-0.2c-0.1-0.1-0.3-0.1-0.4-0.2c-0.1-0.1-0.3-0.2-0.4-0.2c-0.1-0.1-0.3-0.1-0.4-0.2
	c-0.1-0.1-0.3-0.2-0.4-0.3s-0.2-0.2-0.3-0.3c-0.1-0.1-0.2-0.2-0.4-0.3c-0.1-0.1-0.2-0.2-0.3-0.3c-0.1-0.1-0.2-0.2-0.3-0.4
	c-0.1-0.1-0.2-0.2-0.3-0.3c-0.1-0.1-0.2-0.3-0.3-0.4c-0.1-0.1-0.2-0.2-0.3-0.3c-0.1-0.1-0.2-0.3-0.3-0.4c-0.1-0.1-0.2-0.2-0.2-0.3
	c-0.1-0.1-0.2-0.3-0.2-0.5c-0.1-0.1-0.1-0.2-0.2-0.4s-0.1-0.3-0.2-0.5c0-0.1-0.1-0.2-0.1-0.4c-0.1-0.2-0.1-0.4-0.2-0.5
	c0-0.1-0.1-0.2-0.1-0.4s-0.1-0.4-0.1-0.6c0-0.1,0-0.2-0.1-0.3c0-0.3-0.1-0.6-0.1-0.9c0,0,0,0,0-0.1c0-0.3,0-0.5,0-0.8
	c0-1,0.2-1.9,0.5-2.8c0.4-1.2,1-2.3,1.8-3.2c0.2-0.2,0.4-0.5,0.6-0.7c0.4-0.4,0.9-0.8,1.4-1.2s1-0.6,1.6-0.9s1.3-0.5,1.9-0.6
	s1.1-0.2,1.7-0.2c1.7,0.1,3.3,0.6,4.6,1.4c0.8,0.5,1.6,1.1,2.2,1.8c0.6,0.7,1.2,1.5,1.6,2.3c0.1,0.3,0.3,0.6,0.4,0.9
	c0.1,0.4,0.2,0.7,0.3,1.1c0.2,0.9,0.3,1.8,0.3,2.8c0,0.3,0,0.6-0.1,0.9C1547.9,517.9,1547.5,519.1,1547,520.1z"/>
<path d="M1209.4,368.4c0,0,0.1-0.1,0.2-0.1C1209.5,368.4,1209.5,368.4,1209.4,368.4z"/>
<path d="M1209.2,368.6l0.1-0.1C1209.2,368.6,1209.2,368.6,1209.2,368.6z"/>
<path d="M1209.7,368.3c0.1,0,0.1,0,0.2-0.1C1209.9,368.2,1209.8,368.3,1209.7,368.3z"/>
<path d="M1210.1,368.2c0.1,0,0.1,0,0.2,0C1210.2,368.1,1210.2,368.1,1210.1,368.2z"/>
<path d="M1208.7,369.1l0.1-0.1C1208.8,369.1,1208.8,369.1,1208.7,369.1z"/>
<path d="M1208.6,369.4c0-0.1,0-0.1,0.1-0.1C1208.6,369.3,1208.6,369.4,1208.6,369.4z"/>
<path d="M1208.9,368.9l0.1-0.1C1209,368.8,1209,368.8,1208.9,368.9z"/>
<path d="M1210.5,368.1c0.1,0,0.1,0,0.2,0C1210.7,368,1210.6,368.1,1210.5,368.1z"/>
<path d="M1229.1,368c-1.8,0-3.5,0-5.3,0c0.7,0,1.4,0,2,0C1226.9,368,1228,368,1229.1,368z"/>
<path d="M1238.9,368c4.7,0,9.4,0,14.1,0C1248.3,368,1243.6,368,1238.9,368z"/>
<path d="M1211.5,368c0.1,0,0.2,0,0.3,0C1211.7,368,1211.6,368,1211.5,368z"/>
<path d="M1211,368c0.1,0,0.2,0,0.2,0S1211.1,368,1211,368z"/>
<path d="M1212.2,368c3.1,0,6.2,0.1,9.2,0.1C1218.4,368,1215.3,368,1212.2,368z"/>
<path d="M1208.3,370.2c0-0.1,0-0.1,0-0.2C1208.4,370.1,1208.4,370.1,1208.3,370.2z"/>
<path d="M1208.2,371.1c0-0.1,0-0.1,0-0.2C1208.2,370.9,1208.2,371,1208.2,371.1z"/>
<path d="M1208.2,371.6c0-0.1,0-0.1,0-0.2C1208.2,371.5,1208.2,371.5,1208.2,371.6z"/>
<path d="M1208.3,370.6c0-0.1,0-0.1,0-0.2C1208.3,370.5,1208.3,370.5,1208.3,370.6z"/>
<path d="M1208.4,369.8c0-0.1,0-0.1,0.1-0.2C1208.5,369.7,1208.5,369.7,1208.4,369.8z"/>
<path class="st7" d="M1209,451.1c15.7-27.4,31.6-54.9,47.8-82.8c-1.8-0.1-2.9-0.4-3.8-0.4c-4.7,0-9.4,0-14.1,0c-3.3,0-6.5,0-9.8,0
	c-1.1,0-2.2,0-3.3,0c-0.7,0-1.4,0-2,0c-0.8,0-1.5,0-2.3,0c-3.1,0-6.2,0-9.2-0.1c-0.1,0-0.2,0-0.3,0c-0.1,0-0.1,0-0.2,0s-0.2,0-0.3,0
	c-0.1,0-0.2,0-0.3,0c-0.1,0-0.2,0-0.2,0c-0.1,0-0.2,0-0.3,0c-0.1,0-0.1,0-0.2,0s-0.1,0-0.2,0s-0.1,0-0.2,0s-0.1,0-0.2,0.1
	c-0.1,0-0.1,0-0.2,0.1c-0.1,0-0.1,0.1-0.2,0.1s-0.1,0.1-0.2,0.1s-0.1,0.1-0.1,0.1l-0.1,0.1l-0.1,0.1l-0.1,0.1l-0.1,0.1l-0.1,0.1
	c0,0.1-0.1,0.1-0.1,0.2l-0.1,0.1c0,0.1,0,0.1-0.1,0.2c0,0.1,0,0.1-0.1,0.2c0,0.1,0,0.1-0.1,0.2c0,0.1,0,0.1,0,0.2s0,0.2,0,0.2
	c0,0.1,0,0.1,0,0.2s0,0.2,0,0.3c0,0.1,0,0.1,0,0.2s0,0.2,0,0.3c0,0.1,0,0.1,0,0.2c0,0.2,0,0.4,0,0.6c0,25.6,0,51.2,0,76.7
	C1208.2,449.6,1207.6,450.6,1209,451.1z M1219.2,379c2.1,0,4.3,0,6.6,0c4,0,8,0,12.1,0c-6.3,10.9-12.5,21.7-18.7,32.4V379z"/>
<g>
	
		<linearGradient id="SVGID_5_" gradientUnits="userSpaceOnUse" x1="1319.3695" y1="-44.7129" x2="1289.3495" y2="8.3673" gradientTransform="matrix(1 0 0 1 0 -14.4711)">
		<stop  offset="0" style="stop-color:#00CCFF"/>
		<stop  offset="0.26" style="stop-color:#1BA8F6"/>
		<stop  offset="0.58" style="stop-color:#3783ED"/>
		<stop  offset="0.84" style="stop-color:#486CE7"/>
		<stop  offset="1" style="stop-color:#4E64E5"/>
	</linearGradient>
	<path class="st8" d="M1340.3-64.4c-1.7,2.9-3.3,5.6-4.8,8.3l-5.3,9.1c-8.9,15.4-17.8,30.8-26.7,46.2c-1.4,2.4-2.9,4.9-4.2,7.4
		c-0.4,0.7-0.7,0.8-1.5,0.4c-3.2-1.9-7-2.9-10.8-2.8c-5.6,0.2-11.2,0-16.8,0c-0.3-0.4,0-0.7,0.2-0.9c6.9-12,13.9-24,20.8-36
		c9.5-16.5,19-33,28.5-49.4c0.4-0.6,0.4-1.5,0-2.1c-1.9-3.7-0.7-8.2,2.8-10.4c3.4-2.2,7.9-1.5,10.4,1.6c2.1,2.3,2.5,5.6,1.2,8.4
		c-1.1,2.8-3.8,4.7-6.8,4.8c-0.9,0-1.7,0.5-2.1,1.3c-2.4,4.3-4.9,8.6-7.4,12.9c-0.6,1-0.4,1.2,0.7,1.2c6.6,0,13.2,0,19.8,0H1340.3z
		 M1330-87.8c0-1.7-1.3-3.1-3-3.1s-3.1,1.3-3.1,3s1.3,3.1,3,3.2c0,0,0,0,0.1,0C1328.7-84.7,1330-86.1,1330-87.8
		C1330-87.7,1330-87.8,1330-87.8z"/>
	
		<linearGradient id="SVGID_6_" gradientUnits="userSpaceOnUse" x1="1299.2031" y1="-62.5556" x2="1242.2831" y2="0.4444" gradientTransform="matrix(1 0 0 1 0 -14.4711)">
		<stop  offset="0" style="stop-color:#00CCFF"/>
		<stop  offset="0.59" style="stop-color:#308BEF"/>
		<stop  offset="1" style="stop-color:#4E64E5"/>
	</linearGradient>
	<path class="st9" d="M1283.5-64.4c5.7,0,11.5,0,17.2,0c1.1,0,1.2,0.3,0.7,1.2c-4.4,7.5-8.9,15-13,22.6c-1.3,2.3-2.6,2.9-5.1,2.9
		c-8.2-0.2-16.4,0-24.7-0.1c-0.7-0.1-1.5,0.3-1.8,1c-2.5,4.5-5.1,9-7.7,13.4c-0.4,0.6-0.4,1.4,0,2c1.5,2.7,1.2,6-0.7,8.4
		c-1.7,2.7-5,3.9-8.1,3.1c-3.1-0.6-5.5-2.9-6.2-6c-1-4.3,1.7-8.6,6-9.6c0.5-0.1,1-0.2,1.6-0.2c0.7,0.1,1.4-0.3,1.7-1
		c7-12.2,14-24.4,21-36.5c0.4-0.8,1.2-1.3,2.1-1.2C1272.2-64.3,1277.8-64.4,1283.5-64.4z M1242.1-14.6c1.7,0,3-1.3,3-3
		c0.1-1.7-1.2-3-2.9-3.1c-0.1,0-0.2,0-0.3,0c-1.7,0-3,1.3-3,3v0.1c0,1.7,1.4,3,3,3C1242-14.6,1242.1-14.6,1242.1-14.6z"/>
	
		<linearGradient id="SVGID_7_" gradientUnits="userSpaceOnUse" x1="1335.0265" y1="4.6095" x2="1262.0764" y2="81.9095" gradientTransform="matrix(1 0 0 1 0 -14.4711)">
		<stop  offset="0" style="stop-color:#18ACF6"/>
		<stop  offset="0" style="stop-color:#18ACF6"/>
		<stop  offset="0.13" style="stop-color:#3783EC"/>
		<stop  offset="0.26" style="stop-color:#4D65E5"/>
		<stop  offset="0.36" style="stop-color:#5A53E1"/>
		<stop  offset="0.44" style="stop-color:#5F4DDF"/>
		<stop  offset="0.45" style="stop-color:#614ADE"/>
		<stop  offset="0.54" style="stop-color:#7036D9"/>
		<stop  offset="0.65" style="stop-color:#7B28D6"/>
		<stop  offset="0.78" style="stop-color:#8120D4"/>
		<stop  offset="1" style="stop-color:#831DD3"/>
	</linearGradient>
	<path class="st10" d="M1353.7-20.9c-1.6-4.2-6.4-6.2-10.5-4.6c-0.1,0-0.1,0-0.2,0.1c-4.1,1.7-6,6.4-4.2,10.5
		c0.1,0.2,0.2,0.3,0.2,0.5c0.4,0.6,0.4,1.5-0.1,2.1c-2.8,4.8-5.5,9.5-8.3,14.3c-0.2,0.3-0.2,0.8-0.7,0.9l-0.8-1.3
		c-3-4.7-6.7-8.9-11-12.4c-0.6-0.4-0.9-0.7-1.3,0.2c-4.1,7.2-8.3,14.5-12.5,21.7c-0.2,0.4-0.4,0.7,0,1.1c4.2,4.6,6.6,10.6,6.8,16.8
		c-0.1,1.2-0.1,2.4-0.3,3.6c-1.3,12.4-13.2,22.7-25.7,22.3c-11.7-0.4-21.4-7.7-24.3-19.3c-0.2-0.7-0.4-1-1.2-1c-8.2,0-16.4,0-24.5,0
		c-0.9,0-1,0.3-0.9,1.1c3.4,28.3,29.1,48.4,57.4,45c0.2,0,0.3,0,0.5-0.1c20.6-2.6,37.5-17.3,43.1-37.3c2.3-7.9,2.6-16.3,0.8-24.4
		c-3.7,6.5-7.2,12.7-10.7,18.8c-0.3,0.1-0.3,0.6-0.7,0.6h-7.3l2.6-4.6c0.3-0.4,0.5-0.8,0.7-1.1c8-13.8,16-27.6,23.9-41.3
		c0.3-0.7,1.1-1.2,1.9-1.2c4.4-0.1,7.9-3.8,7.7-8.3C1354.2-19.2,1354-20.1,1353.7-20.9z M1346.2-15c-1.7,0-3-1.3-3.1-2.9
		c0-0.1,0-0.2,0-0.3c0.1-1.6,1.4-2.9,3-3c1.7,0.1,3,1.5,3,3.2C1349-16.4,1347.8-15.1,1346.2-15z"/>
	<path class="st11" d="M1257.6-64.2c-5.1,8.8-10.1,17.4-15,26c-0.4-0.2-0.3-0.5-0.3-0.7c0-8,0-16.1,0-24.1c0-1,0.2-1.3,1.3-1.3
		c4.3,0.1,8.5,0,12.8,0C1256.6-64.4,1257-64.3,1257.6-64.2z"/>
</g>
<g>
	<path class="st12" d="M1152.1-57.9c2.2-3.8,4.2-7.3,6.2-10.8c0.5-1.1,1.6-1.8,2.9-1.6c0.8,0.1,1.7,0,2.5,0c0.5,0,1.2-0.2,1.5,0.4
		c0.3,0.5-0.2,1-0.5,1.5c-2.9,4.9-5.8,9.8-8.8,14.6c-0.7,1-1,2.2-1,3.4c0.1,2.5,0,5,0,7.4c0,1.1-0.4,1.6-1.5,1.6
		c-4.3,0.1-4.5,0.1-4.2-4.1c0.4-4.2-0.8-8.5-3.3-11.9c-2.4-3.5-4.5-7.4-6.7-11.1c-0.8-1.4-0.6-1.7,0.9-1.7c5.8,0.1,4.3-0.8,7.1,4
		c0.8,1.4,1.6,2.8,2.4,4.1C1150.3-60.8,1151.2-59.5,1152.1-57.9z"/>
	<path class="st11" d="M1081.9-70.4h1.8c0.5,0,1.1-0.1,1.4,0.4c0.3,0.5-0.3,0.9-0.5,1.3c-3,3.8-6,7.6-9.1,11.4
		c-0.6,0.5-0.6,1.3-0.2,1.9c0,0.1,0.1,0.1,0.2,0.2c3.2,3.9,6.3,7.9,9.4,11.9c0.3,0.4,0.9,0.8,0.6,1.4c-0.3,0.6-1,0.4-1.5,0.4
		c-6-0.1-4.2,0.9-8-4c-2.3-3-4.6-6.1-7-9.1c-0.8-0.8-0.8-2,0-2.8l0,0c3.1-3.9,6.1-7.9,9.1-11.9C1079.3-70.9,1080.8-70.3,1081.9-70.4
		z"/>
	<path class="st11" d="M1061.6-56.1v-12.5c0-1.7,0.2-1.9,1.9-1.9c0.7,0,1.4,0,2.1,0c1.8,0,1.9,0.2,1.9,2c0,4.1,0,8.3,0,12.4
		s0,8.4,0,12.7c0,1.3-0.4,1.8-1.7,1.8c-4.8-0.1-4.1,0.7-4.2-4.1C1061.6-49.2,1061.6-52.6,1061.6-56.1L1061.6-56.1z"/>
	
		<linearGradient id="SVGID_8_" gradientUnits="userSpaceOnUse" x1="1103.452" y1="-41.5104" x2="1121.9937" y2="-41.5104" gradientTransform="matrix(1 0 0 1 0 -14.4711)">
		<stop  offset="0" style="stop-color:#4250E9"/>
		<stop  offset="0.26" style="stop-color:#5142E4"/>
		<stop  offset="0.69" style="stop-color:#6332DE"/>
		<stop  offset="0.99" style="stop-color:#692CDC"/>
	</linearGradient>
	<path class="st13" d="M1122-45.3c-0.1,4.2,0.5,3.7-3.6,3.7c-4.4,0-8.8,0-13.2,0c-1.2,0-1.7-0.4-1.7-1.7c0.1-2.3,0-4.5,0.1-6.8
		c0-6.4,0-12.8-0.1-19.1c0-0.9,0.5-1.2,1.3-1.2l10.6,0.1c1.7,0,3.5,0,5.2,0c1,0,1.4,0.4,1.4,1.4c-0.1,4.6,0.7,3.9-3.9,4
		c-1.7,0-3.5,0-5.2,0h-0.1c-1.1,0.1-2.5-0.5-3.2,0.3c-0.7,0.8-0.2,2.3-0.3,3.4c0,0.8,0,1.6,0,2.3c2.1,0.4,4.2,0.1,6.3,0.2
		c1.2,0,2.5,0,3.7,0c0.9,0,1.3,0.3,1.2,1.2c0,0.9,0,1.7,0,2.6c0.1,1.1-0.4,1.5-1.4,1.5c-2.9,0-5.7,0-8.6,0c-1,0-1.4,0.2-1.3,1.3
		c0.1,1.3,0.1,2.6,0,3.9c-0.1,1.1,0.4,1.3,1.4,1.3c3.3-0.1,6.5,0,9.8,0C1121.7-47.1,1122.1-46.6,1122-45.3z"/>
</g>
<image style="overflow:visible;enable-background:new    ;" width="1500" height="846" xlink:href="../../../Pictures/3Key/01.png"  transform="matrix(0.75 0 0 0.75 -3.189 774.8199)">
</image>
</svg>
