<svg id="Layer_1" data-name="Layer 1" xmlns="http://www.w3.org/2000/svg" xmlns:xlink="http://www.w3.org/1999/xlink" viewBox="0 0 1120.9 750.8"><defs><style>.cls-1{fill:none;}.cls-2{fill:url(#linear-gradient);}.cls-3{fill:url(#linear-gradient-2);}.cls-4{fill:url(#linear-gradient-3);}.cls-5{fill:url(#linear-gradient-4);}.cls-6{fill:url(#linear-gradient-5);}.cls-7{fill:url(#linear-gradient-6);}.cls-8{fill:url(#linear-gradient-7);}.cls-9{fill:url(#linear-gradient-8);}.cls-10{fill:url(#linear-gradient-9);}.cls-11{fill:url(#linear-gradient-10);}.cls-12{fill:url(#linear-gradient-11);}.cls-13{fill:url(#linear-gradient-12);}.cls-14{fill:url(#linear-gradient-13);}.cls-15{fill:url(#linear-gradient-14);}.cls-16{fill:url(#linear-gradient-15);}.cls-17{fill:url(#linear-gradient-16);}.cls-18{fill:url(#linear-gradient-17);}.cls-19{fill:url(#linear-gradient-18);}.cls-20{fill:url(#linear-gradient-19);}.cls-21{fill:url(#linear-gradient-20);}.cls-22{fill:url(#linear-gradient-21);}.cls-23{fill:url(#linear-gradient-22);}.cls-24{fill:url(#linear-gradient-23);}.cls-25{fill:url(#linear-gradient-24);}.cls-26{fill:url(#linear-gradient-25);}.cls-27{fill:url(#linear-gradient-26);}.cls-28{fill:url(#linear-gradient-27);}.cls-29{fill:url(#linear-gradient-28);}.cls-30,.cls-31,.cls-32,.cls-33{stroke-miterlimit:10;stroke-width:2px;}.cls-30{stroke:url(#linear-gradient-29);}.cls-31{stroke:url(#linear-gradient-30);}.cls-32{stroke:url(#linear-gradient-31);}.cls-33{stroke:url(#linear-gradient-32);}.cls-34{fill:url(#linear-gradient-33);}.cls-35{fill:url(#linear-gradient-34);}.cls-36{fill:url(#linear-gradient-35);}.cls-37{fill:url(#linear-gradient-36);}.cls-38{fill:url(#linear-gradient-37);}.cls-39{fill:url(#linear-gradient-38);}.cls-40{fill:url(#linear-gradient-39);}.cls-41{fill:url(#linear-gradient-40);}.cls-42{fill:url(#linear-gradient-41);}.cls-43{fill:#318bee;}.cls-44{fill:url(#linear-gradient-42);}.cls-45{fill:url(#linear-gradient-43);}.cls-46{fill:url(#linear-gradient-44);}.cls-47{fill:url(#linear-gradient-45);}.cls-48{fill:url(#linear-gradient-46);}.cls-49{fill:url(#linear-gradient-47);}.cls-50{fill:url(#linear-gradient-48);}.cls-51{fill:url(#linear-gradient-49);}.cls-52{fill:url(#linear-gradient-50);}.cls-53{fill:url(#linear-gradient-51);}.cls-54{fill:url(#linear-gradient-52);}.cls-55{fill:url(#linear-gradient-53);}.cls-56{fill:url(#linear-gradient-54);}.cls-57{fill:url(#linear-gradient-55);}.cls-58{fill:url(#linear-gradient-56);}.cls-59{fill:url(#linear-gradient-57);}.cls-60{fill:url(#linear-gradient-58);}.cls-61{fill:url(#linear-gradient-59);}.cls-62{fill:url(#linear-gradient-60);}.cls-63{fill:url(#linear-gradient-61);}.cls-64{fill:url(#linear-gradient-62);}.cls-65{fill:url(#linear-gradient-63);}.cls-66{fill:url(#linear-gradient-64);}.cls-67{fill:url(#linear-gradient-65);}.cls-68{fill:url(#linear-gradient-66);}.cls-69{fill:url(#linear-gradient-67);}.cls-70{fill:url(#linear-gradient-68);}.cls-71{fill:url(#linear-gradient-69);}.cls-72{fill:url(#linear-gradient-70);}</style><linearGradient id="linear-gradient" x1="1075.74" y1="357.72" x2="857.84" y2="588.61" gradientTransform="translate(0 -14.47)" gradientUnits="userSpaceOnUse"><stop offset="0" stop-color="#18acf6"/><stop offset="0.13" stop-color="#3783ec"/><stop offset="0.26" stop-color="#4d65e5"/><stop offset="0.36" stop-color="#5a53e1"/><stop offset="0.44" stop-color="#5f4ddf"/><stop offset="0.45" stop-color="#614ade"/><stop offset="0.54" stop-color="#7036d9"/><stop offset="0.65" stop-color="#7b28d6"/><stop offset="0.78" stop-color="#8120d4"/><stop offset="1" stop-color="#831dd3"/></linearGradient><linearGradient id="linear-gradient-2" x1="1059.04" y1="330.85" x2="826.74" y2="577" xlink:href="#linear-gradient"/><linearGradient id="linear-gradient-3" x1="1058.88" y1="353.12" x2="807.87" y2="619.1" xlink:href="#linear-gradient"/><linearGradient id="linear-gradient-4" x1="1055.73" y1="353.96" x2="795.21" y2="630.02" xlink:href="#linear-gradient"/><linearGradient id="linear-gradient-5" x1="1061.53" y1="353.24" x2="816.48" y2="612.9" xlink:href="#linear-gradient"/><linearGradient id="linear-gradient-6" x1="1065.99" y1="348.46" x2="843.94" y2="583.75" xlink:href="#linear-gradient"/><linearGradient id="linear-gradient-7" x1="1076.67" y1="359.05" x2="856.53" y2="592.31" xlink:href="#linear-gradient"/><linearGradient id="linear-gradient-8" x1="1076.89" y1="359.47" x2="855.76" y2="593.79" xlink:href="#linear-gradient"/><linearGradient id="linear-gradient-9" x1="1076.45" y1="347.25" x2="844.09" y2="593.47" xlink:href="#linear-gradient"/><linearGradient id="linear-gradient-10" x1="1059.97" y1="347.73" x2="820.58" y2="601.39" xlink:href="#linear-gradient"/><linearGradient id="linear-gradient-11" x1="1054.81" y1="349.47" x2="793.96" y2="625.88" xlink:href="#linear-gradient"/><linearGradient id="linear-gradient-12" x1="1070.69" y1="342.03" x2="837.71" y2="588.9" xlink:href="#linear-gradient"/><linearGradient id="linear-gradient-13" x1="1086.63" y1="356.81" x2="854.36" y2="602.93" xlink:href="#linear-gradient"/><linearGradient id="linear-gradient-14" x1="1060.21" y1="331.96" x2="827.89" y2="578.14" xlink:href="#linear-gradient"/><linearGradient id="linear-gradient-15" x1="1054.27" y1="329.57" x2="848.89" y2="547.2" xlink:href="#linear-gradient"/><linearGradient id="linear-gradient-16" x1="1062.43" y1="334.08" x2="830.05" y2="580.31" xlink:href="#linear-gradient"/><linearGradient id="linear-gradient-17" x1="1061.18" y1="332.89" x2="828.83" y2="579.09" xlink:href="#linear-gradient"/><linearGradient id="linear-gradient-18" x1="1050.69" y1="356.45" x2="772.24" y2="651.5" xlink:href="#linear-gradient"/><linearGradient id="linear-gradient-19" x1="1057.9" y1="329.76" x2="825.62" y2="575.89" xlink:href="#linear-gradient"/><linearGradient id="linear-gradient-20" x1="1056.88" y1="328.79" x2="824.62" y2="574.89" xlink:href="#linear-gradient"/><linearGradient id="linear-gradient-21" x1="1071.22" y1="324.06" x2="919.35" y2="484.98" xlink:href="#linear-gradient"/><linearGradient id="linear-gradient-22" x1="960.57" y1="446.58" x2="429.98" y2="1008.81" xlink:href="#linear-gradient"/><linearGradient id="linear-gradient-23" x1="1089.79" y1="307.03" x2="1022.91" y2="377.89" xlink:href="#linear-gradient"/><linearGradient id="linear-gradient-24" x1="1039.87" y1="365.32" x2="714.39" y2="710.2" xlink:href="#linear-gradient"/><linearGradient id="linear-gradient-25" x1="1056.19" y1="330.01" x2="854.31" y2="543.92" xlink:href="#linear-gradient"/><linearGradient id="linear-gradient-26" x1="1058.29" y1="330.08" x2="861.26" y2="538.86" xlink:href="#linear-gradient"/><linearGradient id="linear-gradient-27" x1="1064.72" y1="328.32" x2="887.19" y2="516.44" xlink:href="#linear-gradient"/><linearGradient id="linear-gradient-28" x1="1061.02" y1="329.76" x2="871.23" y2="530.86" xlink:href="#linear-gradient"/><linearGradient id="linear-gradient-29" x1="519.68" y1="325.07" x2="519.68" y2="655.59" gradientTransform="matrix(1, 0, 0, -1, 0, 752)" gradientUnits="userSpaceOnUse"><stop offset="0" stop-color="#f92aff"/><stop offset="0.09" stop-color="#ee31ff"/><stop offset="0.24" stop-color="#d243ff"/><stop offset="0.44" stop-color="#a461ff"/><stop offset="0.67" stop-color="#648bff"/><stop offset="0.94" stop-color="#13c0ff"/><stop offset="1" stop-color="#0cf"/></linearGradient><linearGradient id="linear-gradient-30" x1="400.3" y1="378.76" x2="400.3" y2="555.28" xlink:href="#linear-gradient-29"/><linearGradient id="linear-gradient-31" x1="484.46" y1="90.75" x2="484.46" y2="433.22" xlink:href="#linear-gradient-29"/><linearGradient id="linear-gradient-32" x1="317.9" y1="239.57" x2="369.3" y2="239.57" gradientTransform="matrix(1, 0, 0, 1, 0, 0)" xlink:href="#linear-gradient-29"/><linearGradient id="linear-gradient-33" x1="564.73" y1="228.52" x2="469.22" y2="397.4" gradientTransform="translate(0 -14.47)" gradientUnits="userSpaceOnUse"><stop offset="0" stop-color="#0cf"/><stop offset="0.26" stop-color="#1ba8f6"/><stop offset="0.58" stop-color="#3783ed"/><stop offset="0.84" stop-color="#486ce7"/><stop offset="1" stop-color="#4e64e5"/></linearGradient><linearGradient id="linear-gradient-34" x1="500.53" y1="171.72" x2="319.37" y2="372.23" gradientTransform="translate(0 -14.47)" gradientUnits="userSpaceOnUse"><stop offset="0" stop-color="#0cf"/><stop offset="0.59" stop-color="#308bef"/><stop offset="1" stop-color="#4e64e5"/></linearGradient><linearGradient id="linear-gradient-35" x1="768.78" y1="617.56" x2="750.92" y2="636.47" xlink:href="#linear-gradient"/><linearGradient id="linear-gradient-36" x1="841.38" y1="545.88" x2="758.41" y2="633.8" xlink:href="#linear-gradient"/><linearGradient id="linear-gradient-37" x1="880.77" y1="509.39" x2="763.56" y2="633.59" xlink:href="#linear-gradient"/><linearGradient id="linear-gradient-38" x1="905.81" y1="488.09" x2="767.69" y2="634.45" xlink:href="#linear-gradient"/><linearGradient id="linear-gradient-39" x1="933.31" y1="437.94" x2="760.02" y2="621.56" xlink:href="#linear-gradient"/><linearGradient id="linear-gradient-40" x1="923.45" y1="474.62" x2="771.3" y2="635.84" xlink:href="#linear-gradient"/><linearGradient id="linear-gradient-41" x1="615.18" y1="385.91" x2="383" y2="631.93" xlink:href="#linear-gradient"/><linearGradient id="linear-gradient-42" x1="162.2" y1="390.22" x2="162.2" y2="414.12" gradientTransform="matrix(1, 0, 0, 1, 0, 0)" xlink:href="#linear-gradient"/><linearGradient id="linear-gradient-43" x1="187.11" y1="390.22" x2="187.11" y2="414.12" gradientTransform="matrix(1, 0, 0, 1, 0, 0)" xlink:href="#linear-gradient"/><linearGradient id="linear-gradient-44" x1="211.24" y1="390.79" x2="211.24" y2="413.55" gradientTransform="matrix(1, 0, 0, 1, 0, 0)" xlink:href="#linear-gradient"/><linearGradient id="linear-gradient-45" x1="229.53" y1="390.79" x2="229.53" y2="414.12" gradientTransform="matrix(1, 0, 0, 1, 0, 0)" xlink:href="#linear-gradient"/><linearGradient id="linear-gradient-46" x1="248.53" y1="390.79" x2="248.53" y2="413.55" gradientTransform="matrix(1, 0, 0, 1, 0, 0)" xlink:href="#linear-gradient"/><linearGradient id="linear-gradient-47" x1="261.07" y1="390.79" x2="261.07" y2="413.55" gradientTransform="matrix(1, 0, 0, 1, 0, 0)" xlink:href="#linear-gradient"/><linearGradient id="linear-gradient-48" x1="281.13" y1="390.22" x2="281.13" y2="414.12" gradientTransform="matrix(1, 0, 0, 1, 0, 0)" xlink:href="#linear-gradient"/><linearGradient id="linear-gradient-49" x1="309.51" y1="390.79" x2="309.51" y2="413.55" gradientTransform="matrix(1, 0, 0, 1, 0, 0)" xlink:href="#linear-gradient"/><linearGradient id="linear-gradient-50" x1="331.59" y1="390.22" x2="331.59" y2="414.12" gradientTransform="matrix(1, 0, 0, 1, 0, 0)" xlink:href="#linear-gradient"/><linearGradient id="linear-gradient-51" x1="645.87" y1="91.13" x2="645.87" y2="113.88" gradientTransform="matrix(1, 0, 0, 1, 0, 0)" xlink:href="#linear-gradient"/><linearGradient id="linear-gradient-52" x1="669.72" y1="91.13" x2="669.72" y2="113.88" gradientTransform="matrix(1, 0, 0, 1, 0, 0)" xlink:href="#linear-gradient"/><linearGradient id="linear-gradient-53" x1="689.81" y1="91.13" x2="689.81" y2="113.88" gradientTransform="matrix(1, 0, 0, 1, 0, 0)" xlink:href="#linear-gradient"/><linearGradient id="linear-gradient-54" x1="710.85" y1="91.13" x2="710.85" y2="113.88" gradientTransform="matrix(1, 0, 0, 1, 0, 0)" xlink:href="#linear-gradient"/><linearGradient id="linear-gradient-55" x1="735.2" y1="90.55" x2="735.2" y2="114.45" gradientTransform="matrix(1, 0, 0, 1, 0, 0)" xlink:href="#linear-gradient"/><linearGradient id="linear-gradient-56" x1="763.58" y1="91.13" x2="763.58" y2="113.88" gradientTransform="matrix(1, 0, 0, 1, 0, 0)" xlink:href="#linear-gradient"/><linearGradient id="linear-gradient-57" x1="791.01" y1="90.55" x2="791.01" y2="114.45" gradientTransform="matrix(1, 0, 0, 1, 0, 0)" xlink:href="#linear-gradient"/><linearGradient id="linear-gradient-58" x1="817.05" y1="91.13" x2="817.05" y2="113.88" gradientTransform="matrix(1, 0, 0, 1, 0, 0)" xlink:href="#linear-gradient"/><linearGradient id="linear-gradient-59" x1="700.64" y1="310.13" x2="700.64" y2="332.88" gradientTransform="matrix(1, 0, 0, 1, 0, 0)" xlink:href="#linear-gradient"/><linearGradient id="linear-gradient-60" x1="720.14" y1="310.13" x2="720.14" y2="332.88" gradientTransform="matrix(1, 0, 0, 1, 0, 0)" xlink:href="#linear-gradient"/><linearGradient id="linear-gradient-61" x1="740.33" y1="310.13" x2="740.33" y2="332.88" gradientTransform="matrix(1, 0, 0, 1, 0, 0)" xlink:href="#linear-gradient"/><linearGradient id="linear-gradient-62" x1="759.01" y1="310.13" x2="759.01" y2="332.88" gradientTransform="matrix(1, 0, 0, 1, 0, 0)" xlink:href="#linear-gradient"/><linearGradient id="linear-gradient-63" x1="781.89" y1="309.55" x2="781.89" y2="333.45" gradientTransform="matrix(1, 0, 0, 1, 0, 0)" xlink:href="#linear-gradient"/><linearGradient id="linear-gradient-64" x1="808.51" y1="310.13" x2="808.51" y2="332.88" gradientTransform="matrix(1, 0, 0, 1, 0, 0)" xlink:href="#linear-gradient"/><linearGradient id="linear-gradient-65" x1="833.96" y1="310.13" x2="833.96" y2="332.88" gradientTransform="matrix(1, 0, 0, 1, 0, 0)" xlink:href="#linear-gradient"/><linearGradient id="linear-gradient-66" x1="863.4" y1="310.13" x2="863.4" y2="332.88" gradientTransform="matrix(1, 0, 0, 1, 0, 0)" xlink:href="#linear-gradient"/><linearGradient id="linear-gradient-67" x1="889.96" y1="310.13" x2="889.96" y2="332.88" gradientTransform="matrix(1, 0, 0, 1, 0, 0)" xlink:href="#linear-gradient"/><linearGradient id="linear-gradient-68" x1="917.39" y1="309.55" x2="917.39" y2="333.45" gradientTransform="matrix(1, 0, 0, 1, 0, 0)" xlink:href="#linear-gradient"/><linearGradient id="linear-gradient-69" x1="941.22" y1="310.13" x2="941.22" y2="332.88" gradientTransform="matrix(1, 0, 0, 1, 0, 0)" xlink:href="#linear-gradient"/><linearGradient id="linear-gradient-70" x1="958.7" y1="309.55" x2="958.7" y2="333.45" gradientTransform="matrix(1, 0, 0, 1, 0, 0)" xlink:href="#linear-gradient"/></defs><title>3Key logo FINAL</title><path class="cls-1" d="M1110.71,293.86c-.12-.29-.25-.58-.4-.86a10,10,0,0,0-1-1.59A9.24,9.24,0,0,0,1108,290a10.11,10.11,0,0,0-2.36-1.57,10.28,10.28,0,0,0-3.78-1,10.1,10.1,0,0,0-4.41,1.33,10.48,10.48,0,0,0-2.16,1.65c-.21.22-.41.44-.61.67a10.16,10.16,0,0,0-2.37,5.89v1a9.84,9.84,0,0,0,2.4,5.86,9.72,9.72,0,0,0,4.58,2.95,10.14,10.14,0,0,0,2.89.41,9.52,9.52,0,0,0,5.08-1.82,9.14,9.14,0,0,0,1.33-1.16,10.45,10.45,0,0,0,2.83-6.56,10.72,10.72,0,0,0-.19-2A11.27,11.27,0,0,0,1110.71,293.86Z"/><path class="cls-2" d="M1096.78,321.69a20.78,20.78,0,0,1-2.16.81A20.78,20.78,0,0,0,1096.78,321.69Z"/><path class="cls-3" d="M1099.78,272.18c.67-.05,1.35-.08,2-.09C1101.13,272.1,1100.46,272.13,1099.78,272.18Z"/><path class="cls-4" d="M1108.54,284.85c.27.5.52,1,.75,1.56C1109.06,285.88,1108.81,285.35,1108.54,284.85Z"/><path class="cls-5" d="M1107.67,283.34c.28.45.54.91.8,1.38C1108.21,284.25,1108,283.79,1107.67,283.34Z"/><path class="cls-6" d="M1109.46,286.8c.24.54.46,1.09.66,1.66C1109.92,287.89,1109.7,287.34,1109.46,286.8Z"/><path class="cls-7" d="M1094.11,304.25a8.35,8.35,0,0,1-1.22,1.16A8.35,8.35,0,0,0,1094.11,304.25Z"/><path class="cls-8" d="M1100.8,319.43c-.63.44-1.28.86-2,1.24C1099.52,320.29,1100.17,319.87,1100.8,319.43Z"/><path class="cls-9" d="M1102.62,318c-.59.51-1.19,1-1.82,1.44C1101.43,319,1102,318.5,1102.62,318Z"/><path class="cls-10" d="M1102.2,307.23h0a10.14,10.14,0,0,1-2.89-.41A10.14,10.14,0,0,0,1102.2,307.23Z"/><path class="cls-11" d="M1096,293.86a12.27,12.27,0,0,1,.5,1.85A12.27,12.27,0,0,0,1096,293.86Z"/><path class="cls-12" d="M1094.74,291.41a10.35,10.35,0,0,1,.93,1.59A10.35,10.35,0,0,0,1094.74,291.41Z"/><path class="cls-13" d="M1105.66,288.47A10.11,10.11,0,0,1,1108,290,10.11,10.11,0,0,0,1105.66,288.47Z"/><path class="cls-14" d="M1100.06,324.07a6.83,6.83,0,0,1,2.78-.62,25.27,25.27,0,0,0,6.32-.95,25.27,25.27,0,0,1-6.32.95A6.83,6.83,0,0,0,1100.06,324.07Z"/><path class="cls-15" d="M1102.19,272.09c.56,0,1.11,0,1.67.07C1103.3,272.11,1102.75,272.1,1102.19,272.09Z"/><path class="cls-16" d="M1093.34,272.74c.48.12,1,.26,1.42.41C1094.29,273,1093.82,272.86,1093.34,272.74Z"/><path class="cls-17" d="M1106,272.4c.56.09,1.11.19,1.66.31C1107.11,272.59,1106.56,272.49,1106,272.4Z"/><path class="cls-18" d="M1103.9,272.16c.57,0,1.14.11,1.7.19C1105,272.27,1104.47,272.2,1103.9,272.16Z"/><path class="cls-19" d="M1106.52,281.63c.32.45.64.91.94,1.38C1107.16,282.54,1106.84,282.08,1106.52,281.63Z"/><path class="cls-20" d="M1097.39,272.5c.68-.12,1.37-.22,2-.28C1098.76,272.28,1098.07,272.38,1097.39,272.5Z"/><path class="cls-21" d="M1095,273.05c.69-.2,1.39-.36,2.09-.49C1096.4,272.69,1095.7,272.85,1095,273.05Z"/><path class="cls-22" d="M1101.36,276.5c.42.31.84.64,1.25,1C1102.2,277.14,1101.78,276.81,1101.36,276.5Z"/><path class="cls-23" d="M1104.1,278.84c.38.38.75.78,1.11,1.18C1104.85,279.62,1104.48,279.22,1104.1,278.84Z"/><path class="cls-24" d="M1102.85,277.69c.35.3.7.62,1,.95C1103.55,278.31,1103.2,278,1102.85,277.69Z"/><path class="cls-25" d="M1105.44,280.29c.32.38.63.76.93,1.16C1106.07,281.05,1105.76,280.67,1105.44,280.29Z"/><path class="cls-26" d="M1095.1,273.26c.5.16,1,.34,1.46.54C1096.08,273.6,1095.6,273.42,1095.1,273.26Z"/><path class="cls-27" d="M1096.75,273.88c.43.19.86.39,1.28.6C1097.61,274.27,1097.18,274.07,1096.75,273.88Z"/><path class="cls-28" d="M1099.93,275.54c.39.25.78.51,1.16.78C1100.71,276.05,1100.32,275.79,1099.93,275.54Z"/><path class="cls-29" d="M1098.34,274.63c.46.24.92.5,1.36.77C1099.26,275.13,1098.8,274.87,1098.34,274.63Z"/><path class="cls-30" d="M631,197.86c-5.4,9.4-10.3,17.9-15.3,26.5l-16.8,29.1q-42.45,73.5-85,147c-4.5,7.8-9.1,15.5-13.5,23.4-1.3,2.4-2.3,2.6-4.6,1.2a62.39,62.39,0,0,0-34.3-8.8c-17.8.6-35.7,0-53.4,0-1.1-1.3,0-2.1.5-2.8q33.15-57.3,66.2-114.6,45.45-78.75,90.9-157.4a6.24,6.24,0,0,0,0-6.7,25.59,25.59,0,0,1,9-33.2,25.11,25.11,0,0,1,33.3,5.1,24.28,24.28,0,0,1,3.9,26.7,23.61,23.61,0,0,1-21.7,15.2,7.07,7.07,0,0,0-6.7,4.3c-7.7,13.8-15.6,27.4-23.6,41-1.8,3.2-1.3,3.8,2.2,3.8h63.2Zm-32.8-74.5a9.75,9.75,0,1,0-19.5-.3,9.91,9.91,0,0,0,9.6,10.1h.2a9.58,9.58,0,0,0,9.6-9.5C598.22,123.46,598.22,123.46,598.22,123.36Z"/><path class="cls-31" d="M450.12,197.86h54.8c3.6,0,3.8.8,2.1,3.8-14,23.9-28.3,47.8-41.4,71.8-4,7.3-8.3,9.2-16.2,9.1-26.2-.5-52.3,0-78.5-.3a5.38,5.38,0,0,0-5.6,3.2q-12,21.6-24.6,42.8a5.74,5.74,0,0,0,0,6.4,24.44,24.44,0,0,1-2.2,26.9,23.53,23.53,0,0,1-25.7,9.9,24.44,24.44,0,0,1-19.6-19.1,25.48,25.48,0,0,1,18.9-30.6,27.38,27.38,0,0,1,5-.7,5.38,5.38,0,0,0,5.4-3.2q33.45-58.2,67-116.4a6.44,6.44,0,0,1,6.6-3.7C414.12,198.06,432.12,197.86,450.12,197.86Zm-131.8,158.4a9.6,9.6,0,0,0,9.6-9.6,9.44,9.44,0,0,0-9.2-9.8h-.8a9.58,9.58,0,0,0-9.6,9.5v.4a9.52,9.52,0,0,0,9.7,9.4A.37.37,0,0,0,318.32,356.26Z"/><path class="cls-32" d="M673.72,336.26a26,26,0,0,0-33.6-14.7c-.2.1-.4.1-.5.2a25.5,25.5,0,0,0-13.5,33.4,11.94,11.94,0,0,0,.8,1.6,6.06,6.06,0,0,1-.2,6.7c-8.8,15.2-17.5,30.3-26.3,45.5-.6,1-.7,2.5-2.4,2.9l-2.6-4.1a163.32,163.32,0,0,0-35-39.6c-1.8-1.4-2.8-2.1-4.2.5-13.2,23-26.4,46.1-39.7,69-.7,1.2-1.1,2.1,0,3.4a82.64,82.64,0,0,1,21.6,53.6c-.3,3.8-.4,7.6-.8,11.3-4.1,39.6-42,72.3-81.7,71-37.1-1.3-68-24.6-77.3-61.6-.5-2.2-1.3-3.2-3.7-3.2h-78.1c-2.9,0-3.2,1-3,3.6a164.19,164.19,0,0,0,182.6,143.3c.5-.1,1.1-.1,1.6-.2A164.35,164.35,0,0,0,615,540.26a157,157,0,0,0,2.7-77.6c-11.8,20.7-23,40.3-34.1,59.9-.9.4-.9,1.9-2.2,1.9h-23.3l8.2-14.8c.8-1.2,1.7-2.4,2.4-3.6q38.25-65.85,76-131.6a6.45,6.45,0,0,1,6.1-3.8,25.47,25.47,0,0,0,24.6-26.3A31.58,31.58,0,0,0,673.72,336.26Zm-23.9,18.9a9.52,9.52,0,0,1-9.8-9.3v-.8a9.94,9.94,0,0,1,9.6-9.6,9.83,9.83,0,0,1,9.4,10.2A10,10,0,0,1,649.82,355.16Z"/><path class="cls-33" d="M367.62,198.26c-16.1,27.9-32,55.3-47.8,82.8-1.4-.5-.8-1.5-.8-2.3v-76.7c0-3.2.6-4.3,4-4.2,13.6.2,27.2,0,40.7,0C364.72,197.86,365.82,198.16,367.62,198.26Z"/><path class="cls-34" d="M570.46,144.1c-30.25,52.15-61,105.45-90.68,157-11,19.09-22.25,38.5-33.13,57.27-9.88,17-20.06,34.6-30.08,52l9.5.1c5.83.07,11.86.14,17.77.14,6.6,0,12.37-.09,17.64-.28.65,0,1.25,0,1.85,0A69.71,69.71,0,0,1,497,418.91c3.23-6.05,6.75-12.06,10.17-17.88.78-1.32,1.55-2.64,2.31-3.94l79.65-137.65,5.37-9.28,16.86-28.91c3.35-6,6.84-12,10.5-18.25H562c-1.77,0-5.92,0-7.91-3.52s.07-7,1-8.52c7.79-13.39,15.84-27.23,23.44-40.83a12.87,12.87,0,0,1,11.4-7,18.88,18.88,0,0,0,16.68-11.81l.06-.15.07-.15a18.85,18.85,0,0,0-2.9-20.75l-.11-.12-.11-.13a19.28,19.28,0,0,0-15.09-7.13,19.81,19.81,0,0,0-10.81,3.2l0,0h0a19.78,19.78,0,0,0-7.08,25.77A11.74,11.74,0,0,1,570.46,144.1Zm18.59-36.29a15.18,15.18,0,0,1,15,15.31v.14h0a15.18,15.18,0,0,1-15,15.17h-.64a15.65,15.65,0,0,1-14.69-15.62A15.18,15.18,0,0,1,589.05,107.81Z"/><path class="cls-35" d="M314,365.54l.17,0,.16,0a19,19,0,0,0,4.74.61,17.63,17.63,0,0,0,15.07-8.09l.16-.25.18-.23a18.64,18.64,0,0,0,1.82-20.54,11.3,11.3,0,0,1,0-12c9.06-15.3,17-29.11,24.28-42.19a11,11,0,0,1,9.92-6.23c.35,0,.7,0,1,.05,5.29.07,10.88.09,17.57.09q8,0,15.92,0t15.86,0c11.63,0,20.58.09,29,.3,6.31,0,8.46-1.22,11.4-6.41,10.77-19.93,22.54-39.9,33.93-59.21q2.49-4.2,5-8.4H450.53c-6,0-12.16,0-18.08.07s-12,.07-18,.07c-6.76,0-12.71,0-18.17-.14H396l-.25,0h-.13c-.61,0-1,.64-1.08.84l-.07.15-.08.14c-22.26,38.43-44.87,77.79-66.74,115.85a10.64,10.64,0,0,1-9.6,6.2c-.32,0-.64,0-1-.05a21.63,21.63,0,0,0-3.65.51,20,20,0,0,0-15,24A19.42,19.42,0,0,0,314,365.54ZM303,346.08a14.84,14.84,0,0,1,15-15h1.27c8.49.5,14.77,7.27,14.38,15.46a14.85,14.85,0,0,1-15,14.84h-.64a15,15,0,0,1-15-15Z"/><path class="cls-36" d="M750.26,624l-1.34-1.25Z"/><path class="cls-37" d="M752.93,626.47c-.46-.41-.91-.81-1.36-1.23C752,625.66,752.47,626.06,752.93,626.47Z"/><path class="cls-38" d="M755.65,628.82l-1.38-1.18Z"/><path class="cls-39" d="M758.42,631.11,757,630Z"/><path class="cls-40" d="M747.64,621.55c-.44-.43-.88-.85-1.32-1.29C746.76,620.7,747.2,621.12,747.64,621.55Z"/><path class="cls-41" d="M761.24,633.33l-1.42-1.11Z"/><path class="cls-42" d="M650,325a20.15,20.15,0,0,0-6.81,1.17l-.06.06-1,.42a19.61,19.61,0,0,0-10.54,26,.41.41,0,0,0,.05.09,8.29,8.29,0,0,1,.87,2,11.27,11.27,0,0,1-1,11.61c-4.4,7.53-8.78,15.1-13,22.43s-8.76,15.1-13.22,22.74l0,0a1.22,1.22,0,0,1-.07.17,7.79,7.79,0,0,1-5.78,5.25l-3.73.75-2-3.24-2.52-4.09a160.32,160.32,0,0,0-31.45-36.12c-12.87,22.56-25.45,44.36-37.43,64.88a88.74,88.74,0,0,1,21.64,55.32v.31l0,.31c-.1,1.2-.17,2.4-.24,3.67a74.75,74.75,0,0,1-.74,8.06c-4.41,41.05-43.3,75.69-85,75.69-.81,0-1.62,0-2.42,0-40.18-1.37-72.36-26.67-82.27-64.56h-73.9A158.67,158.67,0,0,0,456.44,654.8a161.09,161.09,0,0,0,19.23-1.15l.32,0,.32-.16.92-.11a158.25,158.25,0,0,0,132.68-114.7v-.06a151.42,151.42,0,0,0,5-60.11q-2.19,3.87-4.37,7.69c-7.63,13.42-14.83,26.09-22.16,38.85l-1,1.8-.61.2a6.51,6.51,0,0,1-5.32,2.64h-32.6l4.6-8.13,8.28-14.63.18-.31.21-.28a21.33,21.33,0,0,0,1.17-1.83c.25-.41.5-.84.78-1.27,25-43,50.81-87.53,75.89-131a12.32,12.32,0,0,1,10.84-6.77,19.45,19.45,0,0,0,13.83-6.21,19.74,19.74,0,0,0,5.31-14.49l0-.4,0-.39a13.25,13.25,0,0,0-.95-6.13A20.35,20.35,0,0,0,650,325Zm14.92,20.32v.17a15.32,15.32,0,0,1-14.34,14.64h-.34a15.34,15.34,0,0,1-15.32-14.33v-1.64a15.68,15.68,0,0,1,14.66-14.64l.33,0,.33,0a15.64,15.64,0,0,1,14.69,15.62Z"/><path class="cls-43" d="M355.82,204.1l-7.45.06c-4.06,0-8.26.07-12.41.07s-7.83,0-11.26-.11v58.69c9.53-18.11,19.14-36.17,29.17-55.05Z"/><path class="cls-44" d="M169.88,393.89l-3.65,2.83q-1.92-2.36-3.91-2.35a2.62,2.62,0,0,0-1.58.45,1.31,1.31,0,0,0-.62,1,1.69,1.69,0,0,0,.44,1.09,33.19,33.19,0,0,0,3.61,2.92q2.82,2.07,3.42,2.61a9.27,9.27,0,0,1,2.12,2.55,5.65,5.65,0,0,1,.62,2.65,5.77,5.77,0,0,1-2.19,4.63,8.74,8.74,0,0,1-5.74,1.82,9.43,9.43,0,0,1-4.81-1.19,9.73,9.73,0,0,1-3.51-3.74l4.13-2.2q1.88,3,4.3,3a3.48,3.48,0,0,0,2.13-.65,1.89,1.89,0,0,0,.86-1.5,2.42,2.42,0,0,0-.65-1.55,17.83,17.83,0,0,0-2.87-2.37,27.31,27.31,0,0,1-5.46-4.68,5.47,5.47,0,0,1-1.23-3.28,5.08,5.08,0,0,1,2.05-4.06,7.66,7.66,0,0,1,5.06-1.7,8.76,8.76,0,0,1,3.68.79A13.24,13.24,0,0,1,169.88,393.89Z"/><path class="cls-45" d="M187.16,390.22a13.76,13.76,0,0,1,9.44,3.5,11,11,0,0,1,4,8.52,10.84,10.84,0,0,1-3.9,8.43,14.82,14.82,0,0,1-19.12-.09,11.07,11.07,0,0,1-3.86-8.42,10.72,10.72,0,0,1,1.8-6,12.63,12.63,0,0,1,4.93-4.34A14.76,14.76,0,0,1,187.16,390.22Zm0,4.24a8.67,8.67,0,0,0-6,2.2,7.16,7.16,0,0,0-2.45,5.58,7,7,0,0,0,3.08,6,9.14,9.14,0,0,0,5.49,1.72,8.55,8.55,0,0,0,6-2.23,7.08,7.08,0,0,0,2.47-5.49,7.15,7.15,0,0,0-2.48-5.5A8.68,8.68,0,0,0,187.11,394.46Z"/><path class="cls-46" d="M205.19,390.79h4.92v18.63h7.17v4.13H205.19Z"/><path class="cls-47" d="M220.78,390.79h4.94v14.72a6.82,6.82,0,0,0,.38,2.69,2.87,2.87,0,0,0,1.25,1.26,4.4,4.4,0,0,0,2.1.47,4.55,4.55,0,0,0,2.24-.53,2.92,2.92,0,0,0,1.3-1.33,8.83,8.83,0,0,0,.36-3.1V390.79h4.94v13.57a17.43,17.43,0,0,1-.44,4.76,6.48,6.48,0,0,1-1.68,2.57,7.7,7.7,0,0,1-2.86,1.83,10.75,10.75,0,0,1-3.76.6,10,10,0,0,1-4.89-1.14,6.91,6.91,0,0,1-3-2.84,13.36,13.36,0,0,1-.9-5.78Z"/><path class="cls-48" d="M241.38,390.79h14.29v4.27H251v18.49h-5V395.06h-4.59Z"/><path class="cls-49" d="M258.62,390.79h4.89v22.76h-4.89Z"/><path class="cls-50" d="M281.18,390.22a13.76,13.76,0,0,1,9.44,3.5,11,11,0,0,1,3.95,8.52,10.84,10.84,0,0,1-3.9,8.43,14.84,14.84,0,0,1-19.13-.09,11.09,11.09,0,0,1-3.85-8.42,10.72,10.72,0,0,1,1.8-6,12.63,12.63,0,0,1,4.93-4.34A14.76,14.76,0,0,1,281.18,390.22Zm-.05,4.24a8.69,8.69,0,0,0-6,2.2,7.16,7.16,0,0,0-2.44,5.58,7,7,0,0,0,3.08,6,9.12,9.12,0,0,0,5.49,1.72,8.55,8.55,0,0,0,6-2.23,7.08,7.08,0,0,0,2.47-5.49,7.15,7.15,0,0,0-2.48-5.5A8.68,8.68,0,0,0,281.13,394.46Z"/><path class="cls-51" d="M299.15,390.79h4.73l11.06,15v-15h4.92v22.76h-4.73l-11.05-14.93v14.93h-4.93Z"/><path class="cls-52" d="M339.27,393.89l-3.65,2.83q-1.92-2.36-3.91-2.35a2.62,2.62,0,0,0-1.58.45,1.31,1.31,0,0,0-.62,1,1.69,1.69,0,0,0,.44,1.09,33.19,33.19,0,0,0,3.61,2.92q2.82,2.07,3.42,2.61A9.45,9.45,0,0,1,339.1,405a6,6,0,0,1-1.58,7.28,8.69,8.69,0,0,1-5.73,1.82,9.49,9.49,0,0,1-4.82-1.19,9.88,9.88,0,0,1-3.51-3.74l4.14-2.2q1.88,3,4.3,3a3.48,3.48,0,0,0,2.13-.65,1.89,1.89,0,0,0,.86-1.5,2.42,2.42,0,0,0-.65-1.55,17.83,17.83,0,0,0-2.87-2.37,27.31,27.31,0,0,1-5.46-4.68,5.47,5.47,0,0,1-1.23-3.28,5.08,5.08,0,0,1,2.05-4.06,7.66,7.66,0,0,1,5.06-1.7,8.76,8.76,0,0,1,3.68.79A13.24,13.24,0,0,1,339.27,393.89Z"/><path class="cls-53" d="M643.38,91.13h5l9.94,22.75h-5.11l-2-4.69H640.63l-2.1,4.69h-5.12Zm2.53,6L642.44,105h6.92Z"/><path class="cls-54" d="M662,91.13h5.22a19.35,19.35,0,0,1,6.11.69,6.06,6.06,0,0,1,3,2.22,6.28,6.28,0,0,1,1.08,3.69,5.72,5.72,0,0,1-1.41,4,7.53,7.53,0,0,1-3.85,2.2,24.58,24.58,0,0,1-5.18.36v9.63H662ZM667,100h1.56a9.84,9.84,0,0,0,2.57-.23,2.25,2.25,0,0,0,1.13-.77,2.19,2.19,0,0,0-.74-3.22,7.45,7.45,0,0,0-3.13-.45H667Z"/><path class="cls-55" d="M682.13,91.13h5.22a19.35,19.35,0,0,1,6.11.69A6.06,6.06,0,0,1,696.41,94a6.28,6.28,0,0,1,1.08,3.69,5.72,5.72,0,0,1-1.41,4,7.53,7.53,0,0,1-3.85,2.2,24.65,24.65,0,0,1-5.18.36v9.63h-4.92Zm4.92,8.89h1.56a9.84,9.84,0,0,0,2.57-.23,2.25,2.25,0,0,0,1.13-.77,2.19,2.19,0,0,0-.74-3.22,7.45,7.45,0,0,0-3.13-.45h-1.39Z"/><path class="cls-56" d="M702.57,91.13h5.21a19.38,19.38,0,0,1,6.1.67A6,6,0,0,1,716.81,94a6.19,6.19,0,0,1,1.1,3.69,5.71,5.71,0,0,1-1.22,3.75,7.45,7.45,0,0,1-3.68,2.29l6.13,10.11h-5.38l-5.82-9.63h-.45v9.63h-4.92Zm4.92,8.89H709a6.77,6.77,0,0,0,3.24-.54,1.94,1.94,0,0,0,.88-1.8,2,2,0,0,0-.44-1.3,2.44,2.44,0,0,0-1.17-.79,10.09,10.09,0,0,0-2.7-.24h-1.35Z"/><path class="cls-57" d="M735.25,90.55a13.76,13.76,0,0,1,9.44,3.5,11,11,0,0,1,3.95,8.52,10.82,10.82,0,0,1-3.9,8.43,14.84,14.84,0,0,1-19.13-.09,11.07,11.07,0,0,1-3.85-8.41,10.68,10.68,0,0,1,1.8-6,12.48,12.48,0,0,1,4.93-4.34A14.64,14.64,0,0,1,735.25,90.55Zm0,4.24a8.76,8.76,0,0,0-6,2.2,7.17,7.17,0,0,0-2.44,5.58,7,7,0,0,0,3.08,6,9.12,9.12,0,0,0,5.49,1.72,8.55,8.55,0,0,0,6-2.23,7.08,7.08,0,0,0,2.47-5.49,7.17,7.17,0,0,0-2.48-5.5A8.68,8.68,0,0,0,735.2,94.79Z"/><path class="cls-58" d="M761.1,91.13h5L776,113.88h-5.11l-2-4.69H758.34l-2.1,4.69h-5.12Zm2.52,6L760.15,105h6.92Z"/><path class="cls-59" d="M803.53,95.13,800.09,98a11.34,11.34,0,0,0-7.9-3.26A9.12,9.12,0,0,0,785.94,97a7,7,0,0,0-2.53,5.49,7.33,7.33,0,0,0,1.12,4,7.65,7.65,0,0,0,3.18,2.78,10.24,10.24,0,0,0,4.56,1,10.52,10.52,0,0,0,3.92-.7,14.36,14.36,0,0,0,3.9-2.56l3.34,3.06A18.41,18.41,0,0,1,798,113.5a16.45,16.45,0,0,1-5.82,1,14.44,14.44,0,0,1-9.87-3.36,10.94,10.94,0,0,1-3.84-8.62,10.76,10.76,0,0,1,1.75-6,12.49,12.49,0,0,1,5-4.26,15.72,15.72,0,0,1,7-1.61,16.48,16.48,0,0,1,6.17,1.19A14.75,14.75,0,0,1,803.53,95.13Z"/><path class="cls-60" d="M807.75,91.13h5v8.58h8.63V91.13h5v22.75h-5v-10h-8.63v10h-5Z"/><path class="cls-61" d="M693,310.13h5.22a19.35,19.35,0,0,1,6.11.69,6,6,0,0,1,3,2.22,6.28,6.28,0,0,1,1.08,3.69,5.72,5.72,0,0,1-1.41,4,7.54,7.54,0,0,1-3.84,2.2,24.76,24.76,0,0,1-5.19.36v9.63H693Zm4.92,8.89h1.57a9.75,9.75,0,0,0,2.56-.23,2.32,2.32,0,0,0,1.14-.77,2.1,2.1,0,0,0,.41-1.3,2,2,0,0,0-1.16-1.92,7.42,7.42,0,0,0-3.13-.45h-1.39Z"/><path class="cls-62" d="M713.08,310.13H727.2v4.24H718v4.11h9.23v4.16H718v6h9.23v4.25H713.08Z"/><path class="cls-63" d="M732.05,310.13h5.21a19.49,19.49,0,0,1,6.11.67,6.07,6.07,0,0,1,2.92,2.24,6.2,6.2,0,0,1,1.11,3.69,5.72,5.72,0,0,1-1.23,3.75,7.45,7.45,0,0,1-3.68,2.29l6.13,10.11h-5.38l-5.82-9.63H737v9.63h-4.92ZM737,319h1.54a6.77,6.77,0,0,0,3.24-.54,1.94,1.94,0,0,0,.88-1.8,2,2,0,0,0-.44-1.3,2.44,2.44,0,0,0-1.17-.79,10.09,10.09,0,0,0-2.7-.24H737Z"/><path class="cls-64" d="M752.6,310.13h12.83v4.22h-7.95v4.13h7.95v4.16h-7.95v10.24H752.6Z"/><path class="cls-65" d="M781.94,309.55a13.76,13.76,0,0,1,9.44,3.5,11,11,0,0,1,4,8.52,10.82,10.82,0,0,1-3.9,8.43,14.84,14.84,0,0,1-19.13-.09,11,11,0,0,1-3.85-8.41,10.74,10.74,0,0,1,1.79-6,12.51,12.51,0,0,1,4.94-4.34A14.64,14.64,0,0,1,781.94,309.55Zm-.05,4.24a8.72,8.72,0,0,0-6,2.2,7.17,7.17,0,0,0-2.44,5.58,6.93,6.93,0,0,0,3.08,6,9.12,9.12,0,0,0,5.49,1.72,8.55,8.55,0,0,0,6-2.23,7.33,7.33,0,0,0,0-11A8.64,8.64,0,0,0,781.89,313.79Z"/><path class="cls-66" d="M800.23,310.13h5.22a19.46,19.46,0,0,1,6.1.67,6.07,6.07,0,0,1,2.92,2.24,6.2,6.2,0,0,1,1.11,3.69,5.72,5.72,0,0,1-1.23,3.75,7.45,7.45,0,0,1-3.68,2.29l6.13,10.11h-5.38l-5.82-9.63h-.45v9.63h-4.92Zm4.92,8.89h1.54a6.77,6.77,0,0,0,3.24-.54,1.94,1.94,0,0,0,.88-1.8,2,2,0,0,0-.44-1.3,2.44,2.44,0,0,0-1.17-.79,10.09,10.09,0,0,0-2.7-.24h-1.35Z"/><path class="cls-67" d="M823.21,310.13H828L834,326l6-15.87h4.8l4.33,22.75h-4.76l-2.77-14.37-5.49,14.37h-4.34l-5.44-14.37-2.84,14.37h-4.8Z"/><path class="cls-68" d="M860.92,310.13h5l10,22.75h-5.12l-2-4.69H858.17l-2.11,4.69H851Zm2.53,6L860,324h6.92Z"/><path class="cls-69" d="M879.61,310.13h4.72l11.06,15v-15h4.92v22.75h-4.73L884.53,318v14.93h-4.92Z"/><path class="cls-70" d="M929.91,314.13,926.47,317a11.32,11.32,0,0,0-7.9-3.26,9.09,9.09,0,0,0-6.24,2.23,7,7,0,0,0-2.54,5.49,7.33,7.33,0,0,0,1.12,4,7.65,7.65,0,0,0,3.18,2.78,10.25,10.25,0,0,0,4.57,1,10.5,10.5,0,0,0,3.91-.7,14.06,14.06,0,0,0,3.9-2.56l3.34,3.06a18.5,18.5,0,0,1-5.41,3.41,16.45,16.45,0,0,1-5.82.95,14.44,14.44,0,0,1-9.87-3.36,10.94,10.94,0,0,1-3.84-8.62,10.68,10.68,0,0,1,1.75-6.05,12.39,12.39,0,0,1,5-4.26,15.73,15.73,0,0,1,7-1.61,16.47,16.47,0,0,1,6.16,1.19A14.65,14.65,0,0,1,929.91,314.13Z"/><path class="cls-71" d="M934.17,310.13h14.11v4.24h-9.23v4.11h9.23v4.16h-9.23v6h9.23v4.25H934.17Z"/><path class="cls-72" d="M966.37,313.22l-3.65,2.83q-1.92-2.35-3.91-2.35a2.55,2.55,0,0,0-1.58.46,1.28,1.28,0,0,0-.62,1,1.65,1.65,0,0,0,.44,1.08,33,33,0,0,0,3.61,2.92c1.88,1.38,3,2.26,3.42,2.62a9.1,9.1,0,0,1,2.12,2.54,5.66,5.66,0,0,1,.63,2.65,5.78,5.78,0,0,1-2.2,4.63,8.68,8.68,0,0,1-5.74,1.82,9.33,9.33,0,0,1-4.81-1.19,9.73,9.73,0,0,1-3.51-3.74l4.13-2.2q1.88,3,4.3,3a3.48,3.48,0,0,0,2.13-.65,1.86,1.86,0,0,0,.86-1.5,2.44,2.44,0,0,0-.65-1.55,18,18,0,0,0-2.87-2.36A28,28,0,0,1,953,318.6a5.5,5.5,0,0,1-1.23-3.29,5.1,5.1,0,0,1,2.05-4.06,7.68,7.68,0,0,1,5.06-1.7,9,9,0,0,1,3.69.79A13.35,13.35,0,0,1,966.37,313.22Z"/></svg>